M48
; DRILL file {KiCad (6.0.7)} date Tue Mar 28 13:11:08 2023
; FORMAT={-:-/ absolute / inch / decimal}
; #@! TF.CreationDate,2023-03-28T13:11:08+02:00
; #@! TF.GenerationSoftware,Kicad,Pcbnew,(6.0.7)
; #@! TF.FileFunction,Plated,1,2,PTH
FMAT,2
INCH
; #@! TA.AperFunction,Plated,PTH,ViaDrill
T1C0.0118
; #@! TA.AperFunction,Plated,PTH,ViaDrill
T2C0.0157
; #@! TA.AperFunction,Plated,PTH,ComponentDrill
T3C0.0157
; #@! TA.AperFunction,Plated,PTH,ComponentDrill
T4C0.0197
; #@! TA.AperFunction,Plated,PTH,ComponentDrill
T5C0.0236
; #@! TA.AperFunction,Plated,PTH,ComponentDrill
T6C0.0350
; #@! TA.AperFunction,Plated,PTH,ComponentDrill
T7C0.0394
; #@! TA.AperFunction,Plated,PTH,ComponentDrill
T8C0.0492
; #@! TA.AperFunction,Plated,PTH,ComponentDrill
T9C0.0902
%
G90
G05
T1
X4.8091Y-2.7657
X4.9898Y-2.9227
X4.9921Y-2.765
X4.9984Y-2.7161
T2
X2.2205Y-3.5709
X2.2756Y-3.7323
X2.2865Y-5.1702
X2.3346Y-3.685
X2.3357Y-3.7924
X2.3465Y-4.1575
X2.3543Y-4.252
X2.4291Y-3.2106
X2.4567Y-3.2913
X2.4872Y-2.3986
X2.4921Y-4.8976
X2.498Y-3.3063
X2.502Y-4.3287
X2.5039Y-4.5236
X2.5157Y-3.6181
X2.5453Y-4.3811
X2.5591Y-3.5472
X2.563Y-3.7913
X2.5984Y-3.9705
X2.6063Y-4.128
X2.6313Y-3.3937
X2.6417Y-3.2165
X2.6634Y-3.3422
X2.6673Y-4.3594
X2.6713Y-4.0799
X2.6724Y-4.5228
X2.685Y-4.189
X2.7047Y-3.7441
X2.7854Y-4.0799
X2.8031Y-3.2402
X2.8031Y-3.3937
X2.8189Y-2.5591
X2.8228Y-3.9803
X2.8248Y-2.6713
X2.8661Y-3.7126
X2.8681Y-3.9213
X2.8681Y-4.4843
X2.8681Y-5.4705
X2.8681Y-5.7835
X2.876Y-3.7894
X2.9785Y-4.6258
X3.0197Y-4.6516
X3.0295Y-2.4626
X3.0354Y-3.3839
X3.0669Y-4.7096
X3.0827Y-3.6772
X3.0984Y-4.7362
X3.1299Y-4.7096
X3.1535Y-4.4213
X3.1535Y-5.7087
X3.1575Y-5.4677
X3.1614Y-4.4882
X3.1619Y-4.7326
X3.185Y-4.378
X3.185Y-5.4387
X3.1929Y-4.5276
X3.1938Y-4.7096
X3.2008Y-3.2748
X3.2008Y-3.4441
X3.2027Y-3.5015
X3.2028Y-3.1004
X3.2197Y-4.2827
X3.2244Y-4.3465
X3.2244Y-4.7638
X3.248Y-3.4434
X3.2527Y-3.7765
X3.2677Y-5.3307
X3.2756Y-5.063
X3.2856Y-3.5765
X3.2871Y-4.2759
X3.2953Y-3.2748
X3.3012Y-3.7776
X3.3142Y-3.445
X3.315Y-4.1161
X3.3504Y-4.8819
X3.3543Y-3.2748
X3.3563Y-2.8819
X3.4134Y-5.0669
X3.4173Y-4.6831
X3.4449Y-5.3524
X3.4759Y-4.5276
X3.4764Y-4.7096
X3.4764Y-5.5089
X3.4941Y-3.1496
X3.5079Y-4.563
X3.5083Y-4.7326
X3.5157Y-5.4803
X3.5295Y-3.4823
X3.537Y-3.7111
X3.5394Y-4.5945
X3.5403Y-4.7096
X3.5551Y-5.4646
X3.561Y-4.1594
X3.563Y-4.3602
X3.5709Y-4.626
X3.5719Y-4.733
X3.5777Y-3.7865
X3.5829Y-5.4367
X3.5945Y-3.2801
X3.5962Y-3.6065
X3.6024Y-4.6545
X3.6181Y-5.4134
X3.6277Y-3.6365
X3.6309Y-4.685
X3.6327Y-3.5365
X3.6594Y-3.2801
X3.6604Y-3.6737
X3.6614Y-3.4126
X3.6831Y-2.4783
X3.7244Y-3.9447
X3.7264Y-4.4921
X3.7376Y-2.9638
X3.752Y-2.1181
X3.752Y-2.3386
X3.775Y-3.0439
X3.7894Y-3.5425
X3.8169Y-3.2579
X3.8189Y-5.7057
X3.8297Y-5.066
X3.8524Y-4.5374
X3.8524Y-4.7126
X3.8543Y-3.8228
X3.8583Y-3.6831
X3.859Y-5.2522
X3.8602Y-3.9303
X3.8602Y-4.189
X3.8753Y-3.2684
X3.8878Y-5.2254
X3.8937Y-3.752
X3.8976Y-4.0669
X3.9164Y-5.257
X3.9252Y-5.7677
X3.9291Y-3.6378
X3.9291Y-3.9343
X3.9449Y-5.2254
X3.9567Y-3.3031
X3.9646Y-3.4783
X3.975Y-5.0577
X3.9752Y-3.6272
X3.9783Y-2.8346
X3.9961Y-5.5512
X4.0118Y-3.6594
X4.0168Y-5.0563
X4.0345Y-5.0939
X4.0379Y-5.5497
X4.0413Y-3.6004
X4.0522Y-5.1293
X4.061Y-4.0268
X4.0669Y-2.3268
X4.0669Y-5.1683
X4.0787Y-5.5512
X4.088Y-3.9795
X4.0886Y-2.5571
X4.0906Y-4.185
X4.0941Y-4.2247
X4.0945Y-5.1969
X4.0984Y-4.2638
X4.0984Y-4.3031
X4.1161Y-3.6
X4.1181Y-5.5551
X4.1281Y-4.8601
X4.1299Y-5.0344
X4.1327Y-3.458
X4.1398Y-3.4195
X4.1424Y-4.1923
X4.1526Y-3.3781
X4.1575Y-5.56
X4.1683Y-4.8858
X4.1751Y-4.1387
X4.1772Y-5.0344
X4.185Y-4.179
X4.1885Y-4.8104
X4.1909Y-4.3281
X4.2047Y-5.5777
X4.2072Y-4.9001
X4.2087Y-3.5945
X4.2204Y-5.0344
X4.2224Y-2.8878
X4.2275Y-4.8158
X4.2402Y-2.7815
X4.2545Y-3.4628
X4.2598Y-4.8976
X4.2638Y-5.0344
X4.2668Y-4.7976
X4.2776Y-3.3687
X4.2793Y-3.4293
X4.2874Y-4.622
X4.2953Y-2.7992
X4.2953Y-4.435
X4.2953Y-4.7677
X4.2979Y-4.9076
X4.3071Y-5.0344
X4.3238Y-4.7402
X4.3248Y-3.874
X4.3327Y-4.3248
X4.3366Y-4.939
X4.3509Y-5.0349
X4.3524Y-2.8575
X4.3583Y-3.2441
X4.3653Y-4.7283
X4.3701Y-4.9724
X4.3839Y-3.5976
X4.3976Y-4.7008
X4.4016Y-5.0315
X4.4055Y-3.0118
X4.4173Y-2.5866
X4.4232Y-3.9933
X4.4232Y-4.3329
X4.4469Y-2.4567
X4.4488Y-5.4252
X4.4586Y-5.0433
X4.4646Y-3.6457
X4.4655Y-4.7008
X4.4655Y-4.7441
X4.4655Y-4.7834
X4.4655Y-4.8883
X4.4655Y-4.9291
X4.4669Y-4.849
X4.4724Y-3.0709
X4.4882Y-4.0453
X4.4882Y-4.8159
X4.4916Y-5.4257
X4.4921Y-5.0679
X4.498Y-4.3281
X4.5039Y-3.0118
X4.5049Y-2.9589
X4.5236Y-3.6043
X4.5315Y-5.0945
X4.5315Y-5.4252
X4.5335Y-2.5512
X4.5354Y-2.5984
X4.5374Y-3.9331
X4.5374Y-4.122
X4.5413Y-3.7146
X4.561Y-4.5965
X4.5669Y-2.8327
X4.5699Y-5.4167
X4.5709Y-5.1151
X4.5807Y-3.7736
X4.5807Y-3.9882
X4.5846Y-3.46
X4.591Y-2.6619
X4.6004Y-4.3976
X4.6123Y-2.8732
X4.6339Y-3.5307
X4.6378Y-3.0797
X4.6417Y-3.0071
X4.6437Y-3.185
X4.6687Y-2.75
X4.6693Y-2.5827
X4.6752Y-3.4829
X4.7116Y-4.0709
X4.7165Y-5.2559
X4.7283Y-2.5965
X4.7402Y-4.0354
X4.7402Y-5.2165
X4.7677Y-3.2421
X4.768Y-4.0076
X4.7795Y-3.6063
X4.7972Y-4.0412
X4.8202Y-2.8473
X4.8209Y-2.9685
X4.8232Y-2.7031
X4.8248Y-2.9035
X4.8248Y-3.0217
X4.825Y-4.0039
X4.8266Y-4.3622
X4.8268Y-4.9094
X4.8346Y-2.8124
X4.8346Y-3.1299
X4.8406Y-4.5248
X4.8425Y-4.9803
X4.8543Y-4.0394
X4.8661Y-4.8701
X4.874Y-4.4913
X4.8898Y-3.015
X4.8917Y-2.6754
X4.8932Y-5.2997
X4.8937Y-4.9764
X4.8937Y-5.3602
X4.8996Y-3.2092
X4.9108Y-4.1758
X4.9134Y-4.4773
X4.9252Y-4.5709
X4.9331Y-2.6063
X4.9401Y-4.5066
X4.9439Y-4.1545
X4.9528Y-5.2087
X4.9685Y-3.2092
X4.9685Y-4.0975
X4.9724Y-4.4843
X4.9724Y-5.4449
X5.0003Y-5.4727
X5.0039Y-3.9173
X5.0118Y-4.126
X5.0118Y-4.4882
X5.0254Y-5.503
X5.0335Y-3.2092
X5.0394Y-4.9488
X5.0492Y-2.7657
X5.0571Y-2.3819
X5.065Y-4.0807
X5.0669Y-5.5039
X5.0886Y-3.5689
X5.1024Y-2.435
X5.1068Y-5.5044
X5.1083Y-2.9311
X5.1181Y-4.4222
X5.128Y-2.5388
X5.1417Y-4.2087
X5.146Y-5.5079
X5.1801Y-2.7726
X5.187Y-3.1213
X5.189Y-4.5315
X5.2264Y-2.5549
X5.2372Y-3.9213
X5.2402Y-4.2087
X5.252Y-3.8819
X5.2638Y-4.4016
X5.2642Y-2.5551
X5.2857Y-3.1904
X5.2972Y-4.1161
X5.3031Y-2.0157
X5.3071Y-3.8021
X5.3071Y-4.8425
X5.3091Y-3.0807
X5.311Y-2.6398
X5.3169Y-3.4835
X5.3484Y-3.5996
X5.3544Y-4.0219
X5.3642Y-3.4638
X5.3701Y-4.563
X5.3738Y-3.0428
X5.3938Y-4.0219
X5.3943Y-2.9108
X5.3943Y-2.9732
X5.3943Y-3.011
X5.4134Y-2.7421
X5.4192Y-2.9392
X5.4331Y-4.0197
X5.4902Y-2.7945
X5.4982Y-3.1482
X5.5105Y-3.0118
X5.5354Y-2.2102
X5.5374Y-2.7906
X5.5472Y-5.1417
X5.5669Y-3.1193
X5.5768Y-2.7886
X5.5807Y-3.7126
X5.5837Y-3.7874
X5.5945Y-2.9598
X5.6105Y-2.6459
X5.6152Y-3.8569
X5.622Y-4.7087
X5.624Y-2.7925
X5.628Y-3.2638
X5.6339Y-4.8622
X5.6476Y-3.7528
X5.6594Y-3.5709
X5.6654Y-3.3858
X5.6668Y-3.6117
X5.689Y-3.752
X5.7145Y-2.7893
X5.7296Y-2.7296
X5.7303Y-3.7528
X5.7441Y-2.311
X5.7559Y-3.8642
X5.7638Y-2.4012
X5.7854Y-3.0
X5.8307Y-3.815
X5.8524Y-3.7323
X5.8563Y-3.2362
X5.8878Y-3.5571
X5.9331Y-3.9016
X5.9528Y-3.3976
X5.9587Y-3.5945
X5.9646Y-2.9685
X5.9646Y-3.6831
X6.0437Y-3.5941
X6.063Y-2.6693
T3
X5.8258Y-2.5994
X5.8258Y-2.6329
X5.8258Y-2.6663
X5.8258Y-2.6998
X5.8258Y-2.7333
X5.8258Y-2.7667
X5.8258Y-2.8002
X5.8258Y-2.8337
X5.8789Y-2.5994
X5.8789Y-2.6329
X5.8789Y-2.6663
X5.8789Y-2.6998
X5.8789Y-2.7333
X5.8789Y-2.7667
X5.8789Y-2.8002
X5.8789Y-2.8337
T4
X3.0236Y-2.8575
X3.0984Y-2.8575
T6
X5.6575Y-4.2776
X5.6575Y-4.5413
X5.6575Y-5.0256
X5.6575Y-5.2894
X5.7555Y-4.2776
X5.7555Y-4.3583
X5.7555Y-4.4606
X5.7555Y-4.5413
X5.7555Y-5.0256
X5.7555Y-5.1063
X5.7555Y-5.2087
X5.7555Y-5.2894
T7
X2.6378Y-2.1654
X3.8927Y-2.8421
X3.8927Y-2.9421
X4.2746Y-2.1156
X4.2746Y-2.2156
X4.2746Y-5.6589
X4.2746Y-5.7589
X4.3746Y-2.1156
X4.3746Y-2.2156
X4.3746Y-5.6589
X4.3746Y-5.7589
X4.4746Y-2.1156
X4.4746Y-2.2156
X4.4746Y-5.6589
X4.4746Y-5.7589
X4.5746Y-2.1156
X4.5746Y-2.2156
X4.5746Y-5.6589
X4.5746Y-5.7589
X4.6746Y-2.1156
X4.6746Y-2.2156
X4.6746Y-5.6589
X4.6746Y-5.7589
X4.7746Y-2.1156
X4.7746Y-2.2156
X4.7746Y-5.6589
X4.7746Y-5.7589
X4.8746Y-2.1156
X4.8746Y-2.2156
X4.8746Y-5.6589
X4.8746Y-5.7589
X4.9746Y-2.1156
X4.9746Y-2.2156
X4.9746Y-5.6589
X4.9746Y-5.7589
X5.0746Y-2.1156
X5.0746Y-2.2156
X5.0746Y-5.6589
X5.0746Y-5.7589
X5.1746Y-2.1156
X5.1746Y-2.2156
X5.1746Y-5.6589
X5.1746Y-5.7589
X5.3563Y-5.4921
X5.4563Y-5.4921
X5.5118Y-3.2504
X5.5118Y-3.3504
X5.5118Y-3.4504
X5.5118Y-3.5504
X5.5118Y-3.6504
X5.5118Y-3.7504
X5.5118Y-3.8504
X5.5118Y-3.9504
X5.5118Y-4.0504
X5.5118Y-4.1504
X5.5118Y-4.2504
X5.5118Y-4.3504
X5.5118Y-4.4504
X5.5118Y-4.5504
X5.5276Y-4.9528
X5.5563Y-5.4921
X5.6563Y-5.4921
X5.6693Y-2.0866
X5.6693Y-2.1866
T8
X2.7165Y-2.5492
X2.7165Y-2.7067
X2.7165Y-2.8642
X2.7165Y-3.1201
X2.7165Y-3.2776
X2.7165Y-3.435
X2.7165Y-3.5925
X2.7165Y-4.2815
X2.7165Y-4.439
X2.7165Y-4.5965
X2.7165Y-4.8524
X2.7165Y-5.0098
X2.7165Y-5.1673
X2.7165Y-5.3248
T9
X5.8736Y-4.1433
X5.8736Y-4.6756
X5.8736Y-4.8913
X5.8736Y-5.4236
X5.9055Y-4.4094
X5.9055Y-5.1575
T5
G00X5.8348Y-2.5463
M15
G01X5.8939Y-2.5463
M16
G05
G00X5.8348Y-2.8868
M15
G01X5.8939Y-2.8868
M16
G05
G00X5.9817Y-2.5463
M15
G01X6.0132Y-2.5463
M16
G05
G00X5.9817Y-2.8868
M15
G01X6.0132Y-2.8868
M16
G05
T0
M30
