%TF.GenerationSoftware,KiCad,Pcbnew,(6.0.7)*%
%TF.CreationDate,2023-03-28T13:11:04+02:00*%
%TF.ProjectId,open65,6f70656e-3635-42e6-9b69-6361645f7063,rev01*%
%TF.SameCoordinates,Original*%
%TF.FileFunction,Legend,Bot*%
%TF.FilePolarity,Positive*%
%FSLAX46Y46*%
G04 Gerber Fmt 4.6, Leading zero omitted, Abs format (unit mm)*
G04 Created by KiCad (PCBNEW (6.0.7)) date 2023-03-28 13:11:04*
%MOMM*%
%LPD*%
G01*
G04 APERTURE LIST*
%ADD10C,0.150000*%
%ADD11C,0.127000*%
%ADD12C,0.200000*%
%ADD13C,0.120000*%
G04 APERTURE END LIST*
D10*
X70595238Y-102204761D02*
X70452380Y-102252380D01*
X70214285Y-102252380D01*
X70119047Y-102204761D01*
X70071428Y-102157142D01*
X70023809Y-102061904D01*
X70023809Y-101966666D01*
X70071428Y-101871428D01*
X70119047Y-101823809D01*
X70214285Y-101776190D01*
X70404761Y-101728571D01*
X70500000Y-101680952D01*
X70547619Y-101633333D01*
X70595238Y-101538095D01*
X70595238Y-101442857D01*
X70547619Y-101347619D01*
X70500000Y-101300000D01*
X70404761Y-101252380D01*
X70166666Y-101252380D01*
X70023809Y-101300000D01*
X69595238Y-102252380D02*
X69595238Y-101252380D01*
X69023809Y-102252380D01*
X69023809Y-101252380D01*
X68547619Y-101728571D02*
X68214285Y-101728571D01*
X68071428Y-102252380D02*
X68547619Y-102252380D01*
X68547619Y-101252380D01*
X68071428Y-101252380D01*
X67690476Y-102204761D02*
X67547619Y-102252380D01*
X67309523Y-102252380D01*
X67214285Y-102204761D01*
X67166666Y-102157142D01*
X67119047Y-102061904D01*
X67119047Y-101966666D01*
X67166666Y-101871428D01*
X67214285Y-101823809D01*
X67309523Y-101776190D01*
X67500000Y-101728571D01*
X67595238Y-101680952D01*
X67642857Y-101633333D01*
X67690476Y-101538095D01*
X67690476Y-101442857D01*
X67642857Y-101347619D01*
X67595238Y-101300000D01*
X67500000Y-101252380D01*
X67261904Y-101252380D01*
X67119047Y-101300000D01*
X65976190Y-101585714D02*
X65261904Y-101585714D01*
X65690476Y-101157142D02*
X65976190Y-102442857D01*
X65357142Y-102014285D02*
X66071428Y-102014285D01*
X65642857Y-102442857D02*
X65357142Y-101157142D01*
X64404761Y-102252380D02*
X64976190Y-102252380D01*
X64690476Y-102252380D02*
X64690476Y-101252380D01*
X64785714Y-101395238D01*
X64880952Y-101490476D01*
X64976190Y-101538095D01*
X70595238Y-57904761D02*
X70452380Y-57952380D01*
X70214285Y-57952380D01*
X70119047Y-57904761D01*
X70071428Y-57857142D01*
X70023809Y-57761904D01*
X70023809Y-57666666D01*
X70071428Y-57571428D01*
X70119047Y-57523809D01*
X70214285Y-57476190D01*
X70404761Y-57428571D01*
X70500000Y-57380952D01*
X70547619Y-57333333D01*
X70595238Y-57238095D01*
X70595238Y-57142857D01*
X70547619Y-57047619D01*
X70500000Y-57000000D01*
X70404761Y-56952380D01*
X70166666Y-56952380D01*
X70023809Y-57000000D01*
X69595238Y-57952380D02*
X69595238Y-56952380D01*
X69023809Y-57952380D01*
X69023809Y-56952380D01*
X68547619Y-57428571D02*
X68214285Y-57428571D01*
X68071428Y-57952380D02*
X68547619Y-57952380D01*
X68547619Y-56952380D01*
X68071428Y-56952380D01*
X67690476Y-57904761D02*
X67547619Y-57952380D01*
X67309523Y-57952380D01*
X67214285Y-57904761D01*
X67166666Y-57857142D01*
X67119047Y-57761904D01*
X67119047Y-57666666D01*
X67166666Y-57571428D01*
X67214285Y-57523809D01*
X67309523Y-57476190D01*
X67500000Y-57428571D01*
X67595238Y-57380952D01*
X67642857Y-57333333D01*
X67690476Y-57238095D01*
X67690476Y-57142857D01*
X67642857Y-57047619D01*
X67595238Y-57000000D01*
X67500000Y-56952380D01*
X67261904Y-56952380D01*
X67119047Y-57000000D01*
X65976190Y-57285714D02*
X65261904Y-57285714D01*
X65690476Y-56857142D02*
X65976190Y-58142857D01*
X65357142Y-57714285D02*
X66071428Y-57714285D01*
X65642857Y-58142857D02*
X65357142Y-56857142D01*
X64976190Y-57047619D02*
X64928571Y-57000000D01*
X64833333Y-56952380D01*
X64595238Y-56952380D01*
X64500000Y-57000000D01*
X64452380Y-57047619D01*
X64404761Y-57142857D01*
X64404761Y-57238095D01*
X64452380Y-57380952D01*
X65023809Y-57952380D01*
X64404761Y-57952380D01*
%TO.C,J606*%
X145787172Y-122451759D02*
X145787172Y-123166855D01*
X145834845Y-123309874D01*
X145930191Y-123405220D01*
X146073210Y-123452893D01*
X146168556Y-123452893D01*
X144881384Y-122451759D02*
X145072076Y-122451759D01*
X145167422Y-122499433D01*
X145215095Y-122547106D01*
X145310441Y-122690125D01*
X145358114Y-122880817D01*
X145358114Y-123262201D01*
X145310441Y-123357547D01*
X145262768Y-123405220D01*
X145167422Y-123452893D01*
X144976730Y-123452893D01*
X144881384Y-123405220D01*
X144833711Y-123357547D01*
X144786038Y-123262201D01*
X144786038Y-123023836D01*
X144833711Y-122928490D01*
X144881384Y-122880817D01*
X144976730Y-122833144D01*
X145167422Y-122833144D01*
X145262768Y-122880817D01*
X145310441Y-122928490D01*
X145358114Y-123023836D01*
X144166288Y-122451759D02*
X144070942Y-122451759D01*
X143975596Y-122499433D01*
X143927923Y-122547106D01*
X143880250Y-122642452D01*
X143832577Y-122833144D01*
X143832577Y-123071509D01*
X143880250Y-123262201D01*
X143927923Y-123357547D01*
X143975596Y-123405220D01*
X144070942Y-123452893D01*
X144166288Y-123452893D01*
X144261634Y-123405220D01*
X144309307Y-123357547D01*
X144356980Y-123262201D01*
X144404653Y-123071509D01*
X144404653Y-122833144D01*
X144356980Y-122642452D01*
X144309307Y-122547106D01*
X144261634Y-122499433D01*
X144166288Y-122451759D01*
X142974462Y-122451759D02*
X143165154Y-122451759D01*
X143260500Y-122499433D01*
X143308173Y-122547106D01*
X143403519Y-122690125D01*
X143451192Y-122880817D01*
X143451192Y-123262201D01*
X143403519Y-123357547D01*
X143355846Y-123405220D01*
X143260500Y-123452893D01*
X143069808Y-123452893D01*
X142974462Y-123405220D01*
X142926789Y-123357547D01*
X142879116Y-123262201D01*
X142879116Y-123023836D01*
X142926789Y-122928490D01*
X142974462Y-122880817D01*
X143069808Y-122833144D01*
X143260500Y-122833144D01*
X143355846Y-122880817D01*
X143403519Y-122928490D01*
X143451192Y-123023836D01*
%TO.C,J403*%
X72047619Y-138785714D02*
X71333333Y-138785714D01*
X71190476Y-138833333D01*
X71095238Y-138928571D01*
X71047619Y-139071428D01*
X71047619Y-139166666D01*
X71714285Y-137880952D02*
X71047619Y-137880952D01*
X72095238Y-138119047D02*
X71380952Y-138357142D01*
X71380952Y-137738095D01*
X72047619Y-137166666D02*
X72047619Y-137071428D01*
X72000000Y-136976190D01*
X71952380Y-136928571D01*
X71857142Y-136880952D01*
X71666666Y-136833333D01*
X71428571Y-136833333D01*
X71238095Y-136880952D01*
X71142857Y-136928571D01*
X71095238Y-136976190D01*
X71047619Y-137071428D01*
X71047619Y-137166666D01*
X71095238Y-137261904D01*
X71142857Y-137309523D01*
X71238095Y-137357142D01*
X71428571Y-137404761D01*
X71666666Y-137404761D01*
X71857142Y-137357142D01*
X71952380Y-137309523D01*
X72000000Y-137261904D01*
X72047619Y-137166666D01*
X72047619Y-136500000D02*
X72047619Y-135880952D01*
X71666666Y-136214285D01*
X71666666Y-136071428D01*
X71619047Y-135976190D01*
X71571428Y-135928571D01*
X71476190Y-135880952D01*
X71238095Y-135880952D01*
X71142857Y-135928571D01*
X71095238Y-135976190D01*
X71047619Y-136071428D01*
X71047619Y-136357142D01*
X71095238Y-136452380D01*
X71142857Y-136500000D01*
%TO.C,J404*%
X72047619Y-93285714D02*
X71333333Y-93285714D01*
X71190476Y-93333333D01*
X71095238Y-93428571D01*
X71047619Y-93571428D01*
X71047619Y-93666666D01*
X71714285Y-92380952D02*
X71047619Y-92380952D01*
X72095238Y-92619047D02*
X71380952Y-92857142D01*
X71380952Y-92238095D01*
X72047619Y-91666666D02*
X72047619Y-91571428D01*
X72000000Y-91476190D01*
X71952380Y-91428571D01*
X71857142Y-91380952D01*
X71666666Y-91333333D01*
X71428571Y-91333333D01*
X71238095Y-91380952D01*
X71142857Y-91428571D01*
X71095238Y-91476190D01*
X71047619Y-91571428D01*
X71047619Y-91666666D01*
X71095238Y-91761904D01*
X71142857Y-91809523D01*
X71238095Y-91857142D01*
X71428571Y-91904761D01*
X71666666Y-91904761D01*
X71857142Y-91857142D01*
X71952380Y-91809523D01*
X72000000Y-91761904D01*
X72047619Y-91666666D01*
X71714285Y-90476190D02*
X71047619Y-90476190D01*
X72095238Y-90714285D02*
X71380952Y-90952380D01*
X71380952Y-90333333D01*
%TO.C,FID103*%
X67523809Y-142428571D02*
X67857142Y-142428571D01*
X67857142Y-142952380D02*
X67857142Y-141952380D01*
X67380952Y-141952380D01*
X67000000Y-142952380D02*
X67000000Y-141952380D01*
X66523809Y-142952380D02*
X66523809Y-141952380D01*
X66285714Y-141952380D01*
X66142857Y-142000000D01*
X66047619Y-142095238D01*
X66000000Y-142190476D01*
X65952380Y-142380952D01*
X65952380Y-142523809D01*
X66000000Y-142714285D01*
X66047619Y-142809523D01*
X66142857Y-142904761D01*
X66285714Y-142952380D01*
X66523809Y-142952380D01*
X65000000Y-142952380D02*
X65571428Y-142952380D01*
X65285714Y-142952380D02*
X65285714Y-141952380D01*
X65380952Y-142095238D01*
X65476190Y-142190476D01*
X65571428Y-142238095D01*
X64380952Y-141952380D02*
X64285714Y-141952380D01*
X64190476Y-142000000D01*
X64142857Y-142047619D01*
X64095238Y-142142857D01*
X64047619Y-142333333D01*
X64047619Y-142571428D01*
X64095238Y-142761904D01*
X64142857Y-142857142D01*
X64190476Y-142904761D01*
X64285714Y-142952380D01*
X64380952Y-142952380D01*
X64476190Y-142904761D01*
X64523809Y-142857142D01*
X64571428Y-142761904D01*
X64619047Y-142571428D01*
X64619047Y-142333333D01*
X64571428Y-142142857D01*
X64523809Y-142047619D01*
X64476190Y-142000000D01*
X64380952Y-141952380D01*
X63714285Y-141952380D02*
X63095238Y-141952380D01*
X63428571Y-142333333D01*
X63285714Y-142333333D01*
X63190476Y-142380952D01*
X63142857Y-142428571D01*
X63095238Y-142523809D01*
X63095238Y-142761904D01*
X63142857Y-142857142D01*
X63190476Y-142904761D01*
X63285714Y-142952380D01*
X63571428Y-142952380D01*
X63666666Y-142904761D01*
X63714285Y-142857142D01*
%TO.C,J605*%
X145787172Y-103451759D02*
X145787172Y-104166855D01*
X145834845Y-104309874D01*
X145930191Y-104405220D01*
X146073210Y-104452893D01*
X146168556Y-104452893D01*
X144881384Y-103451759D02*
X145072076Y-103451759D01*
X145167422Y-103499433D01*
X145215095Y-103547106D01*
X145310441Y-103690125D01*
X145358114Y-103880817D01*
X145358114Y-104262201D01*
X145310441Y-104357547D01*
X145262768Y-104405220D01*
X145167422Y-104452893D01*
X144976730Y-104452893D01*
X144881384Y-104405220D01*
X144833711Y-104357547D01*
X144786038Y-104262201D01*
X144786038Y-104023836D01*
X144833711Y-103928490D01*
X144881384Y-103880817D01*
X144976730Y-103833144D01*
X145167422Y-103833144D01*
X145262768Y-103880817D01*
X145310441Y-103928490D01*
X145358114Y-104023836D01*
X144166288Y-103451759D02*
X144070942Y-103451759D01*
X143975596Y-103499433D01*
X143927923Y-103547106D01*
X143880250Y-103642452D01*
X143832577Y-103833144D01*
X143832577Y-104071509D01*
X143880250Y-104262201D01*
X143927923Y-104357547D01*
X143975596Y-104405220D01*
X144070942Y-104452893D01*
X144166288Y-104452893D01*
X144261634Y-104405220D01*
X144309307Y-104357547D01*
X144356980Y-104262201D01*
X144404653Y-104071509D01*
X144404653Y-103833144D01*
X144356980Y-103642452D01*
X144309307Y-103547106D01*
X144261634Y-103499433D01*
X144166288Y-103451759D01*
X142926789Y-103451759D02*
X143403519Y-103451759D01*
X143451192Y-103928490D01*
X143403519Y-103880817D01*
X143308173Y-103833144D01*
X143069808Y-103833144D01*
X142974462Y-103880817D01*
X142926789Y-103928490D01*
X142879116Y-104023836D01*
X142879116Y-104262201D01*
X142926789Y-104357547D01*
X142974462Y-104405220D01*
X143069808Y-104452893D01*
X143308173Y-104452893D01*
X143403519Y-104405220D01*
X143451192Y-104357547D01*
D11*
%TO.C,J606*%
X154700000Y-124000000D02*
X154700000Y-138000000D01*
X142680000Y-138000000D02*
X142680000Y-124000000D01*
X146700000Y-138000000D02*
X142680000Y-138000000D01*
X151680000Y-124000000D02*
X154700000Y-124000000D01*
X154700000Y-138000000D02*
X151680000Y-138000000D01*
X142680000Y-124000000D02*
X146700000Y-124000000D01*
D12*
X142110000Y-132370000D02*
G75*
G03*
X142110000Y-132370000I-100000J0D01*
G01*
D13*
%TO.C,J403*%
X70500000Y-141250000D02*
X55000000Y-141250000D01*
X55000000Y-141250000D02*
X55000000Y-102750000D01*
X55000000Y-102750000D02*
X70500000Y-102750000D01*
X70500000Y-102750000D02*
X70500000Y-141250000D01*
%TO.C,J404*%
X70500000Y-97250000D02*
X55000000Y-97250000D01*
X55000000Y-97250000D02*
X55000000Y-58750000D01*
X55000000Y-58750000D02*
X70500000Y-58750000D01*
X70500000Y-58750000D02*
X70500000Y-97250000D01*
D11*
%TO.C,J605*%
X154700000Y-105000000D02*
X154700000Y-119000000D01*
X146700000Y-119000000D02*
X142680000Y-119000000D01*
X151680000Y-105000000D02*
X154700000Y-105000000D01*
X154700000Y-119000000D02*
X151680000Y-119000000D01*
X142680000Y-119000000D02*
X142680000Y-105000000D01*
X142680000Y-105000000D02*
X146700000Y-105000000D01*
D12*
X142110000Y-113370000D02*
G75*
G03*
X142110000Y-113370000I-100000J0D01*
G01*
%TD*%
M02*
