%TF.GenerationSoftware,KiCad,Pcbnew,(6.0.7)*%
%TF.CreationDate,2023-03-28T13:11:04+02:00*%
%TF.ProjectId,open65,6f70656e-3635-42e6-9b69-6361645f7063,rev01*%
%TF.SameCoordinates,Original*%
%TF.FileFunction,Soldermask,Top*%
%TF.FilePolarity,Negative*%
%FSLAX46Y46*%
G04 Gerber Fmt 4.6, Leading zero omitted, Abs format (unit mm)*
G04 Created by KiCad (PCBNEW (6.0.7)) date 2023-03-28 13:11:04*
%MOMM*%
%LPD*%
G01*
G04 APERTURE LIST*
G04 Aperture macros list*
%AMRoundRect*
0 Rectangle with rounded corners*
0 $1 Rounding radius*
0 $2 $3 $4 $5 $6 $7 $8 $9 X,Y pos of 4 corners*
0 Add a 4 corners polygon primitive as box body*
4,1,4,$2,$3,$4,$5,$6,$7,$8,$9,$2,$3,0*
0 Add four circle primitives for the rounded corners*
1,1,$1+$1,$2,$3*
1,1,$1+$1,$4,$5*
1,1,$1+$1,$6,$7*
1,1,$1+$1,$8,$9*
0 Add four rect primitives between the rounded corners*
20,1,$1+$1,$2,$3,$4,$5,0*
20,1,$1+$1,$4,$5,$6,$7,0*
20,1,$1+$1,$6,$7,$8,$9,0*
20,1,$1+$1,$8,$9,$2,$3,0*%
%AMFreePoly0*
4,1,22,0.500000,-0.750000,0.000000,-0.750000,0.000000,-0.745033,-0.079941,-0.743568,-0.215256,-0.701293,-0.333266,-0.622738,-0.424486,-0.514219,-0.481581,-0.384460,-0.499164,-0.250000,-0.500000,-0.250000,-0.500000,0.250000,-0.499164,0.250000,-0.499963,0.256109,-0.478152,0.396186,-0.417904,0.524511,-0.324060,0.630769,-0.204165,0.706417,-0.067858,0.745374,0.000000,0.744959,0.000000,0.750000,
0.500000,0.750000,0.500000,-0.750000,0.500000,-0.750000,$1*%
%AMFreePoly1*
4,1,20,0.000000,0.744959,0.073905,0.744508,0.209726,0.703889,0.328688,0.626782,0.421226,0.519385,0.479903,0.390333,0.500000,0.250000,0.500000,-0.250000,0.499851,-0.262216,0.476331,-0.402017,0.414519,-0.529596,0.319384,-0.634700,0.198574,-0.708877,0.061801,-0.746166,0.000000,-0.745033,0.000000,-0.750000,-0.500000,-0.750000,-0.500000,0.750000,0.000000,0.750000,0.000000,0.744959,
0.000000,0.744959,$1*%
G04 Aperture macros list end*
%ADD10C,0.300000*%
%ADD11R,1.760000X2.250000*%
%ADD12RoundRect,0.137500X-0.137500X-0.800000X0.137500X-0.800000X0.137500X0.800000X-0.137500X0.800000X0*%
%ADD13RoundRect,0.137500X-0.800000X-0.137500X0.800000X-0.137500X0.800000X0.137500X-0.800000X0.137500X0*%
%ADD14RoundRect,0.137500X0.800000X0.137500X-0.800000X0.137500X-0.800000X-0.137500X0.800000X-0.137500X0*%
%ADD15RoundRect,0.137500X0.137500X0.800000X-0.137500X0.800000X-0.137500X-0.800000X0.137500X-0.800000X0*%
%ADD16RoundRect,0.237500X-0.237500X0.250000X-0.237500X-0.250000X0.237500X-0.250000X0.237500X0.250000X0*%
%ADD17R,0.650000X1.560000*%
%ADD18C,0.700000*%
%ADD19O,1.700000X0.900000*%
%ADD20O,2.400000X0.900000*%
%ADD21RoundRect,0.237500X0.250000X0.237500X-0.250000X0.237500X-0.250000X-0.237500X0.250000X-0.237500X0*%
%ADD22RoundRect,0.150000X-0.150000X0.587500X-0.150000X-0.587500X0.150000X-0.587500X0.150000X0.587500X0*%
%ADD23RoundRect,0.237500X0.300000X0.237500X-0.300000X0.237500X-0.300000X-0.237500X0.300000X-0.237500X0*%
%ADD24RoundRect,0.237500X-0.300000X-0.237500X0.300000X-0.237500X0.300000X0.237500X-0.300000X0.237500X0*%
%ADD25RoundRect,0.237500X0.237500X-0.250000X0.237500X0.250000X-0.237500X0.250000X-0.237500X-0.250000X0*%
%ADD26R,1.700000X1.700000*%
%ADD27RoundRect,0.237500X-0.250000X-0.237500X0.250000X-0.237500X0.250000X0.237500X-0.250000X0.237500X0*%
%ADD28R,1.560000X0.650000*%
%ADD29RoundRect,0.150000X-0.725000X-0.150000X0.725000X-0.150000X0.725000X0.150000X-0.725000X0.150000X0*%
%ADD30RoundRect,0.250001X-0.462499X-0.624999X0.462499X-0.624999X0.462499X0.624999X-0.462499X0.624999X0*%
%ADD31RoundRect,0.237500X-0.237500X0.300000X-0.237500X-0.300000X0.237500X-0.300000X0.237500X0.300000X0*%
%ADD32RoundRect,0.250001X-0.624999X0.462499X-0.624999X-0.462499X0.624999X-0.462499X0.624999X0.462499X0*%
%ADD33RoundRect,0.237500X-0.237500X0.287500X-0.237500X-0.287500X0.237500X-0.287500X0.237500X0.287500X0*%
%ADD34RoundRect,0.237500X0.344715X-0.008839X-0.008839X0.344715X-0.344715X0.008839X0.008839X-0.344715X0*%
%ADD35C,3.200000*%
%ADD36RoundRect,0.250001X-0.849999X0.462499X-0.849999X-0.462499X0.849999X-0.462499X0.849999X0.462499X0*%
%ADD37C,2.000000*%
%ADD38R,0.450000X0.600000*%
%ADD39C,1.000000*%
%ADD40C,0.750000*%
%ADD41R,1.000000X1.550000*%
%ADD42R,1.000000X1.000000*%
%ADD43RoundRect,0.150000X0.150000X-0.650000X0.150000X0.650000X-0.150000X0.650000X-0.150000X-0.650000X0*%
%ADD44RoundRect,0.237500X0.237500X-0.287500X0.237500X0.287500X-0.237500X0.287500X-0.237500X-0.287500X0*%
%ADD45RoundRect,0.237500X0.237500X-0.300000X0.237500X0.300000X-0.237500X0.300000X-0.237500X-0.300000X0*%
%ADD46R,1.900000X1.000000*%
%ADD47RoundRect,0.250000X0.475000X-0.337500X0.475000X0.337500X-0.475000X0.337500X-0.475000X-0.337500X0*%
%ADD48RoundRect,0.137500X-0.137500X0.625000X-0.137500X-0.625000X0.137500X-0.625000X0.137500X0.625000X0*%
%ADD49R,0.700000X1.000000*%
%ADD50R,0.700000X0.600000*%
%ADD51RoundRect,0.237500X-0.380070X0.044194X0.044194X-0.380070X0.380070X-0.044194X-0.044194X0.380070X0*%
%ADD52RoundRect,0.062500X-0.375000X-0.062500X0.375000X-0.062500X0.375000X0.062500X-0.375000X0.062500X0*%
%ADD53RoundRect,0.062500X-0.062500X-0.375000X0.062500X-0.375000X0.062500X0.375000X-0.062500X0.375000X0*%
%ADD54R,4.500000X5.200000*%
%ADD55RoundRect,0.075000X-0.700000X-0.075000X0.700000X-0.075000X0.700000X0.075000X-0.700000X0.075000X0*%
%ADD56RoundRect,0.075000X-0.075000X-0.700000X0.075000X-0.700000X0.075000X0.700000X-0.075000X0.700000X0*%
%ADD57O,1.700000X1.700000*%
%ADD58R,3.325000X2.400000*%
%ADD59R,2.500000X5.100000*%
%ADD60C,10.200000*%
%ADD61RoundRect,0.075000X-0.662500X-0.075000X0.662500X-0.075000X0.662500X0.075000X-0.662500X0.075000X0*%
%ADD62RoundRect,0.075000X-0.075000X-0.662500X0.075000X-0.662500X0.075000X0.662500X-0.075000X0.662500X0*%
%ADD63RoundRect,0.100000X0.637500X0.100000X-0.637500X0.100000X-0.637500X-0.100000X0.637500X-0.100000X0*%
%ADD64FreePoly0,180.000000*%
%ADD65FreePoly1,180.000000*%
%ADD66RoundRect,0.150000X0.587500X0.150000X-0.587500X0.150000X-0.587500X-0.150000X0.587500X-0.150000X0*%
%ADD67R,2.000000X0.400000*%
%ADD68RoundRect,0.150000X0.150000X-0.587500X0.150000X0.587500X-0.150000X0.587500X-0.150000X-0.587500X0*%
%ADD69RoundRect,0.250000X0.337500X0.475000X-0.337500X0.475000X-0.337500X-0.475000X0.337500X-0.475000X0*%
%ADD70R,1.000000X0.700000*%
%ADD71R,0.600000X0.700000*%
%ADD72RoundRect,0.150000X0.150000X-0.825000X0.150000X0.825000X-0.150000X0.825000X-0.150000X-0.825000X0*%
%ADD73R,1.400000X1.500000*%
%ADD74RoundRect,0.250001X0.849999X-0.462499X0.849999X0.462499X-0.849999X0.462499X-0.849999X-0.462499X0*%
%ADD75FreePoly0,0.000000*%
%ADD76FreePoly1,0.000000*%
%ADD77R,1.398000X1.398000*%
%ADD78C,1.398000*%
%ADD79C,3.306000*%
%ADD80C,2.500000*%
G04 APERTURE END LIST*
D10*
X82000000Y-75384761D02*
X83333333Y-77384761D01*
X83333333Y-75384761D02*
X82000000Y-77384761D01*
X84952380Y-75384761D02*
X84571428Y-75384761D01*
X84380952Y-75480000D01*
X84285714Y-75575238D01*
X84095238Y-75860952D01*
X84000000Y-76241904D01*
X84000000Y-77003809D01*
X84095238Y-77194285D01*
X84190476Y-77289523D01*
X84380952Y-77384761D01*
X84761904Y-77384761D01*
X84952380Y-77289523D01*
X85047619Y-77194285D01*
X85142857Y-77003809D01*
X85142857Y-76527619D01*
X85047619Y-76337142D01*
X84952380Y-76241904D01*
X84761904Y-76146666D01*
X84380952Y-76146666D01*
X84190476Y-76241904D01*
X84095238Y-76337142D01*
X84000000Y-76527619D01*
X86952380Y-75384761D02*
X86000000Y-75384761D01*
X85904761Y-76337142D01*
X86000000Y-76241904D01*
X86190476Y-76146666D01*
X86666666Y-76146666D01*
X86857142Y-76241904D01*
X86952380Y-76337142D01*
X87047619Y-76527619D01*
X87047619Y-77003809D01*
X86952380Y-77194285D01*
X86857142Y-77289523D01*
X86666666Y-77384761D01*
X86190476Y-77384761D01*
X86000000Y-77289523D01*
X85904761Y-77194285D01*
X87904761Y-77194285D02*
X88000000Y-77289523D01*
X87904761Y-77384761D01*
X87809523Y-77289523D01*
X87904761Y-77194285D01*
X87904761Y-77384761D01*
X88857142Y-76337142D02*
X89523809Y-76337142D01*
X89809523Y-77384761D02*
X88857142Y-77384761D01*
X88857142Y-75384761D01*
X89809523Y-75384761D01*
X90666666Y-75384761D02*
X90666666Y-77003809D01*
X90761904Y-77194285D01*
X90857142Y-77289523D01*
X91047619Y-77384761D01*
X91428571Y-77384761D01*
X91619047Y-77289523D01*
X91714285Y-77194285D01*
X91809523Y-77003809D01*
X91809523Y-75384761D01*
D11*
%TO.C,X301*%
X114050000Y-67825000D03*
X111350000Y-67825000D03*
X111350000Y-70775000D03*
X114050000Y-70775000D03*
%TD*%
D12*
%TO.C,U201*%
X79380000Y-93752500D03*
X80180000Y-93752500D03*
X80980000Y-93752500D03*
X81780000Y-93752500D03*
X82580000Y-93752500D03*
X83380000Y-93752500D03*
X84180000Y-93752500D03*
X84980000Y-93752500D03*
X85780000Y-93752500D03*
X86580000Y-93752500D03*
X87380000Y-93752500D03*
D13*
X89867500Y-96240000D03*
X89867500Y-97040000D03*
X89867500Y-97840000D03*
X89867500Y-98640000D03*
X89867500Y-99440000D03*
X89867500Y-100240000D03*
X89867500Y-101040000D03*
X89867500Y-101840000D03*
X89867500Y-102640000D03*
X89867500Y-103440000D03*
X89867500Y-104240000D03*
D12*
X87380000Y-106727500D03*
X86580000Y-106727500D03*
X85780000Y-106727500D03*
X84980000Y-106727500D03*
X84180000Y-106727500D03*
X83380000Y-106727500D03*
X82580000Y-106727500D03*
X81780000Y-106727500D03*
X80980000Y-106727500D03*
X80180000Y-106727500D03*
X79380000Y-106727500D03*
D13*
X76892500Y-104240000D03*
X76892500Y-103440000D03*
X76892500Y-102640000D03*
X76892500Y-101840000D03*
X76892500Y-101040000D03*
X76892500Y-100240000D03*
X76892500Y-99440000D03*
X76892500Y-98640000D03*
X76892500Y-97840000D03*
X76892500Y-97040000D03*
X76892500Y-96240000D03*
%TD*%
D14*
%TO.C,U401*%
X133187500Y-128000000D03*
X133187500Y-127200000D03*
X133187500Y-126400000D03*
X133187500Y-125600000D03*
X133187500Y-124800000D03*
X133187500Y-124000000D03*
X133187500Y-123200000D03*
X133187500Y-122400000D03*
X133187500Y-121600000D03*
X133187500Y-120800000D03*
X133187500Y-120000000D03*
D15*
X130700000Y-117512500D03*
X129900000Y-117512500D03*
X129100000Y-117512500D03*
X128300000Y-117512500D03*
X127500000Y-117512500D03*
X126700000Y-117512500D03*
X125900000Y-117512500D03*
X125100000Y-117512500D03*
X124300000Y-117512500D03*
X123500000Y-117512500D03*
X122700000Y-117512500D03*
D14*
X120212500Y-120000000D03*
X120212500Y-120800000D03*
X120212500Y-121600000D03*
X120212500Y-122400000D03*
X120212500Y-123200000D03*
X120212500Y-124000000D03*
X120212500Y-124800000D03*
X120212500Y-125600000D03*
X120212500Y-126400000D03*
X120212500Y-127200000D03*
X120212500Y-128000000D03*
D15*
X122700000Y-130487500D03*
X123500000Y-130487500D03*
X124300000Y-130487500D03*
X125100000Y-130487500D03*
X125900000Y-130487500D03*
X126700000Y-130487500D03*
X127500000Y-130487500D03*
X128300000Y-130487500D03*
X129100000Y-130487500D03*
X129900000Y-130487500D03*
X130700000Y-130487500D03*
%TD*%
D16*
%TO.C,R517*%
X100300000Y-78687500D03*
X100300000Y-80512500D03*
%TD*%
D17*
%TO.C,U602*%
X149600000Y-97600000D03*
X150550000Y-97600000D03*
X151500000Y-97600000D03*
X151500000Y-94900000D03*
X150550000Y-94900000D03*
X149600000Y-94900000D03*
%TD*%
D18*
%TO.C,J501*%
X147975000Y-71975000D03*
X147975000Y-71125000D03*
X147975000Y-70275000D03*
X147975000Y-69425000D03*
X147975000Y-68575000D03*
X147975000Y-67725000D03*
X147975000Y-66875000D03*
X147975000Y-66025000D03*
X149325000Y-66025000D03*
X149325000Y-66875000D03*
X149325000Y-67725000D03*
X149325000Y-68575000D03*
X149325000Y-69425000D03*
X149325000Y-70275000D03*
X149325000Y-71125000D03*
X149325000Y-71975000D03*
D19*
X152335000Y-64675000D03*
X152335000Y-73325000D03*
D20*
X148955000Y-64675000D03*
X148955000Y-73325000D03*
%TD*%
D21*
%TO.C,R305*%
X131012500Y-98800000D03*
X129187500Y-98800000D03*
%TD*%
D22*
%TO.C,Q601*%
X145750000Y-87512500D03*
X143850000Y-87512500D03*
X144800000Y-89387500D03*
%TD*%
D23*
%TO.C,C601*%
X153412500Y-79500000D03*
X151687500Y-79500000D03*
%TD*%
D21*
%TO.C,R514*%
X121112500Y-77600000D03*
X119287500Y-77600000D03*
%TD*%
%TO.C,R515*%
X121112500Y-79100000D03*
X119287500Y-79100000D03*
%TD*%
D24*
%TO.C,C502*%
X138787500Y-67680000D03*
X140512500Y-67680000D03*
%TD*%
D16*
%TO.C,R214*%
X83800000Y-80167500D03*
X83800000Y-81992500D03*
%TD*%
D25*
%TO.C,R414*%
X62400000Y-120012500D03*
X62400000Y-118187500D03*
%TD*%
D26*
%TO.C,J703*%
X140400000Y-125800000D03*
%TD*%
D27*
%TO.C,R707*%
X59087500Y-64000000D03*
X60912500Y-64000000D03*
%TD*%
D28*
%TO.C,U403*%
X59250000Y-113850000D03*
X59250000Y-114800000D03*
X59250000Y-115750000D03*
X61950000Y-115750000D03*
X61950000Y-114800000D03*
X61950000Y-113850000D03*
%TD*%
D21*
%TO.C,R509*%
X134712500Y-62100000D03*
X132887500Y-62100000D03*
%TD*%
D29*
%TO.C,U402*%
X83975000Y-68575000D03*
X83975000Y-69845000D03*
X83975000Y-71115000D03*
X83975000Y-72385000D03*
X89125000Y-72385000D03*
X89125000Y-71115000D03*
X89125000Y-69845000D03*
X89125000Y-68575000D03*
%TD*%
D30*
%TO.C,F501*%
X147812500Y-61900000D03*
X150787500Y-61900000D03*
%TD*%
D31*
%TO.C,C307*%
X106000000Y-113537500D03*
X106000000Y-115262500D03*
%TD*%
D32*
%TO.C,F401*%
X69400000Y-58512500D03*
X69400000Y-61487500D03*
%TD*%
D24*
%TO.C,C405*%
X64737500Y-106350000D03*
X66462500Y-106350000D03*
%TD*%
D25*
%TO.C,R207*%
X86400000Y-81992500D03*
X86400000Y-80167500D03*
%TD*%
D33*
%TO.C,D502*%
X153100000Y-58825000D03*
X153100000Y-60575000D03*
%TD*%
D31*
%TO.C,C309*%
X127400000Y-101637500D03*
X127400000Y-103362500D03*
%TD*%
D27*
%TO.C,R508*%
X139687500Y-63900000D03*
X141512500Y-63900000D03*
%TD*%
D17*
%TO.C,U404*%
X59950000Y-103350000D03*
X60900000Y-103350000D03*
X61850000Y-103350000D03*
X61850000Y-100650000D03*
X60900000Y-100650000D03*
X59950000Y-100650000D03*
%TD*%
D34*
%TO.C,R210*%
X95195235Y-88875235D03*
X93904765Y-87584765D03*
%TD*%
D31*
%TO.C,C201*%
X83100000Y-119137500D03*
X83100000Y-120862500D03*
%TD*%
D25*
%TO.C,R604*%
X152700000Y-102312500D03*
X152700000Y-100487500D03*
%TD*%
D21*
%TO.C,R209*%
X88483500Y-90200000D03*
X86658500Y-90200000D03*
%TD*%
%TO.C,R415*%
X60825000Y-74000000D03*
X59000000Y-74000000D03*
%TD*%
D16*
%TO.C,R606*%
X147500000Y-93687500D03*
X147500000Y-95512500D03*
%TD*%
D31*
%TO.C,C303*%
X112200000Y-80217500D03*
X112200000Y-81942500D03*
%TD*%
D21*
%TO.C,R502*%
X150212500Y-75400000D03*
X148387500Y-75400000D03*
%TD*%
D24*
%TO.C,C505*%
X113637500Y-61380000D03*
X115362500Y-61380000D03*
%TD*%
%TO.C,C314*%
X120887500Y-89830000D03*
X122612500Y-89830000D03*
%TD*%
D27*
%TO.C,R307*%
X59087500Y-68800000D03*
X60912500Y-68800000D03*
%TD*%
D16*
%TO.C,R304*%
X132800000Y-110587500D03*
X132800000Y-112412500D03*
%TD*%
D35*
%TO.C,H101*%
X60000000Y-55000000D03*
%TD*%
D16*
%TO.C,R401*%
X127100000Y-132787500D03*
X127100000Y-134612500D03*
%TD*%
D27*
%TO.C,R412*%
X64687500Y-79600000D03*
X66512500Y-79600000D03*
%TD*%
D36*
%TO.C,L702*%
X104600000Y-54037500D03*
X104600000Y-56362500D03*
%TD*%
D35*
%TO.C,H103*%
X150000000Y-145000000D03*
%TD*%
D24*
%TO.C,C202*%
X84237500Y-136080000D03*
X85962500Y-136080000D03*
%TD*%
D21*
%TO.C,R513*%
X121112500Y-76000000D03*
X119287500Y-76000000D03*
%TD*%
D16*
%TO.C,R501*%
X145700000Y-72387500D03*
X145700000Y-74212500D03*
%TD*%
%TO.C,R511*%
X126250000Y-80467500D03*
X126250000Y-82292500D03*
%TD*%
D37*
%TO.C,FID101*%
X60000000Y-59980000D03*
%TD*%
D38*
%TO.C,D503*%
X145100000Y-59850000D03*
X145100000Y-61950000D03*
%TD*%
D39*
%TO.C,Y401*%
X76800000Y-72580000D03*
X78700000Y-72580000D03*
%TD*%
D25*
%TO.C,R703*%
X98400000Y-63312500D03*
X98400000Y-61487500D03*
%TD*%
%TO.C,R503*%
X143600000Y-66112500D03*
X143600000Y-64287500D03*
%TD*%
D40*
%TO.C,SW301*%
X58325000Y-86750000D03*
X55575000Y-86750000D03*
D41*
X56100000Y-89375000D03*
X56100000Y-84125000D03*
X57800000Y-89375000D03*
X57800000Y-84125000D03*
%TD*%
D31*
%TO.C,C509*%
X122650000Y-80517500D03*
X122650000Y-82242500D03*
%TD*%
D27*
%TO.C,R309*%
X113687500Y-63430000D03*
X115512500Y-63430000D03*
%TD*%
D16*
%TO.C,R608*%
X153450000Y-94937500D03*
X153450000Y-96762500D03*
%TD*%
D31*
%TO.C,C302*%
X108900000Y-114037500D03*
X108900000Y-115762500D03*
%TD*%
D42*
%TO.C,D301*%
X120150000Y-91800000D03*
X122650000Y-91800000D03*
%TD*%
D16*
%TO.C,R516*%
X129450000Y-80467500D03*
X129450000Y-82292500D03*
%TD*%
D21*
%TO.C,R302*%
X131012500Y-110800000D03*
X129187500Y-110800000D03*
%TD*%
%TO.C,R607*%
X151162500Y-92200000D03*
X149337500Y-92200000D03*
%TD*%
D16*
%TO.C,R510*%
X124450000Y-80467500D03*
X124450000Y-82292500D03*
%TD*%
D27*
%TO.C,R306*%
X117087500Y-115700000D03*
X118912500Y-115700000D03*
%TD*%
D31*
%TO.C,C317*%
X61750000Y-86887500D03*
X61750000Y-88612500D03*
%TD*%
D21*
%TO.C,R506*%
X134712500Y-60300000D03*
X132887500Y-60300000D03*
%TD*%
D37*
%TO.C,FID102*%
X145000000Y-77980000D03*
%TD*%
D27*
%TO.C,R505*%
X119287500Y-74400000D03*
X121112500Y-74400000D03*
%TD*%
D23*
%TO.C,C503*%
X121062500Y-72900000D03*
X119337500Y-72900000D03*
%TD*%
D25*
%TO.C,R407*%
X72800000Y-89612500D03*
X72800000Y-87787500D03*
%TD*%
D43*
%TO.C,U302*%
X129495000Y-108700000D03*
X130765000Y-108700000D03*
X132035000Y-108700000D03*
X133305000Y-108700000D03*
X133305000Y-101500000D03*
X132035000Y-101500000D03*
X130765000Y-101500000D03*
X129495000Y-101500000D03*
%TD*%
D31*
%TO.C,C501*%
X145500000Y-64337500D03*
X145500000Y-66062500D03*
%TD*%
D16*
%TO.C,R512*%
X127850000Y-80467500D03*
X127850000Y-82292500D03*
%TD*%
D44*
%TO.C,D402*%
X57000000Y-73875000D03*
X57000000Y-72125000D03*
%TD*%
D24*
%TO.C,C305*%
X124137500Y-100580000D03*
X125862500Y-100580000D03*
%TD*%
D23*
%TO.C,C311*%
X93500000Y-105580000D03*
X91775000Y-105580000D03*
%TD*%
D27*
%TO.C,R406*%
X61087500Y-127200000D03*
X62912500Y-127200000D03*
%TD*%
D45*
%TO.C,C315*%
X116900000Y-70462500D03*
X116900000Y-68737500D03*
%TD*%
D23*
%TO.C,C504*%
X121112500Y-68250000D03*
X119387500Y-68250000D03*
%TD*%
D26*
%TO.C,J702*%
X67000000Y-55000000D03*
%TD*%
D27*
%TO.C,R504*%
X119287500Y-69800000D03*
X121112500Y-69800000D03*
%TD*%
D25*
%TO.C,R706*%
X100300000Y-63262500D03*
X100300000Y-61437500D03*
%TD*%
D46*
%TO.C,J604*%
X64350000Y-94190000D03*
X67650000Y-96730000D03*
X64350000Y-99270000D03*
X67650000Y-101810000D03*
%TD*%
D42*
%TO.C,D401*%
X90100000Y-65350000D03*
X90100000Y-62850000D03*
%TD*%
D37*
%TO.C,FID104*%
X65000000Y-144980000D03*
%TD*%
D24*
%TO.C,C406*%
X128400000Y-115200000D03*
X130125000Y-115200000D03*
%TD*%
D47*
%TO.C,C703*%
X104700000Y-60637500D03*
X104700000Y-58562500D03*
%TD*%
D24*
%TO.C,C507*%
X138637500Y-52200000D03*
X140362500Y-52200000D03*
%TD*%
D22*
%TO.C,Q603*%
X151800000Y-82212500D03*
X149900000Y-82212500D03*
X150850000Y-84087500D03*
%TD*%
D45*
%TO.C,C404*%
X62500000Y-109962500D03*
X62500000Y-108237500D03*
%TD*%
D48*
%TO.C,U202*%
X93100000Y-122712500D03*
X92300000Y-122712500D03*
X91500000Y-122712500D03*
X90700000Y-122712500D03*
X89900000Y-122712500D03*
X89100000Y-122712500D03*
X88300000Y-122712500D03*
X87500000Y-122712500D03*
X86700000Y-122712500D03*
X85900000Y-122712500D03*
X85100000Y-122712500D03*
X84300000Y-122712500D03*
X83500000Y-122712500D03*
X82700000Y-122712500D03*
X81900000Y-122712500D03*
X81100000Y-122712500D03*
X80300000Y-122712500D03*
X79500000Y-122712500D03*
X78700000Y-122712500D03*
X77900000Y-122712500D03*
X77100000Y-122712500D03*
X76300000Y-122712500D03*
X76300000Y-133887500D03*
X77100000Y-133887500D03*
X77900000Y-133887500D03*
X78700000Y-133887500D03*
X79500000Y-133887500D03*
X80300000Y-133887500D03*
X81100000Y-133887500D03*
X81900000Y-133887500D03*
X82700000Y-133887500D03*
X83500000Y-133887500D03*
X84300000Y-133887500D03*
X85100000Y-133887500D03*
X85900000Y-133887500D03*
X86700000Y-133887500D03*
X87500000Y-133887500D03*
X88300000Y-133887500D03*
X89100000Y-133887500D03*
X89900000Y-133887500D03*
X90700000Y-133887500D03*
X91500000Y-133887500D03*
X92300000Y-133887500D03*
X93100000Y-133887500D03*
%TD*%
D27*
%TO.C,R204*%
X74847500Y-92239000D03*
X76672500Y-92239000D03*
%TD*%
D49*
%TO.C,D303*%
X56200000Y-92250000D03*
D50*
X56200000Y-93950000D03*
X58200000Y-93950000D03*
X58200000Y-92050000D03*
%TD*%
D25*
%TO.C,R212*%
X82491000Y-91754500D03*
X82491000Y-89929500D03*
%TD*%
D21*
%TO.C,R416*%
X60825000Y-78800000D03*
X59000000Y-78800000D03*
%TD*%
D25*
%TO.C,R602*%
X149000000Y-102362500D03*
X149000000Y-100537500D03*
%TD*%
D51*
%TO.C,C204*%
X92190120Y-98390120D03*
X93409880Y-99609880D03*
%TD*%
D45*
%TO.C,C402*%
X76800000Y-67742500D03*
X76800000Y-66017500D03*
%TD*%
D52*
%TO.C,U501*%
X126062500Y-68750000D03*
X126062500Y-69250000D03*
X126062500Y-69750000D03*
X126062500Y-70250000D03*
X126062500Y-70750000D03*
X126062500Y-71250000D03*
X126062500Y-71750000D03*
X126062500Y-72250000D03*
X126062500Y-72750000D03*
X126062500Y-73250000D03*
X126062500Y-73750000D03*
X126062500Y-74250000D03*
X126062500Y-74750000D03*
X126062500Y-75250000D03*
D53*
X126750000Y-75937500D03*
X127250000Y-75937500D03*
X127750000Y-75937500D03*
X128250000Y-75937500D03*
X128750000Y-75937500D03*
X129250000Y-75937500D03*
X129750000Y-75937500D03*
X130250000Y-75937500D03*
X130750000Y-75937500D03*
X131250000Y-75937500D03*
X131750000Y-75937500D03*
X132250000Y-75937500D03*
X132750000Y-75937500D03*
X133250000Y-75937500D03*
D52*
X133937500Y-75250000D03*
X133937500Y-74750000D03*
X133937500Y-74250000D03*
X133937500Y-73750000D03*
X133937500Y-73250000D03*
X133937500Y-72750000D03*
X133937500Y-72250000D03*
X133937500Y-71750000D03*
X133937500Y-71250000D03*
X133937500Y-70750000D03*
X133937500Y-70250000D03*
X133937500Y-69750000D03*
X133937500Y-69250000D03*
X133937500Y-68750000D03*
D53*
X133250000Y-68062500D03*
X132750000Y-68062500D03*
X132250000Y-68062500D03*
X131750000Y-68062500D03*
X131250000Y-68062500D03*
X130750000Y-68062500D03*
X130250000Y-68062500D03*
X129750000Y-68062500D03*
X129250000Y-68062500D03*
X128750000Y-68062500D03*
X128250000Y-68062500D03*
X127750000Y-68062500D03*
X127250000Y-68062500D03*
X126750000Y-68062500D03*
D54*
X130000000Y-72000000D03*
%TD*%
D21*
%TO.C,R301*%
X115212500Y-115700000D03*
X113387500Y-115700000D03*
%TD*%
%TO.C,R507*%
X141512500Y-62300000D03*
X139687500Y-62300000D03*
%TD*%
D25*
%TO.C,R206*%
X79200000Y-91592500D03*
X79200000Y-89767500D03*
%TD*%
D16*
%TO.C,R518*%
X131800000Y-80467500D03*
X131800000Y-82292500D03*
%TD*%
D24*
%TO.C,C508*%
X138775000Y-69600000D03*
X140500000Y-69600000D03*
%TD*%
D25*
%TO.C,R521*%
X98850000Y-69442500D03*
X98850000Y-67617500D03*
%TD*%
D16*
%TO.C,R202*%
X93200000Y-79967500D03*
X93200000Y-81792500D03*
%TD*%
D55*
%TO.C,U504*%
X124325000Y-68250000D03*
X124325000Y-68750000D03*
X124325000Y-69250000D03*
X124325000Y-69750000D03*
X124325000Y-70250000D03*
X124325000Y-70750000D03*
X124325000Y-71250000D03*
X124325000Y-71750000D03*
X124325000Y-72250000D03*
X124325000Y-72750000D03*
X124325000Y-73250000D03*
X124325000Y-73750000D03*
X124325000Y-74250000D03*
X124325000Y-74750000D03*
X124325000Y-75250000D03*
X124325000Y-75750000D03*
D56*
X126250000Y-77675000D03*
X126750000Y-77675000D03*
X127250000Y-77675000D03*
X127750000Y-77675000D03*
X128250000Y-77675000D03*
X128750000Y-77675000D03*
X129250000Y-77675000D03*
X129750000Y-77675000D03*
X130250000Y-77675000D03*
X130750000Y-77675000D03*
X131250000Y-77675000D03*
X131750000Y-77675000D03*
X132250000Y-77675000D03*
X132750000Y-77675000D03*
X133250000Y-77675000D03*
X133750000Y-77675000D03*
D55*
X135675000Y-75750000D03*
X135675000Y-75250000D03*
X135675000Y-74750000D03*
X135675000Y-74250000D03*
X135675000Y-73750000D03*
X135675000Y-73250000D03*
X135675000Y-72750000D03*
X135675000Y-72250000D03*
X135675000Y-71750000D03*
X135675000Y-71250000D03*
X135675000Y-70750000D03*
X135675000Y-70250000D03*
X135675000Y-69750000D03*
X135675000Y-69250000D03*
X135675000Y-68750000D03*
X135675000Y-68250000D03*
D56*
X133750000Y-66325000D03*
X133250000Y-66325000D03*
X132750000Y-66325000D03*
X132250000Y-66325000D03*
X131750000Y-66325000D03*
X131250000Y-66325000D03*
X130750000Y-66325000D03*
X130250000Y-66325000D03*
X129750000Y-66325000D03*
X129250000Y-66325000D03*
X128750000Y-66325000D03*
X128250000Y-66325000D03*
X127750000Y-66325000D03*
X127250000Y-66325000D03*
X126750000Y-66325000D03*
X126250000Y-66325000D03*
%TD*%
D31*
%TO.C,C401*%
X81850000Y-71067500D03*
X81850000Y-72792500D03*
%TD*%
D27*
%TO.C,R520*%
X139687500Y-65760000D03*
X141512500Y-65760000D03*
%TD*%
D16*
%TO.C,R702*%
X96400000Y-57987500D03*
X96400000Y-59812500D03*
%TD*%
D27*
%TO.C,FB502*%
X119287500Y-66600000D03*
X121112500Y-66600000D03*
%TD*%
D22*
%TO.C,Q602*%
X145750000Y-82262500D03*
X143850000Y-82262500D03*
X144800000Y-84137500D03*
%TD*%
D16*
%TO.C,R402*%
X128700000Y-132787500D03*
X128700000Y-134612500D03*
%TD*%
D45*
%TO.C,C306*%
X100750000Y-87079999D03*
X100750000Y-85354999D03*
%TD*%
D26*
%TO.C,J601*%
X108575000Y-146275000D03*
D57*
X108575000Y-143735000D03*
X111115000Y-146275000D03*
X111115000Y-143735000D03*
X113655000Y-146275000D03*
X113655000Y-143735000D03*
X116195000Y-146275000D03*
X116195000Y-143735000D03*
X118735000Y-146275000D03*
X118735000Y-143735000D03*
X121275000Y-146275000D03*
X121275000Y-143735000D03*
X123815000Y-146275000D03*
X123815000Y-143735000D03*
X126355000Y-146275000D03*
X126355000Y-143735000D03*
X128895000Y-146275000D03*
X128895000Y-143735000D03*
X131435000Y-146275000D03*
X131435000Y-143735000D03*
%TD*%
D27*
%TO.C,R410*%
X64687500Y-77200000D03*
X66512500Y-77200000D03*
%TD*%
D58*
%TO.C,Y501*%
X124162500Y-61630000D03*
X118637500Y-61630000D03*
%TD*%
D59*
%TO.C,BT401*%
X74400000Y-58250000D03*
X89600000Y-58250000D03*
D60*
X82000000Y-58250000D03*
%TD*%
D25*
%TO.C,R205*%
X91400000Y-81780000D03*
X91400000Y-79955000D03*
%TD*%
D45*
%TO.C,C510*%
X131100000Y-61842500D03*
X131100000Y-60117500D03*
%TD*%
D27*
%TO.C,R413*%
X59787500Y-111900000D03*
X61612500Y-111900000D03*
%TD*%
D26*
%TO.C,JP501*%
X98875000Y-74730000D03*
D57*
X98875000Y-72190000D03*
%TD*%
D23*
%TO.C,C602*%
X145962500Y-123600000D03*
X144237500Y-123600000D03*
%TD*%
D42*
%TO.C,D501*%
X147550000Y-59600000D03*
X150050000Y-59600000D03*
%TD*%
D32*
%TO.C,F601*%
X144910000Y-102714564D03*
X144910000Y-105689564D03*
%TD*%
D27*
%TO.C,FB501*%
X119287500Y-71400000D03*
X121112500Y-71400000D03*
%TD*%
D49*
%TO.C,D404*%
X64700000Y-126550000D03*
D50*
X64700000Y-128250000D03*
X66700000Y-128250000D03*
X66700000Y-126350000D03*
%TD*%
D49*
%TO.C,D602*%
X142000000Y-130550000D03*
D50*
X142000000Y-132250000D03*
X144000000Y-132250000D03*
X144000000Y-130350000D03*
%TD*%
D61*
%TO.C,U301*%
X96466500Y-91871000D03*
X96466500Y-92371000D03*
X96466500Y-92871000D03*
X96466500Y-93371000D03*
X96466500Y-93871000D03*
X96466500Y-94371000D03*
X96466500Y-94871000D03*
X96466500Y-95371000D03*
X96466500Y-95871000D03*
X96466500Y-96371000D03*
X96466500Y-96871000D03*
X96466500Y-97371000D03*
X96466500Y-97871000D03*
X96466500Y-98371000D03*
X96466500Y-98871000D03*
X96466500Y-99371000D03*
X96466500Y-99871000D03*
X96466500Y-100371000D03*
X96466500Y-100871000D03*
X96466500Y-101371000D03*
X96466500Y-101871000D03*
X96466500Y-102371000D03*
X96466500Y-102871000D03*
X96466500Y-103371000D03*
X96466500Y-103871000D03*
X96466500Y-104371000D03*
X96466500Y-104871000D03*
X96466500Y-105371000D03*
X96466500Y-105871000D03*
X96466500Y-106371000D03*
X96466500Y-106871000D03*
X96466500Y-107371000D03*
X96466500Y-107871000D03*
X96466500Y-108371000D03*
X96466500Y-108871000D03*
X96466500Y-109371000D03*
D62*
X98379000Y-111283500D03*
X98879000Y-111283500D03*
X99379000Y-111283500D03*
X99879000Y-111283500D03*
X100379000Y-111283500D03*
X100879000Y-111283500D03*
X101379000Y-111283500D03*
X101879000Y-111283500D03*
X102379000Y-111283500D03*
X102879000Y-111283500D03*
X103379000Y-111283500D03*
X103879000Y-111283500D03*
X104379000Y-111283500D03*
X104879000Y-111283500D03*
X105379000Y-111283500D03*
X105879000Y-111283500D03*
X106379000Y-111283500D03*
X106879000Y-111283500D03*
X107379000Y-111283500D03*
X107879000Y-111283500D03*
X108379000Y-111283500D03*
X108879000Y-111283500D03*
X109379000Y-111283500D03*
X109879000Y-111283500D03*
X110379000Y-111283500D03*
X110879000Y-111283500D03*
X111379000Y-111283500D03*
X111879000Y-111283500D03*
X112379000Y-111283500D03*
X112879000Y-111283500D03*
X113379000Y-111283500D03*
X113879000Y-111283500D03*
X114379000Y-111283500D03*
X114879000Y-111283500D03*
X115379000Y-111283500D03*
X115879000Y-111283500D03*
D61*
X117791500Y-109371000D03*
X117791500Y-108871000D03*
X117791500Y-108371000D03*
X117791500Y-107871000D03*
X117791500Y-107371000D03*
X117791500Y-106871000D03*
X117791500Y-106371000D03*
X117791500Y-105871000D03*
X117791500Y-105371000D03*
X117791500Y-104871000D03*
X117791500Y-104371000D03*
X117791500Y-103871000D03*
X117791500Y-103371000D03*
X117791500Y-102871000D03*
X117791500Y-102371000D03*
X117791500Y-101871000D03*
X117791500Y-101371000D03*
X117791500Y-100871000D03*
X117791500Y-100371000D03*
X117791500Y-99871000D03*
X117791500Y-99371000D03*
X117791500Y-98871000D03*
X117791500Y-98371000D03*
X117791500Y-97871000D03*
X117791500Y-97371000D03*
X117791500Y-96871000D03*
X117791500Y-96371000D03*
X117791500Y-95871000D03*
X117791500Y-95371000D03*
X117791500Y-94871000D03*
X117791500Y-94371000D03*
X117791500Y-93871000D03*
X117791500Y-93371000D03*
X117791500Y-92871000D03*
X117791500Y-92371000D03*
X117791500Y-91871000D03*
D62*
X115879000Y-89958500D03*
X115379000Y-89958500D03*
X114879000Y-89958500D03*
X114379000Y-89958500D03*
X113879000Y-89958500D03*
X113379000Y-89958500D03*
X112879000Y-89958500D03*
X112379000Y-89958500D03*
X111879000Y-89958500D03*
X111379000Y-89958500D03*
X110879000Y-89958500D03*
X110379000Y-89958500D03*
X109879000Y-89958500D03*
X109379000Y-89958500D03*
X108879000Y-89958500D03*
X108379000Y-89958500D03*
X107879000Y-89958500D03*
X107379000Y-89958500D03*
X106879000Y-89958500D03*
X106379000Y-89958500D03*
X105879000Y-89958500D03*
X105379000Y-89958500D03*
X104879000Y-89958500D03*
X104379000Y-89958500D03*
X103879000Y-89958500D03*
X103379000Y-89958500D03*
X102879000Y-89958500D03*
X102379000Y-89958500D03*
X101879000Y-89958500D03*
X101379000Y-89958500D03*
X100879000Y-89958500D03*
X100379000Y-89958500D03*
X99879000Y-89958500D03*
X99379000Y-89958500D03*
X98879000Y-89958500D03*
X98379000Y-89958500D03*
%TD*%
D63*
%TO.C,U503*%
X116162500Y-78150000D03*
X116162500Y-77500000D03*
X116162500Y-76850000D03*
X116162500Y-76200000D03*
X116162500Y-75550000D03*
X116162500Y-74900000D03*
X116162500Y-74250000D03*
X110437500Y-74250000D03*
X110437500Y-74900000D03*
X110437500Y-75550000D03*
X110437500Y-76200000D03*
X110437500Y-76850000D03*
X110437500Y-77500000D03*
X110437500Y-78150000D03*
%TD*%
D26*
%TO.C,J602*%
X108575000Y-56275000D03*
D57*
X108575000Y-53735000D03*
X111115000Y-56275000D03*
X111115000Y-53735000D03*
X113655000Y-56275000D03*
X113655000Y-53735000D03*
X116195000Y-56275000D03*
X116195000Y-53735000D03*
X118735000Y-56275000D03*
X118735000Y-53735000D03*
X121275000Y-56275000D03*
X121275000Y-53735000D03*
X123815000Y-56275000D03*
X123815000Y-53735000D03*
X126355000Y-56275000D03*
X126355000Y-53735000D03*
X128895000Y-56275000D03*
X128895000Y-53735000D03*
X131435000Y-56275000D03*
X131435000Y-53735000D03*
%TD*%
D21*
%TO.C,R211*%
X86658500Y-91700000D03*
X88483500Y-91700000D03*
%TD*%
D24*
%TO.C,C316*%
X108587500Y-80580000D03*
X110312500Y-80580000D03*
%TD*%
D17*
%TO.C,U601*%
X143550000Y-96700000D03*
X144500000Y-96700000D03*
X145450000Y-96700000D03*
X145450000Y-94000000D03*
X144500000Y-94000000D03*
X143550000Y-94000000D03*
%TD*%
D27*
%TO.C,R411*%
X64687500Y-108600000D03*
X66512500Y-108600000D03*
%TD*%
D23*
%TO.C,C304*%
X93762500Y-110780000D03*
X92037500Y-110780000D03*
%TD*%
D16*
%TO.C,R519*%
X133500000Y-80067500D03*
X133500000Y-81892500D03*
%TD*%
%TO.C,FB301*%
X106000000Y-116887500D03*
X106000000Y-118712500D03*
%TD*%
D23*
%TO.C,C310*%
X98162500Y-114080000D03*
X96437500Y-114080000D03*
%TD*%
D26*
%TO.C,J607*%
X136050000Y-139500000D03*
D57*
X138590000Y-139500000D03*
X141130000Y-139500000D03*
X143670000Y-139500000D03*
%TD*%
D27*
%TO.C,R601*%
X143575000Y-99350000D03*
X145400000Y-99350000D03*
%TD*%
D24*
%TO.C,C506*%
X119337500Y-64900000D03*
X121062500Y-64900000D03*
%TD*%
D27*
%TO.C,R201*%
X85087500Y-120100000D03*
X86912500Y-120100000D03*
%TD*%
D64*
%TO.C,JP701*%
X96300000Y-63650000D03*
D65*
X95000000Y-63650000D03*
%TD*%
D16*
%TO.C,R203*%
X81500000Y-80167500D03*
X81500000Y-81992500D03*
%TD*%
D66*
%TO.C,Q301*%
X65287500Y-67330000D03*
X65287500Y-65430000D03*
X63412500Y-66380000D03*
%TD*%
D25*
%TO.C,R605*%
X147050000Y-102412500D03*
X147050000Y-100587500D03*
%TD*%
D26*
%TO.C,J603*%
X140000000Y-82560000D03*
D57*
X140000000Y-85100000D03*
X140000000Y-87640000D03*
X140000000Y-90180000D03*
X140000000Y-92720000D03*
X140000000Y-95260000D03*
X140000000Y-97800000D03*
X140000000Y-100340000D03*
X140000000Y-102880000D03*
X140000000Y-105420000D03*
X140000000Y-107960000D03*
X140000000Y-110500000D03*
X140000000Y-113040000D03*
X140000000Y-115580000D03*
%TD*%
D26*
%TO.C,J701*%
X144000000Y-53000000D03*
D57*
X144000000Y-55540000D03*
%TD*%
D24*
%TO.C,C301*%
X124987500Y-91050000D03*
X126712500Y-91050000D03*
%TD*%
D27*
%TO.C,R215*%
X86785500Y-88302000D03*
X88610500Y-88302000D03*
%TD*%
D44*
%TO.C,D701*%
X57000000Y-63925000D03*
X57000000Y-62175000D03*
%TD*%
%TO.C,D302*%
X57000000Y-68875000D03*
X57000000Y-67125000D03*
%TD*%
D27*
%TO.C,R403*%
X91987500Y-71160000D03*
X93812500Y-71160000D03*
%TD*%
D23*
%TO.C,C203*%
X74362500Y-97900000D03*
X72637500Y-97900000D03*
%TD*%
D22*
%TO.C,Q604*%
X151800000Y-87662500D03*
X149900000Y-87662500D03*
X150850000Y-89537500D03*
%TD*%
D16*
%TO.C,R208*%
X80967000Y-89929500D03*
X80967000Y-91754500D03*
%TD*%
D24*
%TO.C,C312*%
X122437500Y-98880000D03*
X124162500Y-98880000D03*
%TD*%
D67*
%TO.C,U701*%
X100560000Y-56320000D03*
X100560000Y-55680000D03*
X100560000Y-55020000D03*
X100560000Y-54380000D03*
X97140000Y-54380000D03*
X97140000Y-55020000D03*
X97140000Y-55680000D03*
X97140000Y-56320000D03*
%TD*%
D16*
%TO.C,R705*%
X102100000Y-57987500D03*
X102100000Y-59812500D03*
%TD*%
D47*
%TO.C,C702*%
X93500000Y-60637500D03*
X93500000Y-58562500D03*
%TD*%
D68*
%TO.C,Q402*%
X58350000Y-120437500D03*
X60250000Y-120437500D03*
X59300000Y-118562500D03*
%TD*%
D21*
%TO.C,R311*%
X61762500Y-85100000D03*
X59937500Y-85100000D03*
%TD*%
D25*
%TO.C,R704*%
X100300000Y-59812500D03*
X100300000Y-57987500D03*
%TD*%
D69*
%TO.C,C701*%
X99937500Y-52400000D03*
X97862500Y-52400000D03*
%TD*%
D27*
%TO.C,R310*%
X57187500Y-81550000D03*
X59012500Y-81550000D03*
%TD*%
D25*
%TO.C,R603*%
X150900000Y-102362500D03*
X150900000Y-100537500D03*
%TD*%
D27*
%TO.C,R408*%
X64975000Y-83300000D03*
X66800000Y-83300000D03*
%TD*%
%TO.C,R409*%
X65487500Y-120800000D03*
X67312500Y-120800000D03*
%TD*%
D70*
%TO.C,D405*%
X72050000Y-86200000D03*
D71*
X73750000Y-86200000D03*
X73750000Y-84200000D03*
X71850000Y-84200000D03*
%TD*%
D44*
%TO.C,D403*%
X57000000Y-78875000D03*
X57000000Y-77125000D03*
%TD*%
D25*
%TO.C,R213*%
X85158000Y-90484500D03*
X85158000Y-88659500D03*
%TD*%
D72*
%TO.C,U502*%
X136805000Y-59655000D03*
X138075000Y-59655000D03*
X139345000Y-59655000D03*
X140615000Y-59655000D03*
X140615000Y-54705000D03*
X139345000Y-54705000D03*
X138075000Y-54705000D03*
X136805000Y-54705000D03*
%TD*%
D49*
%TO.C,D504*%
X144100000Y-68350000D03*
D50*
X144100000Y-70050000D03*
X146100000Y-70050000D03*
X146100000Y-68150000D03*
%TD*%
D35*
%TO.C,H104*%
X60000000Y-145000000D03*
%TD*%
D73*
%TO.C,Y402*%
X76700000Y-70130000D03*
X78800000Y-70130000D03*
%TD*%
D25*
%TO.C,R701*%
X98400000Y-59812500D03*
X98400000Y-57987500D03*
%TD*%
%TO.C,R308*%
X108850000Y-69542500D03*
X108850000Y-67717500D03*
%TD*%
D27*
%TO.C,R405*%
X61087500Y-130300000D03*
X62912500Y-130300000D03*
%TD*%
D22*
%TO.C,Q401*%
X60750000Y-107562500D03*
X58850000Y-107562500D03*
X59800000Y-109437500D03*
%TD*%
D45*
%TO.C,C403*%
X78700000Y-67742500D03*
X78700000Y-66017500D03*
%TD*%
D74*
%TO.C,L701*%
X93500000Y-56462500D03*
X93500000Y-54137500D03*
%TD*%
D35*
%TO.C,H102*%
X150000000Y-55000000D03*
%TD*%
D24*
%TO.C,C308*%
X107637500Y-84505000D03*
X109362500Y-84505000D03*
%TD*%
D27*
%TO.C,R404*%
X91962500Y-72835000D03*
X93787500Y-72835000D03*
%TD*%
%TO.C,R303*%
X131187500Y-90805000D03*
X133012500Y-90805000D03*
%TD*%
%TO.C,FB302*%
X107612500Y-82855000D03*
X109437500Y-82855000D03*
%TD*%
D75*
%TO.C,JP702*%
X102650000Y-63450000D03*
D76*
X103950000Y-63450000D03*
%TD*%
D70*
%TO.C,D601*%
X144050000Y-119200000D03*
D71*
X145750000Y-119200000D03*
X145750000Y-117200000D03*
X143850000Y-117200000D03*
%TD*%
D77*
%TO.C,J606*%
X146190000Y-132300000D03*
D78*
X146190000Y-129700000D03*
X146190000Y-134350000D03*
X146190000Y-127650000D03*
X143700000Y-134350000D03*
X143700000Y-127650000D03*
D79*
X150000000Y-131000000D03*
X149190000Y-124240000D03*
X149190000Y-137760000D03*
%TD*%
D80*
%TO.C,J403*%
X69000000Y-135250000D03*
X69000000Y-131250000D03*
X69000000Y-127250000D03*
X69000000Y-123250000D03*
X69000000Y-116750000D03*
X69000000Y-112750000D03*
X69000000Y-108750000D03*
%TD*%
%TO.C,J404*%
X69000000Y-91250000D03*
X69000000Y-87250000D03*
X69000000Y-83250000D03*
X69000000Y-79250000D03*
X69000000Y-72750000D03*
X69000000Y-68750000D03*
X69000000Y-64750000D03*
%TD*%
D77*
%TO.C,J605*%
X146190000Y-113300000D03*
D78*
X146190000Y-110700000D03*
X146190000Y-115350000D03*
X146190000Y-108650000D03*
X143700000Y-115350000D03*
X143700000Y-108650000D03*
D79*
X150000000Y-112000000D03*
X149190000Y-105240000D03*
X149190000Y-118760000D03*
%TD*%
M02*
