M48
; DRILL file {KiCad 7.0.10-1.fc38} date So 13. ledna 2024, 22:19:37
; FORMAT={-:-/ absolute / inch / decimal}
; #@! TF.CreationDate,2024-01-13T22:19:37+01:00
; #@! TF.GenerationSoftware,Kicad,Pcbnew,7.0.10-1.fc38
; #@! TF.FileFunction,Plated,1,4,PTH
FMAT,2
INCH
; #@! TA.AperFunction,Plated,PTH,ViaDrill
T1C0.0157
; #@! TA.AperFunction,Plated,PTH,ComponentDrill
T2C0.0157
; #@! TA.AperFunction,Plated,PTH,ComponentDrill
T3C0.0236
; #@! TA.AperFunction,Plated,PTH,ComponentDrill
T4C0.0350
; #@! TA.AperFunction,Plated,PTH,ComponentDrill
T5C0.0354
; #@! TA.AperFunction,Plated,PTH,ComponentDrill
T6C0.0394
; #@! TA.AperFunction,Plated,PTH,ComponentDrill
T7C0.0492
; #@! TA.AperFunction,Plated,PTH,ComponentDrill
T8C0.0551
; #@! TA.AperFunction,Plated,PTH,ComponentDrill
T9C0.0591
; #@! TA.AperFunction,Plated,PTH,ComponentDrill
T10C0.0630
; #@! TA.AperFunction,Plated,PTH,ComponentDrill
T11C0.0902
; #@! TA.AperFunction,Plated,PTH,ComponentDrill
T12C0.1260
%
G90
G05
T1
X1.648Y-4.086
X1.668Y-1.84
X1.74Y-3.25
X1.7517Y-4.223
X1.7517Y-5.218
X1.808Y-3.764
X1.87Y-3.284
X1.876Y-6.912
X1.91Y-3.246
X1.92Y-7.984
X1.956Y-1.424
X2.211Y-2.166
X2.2406Y-3.242
X2.242Y-3.02
X2.242Y-3.184
X2.296Y-2.258
X2.304Y-6.304
X2.332Y-6.016
X2.334Y-3.916
X2.336Y-2.368
X2.338Y-6.856
X2.358Y-5.94
X2.3622Y-2.252
X2.372Y-6.164
X2.402Y-2.296
X2.422Y-6.912
X2.427Y-2.165
X2.4417Y-4.218
X2.456Y-2.704
X2.4867Y-5.218
X2.492Y-2.578
X2.4921Y-2.8898
X2.494Y-6.248
X2.498Y-3.066
X2.5317Y-2.713
X2.563Y-3.6339
X2.5709Y-3.7008
X2.59Y-2.232
X2.592Y-4.746
X2.5945Y-3.5906
X2.6024Y-3.7402
X2.6121Y-2.7141
X2.6129Y-1.9909
X2.618Y-2.036
X2.62Y-2.334
X2.62Y-6.728
X2.6339Y-3.5591
X2.638Y-1.45
X2.6575Y-2.656
X2.658Y-2.56
X2.6621Y-2.9891
X2.676Y-6.756
X2.6767Y-4.763
X2.6817Y-4.473
X2.6951Y-2.7891
X2.712Y-2.978
X2.72Y-3.938
X2.722Y-3.49
X2.7236Y-2.6576
X2.724Y-2.556
X2.734Y-6.654
X2.76Y-2.438
X2.7754Y-2.146
X2.782Y-1.902
X2.792Y-2.07
X2.795Y-2.411
X2.815Y-1.7028
X2.8268Y-3.8956
X2.838Y-7.138
X2.848Y-5.466
X2.866Y-6.05
X2.876Y-2.54
X2.88Y-3.064
X2.8854Y-3.7402
X2.8858Y-3.9222
X2.8858Y-4.022
X2.9173Y-3.7756
X2.9178Y-3.9452
X2.9232Y-1.4764
X2.932Y-6.8
X2.936Y-5.74
X2.938Y-2.694
X2.9465Y-2.9237
X2.9488Y-3.8071
X2.9497Y-3.9222
X2.9497Y-3.994
X2.956Y-5.4946
X2.968Y-6.998
X2.972Y-1.91
X2.974Y-4.378
X2.976Y-3.39
X2.978Y-4.966
X2.9803Y-3.8386
X2.9813Y-3.9456
X2.9871Y-2.9991
X2.99Y-3.574
X2.9917Y-4.583
X2.994Y-6.102
X3.0053Y-2.5947
X3.0056Y-2.8191
X3.0067Y-4.6653
X3.0118Y-3.8671
X3.015Y-4.6121
X3.026Y-6.3161
X3.0267Y-4.703
X3.03Y-2.068
X3.0317Y-4.318
X3.0371Y-2.8491
X3.0403Y-3.8976
X3.0417Y-4.143
X3.0419Y-4.6387
X3.0421Y-2.7491
X3.048Y-5.252
X3.062Y-5.68
X3.0677Y-4.022
X3.068Y-4.41
X3.0699Y-2.8863
X3.0709Y-2.6252
X3.0777Y-3.958
X3.082Y-3.406
X3.086Y-6.37
X3.1017Y-3.9954
X3.122Y-3.156
X3.131Y-2.052
X3.144Y-5.0099
X3.146Y-4.8786
X3.146Y-5.524
X3.152Y-3.706
X3.1577Y-3.5876
X3.1617Y-4.458
X3.168Y-5.798
X3.1717Y-3.553
X3.186Y-2.6
X3.186Y-5.392
X3.1964Y-5.8736
X3.208Y-6.682
X3.223Y-5.747
X3.23Y-5.91
X3.258Y-2.898
X3.258Y-2.9354
X3.268Y-3.076
X3.268Y-5.062
X3.27Y-3.418
X3.2717Y-4.438
X3.272Y-3.172
X3.272Y-4.9075
X3.274Y-4.986
X3.276Y-2.293
X3.276Y-3.746
X3.2793Y-3.2087
X3.2805Y-3.463
X3.2817Y-4.363
X3.2817Y-4.4003
X3.2817Y-4.488
X3.2817Y-4.5253
X3.282Y-7.062
X3.284Y-5.31
X3.286Y-5.42
X3.288Y-6.866
X3.292Y-5.232
X3.304Y-6.204
X3.306Y-1.576
X3.3061Y-3.396
X3.3061Y-4.05
X3.312Y-4.935
X3.3195Y-2.664
X3.323Y-1.442
X3.33Y-5.278
X3.3301Y-4.333
X3.3386Y-2.8504
X3.342Y-5.134
X3.35Y-5.58
X3.3551Y-4.5304
X3.356Y-2.682
X3.3581Y-4.2991
X3.373Y-6.083
X3.3817Y-4.5854
X3.382Y-5.038
X3.383Y-2.218
X3.3834Y-4.3266
X3.3846Y-2.8398
X3.408Y-5.756
X3.41Y-2.69
X3.41Y-3.152
X3.412Y-2.073
X3.412Y-2.99
X3.412Y-3.028
X3.412Y-3.106
X3.412Y-3.196
X3.414Y-3.066
X3.4166Y-3.2331
X3.419Y-2.294
X3.4203Y-4.3326
X3.4217Y-4.618
X3.423Y-6.5319
X3.4317Y-2.843
X3.4446Y-2.486
X3.452Y-5.872
X3.4617Y-4.3364
X3.463Y-1.948
X3.464Y-2.02
X3.474Y-7.024
X3.4767Y-4.5854
X3.479Y-2.467
X3.4817Y-4.5304
X3.4817Y-4.6445
X3.4817Y-4.6819
X3.4849Y-3.8612
X3.486Y-5.53
X3.492Y-4.908
X3.5Y-1.568
X3.5Y-3.3976
X3.502Y-5.36
X3.5035Y-3.4373
X3.504Y-5.166
X3.5079Y-3.4764
X3.5079Y-3.5157
X3.51Y-6.97
X3.512Y-5.68
X3.5167Y-4.3335
X3.522Y-1.936
X3.522Y-2.696
X3.523Y-6.01
X3.526Y-4.984
X3.526Y-6.422
X3.5267Y-4.278
X3.53Y-4.836
X3.53Y-6.802
X3.536Y-3.262
X3.538Y-2.81
X3.5387Y-3.9084
X3.5392Y-4.1937
X3.542Y-1.53
X3.544Y-7.166
X3.546Y-5.282
X3.55Y-1.766
X3.5513Y-4.2433
X3.5518Y-3.4049
X3.554Y-5.062
X3.556Y-4.864
X3.562Y-7.282
X3.574Y-3.234
X3.574Y-5.628
X3.5751Y-6.798
X3.5751Y-7.0894
X3.5764Y-4.19
X3.5766Y-6.73
X3.5817Y-4.153
X3.59Y-3.52
X3.592Y-5.906
X3.594Y-6.034
X3.5945Y-3.3916
X3.5967Y-4.433
X3.5967Y-4.618
X3.6Y-5.538
X3.6008Y-6.566
X3.6045Y-2.172
X3.606Y-4.9574
X3.618Y-2.81
X3.62Y-5.726
X3.62Y-5.974
X3.6234Y-5.42
X3.6242Y-2.218
X3.6298Y-6.602
X3.6317Y-3.373
X3.632Y-3.886
X3.652Y-3.538
X3.6628Y-6.627
X3.668Y-3.925
X3.6737Y-3.9688
X3.6892Y-2.694
X3.6898Y-6.699
X3.694Y-1.916
X3.696Y-1.968
X3.7037Y-3.65
X3.7045Y-1.4342
X3.7045Y-1.572
X3.7045Y-1.6803
X3.7045Y-1.7688
X3.708Y-4.938
X3.708Y-5.036
X3.7117Y-2.3443
X3.7167Y-4.433
X3.7176Y-6.731
X3.7217Y-3.9954
X3.722Y-7.688
X3.724Y-3.812
X3.7448Y-6.786
X3.748Y-5.66
X3.75Y-4.64
X3.75Y-4.848
X3.752Y-5.586
X3.7617Y-4.022
X3.7618Y-2.0701
X3.762Y-4.202
X3.764Y-2.43
X3.7708Y-6.839
X3.772Y-4.4644
X3.778Y-4.9666
X3.7837Y-4.054
X3.79Y-6.424
X3.7935Y-4.096
X3.794Y-4.308
X3.798Y-6.378
X3.7998Y-6.873
X3.805Y-4.434
X3.811Y-4.581
X3.812Y-5.4
X3.815Y-2.2244
X3.824Y-2.328
X3.8271Y-6.654
X3.8271Y-6.7666
X3.8297Y-5.532
X3.832Y-3.542
X3.8324Y-1.6704
X3.8324Y-1.7196
X3.834Y-7.244
X3.834Y-7.284
X3.8408Y-6.689
X3.845Y-4.373
X3.8467Y-4.287
X3.8467Y-5.056
X3.866Y-3.5195
X3.8767Y-4.328
X3.8767Y-5.081
X3.878Y-4.434
X3.8858Y-6.514
X3.894Y-5.436
X3.9Y-2.134
X3.906Y-4.4644
X3.9061Y-5.1055
X3.9067Y-4.278
X3.912Y-7.941
X3.9127Y-3.5496
X3.913Y-7.881
X3.9134Y-2.2244
X3.9143Y-6.423
X3.9144Y-2.1715
X3.9152Y-5.659
X3.9167Y-5.6964
X3.9177Y-7.812
X3.918Y-1.532
X3.918Y-2.49
X3.9217Y-5.583
X3.9237Y-2.4531
X3.924Y-1.672
X3.9332Y-5.1312
X3.934Y-3.2593
X3.936Y-4.582
X3.9367Y-4.233
X3.948Y-1.842
X3.948Y-2.822
X3.9536Y-7.4934
X3.9564Y-7.8107
X3.9567Y-5.623
X3.9567Y-5.743
X3.96Y-5.27
X3.962Y-6.438
X3.965Y-4.539
X3.9667Y-4.173
X3.9667Y-5.148
X3.97Y-1.5
X3.9705Y-3.8091
X3.974Y-1.424
X3.9797Y-7.45
X3.98Y-7.1426
X3.9814Y-4.0816
X3.982Y-1.992
X3.9886Y-7.5063
X3.9917Y-7.64
X3.992Y-3.1908
X3.9937Y-7.8137
X3.9941Y-2.6726
X3.9949Y-5.1778
X3.995Y-2.93
X3.995Y-2.99
X3.995Y-4.508
X3.9951Y-4.133
X3.998Y-6.782
X4.004Y-5.446
X4.0088Y-6.444
X4.0089Y-7.5868
X4.0098Y-3.6102
X4.0101Y-5.828
X4.018Y-1.58
X4.021Y-4.063
X4.0215Y-4.405
X4.0217Y-5.204
X4.0218Y-2.0858
X4.0269Y-7.6275
X4.031Y-7.8114
X4.0342Y-7.5593
X4.0399Y-6.5
X4.0433Y-2.7433
X4.0487Y-2.0599
X4.051Y-4.348
X4.0512Y-2.2197
X4.052Y-6.306
X4.0557Y-4.032
X4.056Y-7.846
X4.0567Y-5.218
X4.058Y-1.948
X4.06Y-6.036
X4.0632Y-5.803
X4.065Y-5.4254
X4.07Y-2.014
X4.077Y-6.358
X4.0771Y-5.8406
X4.078Y-6.9
X4.0817Y-2.0867
X4.0832Y-4.832
X4.0846Y-2.6955
X4.088Y-5.564
X4.0945Y-2.2343
X4.0957Y-7.8437
X4.1Y-3.145
X4.1026Y-5.868
X4.105Y-3.632
X4.105Y-7.892
X4.1053Y-6.408
X4.1055Y-3.9643
X4.1061Y-1.68
X4.11Y-3.3679
X4.11Y-6.634
X4.112Y-4.632
X4.1157Y-7.328
X4.118Y-3.1083
X4.118Y-3.19
X4.128Y-2.758
X4.13Y-7.8165
X4.134Y-3.749
X4.1377Y-7.662
X4.1378Y-1.8091
X4.139Y-3.6
X4.1417Y-3.974
X4.1428Y-6.538
X4.1563Y-7.8447
X4.164Y-8.032
X4.166Y-6.2928
X4.166Y-6.93
X4.1676Y-3.564
X4.1682Y-3.779
X4.1696Y-4.53
X4.172Y-6.85
X4.174Y-6.448
X4.176Y-6.236
X4.1777Y-7.484
X4.1797Y-7.544
X4.186Y-6.13
X4.198Y-4.47
X4.205Y-3.766
X4.212Y-5.682
X4.212Y-6.532
X4.2121Y-6.0933
X4.2124Y-6.6879
X4.214Y-6.8188
X4.222Y-3.396
X4.222Y-3.504
X4.2274Y-4.431
X4.228Y-2.178
X4.2386Y-6.5822
X4.24Y-6.64
X4.24Y-6.89
X4.244Y-7.74
X4.2488Y-6.0858
X4.254Y-6.708
X4.255Y-4.1016
X4.256Y-7.218
X4.26Y-2.9939
X4.26Y-3.145
X4.274Y-2.374
X4.2774Y-5.238
X4.29Y-6.218
X4.29Y-6.423
X4.2977Y-7.726
X4.299Y-6.314
X4.2997Y-7.262
X4.302Y-5.164
X4.302Y-6.384
X4.304Y-7.899
X4.306Y-6.694
X4.308Y-5.318
X4.31Y-5.74
X4.3337Y-7.654
X4.338Y-6.976
X4.3425Y-1.8189
X4.3468Y-6.8476
X4.36Y-1.976
X4.36Y-2.076
X4.3612Y-5.5472
X4.362Y-1.918
X4.368Y-7.998
X4.374Y-2.146
X4.376Y-6.692
X4.378Y-6.7946
X4.378Y-7.186
X4.38Y-5.38
X4.386Y-5.322
X4.394Y-7.288
X4.3946Y-5.278
X4.3946Y-5.162
X4.396Y-5.238
X4.3999Y-2.0491
X4.402Y-5.546
X4.4055Y-2.0121
X4.408Y-6.265
X4.424Y-3.226
X4.424Y-5.066
X4.434Y-1.924
X4.434Y-3.62
X4.434Y-5.29
X4.44Y-2.216
X4.4406Y-6.794
X4.4407Y-6.994
X4.444Y-5.1874
X4.448Y-2.794
X4.448Y-5.804
X4.458Y-2.354
X4.46Y-7.2126
X4.462Y-7.887
X4.477Y-3.085
X4.484Y-5.626
X4.484Y-7.94
X4.486Y-6.51
X4.4873Y-6.7289
X4.496Y-5.68
X4.504Y-2.804
X4.5049Y-3.698
X4.5049Y-3.7793
X4.516Y-7.598
X4.5197Y-7.984
X4.524Y-7.5534
X4.5274Y-5.068
X4.528Y-6.336
X4.5305Y-2.214
X4.5317Y-7.336
X4.534Y-3.142
X4.554Y-5.262
X4.556Y-5.416
X4.558Y-1.708
X4.5669Y-1.4665
X4.568Y-3.752
X4.5689Y-3.5252
X4.581Y-2.98
X4.59Y-5.062
X4.5933Y-6.6169
X4.602Y-6.552
X4.61Y-6.45
X4.612Y-4.974
X4.616Y-1.886
X4.62Y-2.434
X4.6225Y-3.0715
X4.624Y-3.2783
X4.63Y-6.902
X4.6313Y-6.8499
X4.6322Y-2.7288
X4.6337Y-3.524
X4.638Y-2.386
X4.6462Y-5.1608
X4.648Y-1.528
X4.6509Y-3.8291
X4.6525Y-3.7074
X4.655Y-1.874
X4.656Y-2.213
X4.666Y-1.606
X4.666Y-2.906
X4.6676Y-5.211
X4.6766Y-6.534
X4.678Y-6.47
X4.684Y-2.362
X4.689Y-2.157
X4.6946Y-3.582
X4.7Y-6.568
X4.7205Y-1.8524
X4.7214Y-3.7074
X4.7264Y-2.6961
X4.728Y-4.414
X4.734Y-5.1
X4.7343Y-2.3031
X4.744Y-6.9013
X4.745Y-2.391
X4.7463Y-6.8509
X4.748Y-3.2492
X4.7597Y-7.6894
X4.7613Y-6.6139
X4.768Y-4.918
X4.7736Y-2.6764
X4.776Y-6.504
X4.781Y-5.292
X4.815Y-1.9193
X4.82Y-1.972
X4.832Y-3.966
X4.841Y-5.111
X4.848Y-4.974
X4.848Y-6.542
X4.856Y-5.356
X4.86Y-6.466
X4.878Y-6.65
X4.9Y-7.018
X4.906Y-1.536
X4.9092Y-1.676
X4.914Y-6.424
X4.922Y-4.228
X4.9258Y-6.8734
X4.9311Y-2.2539
X4.952Y-4.822
X4.954Y-2.214
X4.99Y-3.48
X5.01Y-6.916
X5.02Y-2.07
X5.058Y-3.294
X5.064Y-2.348
X5.0725Y-3.3975
X5.09Y-1.686
X5.1124Y-2.3732
X5.1197Y-7.976
X5.122Y-1.742
X5.122Y-1.7794
X5.13Y-2.022
X5.144Y-1.424
X5.158Y-2.448
X5.172Y-1.598
X5.174Y-4.278
X5.2Y-7.94
X5.272Y-3.178
T2
X5.2352Y-1.6417
X5.2352Y-1.6752
X5.2352Y-1.7087
X5.2352Y-1.7421
X5.2352Y-1.7756
X5.2352Y-1.8091
X5.2352Y-1.8425
X5.2352Y-1.876
X5.2884Y-1.6417
X5.2884Y-1.6752
X5.2884Y-1.7087
X5.2884Y-1.7421
X5.2884Y-1.7756
X5.2884Y-1.8091
X5.2884Y-1.8425
X5.2884Y-1.876
T4
X5.0669Y-4.5531
X5.0669Y-4.8169
X5.0756Y-2.6521
X5.0756Y-2.9158
X5.165Y-4.5531
X5.165Y-4.6339
X5.165Y-4.7362
X5.165Y-4.8169
X5.1737Y-2.6521
X5.1737Y-2.7328
X5.1737Y-2.8351
X5.1737Y-2.9158
X5.2118Y-7.2398
X5.2118Y-7.6378
X5.2717Y-7.3398
X5.2717Y-7.7378
T5
X4.7291Y-7.3138
X4.7291Y-7.4138
X4.7291Y-7.5138
X4.7291Y-7.6138
X4.8291Y-7.3638
X4.8291Y-7.4638
X4.8291Y-7.5638
X4.8291Y-7.6638
T6
X2.078Y-7.3605
X2.078Y-7.518
X2.078Y-7.6755
X2.274Y-7.262
X2.374Y-7.262
X2.698Y-5.472
X2.923Y-2.222
X3.738Y-7.936
X4.3307Y-3.9307
X4.3307Y-4.0307
X4.3307Y-4.1307
X4.3307Y-4.2307
X4.3307Y-4.3307
X4.3307Y-4.4307
X4.3307Y-4.5307
X4.3307Y-4.6307
X4.3307Y-4.7307
X4.3307Y-4.8307
X4.4307Y-3.9307
X4.4307Y-4.0307
X4.4307Y-4.1307
X4.4307Y-4.2307
X4.4307Y-4.3307
X4.4307Y-4.4307
X4.4307Y-4.5307
X4.4307Y-4.6307
X4.4307Y-4.7307
X4.4307Y-4.8307
X4.7422Y-1.466
X4.8422Y-1.466
X4.962Y-5.7087
X4.962Y-5.7988
X4.962Y-5.889
X4.962Y-5.9791
X4.962Y-6.0693
X4.9725Y-3.5402
X4.9725Y-3.6402
X4.9725Y-3.7402
X4.9725Y-3.8402
X4.9725Y-3.9402
X5.062Y-5.6638
X5.062Y-5.7539
X5.062Y-5.8441
X5.062Y-5.9343
X5.062Y-6.0244
X5.0725Y-3.5402
X5.0725Y-3.6402
X5.0725Y-3.7402
X5.0725Y-3.8402
X5.0725Y-3.9402
X5.162Y-5.7087
X5.162Y-5.7988
X5.162Y-5.889
X5.162Y-5.9791
X5.162Y-6.0693
T7
X2.1063Y-2.1555
X2.1063Y-2.313
X2.1063Y-2.4705
X2.1063Y-2.628
X2.1063Y-2.8839
X2.1063Y-3.0413
X2.1063Y-3.1988
X2.1063Y-5.7382
X2.1063Y-5.8957
X2.1063Y-6.0531
X2.1063Y-6.2106
X2.1063Y-6.4665
X2.1063Y-6.624
X2.1063Y-6.7815
T8
X1.6843Y-7.3211
X1.6843Y-7.7149
T9
X5.1548Y-6.6142
X5.1548Y-6.7126
X5.1548Y-6.9094
X5.1548Y-7.0079
X5.3517Y-6.811
T10
X4.9587Y-7.1827
X4.9587Y-7.7949
T11
X5.2831Y-4.4189
X5.2831Y-4.9512
X5.2918Y-2.5178
X5.2918Y-3.0501
X5.315Y-4.685
X5.3237Y-2.784
T12
X1.7717Y-1.378
X1.7717Y-8.0709
X5.062Y-5.3866
X5.062Y-6.3705
X5.315Y-1.378
X5.315Y-8.0709
T3
G00X5.2443Y-1.5886
M15
G01X5.3033Y-1.5886
M16
G05
G00X5.2443Y-1.9291
M15
G01X5.3033Y-1.9291
M16
G05
G00X5.3911Y-1.5886
M15
G01X5.4226Y-1.5886
M16
G05
G00X5.3911Y-1.9291
M15
G01X5.4226Y-1.9291
M16
G05
M30
