%TF.GenerationSoftware,KiCad,Pcbnew,7.0.10-1.fc38*%
%TF.CreationDate,2024-01-13T22:19:30+01:00*%
%TF.ProjectId,x65-sbc-revA1,7836352d-7362-4632-9d72-657641312e6b,revA1*%
%TF.SameCoordinates,Original*%
%TF.FileFunction,Copper,L4,Bot*%
%TF.FilePolarity,Positive*%
%FSLAX46Y46*%
G04 Gerber Fmt 4.6, Leading zero omitted, Abs format (unit mm)*
G04 Created by KiCad (PCBNEW 7.0.10-1.fc38) date 2024-01-13 22:19:30*
%MOMM*%
%LPD*%
G01*
G04 APERTURE LIST*
G04 Aperture macros list*
%AMRoundRect*
0 Rectangle with rounded corners*
0 $1 Rounding radius*
0 $2 $3 $4 $5 $6 $7 $8 $9 X,Y pos of 4 corners*
0 Add a 4 corners polygon primitive as box body*
4,1,4,$2,$3,$4,$5,$6,$7,$8,$9,$2,$3,0*
0 Add four circle primitives for the rounded corners*
1,1,$1+$1,$2,$3*
1,1,$1+$1,$4,$5*
1,1,$1+$1,$6,$7*
1,1,$1+$1,$8,$9*
0 Add four rect primitives between the rounded corners*
20,1,$1+$1,$2,$3,$4,$5,0*
20,1,$1+$1,$4,$5,$6,$7,0*
20,1,$1+$1,$6,$7,$8,$9,0*
20,1,$1+$1,$8,$9,$2,$3,0*%
G04 Aperture macros list end*
%TA.AperFunction,ComponentPad*%
%ADD10C,2.000000*%
%TD*%
%TA.AperFunction,ComponentPad*%
%ADD11C,3.000000*%
%TD*%
%TA.AperFunction,ComponentPad*%
%ADD12R,3.000000X2.000000*%
%TD*%
%TA.AperFunction,ComponentPad*%
%ADD13C,0.700000*%
%TD*%
%TA.AperFunction,ComponentPad*%
%ADD14O,2.400000X0.900000*%
%TD*%
%TA.AperFunction,ComponentPad*%
%ADD15O,1.700000X0.900000*%
%TD*%
%TA.AperFunction,ComponentPad*%
%ADD16R,1.700000X1.700000*%
%TD*%
%TA.AperFunction,ComponentPad*%
%ADD17RoundRect,0.250000X0.600000X0.600000X-0.600000X0.600000X-0.600000X-0.600000X0.600000X-0.600000X0*%
%TD*%
%TA.AperFunction,ComponentPad*%
%ADD18C,1.700000*%
%TD*%
%TA.AperFunction,ComponentPad*%
%ADD19R,1.398000X1.398000*%
%TD*%
%TA.AperFunction,ComponentPad*%
%ADD20C,1.398000*%
%TD*%
%TA.AperFunction,ComponentPad*%
%ADD21C,3.306000*%
%TD*%
%TA.AperFunction,ComponentPad*%
%ADD22C,6.400000*%
%TD*%
%TA.AperFunction,ComponentPad*%
%ADD23O,1.700000X1.700000*%
%TD*%
%TA.AperFunction,ComponentPad*%
%ADD24C,2.500000*%
%TD*%
%TA.AperFunction,ComponentPad*%
%ADD25C,1.890000*%
%TD*%
%TA.AperFunction,ComponentPad*%
%ADD26R,1.900000X1.900000*%
%TD*%
%TA.AperFunction,ComponentPad*%
%ADD27C,1.900000*%
%TD*%
%TA.AperFunction,ComponentPad*%
%ADD28C,2.600000*%
%TD*%
%TA.AperFunction,ComponentPad*%
%ADD29RoundRect,0.250000X-0.600000X-0.600000X0.600000X-0.600000X0.600000X0.600000X-0.600000X0.600000X0*%
%TD*%
%TA.AperFunction,ComponentPad*%
%ADD30C,4.000000*%
%TD*%
%TA.AperFunction,ComponentPad*%
%ADD31R,1.600000X1.600000*%
%TD*%
%TA.AperFunction,ComponentPad*%
%ADD32C,1.600000*%
%TD*%
%TA.AperFunction,ViaPad*%
%ADD33C,0.800000*%
%TD*%
%TA.AperFunction,Conductor*%
%ADD34C,0.250000*%
%TD*%
%TA.AperFunction,Conductor*%
%ADD35C,0.200000*%
%TD*%
G04 APERTURE END LIST*
D10*
%TO.P,RV1101,1,1*%
%TO.N,Net-(R1107-Pad2)*%
X52781200Y-194957200D03*
%TO.P,RV1101,2,2*%
X52781200Y-190957200D03*
%TO.P,RV1101,3,3*%
%TO.N,/Sound Output/SPK1*%
X52781200Y-186957200D03*
D11*
%TO.P,RV1101,5*%
%TO.N,N/C*%
X42781200Y-195957200D03*
%TO.P,RV1101,6*%
X42781200Y-185957200D03*
%TD*%
D12*
%TO.P,J1104,R*%
%TO.N,/Sound Output/RJACK*%
X130932000Y-178000000D03*
%TO.P,J1104,RN*%
%TO.N,RN_AUDIO*%
X130932000Y-175500000D03*
D11*
%TO.P,J1104,S*%
%TO.N,GND*%
X135932000Y-173000000D03*
D12*
%TO.P,J1104,T*%
%TO.N,/Sound Output/LJACK*%
X130932000Y-168000000D03*
%TO.P,J1104,TN*%
%TO.N,LN_AUDIO*%
X130932000Y-170500000D03*
%TD*%
D13*
%TO.P,J501,A1,GND*%
%TO.N,GND*%
X132975000Y-47650000D03*
%TO.P,J501,A4,VBUS*%
%TO.N,/USB-Terminal/VBUS*%
X132975000Y-46800000D03*
%TO.P,J501,A5,CC1*%
%TO.N,/USB-Terminal/CC1*%
X132975000Y-45950000D03*
%TO.P,J501,A6,D+*%
%TO.N,/USB-Terminal/USBD_P*%
X132975000Y-45100000D03*
%TO.P,J501,A7,D-*%
%TO.N,/USB-Terminal/USBD_N*%
X132975000Y-44250000D03*
%TO.P,J501,A8,SBU1*%
%TO.N,unconnected-(J501-SBU1-PadA8)*%
X132975000Y-43400000D03*
%TO.P,J501,A9,VBUS*%
%TO.N,/USB-Terminal/VBUS*%
X132975000Y-42550000D03*
%TO.P,J501,A12,GND*%
%TO.N,GND*%
X132975000Y-41700000D03*
%TO.P,J501,B1,GND*%
X134325000Y-41700000D03*
%TO.P,J501,B4,VBUS*%
%TO.N,/USB-Terminal/VBUS*%
X134325000Y-42550000D03*
%TO.P,J501,B5,CC2*%
%TO.N,/USB-Terminal/CC2*%
X134325000Y-43400000D03*
%TO.P,J501,B6,D+*%
%TO.N,/USB-Terminal/USBD_P*%
X134325000Y-44250000D03*
%TO.P,J501,B7,D-*%
%TO.N,/USB-Terminal/USBD_N*%
X134325000Y-45100000D03*
%TO.P,J501,B8,SBU2*%
%TO.N,unconnected-(J501-SBU2-PadB8)*%
X134325000Y-45950000D03*
%TO.P,J501,B9,VBUS*%
%TO.N,/USB-Terminal/VBUS*%
X134325000Y-46800000D03*
%TO.P,J501,B12,GND*%
%TO.N,GND*%
X134325000Y-47650000D03*
D14*
%TO.P,J501,S1,SHIELD*%
X133955000Y-49000000D03*
D15*
X137335000Y-49000000D03*
D14*
X133955000Y-40350000D03*
D15*
X137335000Y-40350000D03*
%TD*%
D16*
%TO.P,J704,1,Pin_1*%
%TO.N,GND*%
X94945200Y-201574400D03*
%TD*%
D17*
%TO.P,J601,1,Pin_1*%
%TO.N,GND*%
X112540000Y-122700000D03*
D18*
%TO.P,J601,2,Pin_2*%
%TO.N,~{MWR}*%
X110000000Y-122700000D03*
%TO.P,J601,3,Pin_3*%
%TO.N,~{UE_CS3}*%
X112540000Y-120160000D03*
%TO.P,J601,4,Pin_4*%
%TO.N,~{UE_IRQ}*%
X110000000Y-120160000D03*
%TO.P,J601,5,Pin_5*%
%TO.N,/PS2 Kbd+Mouse\u002C UEXT/UEPWR*%
X112540000Y-117620000D03*
%TO.P,J601,6,Pin_6*%
%TO.N,A4*%
X110000000Y-117620000D03*
%TO.P,J601,7,Pin_7*%
%TO.N,A3*%
X112540000Y-115080000D03*
%TO.P,J601,8,Pin_8*%
%TO.N,A2*%
X110000000Y-115080000D03*
%TO.P,J601,9,Pin_9*%
%TO.N,A1*%
X112540000Y-112540000D03*
%TO.P,J601,10,Pin_10*%
%TO.N,A0*%
X110000000Y-112540000D03*
%TO.P,J601,11,Pin_11*%
%TO.N,D0*%
X112540000Y-110000000D03*
%TO.P,J601,12,Pin_12*%
%TO.N,D1*%
X110000000Y-110000000D03*
%TO.P,J601,13,Pin_13*%
%TO.N,D2*%
X112540000Y-107460000D03*
%TO.P,J601,14,Pin_14*%
%TO.N,D3*%
X110000000Y-107460000D03*
%TO.P,J601,15,Pin_15*%
%TO.N,D4*%
X112540000Y-104920000D03*
%TO.P,J601,16,Pin_16*%
%TO.N,D5*%
X110000000Y-104920000D03*
%TO.P,J601,17,Pin_17*%
%TO.N,D6*%
X112540000Y-102380000D03*
%TO.P,J601,18,Pin_18*%
%TO.N,D7*%
X110000000Y-102380000D03*
%TO.P,J601,19,Pin_19*%
%TO.N,~{MRD}*%
X112540000Y-99840000D03*
%TO.P,J601,20,Pin_20*%
%TO.N,GND*%
X110000000Y-99840000D03*
%TD*%
D16*
%TO.P,J703,1,Pin_1*%
%TO.N,GND*%
X68529200Y-138988800D03*
%TD*%
D19*
%TO.P,J606,1*%
%TO.N,/PS2 Kbd+Mouse\u002C UEXT/PS2B_DATA5*%
X131410800Y-69412400D03*
D20*
%TO.P,J606,2*%
%TO.N,unconnected-(J606-Pad2)*%
X131410800Y-72012400D03*
%TO.P,J606,3*%
%TO.N,GND*%
X131410800Y-67362400D03*
%TO.P,J606,4*%
%TO.N,+5V*%
X131410800Y-74062400D03*
%TO.P,J606,5*%
%TO.N,/PS2 Kbd+Mouse\u002C UEXT/PS2B_CLK5*%
X128920800Y-67362400D03*
%TO.P,J606,6*%
%TO.N,unconnected-(J606-Pad6)*%
X128920800Y-74062400D03*
D21*
%TO.P,J606,S1*%
%TO.N,N/C*%
X135220800Y-70712400D03*
%TO.P,J606,S2*%
X134410800Y-77472400D03*
%TO.P,J606,S3*%
X134410800Y-63952400D03*
%TD*%
D22*
%TO.P,H101,1,1*%
%TO.N,GND*%
X45000000Y-35000000D03*
%TD*%
%TO.P,H103,1,1*%
%TO.N,GND*%
X135000000Y-205000000D03*
%TD*%
D16*
%TO.P,J1101,1,Pin_1*%
%TO.N,/Sound Output/SPK1*%
X60299600Y-184454800D03*
D23*
%TO.P,J1101,2,Pin_2*%
%TO.N,/Sound Output/SPK2*%
X57759600Y-184454800D03*
%TD*%
D24*
%TO.P,J403,1,V+5V*%
%TO.N,+5V*%
X53500000Y-54750000D03*
%TO.P,J403,2,CLOCK*%
%TO.N,Net-(J403-CLOCK)*%
X53500000Y-58750000D03*
%TO.P,J403,3,LATCH*%
%TO.N,Net-(J403-LATCH)*%
X53500000Y-62750000D03*
%TO.P,J403,4,DATA1*%
%TO.N,Net-(J403-DATA1)*%
X53500000Y-66750000D03*
%TO.P,J403,5,DATA2*%
%TO.N,unconnected-(J403-DATA2-Pad5)*%
X53500000Y-73250000D03*
%TO.P,J403,6,IOBIT*%
%TO.N,unconnected-(J403-IOBIT-Pad6)*%
X53500000Y-77250000D03*
%TO.P,J403,7,GND*%
%TO.N,GND*%
X53500000Y-81250000D03*
%TD*%
D25*
%TO.P,J1201,L1,LEDY_A*%
%TO.N,/Ethernet/CTVDD*%
X132380000Y-183890000D03*
%TO.P,J1201,L2,LEDY_K*%
%TO.N,/Ethernet/LEDYK*%
X133900000Y-186430000D03*
%TO.P,J1201,L3,LEDG_K*%
%TO.N,/Ethernet/LEDGK*%
X132380000Y-194000000D03*
%TO.P,J1201,L4,LEDG_A*%
%TO.N,/Ethernet/CTVDD*%
X133900000Y-196540000D03*
D26*
%TO.P,J1201,R1,TD+*%
%TO.N,/Ethernet/TDP*%
X122660000Y-194660000D03*
D27*
%TO.P,J1201,R2,TD-*%
%TO.N,/Ethernet/TDN*%
X120120000Y-193390000D03*
%TO.P,J1201,R3,RD+*%
%TO.N,/Ethernet/RDP*%
X122660000Y-192120000D03*
%TO.P,J1201,R4,TCT*%
%TO.N,/Ethernet/CTVDD*%
X120120000Y-190850000D03*
%TO.P,J1201,R5,RCT*%
X122660000Y-189580000D03*
%TO.P,J1201,R6,RD-*%
%TO.N,/Ethernet/RDN*%
X120120000Y-188310000D03*
%TO.P,J1201,R7,NC*%
%TO.N,unconnected-(J1201-NC-PadR7)*%
X122660000Y-187040000D03*
%TO.P,J1201,R8,GND*%
%TO.N,GND*%
X120120000Y-185770000D03*
D28*
%TO.P,J1201,SH,SHIELD*%
%TO.N,/Ethernet/LANSH*%
X125950000Y-197990000D03*
X125950000Y-182440000D03*
%TD*%
D16*
%TO.P,J702,1,Pin_1*%
%TO.N,GND*%
X74244200Y-56438800D03*
%TD*%
D24*
%TO.P,J404,1,V+5V*%
%TO.N,+5V*%
X53500000Y-145750000D03*
%TO.P,J404,2,CLOCK*%
%TO.N,Net-(J404-CLOCK)*%
X53500000Y-149750000D03*
%TO.P,J404,3,LATCH*%
%TO.N,Net-(J404-LATCH)*%
X53500000Y-153750000D03*
%TO.P,J404,4,DATA1*%
%TO.N,Net-(J404-DATA1)*%
X53500000Y-157750000D03*
%TO.P,J404,5,DATA2*%
%TO.N,unconnected-(J404-DATA2-Pad5)*%
X53500000Y-164250000D03*
%TO.P,J404,6,IOBIT*%
%TO.N,unconnected-(J404-IOBIT-Pad6)*%
X53500000Y-168250000D03*
%TO.P,J404,7,GND*%
%TO.N,GND*%
X53500000Y-172250000D03*
%TD*%
D29*
%TO.P,J603,1,3V3*%
%TO.N,/PS2 Kbd+Mouse\u002C UEXT/UE_3V3*%
X126302500Y-89920000D03*
D18*
%TO.P,J603,2,GND*%
%TO.N,GND*%
X128842500Y-89920000D03*
%TO.P,J603,3,TXD*%
%TO.N,UE_TXD*%
X126302500Y-92460000D03*
%TO.P,J603,4,RXD*%
%TO.N,UE_RXD*%
X128842500Y-92460000D03*
%TO.P,J603,5,SCL*%
%TO.N,UE_SCL*%
X126302500Y-95000000D03*
%TO.P,J603,6,SDA*%
%TO.N,UE_SDA*%
X128842500Y-95000000D03*
%TO.P,J603,7,MISO*%
%TO.N,UE_MISO*%
X126302500Y-97540000D03*
%TO.P,J603,8,MOSI*%
%TO.N,UE_MOSI*%
X128842500Y-97540000D03*
%TO.P,J603,9,SCK*%
%TO.N,UE_SCK*%
X126302500Y-100080000D03*
%TO.P,J603,10,~{SSEL}*%
%TO.N,~{UE_CS}*%
X128842500Y-100080000D03*
%TD*%
D16*
%TO.P,J701,1,Pin_1*%
%TO.N,GND*%
X122991800Y-37236400D03*
D23*
%TO.P,J701,2,Pin_2*%
%TO.N,+5V*%
X120451800Y-37236400D03*
%TD*%
D30*
%TO.P,J801,0*%
%TO.N,GND*%
X128575000Y-161810000D03*
X128575000Y-136820000D03*
D31*
%TO.P,J801,1*%
%TO.N,/VERA FPGA/RED*%
X126035000Y-145000000D03*
D32*
%TO.P,J801,2*%
%TO.N,/VERA FPGA/GREEN*%
X126035000Y-147290000D03*
%TO.P,J801,3*%
%TO.N,/VERA FPGA/BLUE*%
X126035000Y-149580000D03*
%TO.P,J801,4*%
%TO.N,unconnected-(J801-Pad4)*%
X126035000Y-151870000D03*
%TO.P,J801,5*%
%TO.N,GND*%
X126035000Y-154160000D03*
%TO.P,J801,6*%
X128575000Y-143860000D03*
%TO.P,J801,7*%
X128575000Y-146150000D03*
%TO.P,J801,8*%
X128575000Y-148440000D03*
%TO.P,J801,9*%
%TO.N,+5V*%
X128575000Y-150730000D03*
%TO.P,J801,10*%
%TO.N,GND*%
X128575000Y-153020000D03*
%TO.P,J801,11*%
%TO.N,unconnected-(J801-Pad11)*%
X131115000Y-145000000D03*
%TO.P,J801,12*%
%TO.N,unconnected-(J801-Pad12)*%
X131115000Y-147290000D03*
%TO.P,J801,13*%
%TO.N,/VERA FPGA/HSYNC*%
X131115000Y-149580000D03*
%TO.P,J801,14*%
%TO.N,/VERA FPGA/VSYNC*%
X131115000Y-151870000D03*
%TO.P,J801,15*%
%TO.N,unconnected-(J801-Pad15)*%
X131115000Y-154160000D03*
%TD*%
D19*
%TO.P,J605,1*%
%TO.N,/PS2 Kbd+Mouse\u002C UEXT/PS2A_DATA5*%
X131190000Y-117700000D03*
D20*
%TO.P,J605,2*%
%TO.N,unconnected-(J605-Pad2)*%
X131190000Y-120300000D03*
%TO.P,J605,3*%
%TO.N,GND*%
X131190000Y-115650000D03*
%TO.P,J605,4*%
%TO.N,+5V*%
X131190000Y-122350000D03*
%TO.P,J605,5*%
%TO.N,/PS2 Kbd+Mouse\u002C UEXT/PS2A_CLK5*%
X128700000Y-115650000D03*
%TO.P,J605,6*%
%TO.N,unconnected-(J605-Pad6)*%
X128700000Y-122350000D03*
D21*
%TO.P,J605,S1*%
%TO.N,N/C*%
X135000000Y-119000000D03*
%TO.P,J605,S2*%
X134190000Y-125760000D03*
%TO.P,J605,S3*%
X134190000Y-112240000D03*
%TD*%
D22*
%TO.P,H104,1,1*%
%TO.N,GND*%
X45000000Y-205000000D03*
%TD*%
%TO.P,H102,1,1*%
%TO.N,GND*%
X135000000Y-35000000D03*
%TD*%
D33*
%TO.N,GND*%
X107391200Y-55321200D03*
%TO.N,DIPLED1*%
X83210400Y-58242200D03*
X86842600Y-58267600D03*
%TO.N,DIPLED0*%
X85928200Y-56337200D03*
%TO.N,DIPLED1*%
X79527400Y-52120800D03*
%TO.N,GND*%
X87960200Y-49479200D03*
%TO.N,+3V3*%
X83972400Y-40030400D03*
%TO.N,GND*%
X112792600Y-177646400D03*
X83007200Y-128574800D03*
X117246400Y-47904400D03*
X99923600Y-82786500D03*
X75946000Y-90779600D03*
X85242400Y-68122800D03*
X130302000Y-51358800D03*
X108559600Y-60299600D03*
X75590400Y-86106000D03*
X106163200Y-191616400D03*
X94277450Y-59544950D03*
X108204000Y-76045500D03*
X114799200Y-202792400D03*
X116670250Y-168070000D03*
X99060000Y-54203600D03*
X105096400Y-194613600D03*
X103835200Y-141325600D03*
X129855100Y-60280400D03*
X68884800Y-75641200D03*
X112979200Y-70967600D03*
X56159400Y-55016400D03*
X103073200Y-49479200D03*
X71500000Y-43250000D03*
X97343600Y-42428400D03*
X110744000Y-52730900D03*
X65786000Y-56692800D03*
X109211200Y-184453600D03*
X44492000Y-132536000D03*
X118059200Y-38811200D03*
X86563200Y-146202400D03*
X80060800Y-94132400D03*
X111099600Y-54508400D03*
X104394000Y-168503600D03*
X125018800Y-107391200D03*
X66497200Y-51714400D03*
X81483200Y-169722800D03*
X100584000Y-133858000D03*
X107238800Y-86258400D03*
X99390200Y-200177400D03*
X79298800Y-80162400D03*
X125780800Y-122478800D03*
X94093600Y-36428400D03*
X91897200Y-71374000D03*
X94589600Y-96824800D03*
X101549200Y-172262800D03*
X108966000Y-157937200D03*
X95199200Y-143764000D03*
X117635450Y-173988200D03*
X101083200Y-189228800D03*
X96266000Y-163169600D03*
X80924400Y-136956800D03*
X74625200Y-68427600D03*
X74250000Y-37500000D03*
X122961400Y-129819400D03*
X101473000Y-74422000D03*
X110185200Y-177190400D03*
X114706400Y-192989200D03*
X73050400Y-64516000D03*
X112623600Y-134366000D03*
X110744000Y-50190400D03*
X66548000Y-59283600D03*
X113977850Y-170914800D03*
X63161000Y-132536000D03*
X99381888Y-90158886D03*
X59334400Y-60147200D03*
X110794056Y-48717944D03*
X120937450Y-167993800D03*
X44492000Y-107263000D03*
X119100600Y-54787800D03*
X89560400Y-163118800D03*
X109194600Y-160375600D03*
X84404200Y-36626800D03*
X113334800Y-200329800D03*
X118516400Y-40792400D03*
X94403000Y-112597000D03*
X117094000Y-163830000D03*
X90846605Y-170942000D03*
X82753200Y-73609200D03*
X95554800Y-106730800D03*
X94093600Y-39928400D03*
X66548000Y-170891200D03*
X132080000Y-201676000D03*
X99669600Y-42468800D03*
X62018000Y-107136000D03*
X103674500Y-53002125D03*
X90474800Y-184962800D03*
X109321600Y-200634600D03*
X69138800Y-88646000D03*
X94072800Y-92708800D03*
X115075500Y-56235600D03*
X116586000Y-128574800D03*
X104537600Y-186130000D03*
X80467200Y-147269200D03*
X89458800Y-68478400D03*
X120556450Y-174013600D03*
X112877600Y-131759800D03*
X122301000Y-48750000D03*
X68114000Y-113613000D03*
X95300800Y-141884400D03*
X125831600Y-56235600D03*
X130039200Y-202589200D03*
X108204000Y-79883000D03*
X112979200Y-147421600D03*
X130657600Y-36169600D03*
X83007200Y-78130400D03*
X89484200Y-152654000D03*
X76047600Y-154990800D03*
X117694800Y-89508400D03*
X100420441Y-190332209D03*
X84886800Y-130403600D03*
X111607600Y-185115200D03*
X110409700Y-173928245D03*
X129286000Y-42824400D03*
X67987000Y-120979000D03*
X49682400Y-36169600D03*
X70662800Y-48310800D03*
X59232800Y-152806400D03*
X56946800Y-76708000D03*
X94093600Y-42678400D03*
X78384400Y-161798000D03*
X97383600Y-183997600D03*
X114198400Y-144272000D03*
X67005200Y-36830000D03*
X116000000Y-37250000D03*
X127254000Y-175666400D03*
X100838000Y-38100000D03*
X106112400Y-190092400D03*
X108966000Y-163144200D03*
X48768000Y-202793600D03*
X80306000Y-113232000D03*
X97343600Y-43678400D03*
X106984800Y-144322800D03*
X94093600Y-44928400D03*
X76860400Y-160430000D03*
X125116300Y-174584550D03*
X119241700Y-90982800D03*
X111150400Y-169976800D03*
X83921600Y-157581600D03*
X88544400Y-140462000D03*
%TO.N,~{M1CS}*%
X77004000Y-109676000D03*
X77258000Y-105231000D03*
X71800000Y-98949500D03*
X77224500Y-99000000D03*
%TO.N,~{CABORT}*%
X64304000Y-68909000D03*
X76343500Y-71604000D03*
X66348000Y-68937000D03*
%TO.N,CBE*%
X74839853Y-74262451D03*
X76334944Y-65905056D03*
%TO.N,~{CRES}*%
X69180000Y-67502500D03*
X69189600Y-64922400D03*
%TO.N,CRDY*%
X77143000Y-72366000D03*
X68455500Y-70842000D03*
X67513200Y-65024000D03*
X67500000Y-67462500D03*
%TO.N,A0*%
X103558076Y-148352384D03*
X93167200Y-99695000D03*
X102469929Y-192006346D03*
X88517500Y-98075500D03*
X89883525Y-99274348D03*
X103581200Y-175260000D03*
X107377100Y-112547400D03*
X76500000Y-98224500D03*
%TO.N,A1*%
X93310800Y-100808600D03*
X75700000Y-97500000D03*
X103206500Y-147395000D03*
X106629200Y-113538000D03*
X101827263Y-192705300D03*
X102614005Y-165098800D03*
X78172400Y-100532000D03*
X75726020Y-100219266D03*
%TO.N,A2*%
X74922740Y-99624500D03*
X105906700Y-115062000D03*
X101856500Y-148030000D03*
X78782000Y-101483100D03*
X101822705Y-163676400D03*
X74900000Y-96700000D03*
X94530000Y-101483100D03*
X74922740Y-101446400D03*
%TO.N,A3*%
X104206500Y-149046000D03*
X108077000Y-104179500D03*
X96356000Y-104037200D03*
X74111371Y-100208180D03*
X105226305Y-166064000D03*
X101126294Y-103673906D03*
X74100000Y-95900000D03*
%TO.N,A4*%
X73288000Y-95000000D03*
X104444800Y-117652800D03*
X104280557Y-100693748D03*
X73300000Y-99624500D03*
X99422844Y-163143000D03*
X95546000Y-102157600D03*
X99483000Y-144688500D03*
X73300000Y-102157600D03*
X77918400Y-102157600D03*
%TO.N,A5*%
X75988000Y-116407000D03*
X66100000Y-95000000D03*
%TO.N,A6*%
X76581150Y-117148437D03*
X65300000Y-94000000D03*
%TO.N,A7*%
X77263189Y-117822937D03*
X65100000Y-92300000D03*
%TO.N,A8*%
X76369000Y-118497437D03*
X65900000Y-91200000D03*
%TO.N,A9*%
X66900000Y-90400000D03*
X76877000Y-119455000D03*
%TO.N,A10*%
X88434000Y-118920003D03*
X80560000Y-90245000D03*
%TO.N,A11*%
X88434000Y-117970500D03*
X83325500Y-87959000D03*
%TO.N,~{CVP}*%
X77974893Y-73312107D03*
X67618000Y-75922000D03*
%TO.N,~{CML}*%
X77270000Y-69826000D03*
X63300000Y-73400000D03*
%TO.N,D0*%
X91459505Y-166775200D03*
X97663000Y-111074200D03*
X99508400Y-198423600D03*
X97705000Y-128421200D03*
X97705000Y-108889800D03*
X83354000Y-110819000D03*
%TO.N,D1*%
X83354000Y-111768503D03*
X98501200Y-112623600D03*
X98467000Y-129056200D03*
X96647000Y-112623600D03*
X98467000Y-109930000D03*
X100493344Y-198392544D03*
X92196105Y-167689600D03*
%TO.N,D2*%
X93034305Y-168324600D03*
X99212400Y-113395500D03*
X95808800Y-113395500D03*
X101439833Y-198468131D03*
X99215945Y-129678775D03*
X83354000Y-113994000D03*
X99229000Y-108660000D03*
%TO.N,D3*%
X99974400Y-116382800D03*
X96799400Y-116357400D03*
X102387474Y-198408709D03*
X99903739Y-130333369D03*
X83354000Y-114943503D03*
X93720105Y-170153400D03*
X99991000Y-107517000D03*
%TO.N,~{MWR}*%
X100499000Y-142823000D03*
X103713500Y-122732800D03*
X96104800Y-102970400D03*
X83975500Y-86258400D03*
X83975500Y-102868800D03*
X98698505Y-165454400D03*
X84584500Y-110057000D03*
X101388000Y-194054800D03*
%TO.N,A19*%
X92244000Y-85673000D03*
X87926000Y-110144500D03*
%TO.N,A12*%
X86876195Y-110048583D03*
X87164000Y-72211000D03*
X91355000Y-117296000D03*
X86910000Y-117296000D03*
%TO.N,A13*%
X88307000Y-116470000D03*
X85894000Y-116470000D03*
X85969073Y-72130927D03*
X85939038Y-109895971D03*
%TO.N,A14*%
X85296080Y-109197287D03*
X84800000Y-72400000D03*
X88434000Y-115071003D03*
X85219500Y-115071003D03*
%TO.N,D4*%
X94428005Y-170966200D03*
X100711000Y-115290600D03*
X100753000Y-105993000D03*
X100753000Y-130758000D03*
X103022400Y-199288400D03*
%TO.N,D5*%
X104030409Y-199230813D03*
X101473000Y-114503200D03*
X95117105Y-172363200D03*
X101475500Y-104977000D03*
X101471300Y-131516380D03*
%TO.N,D6*%
X102150000Y-132180400D03*
X95777505Y-173709400D03*
X102145800Y-111887000D03*
X104901771Y-198540143D03*
X102133400Y-103200200D03*
%TO.N,D7*%
X103013600Y-102411600D03*
X96514105Y-174573000D03*
X103039000Y-132536000D03*
X105569693Y-199255298D03*
X102895400Y-110439200D03*
%TO.N,~{MRD}*%
X89323000Y-110070000D03*
X102283371Y-193738787D03*
X105198000Y-100938400D03*
X91300000Y-86146500D03*
X105003600Y-95224600D03*
X100499000Y-145871000D03*
X104267000Y-92252800D03*
X100634800Y-163525200D03*
%TO.N,A15*%
X89577000Y-108660000D03*
X90216243Y-86483757D03*
%TO.N,A16*%
X88900000Y-86300000D03*
X90201984Y-107781015D03*
%TO.N,A17*%
X88989684Y-87307101D03*
X89895000Y-106520143D03*
%TO.N,A18*%
X89100000Y-88300497D03*
X90839720Y-106424960D03*
%TO.N,A20*%
X90974000Y-105485000D03*
X89100000Y-89300000D03*
%TO.N,~{FLASHCS}*%
X113233200Y-59791600D03*
X112623600Y-91948000D03*
%TO.N,FSCK*%
X117657200Y-69312200D03*
X102700000Y-69680000D03*
X121437400Y-134416800D03*
X118134000Y-97258591D03*
X102153000Y-52980000D03*
X120599000Y-82528591D03*
X118784500Y-165963600D03*
%TO.N,FMOSI*%
X114996600Y-128727200D03*
X117448500Y-83268591D03*
X120050000Y-68480000D03*
X118556400Y-132359800D03*
X102900000Y-56380000D03*
X112369600Y-128676400D03*
X103750000Y-68464500D03*
X109270800Y-162153600D03*
%TO.N,FMISO*%
X115671600Y-133654800D03*
X116051296Y-89541296D03*
X95550000Y-52580000D03*
X115011200Y-160934400D03*
X114424000Y-93929200D03*
X114424000Y-95993091D03*
X121250000Y-67980000D03*
X101450000Y-67884500D03*
X111621700Y-134061200D03*
%TO.N,/NORA FPGA/ATTBTN*%
X87985600Y-51308000D03*
X127508000Y-52578000D03*
X84315500Y-67665600D03*
X101142800Y-50596800D03*
%TO.N,/USB-Terminal/USBD_P*%
X111757847Y-52046797D03*
X130098800Y-45196303D03*
%TO.N,+1V2*%
X83210400Y-95148400D03*
X78282800Y-86512400D03*
X95605600Y-61722000D03*
X99610000Y-141807000D03*
X95250000Y-117856000D03*
X109372400Y-170027600D03*
X104140000Y-79883000D03*
X113893600Y-142900400D03*
X92252800Y-98704400D03*
X97555505Y-169899400D03*
X100279200Y-71678800D03*
X104851200Y-70053200D03*
X95250000Y-123139200D03*
X89458800Y-49174400D03*
%TO.N,/PS2 Kbd+Mouse\u002C UEXT/UE_3V3*%
X128841500Y-86296500D03*
X126746000Y-88392000D03*
%TO.N,Net-(U201-NC{slash}E)*%
X78000000Y-66680000D03*
X75873000Y-76176000D03*
%TO.N,CPUTYPE02*%
X125250000Y-57250000D03*
X120250000Y-58500000D03*
%TO.N,/USB-Terminal/FTDI1V8*%
X110300000Y-46200000D03*
X112623600Y-48869600D03*
X119900000Y-47050000D03*
%TO.N,/USB-Terminal/USBD_N*%
X130098800Y-44246800D03*
X111899901Y-51107981D03*
%TO.N,/USB-Terminal/CC2*%
X131368800Y-40589200D03*
%TO.N,NORADONE*%
X99661578Y-62307538D03*
X86664800Y-52654200D03*
X97332800Y-89966800D03*
%TO.N,~{NORARST}*%
X99517200Y-63246000D03*
X98196400Y-89394500D03*
%TO.N,ICD_SCK*%
X91553500Y-55168800D03*
X99425000Y-55155000D03*
%TO.N,ICD_MISO*%
X104000000Y-56750000D03*
X102835934Y-52320336D03*
%TO.N,I2C_SDA*%
X90779600Y-82143600D03*
X70916800Y-52578000D03*
X70993000Y-61239400D03*
X88366600Y-62661800D03*
%TO.N,I2C_SCL*%
X70104000Y-61925200D03*
X87491700Y-63144400D03*
X89814400Y-82854800D03*
X70496300Y-54508400D03*
%TO.N,~{VCS0}*%
X97207605Y-169010400D03*
X97273200Y-140511600D03*
X72339200Y-138836400D03*
X86664800Y-78892400D03*
%TO.N,~{VIRQ}*%
X75082400Y-139561700D03*
X86664800Y-81178400D03*
%TO.N,/USB-Terminal/ICD2NORAROM*%
X96900000Y-56500000D03*
X99400000Y-56500000D03*
%TO.N,+3V3*%
X85674200Y-154508200D03*
X116890800Y-166420800D03*
X96469200Y-162001200D03*
X94538800Y-195275200D03*
X65836800Y-120548400D03*
X111963200Y-159131000D03*
X97383600Y-185013600D03*
X124693800Y-42570400D03*
X113893600Y-201676000D03*
X118237000Y-47599600D03*
X77419200Y-133400800D03*
X96367600Y-109423200D03*
X66366557Y-50567757D03*
X93827600Y-48666400D03*
X80924400Y-66040000D03*
X120243600Y-129540000D03*
X114401600Y-71221600D03*
X97207605Y-171871500D03*
X89865200Y-71374000D03*
X100850000Y-96750000D03*
X93878400Y-49987200D03*
X73152000Y-77825600D03*
X103378000Y-51155600D03*
X42367200Y-46736000D03*
X101473000Y-75946000D03*
X107238800Y-89001600D03*
X86944200Y-165910900D03*
X77927200Y-112014000D03*
X74472800Y-172720000D03*
X83058000Y-86817200D03*
X109474000Y-145796000D03*
X116027200Y-95300800D03*
X99445839Y-143739727D03*
X115773200Y-43383200D03*
X128473200Y-83667600D03*
X91355000Y-112597000D03*
X61645800Y-54991000D03*
X122732800Y-100736400D03*
X92760800Y-89865200D03*
X118516400Y-73812400D03*
X59283600Y-99466400D03*
X101850000Y-91700000D03*
X115722400Y-137566400D03*
X133908800Y-80721200D03*
X77774800Y-144272000D03*
X62382400Y-68681600D03*
X120091200Y-112115600D03*
X82753200Y-74558703D03*
X69088000Y-100025200D03*
X105100000Y-45950000D03*
X112369600Y-81940400D03*
X100939600Y-36169600D03*
X63449200Y-77876400D03*
X76962000Y-52527200D03*
X75539600Y-111201200D03*
X41859200Y-103784400D03*
X81864200Y-145973800D03*
X104294300Y-42672000D03*
X72796400Y-153670000D03*
X91186000Y-89408000D03*
X118262400Y-56210200D03*
X103249953Y-137805818D03*
X123444000Y-164236400D03*
X91440000Y-140665200D03*
X82042000Y-150114000D03*
X97129600Y-59131200D03*
X63296800Y-65481200D03*
X45923200Y-95605600D03*
X83100000Y-112724000D03*
X105816400Y-176022000D03*
X75641200Y-126136400D03*
X107035600Y-173197000D03*
X120497600Y-175293400D03*
X80205889Y-91126000D03*
X128625600Y-59639200D03*
X117602000Y-175310800D03*
X75488800Y-48514000D03*
X121107200Y-124917200D03*
X99364800Y-201701400D03*
X101396800Y-81045500D03*
X115104000Y-186333200D03*
X88696800Y-124663200D03*
X122428000Y-50088800D03*
X112776000Y-56286400D03*
X89001600Y-131216400D03*
X108102400Y-183337200D03*
X93704500Y-68427600D03*
X96824800Y-137160000D03*
%TO.N,CPULED0*%
X83295013Y-81499864D03*
X56910500Y-82346800D03*
%TO.N,CPULED1*%
X83108800Y-80568800D03*
X56946800Y-80873600D03*
%TO.N,/Power Supply/RAW3V3*%
X100279200Y-46786800D03*
X99517200Y-38912800D03*
%TO.N,/Power Supply/RAW1V2*%
X89966800Y-38862000D03*
X90170000Y-44856400D03*
%TO.N,PS2M_DATA*%
X105130600Y-91440000D03*
X105873000Y-95986600D03*
%TO.N,PS2M_CLK*%
X106807000Y-95656400D03*
X105856400Y-90525600D03*
%TO.N,R_AUDIO*%
X123901200Y-168910000D03*
X119380000Y-166827200D03*
%TO.N,/Ethernet/~{WIZRST}*%
X104267000Y-200456800D03*
X107797600Y-196596000D03*
%TO.N,/Ethernet/1V2A*%
X110074800Y-194410400D03*
X109160400Y-196239200D03*
%TO.N,Net-(D802-K)*%
X98907600Y-138074400D03*
X101701600Y-138328400D03*
%TO.N,VERAFCS*%
X118013000Y-131084800D03*
X117144800Y-126339600D03*
X118973600Y-59994800D03*
X123139200Y-126339600D03*
%TO.N,AURAFCS*%
X117805200Y-60604400D03*
X124815600Y-163169600D03*
%TO.N,~{VRST}*%
X110774073Y-140898473D03*
X123342400Y-136042400D03*
X111252000Y-136652000D03*
X120523000Y-60731400D03*
%TO.N,~{ARST}*%
X113944400Y-165354000D03*
X117348000Y-61823600D03*
X106995758Y-169871500D03*
X121310400Y-165201600D03*
%TO.N,/SD-Card/CLK*%
X90322400Y-123545600D03*
X90271600Y-128574800D03*
%TO.N,/SD-Card/DAT0*%
X89662000Y-122834400D03*
X89560400Y-126593600D03*
%TO.N,/Sound Output/SPK2*%
X67970400Y-171602400D03*
X59385200Y-174142400D03*
%TO.N,/Ethernet/LEDYK*%
X113284000Y-183199400D03*
%TO.N,/Ethernet/LEDGK*%
X111201200Y-182524400D03*
%TO.N,/Ethernet/TDN*%
X120895200Y-195309500D03*
%TO.N,/Ethernet/RDN*%
X114909600Y-191857600D03*
%TO.N,VFPGA_CDONE*%
X83108800Y-124650300D03*
X91287600Y-153263600D03*
X83159600Y-126644400D03*
X81189200Y-149188800D03*
X83616800Y-132892800D03*
X111810800Y-140868400D03*
X103124000Y-153314400D03*
X91236800Y-150012400D03*
%TO.N,AFPGA_CDONE*%
X107696000Y-175006000D03*
X87680800Y-149148800D03*
X108051600Y-170383200D03*
X88239600Y-178409600D03*
%TO.N,/Sound Output/MONOMIX*%
X124460000Y-178257200D03*
X123139200Y-166166800D03*
X83515200Y-174396400D03*
X83362800Y-179374800D03*
%TO.N,VSYSCLK*%
X91948000Y-151739600D03*
X91948000Y-145440400D03*
%TO.N,ASYSCLK*%
X90807500Y-172669200D03*
X90807500Y-180071900D03*
%TO.N,~{VSPI_SSEL}*%
X83413600Y-134874000D03*
X92035500Y-137668000D03*
X109270800Y-131165600D03*
X95961200Y-126150500D03*
X83464400Y-137668000D03*
X111622200Y-131114800D03*
%TO.N,VAUDIO_BCK*%
X106324400Y-155702000D03*
X106984800Y-165912800D03*
%TO.N,VAUDIO_DATA*%
X107659288Y-167186930D03*
X106988011Y-154770280D03*
%TO.N,AUDIO_DATA*%
X112790100Y-172567600D03*
X111201200Y-172581700D03*
%TO.N,VAUDIO_LRCK*%
X107918353Y-154580493D03*
X107696000Y-168656000D03*
%TO.N,~{AFLASH_SSEL}*%
X105816400Y-159837600D03*
X103554805Y-161493200D03*
%TO.N,ASPI_SCK*%
X106019600Y-163779200D03*
X104275205Y-162763200D03*
%TO.N,~{ERST}*%
X105765600Y-204012800D03*
X86664800Y-76911200D03*
%TO.N,/Ethernet/XSCI*%
X89662000Y-172770800D03*
X90017600Y-182016400D03*
%TO.N,UE_SCL*%
X115163600Y-79806800D03*
X117411500Y-78016100D03*
%TO.N,/LEDs\u002C RTC\u002C SNES/NESCLOCK5*%
X47498000Y-83413600D03*
X59893200Y-150876000D03*
X61010800Y-58318400D03*
X58318400Y-57353200D03*
%TO.N,/LEDs\u002C RTC\u002C SNES/NESLATCH5*%
X60248800Y-156565600D03*
X48514000Y-82448400D03*
%TO.N,/LEDs\u002C RTC\u002C SNES/NES1DATA5*%
X44196000Y-82550000D03*
X58521600Y-160121600D03*
%TO.N,~{ECS2}*%
X86664800Y-75946000D03*
X72085200Y-181305200D03*
X101311416Y-190660415D03*
X101092000Y-181420900D03*
%TO.N,~{ACS1}*%
X86614000Y-80060800D03*
X75387200Y-177749200D03*
%TO.N,VSPI_MOSI*%
X79908400Y-123915300D03*
X79857600Y-127250300D03*
X79908400Y-140309600D03*
%TO.N,VSPI_SCK*%
X85902800Y-127965200D03*
X109423200Y-135077200D03*
X94183200Y-125425200D03*
X94183200Y-127914400D03*
X111404400Y-135178800D03*
X85090000Y-141732000D03*
%TO.N,VSPI_MISO*%
X91592400Y-125918600D03*
X111658400Y-133045200D03*
X90779600Y-142951200D03*
X108647100Y-133045200D03*
%TO.N,~{SD_SSEL}*%
X84124800Y-125349300D03*
X89154000Y-177038000D03*
X90068400Y-134162800D03*
X84582000Y-134061200D03*
%TO.N,~{VFLASH_SSEL}*%
X88950800Y-136144000D03*
X89204800Y-144272000D03*
%TO.N,ASPI_MISO*%
X102920800Y-160172400D03*
X106070400Y-158394400D03*
%TO.N,~{AIRQ}*%
X105968800Y-173990000D03*
X104597200Y-81026000D03*
X118821200Y-164338000D03*
%TO.N,UE_SDA*%
X113715800Y-78359000D03*
X116357400Y-75692000D03*
%TO.N,Net-(D1003-K)*%
X47650400Y-175564800D03*
X61518800Y-175564800D03*
%TO.N,~{EIRQ}*%
X110947200Y-203149200D03*
X86782571Y-82120571D03*
%TO.N,VEAURADONE*%
X74574400Y-145796000D03*
X86715600Y-77876400D03*
%TO.N,/NORA FPGA/FIO2*%
X119924000Y-94168591D03*
X118174000Y-94168591D03*
%TO.N,~{UE_CS3}*%
X104597200Y-78951500D03*
%TO.N,~{UE_IRQ}*%
X104394000Y-85545500D03*
%TO.N,+5V*%
X131419600Y-108661200D03*
X102057200Y-40132000D03*
X69443600Y-169011600D03*
X88900000Y-39827200D03*
X63347600Y-158699200D03*
X59999100Y-57200800D03*
X124612400Y-39014400D03*
X131013200Y-62179200D03*
%TO.N,DIPLED0*%
X92053500Y-56337200D03*
%TO.N,DIPLED1*%
X86614000Y-68326000D03*
%TD*%
D34*
%TO.N,DIPLED0*%
X85928200Y-56337200D02*
X92053500Y-56337200D01*
%TO.N,DIPLED1*%
X83210400Y-58242200D02*
X83210400Y-57962800D01*
X83210400Y-57962800D02*
X79527400Y-54279800D01*
X79527400Y-54279800D02*
X79527400Y-52120800D01*
X86817200Y-58293000D02*
X86842600Y-58267600D01*
X86817200Y-60401200D02*
X86817200Y-58293000D01*
%TO.N,NORADONE*%
X87265600Y-53255000D02*
X95829595Y-53255000D01*
X100431600Y-61537516D02*
X99661578Y-62307538D01*
X86664800Y-52654200D02*
X87265600Y-53255000D01*
X95829595Y-53255000D02*
X95896995Y-53187600D01*
X95896995Y-53187600D02*
X100431600Y-53187600D01*
X100431600Y-53187600D02*
X100431600Y-61537516D01*
%TO.N,GND*%
X137335000Y-40640000D02*
X137335000Y-49000000D01*
X137600000Y-40375000D02*
X137335000Y-40640000D01*
X134325000Y-41700000D02*
X132975000Y-41700000D01*
X132975000Y-47650000D02*
X134325000Y-47650000D01*
X137335000Y-40350000D02*
X137575000Y-40350000D01*
X137575000Y-40350000D02*
X137600000Y-40375000D01*
%TO.N,~{M1CS}*%
X77224500Y-97624500D02*
X77224500Y-99000000D01*
X71800000Y-95462695D02*
X72987695Y-94275000D01*
X71800000Y-98949500D02*
X71800000Y-95462695D01*
X77004000Y-109676000D02*
X77004000Y-105485000D01*
X72987695Y-94275000D02*
X73875000Y-94275000D01*
X73875000Y-94275000D02*
X77224500Y-97624500D01*
X77004000Y-105485000D02*
X77258000Y-105231000D01*
%TO.N,~{CABORT}*%
X70412000Y-71604000D02*
X76343500Y-71604000D01*
X66320000Y-68909000D02*
X66348000Y-68937000D01*
X68291000Y-69446505D02*
X68291000Y-69483000D01*
X66840505Y-68937000D02*
X67020505Y-69117000D01*
X67961495Y-69117000D02*
X68291000Y-69446505D01*
X67020505Y-69117000D02*
X67961495Y-69117000D01*
X68291000Y-69483000D02*
X70412000Y-71604000D01*
X64304000Y-68909000D02*
X66320000Y-68909000D01*
X66348000Y-68937000D02*
X66840505Y-68937000D01*
%TO.N,CBE*%
X77993286Y-74262451D02*
X74839853Y-74262451D01*
X78659893Y-73595844D02*
X77993286Y-74262451D01*
X78659893Y-70139893D02*
X78659893Y-73595844D01*
X76300000Y-65940000D02*
X76300000Y-67780000D01*
X76334944Y-65905056D02*
X76300000Y-65940000D01*
X76300000Y-67780000D02*
X78659893Y-70139893D01*
%TO.N,~{CRES}*%
X69189600Y-64922400D02*
X69180000Y-64932000D01*
X69180000Y-64932000D02*
X69180000Y-67502500D01*
%TO.N,CRDY*%
X68455500Y-70917500D02*
X68455500Y-70842000D01*
X77143000Y-72366000D02*
X69904000Y-72366000D01*
X69904000Y-72366000D02*
X68455500Y-70917500D01*
X67513200Y-65024000D02*
X67500000Y-65037200D01*
X67500000Y-65037200D02*
X67500000Y-67462500D01*
%TO.N,A0*%
X103623200Y-175970000D02*
X103623200Y-163956614D01*
X76499500Y-98200500D02*
X76500000Y-98200000D01*
X103623200Y-163956614D02*
X101574600Y-161908014D01*
X88517500Y-98075500D02*
X88684677Y-98075500D01*
X102469929Y-192006346D02*
X102556400Y-191919875D01*
X107304200Y-98884005D02*
X107304200Y-115184780D01*
X107304200Y-115184780D02*
X106972000Y-115516980D01*
X106826595Y-98406400D02*
X107304200Y-98884005D01*
X106972000Y-115516980D02*
X106972000Y-141684000D01*
X88684677Y-98075500D02*
X89883525Y-99274348D01*
X76500000Y-98200000D02*
X76500000Y-98224500D01*
X94758405Y-98406400D02*
X106826595Y-98406400D01*
X101574600Y-150335860D02*
X103558076Y-148352384D01*
X93469805Y-99695000D02*
X94758405Y-98406400D01*
X101574600Y-161908014D02*
X101574600Y-150335860D01*
X93167200Y-99695000D02*
X93469805Y-99695000D01*
X102556400Y-191919875D02*
X102556400Y-177036800D01*
X104055000Y-147855460D02*
X103558076Y-148352384D01*
X106972000Y-141684000D02*
X104055000Y-144601000D01*
X104055000Y-144601000D02*
X104055000Y-147855460D01*
X102556400Y-177036800D02*
X103623200Y-175970000D01*
%TO.N,A1*%
X101713391Y-163001400D02*
X102102300Y-163001400D01*
X102531500Y-148070000D02*
X102531500Y-148309595D01*
X106581700Y-99116100D02*
X106547000Y-99081400D01*
X106572000Y-115351295D02*
X106581700Y-115341595D01*
X106547000Y-99081400D02*
X95038000Y-99081400D01*
X99610000Y-190488037D02*
X101827263Y-192705300D01*
X102497705Y-176010181D02*
X99610000Y-178897886D01*
X102531500Y-148309595D02*
X100939600Y-149901495D01*
X75726020Y-100219266D02*
X75700000Y-100193246D01*
X76038754Y-100532000D02*
X75726020Y-100219266D01*
X103206500Y-144560500D02*
X106572000Y-141195000D01*
X95038000Y-99081400D02*
X93310800Y-100808600D01*
X100939600Y-149901495D02*
X100939600Y-162227609D01*
X78172400Y-100532000D02*
X76038754Y-100532000D01*
X102497705Y-163396805D02*
X102497705Y-176010181D01*
X102102300Y-163001400D02*
X102497705Y-163396805D01*
X106572000Y-141195000D02*
X106572000Y-115351295D01*
X99610000Y-178897886D02*
X99610000Y-190488037D01*
X75700000Y-100193246D02*
X75700000Y-97500000D01*
X100939600Y-162227609D02*
X101713391Y-163001400D01*
X103206500Y-147395000D02*
X102531500Y-148070000D01*
X103206500Y-147395000D02*
X103206500Y-144560500D01*
X106581700Y-115341595D02*
X106581700Y-99116100D01*
%TO.N,A2*%
X101822705Y-163676400D02*
X100283000Y-162136695D01*
X74959440Y-101483100D02*
X74922740Y-101446400D01*
X100283000Y-162136695D02*
X100283000Y-149603500D01*
X106172000Y-130403600D02*
X105872500Y-130104100D01*
X94530000Y-101598800D02*
X94530000Y-101483100D01*
X74900000Y-99601760D02*
X74900000Y-96900000D01*
X106172000Y-140763686D02*
X106172000Y-130403600D01*
X100283000Y-149603500D02*
X101856500Y-148030000D01*
X105872500Y-130104100D02*
X105872500Y-99973200D01*
X101856500Y-145079186D02*
X106172000Y-140763686D01*
X74900000Y-96900000D02*
X74900000Y-96700000D01*
X74922740Y-99624500D02*
X74900000Y-99601760D01*
X105872500Y-99973200D02*
X96612800Y-99973200D01*
X96612800Y-99973200D02*
X94987200Y-101598800D01*
X78782000Y-101483100D02*
X74959440Y-101483100D01*
X94987200Y-101598800D02*
X94530000Y-101598800D01*
X101856500Y-148030000D02*
X101856500Y-145079186D01*
%TO.N,A3*%
X74300000Y-100396809D02*
X74111371Y-100208180D01*
X104023200Y-163790928D02*
X102209600Y-161977328D01*
X100763000Y-104037200D02*
X101126294Y-103673906D01*
X102209600Y-151042900D02*
X104206500Y-149046000D01*
X105248800Y-166041505D02*
X105248800Y-165505200D01*
X107372000Y-142173000D02*
X107372000Y-116884600D01*
X108077000Y-104698800D02*
X108051600Y-104724200D01*
X74111371Y-100208180D02*
X74100000Y-100196809D01*
X105226305Y-166064000D02*
X105248800Y-166041505D01*
X102209600Y-161977328D02*
X102209600Y-151042900D01*
X108077000Y-104179500D02*
X108077000Y-104698800D01*
X104690000Y-148562500D02*
X104690000Y-144855000D01*
X104690000Y-144855000D02*
X107372000Y-142173000D01*
X74100000Y-100196809D02*
X74100000Y-95900000D01*
X104023200Y-164279600D02*
X104023200Y-163790928D01*
X96356000Y-104037200D02*
X100763000Y-104037200D01*
X107372000Y-116884600D02*
X108051600Y-116205000D01*
X108051600Y-116205000D02*
X108051600Y-104724200D01*
X111415000Y-116205000D02*
X108051600Y-116205000D01*
X104206500Y-149046000D02*
X104690000Y-148562500D01*
X96356000Y-104037200D02*
X96446800Y-104128000D01*
X105248800Y-165505200D02*
X104023200Y-164279600D01*
X112540000Y-115080000D02*
X111415000Y-116205000D01*
%TO.N,A4*%
X104419400Y-100832591D02*
X104280557Y-100693748D01*
X101346000Y-143119000D02*
X101346000Y-142748000D01*
X73300000Y-96000000D02*
X73300000Y-99624500D01*
X77918400Y-102157600D02*
X73300000Y-102157600D01*
X99483000Y-144688500D02*
X99288600Y-144882900D01*
X104419400Y-131819114D02*
X104419400Y-100832591D01*
X104280557Y-100693748D02*
X97009852Y-100693748D01*
X105308400Y-132708114D02*
X104419400Y-131819114D01*
X99288600Y-163008756D02*
X99422844Y-163143000D01*
X99483000Y-144688500D02*
X99776500Y-144688500D01*
X101346000Y-142748000D02*
X105308400Y-138785600D01*
X73288000Y-95988000D02*
X73300000Y-96000000D01*
X105308400Y-138785600D02*
X105308400Y-132708114D01*
X99288600Y-144882900D02*
X99288600Y-163008756D01*
X73288000Y-95000000D02*
X73288000Y-95988000D01*
X99776500Y-144688500D02*
X101346000Y-143119000D01*
X97009852Y-100693748D02*
X95546000Y-102157600D01*
%TO.N,A5*%
X76013400Y-116381600D02*
X75988000Y-116407000D01*
X66082000Y-116407000D02*
X75988000Y-116407000D01*
X66100000Y-99601760D02*
X66100000Y-95000000D01*
X66100000Y-99601760D02*
X66100000Y-116389000D01*
X66100000Y-116389000D02*
X66082000Y-116407000D01*
%TO.N,A6*%
X65300000Y-100196809D02*
X65300000Y-94000000D01*
X65300000Y-116190686D02*
X66257751Y-117148437D01*
X65300000Y-100196809D02*
X65300000Y-116190686D01*
X66257751Y-117148437D02*
X76581150Y-117148437D01*
%TO.N,A7*%
X64500000Y-115956372D02*
X66366565Y-117822937D01*
X64500000Y-99624500D02*
X64500000Y-92900000D01*
X64500000Y-92900000D02*
X65100000Y-92300000D01*
X66366565Y-117822937D02*
X77263189Y-117822937D01*
X64500000Y-99624500D02*
X64500000Y-115956372D01*
%TO.N,A8*%
X63700000Y-100300000D02*
X63700000Y-92000000D01*
X63700000Y-92000000D02*
X64500000Y-91200000D01*
X63700000Y-100300000D02*
X63700000Y-115722058D01*
X66475379Y-118497437D02*
X76369000Y-118497437D01*
X64500000Y-91200000D02*
X65900000Y-91200000D01*
X63700000Y-115722058D02*
X66475379Y-118497437D01*
%TO.N,A9*%
X63200000Y-90400000D02*
X62900000Y-90700000D01*
X66900000Y-90400000D02*
X63200000Y-90400000D01*
X66867257Y-119455000D02*
X76877000Y-119455000D01*
X62900000Y-90700000D02*
X62900000Y-99624500D01*
X62900000Y-99624500D02*
X62900000Y-115487743D01*
X62900000Y-115487743D02*
X66867257Y-119455000D01*
%TO.N,A10*%
X82025000Y-91710000D02*
X82025000Y-93674000D01*
X82025000Y-93674000D02*
X82025000Y-117040686D01*
X83904317Y-118920003D02*
X88434000Y-118920003D01*
X82025000Y-117040686D02*
X83904317Y-118920003D01*
X80560000Y-90245000D02*
X82025000Y-91710000D01*
%TO.N,A11*%
X83325500Y-90019500D02*
X82425000Y-90920000D01*
X83521000Y-117971000D02*
X88433500Y-117971000D01*
X88433500Y-117971000D02*
X88434000Y-117970500D01*
X83325500Y-87959000D02*
X83325500Y-90019500D01*
X82425000Y-116875000D02*
X83521000Y-117971000D01*
X82425000Y-90920000D02*
X82425000Y-116875000D01*
%TO.N,~{CVP}*%
X77917786Y-73255000D02*
X69650000Y-73255000D01*
X77974893Y-73312107D02*
X77917786Y-73255000D01*
X69650000Y-73255000D02*
X67618000Y-75287000D01*
X67618000Y-75287000D02*
X67618000Y-75922000D01*
%TO.N,~{CML}*%
X63300000Y-73400000D02*
X63014500Y-73114500D01*
X63014500Y-69185500D02*
X63988000Y-68212000D01*
X63014500Y-73114500D02*
X63014500Y-69185500D01*
X69523000Y-69826000D02*
X77270000Y-69826000D01*
X63988000Y-68212000D02*
X67909000Y-68212000D01*
X67909000Y-68212000D02*
X69523000Y-69826000D01*
%TO.N,D0*%
X96090800Y-111074200D02*
X96073000Y-111092000D01*
X92623000Y-163268833D02*
X92623000Y-145160805D01*
X91521105Y-190436303D02*
X91521105Y-164370728D01*
X97705000Y-128421200D02*
X97745000Y-128381200D01*
X99508400Y-198423600D02*
X91521105Y-190436303D01*
X92623000Y-145160805D02*
X92405200Y-144943005D01*
X92405200Y-144943005D02*
X92405200Y-138252895D01*
X92710500Y-137947595D02*
X92710500Y-133415700D01*
X91521105Y-164370728D02*
X92623000Y-163268833D01*
X95800000Y-110819000D02*
X96073000Y-111092000D01*
X92405200Y-138252895D02*
X92710500Y-137947595D01*
X92710500Y-133415700D02*
X97705000Y-128421200D01*
X97663000Y-111074200D02*
X96090800Y-111074200D01*
X97705000Y-128421200D02*
X97705000Y-108889800D01*
X83354000Y-110819000D02*
X95800000Y-110819000D01*
%TO.N,D1*%
X93023000Y-144995119D02*
X92805200Y-144777319D01*
X95860503Y-111768503D02*
X95927000Y-111835000D01*
X83354000Y-111768503D02*
X95860503Y-111768503D01*
X92805200Y-138418581D02*
X93110500Y-138113280D01*
X100183400Y-198392544D02*
X100183400Y-198144005D01*
X99399086Y-197748600D02*
X92359305Y-190708818D01*
X98467000Y-129056200D02*
X98519425Y-129003775D01*
X93023000Y-163434518D02*
X93023000Y-144995119D01*
X93110500Y-138113280D02*
X93110500Y-134412700D01*
X99787995Y-197748600D02*
X99399086Y-197748600D01*
X93110500Y-134412700D02*
X98467000Y-129056200D01*
X96647000Y-112555000D02*
X96647000Y-112623600D01*
X92359305Y-164098214D02*
X93023000Y-163434518D01*
X92805200Y-144777319D02*
X92805200Y-138418581D01*
X100183400Y-198144005D02*
X99787995Y-197748600D01*
X98467000Y-129056200D02*
X98467000Y-109930000D01*
X100493344Y-198392544D02*
X100183400Y-198392544D01*
X92359305Y-190708818D02*
X92359305Y-164098214D01*
X95927000Y-111835000D02*
X96647000Y-112555000D01*
%TO.N,D2*%
X93067600Y-170455490D02*
X93045105Y-170432995D01*
X93045105Y-170432995D02*
X93045105Y-163978100D01*
X83902000Y-113446000D02*
X95758300Y-113446000D01*
X93067600Y-190851428D02*
X93067600Y-170455490D01*
X99215945Y-129678775D02*
X99215945Y-108673055D01*
X99215945Y-129678775D02*
X99236351Y-129658369D01*
X93510500Y-135384220D02*
X99215945Y-129678775D01*
X93205200Y-138584266D02*
X93510500Y-138278965D01*
X95758300Y-113446000D02*
X95808800Y-113395500D01*
X93205200Y-144611633D02*
X93205200Y-138584266D01*
X93045105Y-163978100D02*
X93423000Y-163600203D01*
X93510500Y-138278965D02*
X93510500Y-135384220D01*
X99215945Y-108673055D02*
X99229000Y-108660000D01*
X83354000Y-113994000D02*
X83902000Y-113446000D01*
X101439833Y-198468131D02*
X101439833Y-198384438D01*
X99953680Y-197348600D02*
X99564772Y-197348600D01*
X100772939Y-197717544D02*
X100322625Y-197717544D01*
X100322625Y-197717544D02*
X99953680Y-197348600D01*
X93423000Y-144829433D02*
X93205200Y-144611633D01*
X93423000Y-163600203D02*
X93423000Y-144829433D01*
X101439833Y-198384438D02*
X100772939Y-197717544D01*
X99564772Y-197348600D02*
X93067600Y-190851428D01*
%TO.N,D3*%
X84156000Y-115745503D02*
X96187503Y-115745503D01*
X100927365Y-196948600D02*
X99730458Y-196948600D01*
X99991000Y-130246108D02*
X99991000Y-107517000D01*
X93823000Y-144663747D02*
X93605200Y-144445947D01*
X96187503Y-115745503D02*
X96799400Y-116357400D01*
X93910500Y-136326608D02*
X99903739Y-130333369D01*
X83354000Y-114943503D02*
X84156000Y-115745503D01*
X99730458Y-196948600D02*
X93753005Y-190971147D01*
X93605200Y-144445947D02*
X93605200Y-138749951D01*
X93910500Y-138444650D02*
X93910500Y-136326608D01*
X93753005Y-190971147D02*
X93753005Y-170686605D01*
X99903739Y-130333369D02*
X100154108Y-130083000D01*
X93823000Y-170045800D02*
X93823000Y-144663747D01*
X93467600Y-170401200D02*
X93823000Y-170045800D01*
X93753005Y-170686605D02*
X93467600Y-170401200D01*
X93605200Y-138749951D02*
X93910500Y-138444650D01*
X102387474Y-198408709D02*
X100927365Y-196948600D01*
X99903739Y-130333369D02*
X99991000Y-130246108D01*
%TO.N,~{MWR}*%
X97388437Y-101686763D02*
X103713500Y-101686763D01*
X104597200Y-133654800D02*
X103733600Y-132791200D01*
X100499000Y-142823000D02*
X104597200Y-138724800D01*
X99407971Y-142823000D02*
X100499000Y-142823000D01*
X104597200Y-138724800D02*
X104597200Y-133654800D01*
X83975500Y-86258400D02*
X84000000Y-86282900D01*
X84000000Y-86282900D02*
X84000000Y-109472500D01*
X84000000Y-109472500D02*
X84584500Y-110057000D01*
X103733600Y-101706863D02*
X103713500Y-101686763D01*
X101388000Y-194054800D02*
X98653600Y-191320400D01*
X96104800Y-102970400D02*
X97388437Y-101686763D01*
X98653600Y-143577371D02*
X99407971Y-142823000D01*
X103733600Y-132791200D02*
X103733600Y-101706863D01*
X98653600Y-191320400D02*
X98653600Y-143577371D01*
%TO.N,A19*%
X88247613Y-84725000D02*
X91296000Y-84725000D01*
X86167000Y-107371000D02*
X86167000Y-86805613D01*
X86167000Y-86805613D02*
X88247613Y-84725000D01*
X87926000Y-110144500D02*
X87926000Y-109130000D01*
X91296000Y-84725000D02*
X92244000Y-85673000D01*
X87926000Y-109130000D02*
X86167000Y-107371000D01*
%TO.N,A12*%
X85640000Y-86267200D02*
X89001600Y-82905600D01*
X89001600Y-82905600D02*
X89001600Y-74048600D01*
X86876195Y-108880195D02*
X85640000Y-107644000D01*
X89001600Y-74048600D02*
X87164000Y-72211000D01*
X86910000Y-117296000D02*
X91355000Y-117296000D01*
X85640000Y-107644000D02*
X85640000Y-86267200D01*
X86876195Y-110048583D02*
X86876195Y-108880195D01*
%TO.N,A13*%
X88601600Y-82594400D02*
X88601600Y-75701600D01*
X86021000Y-109814009D02*
X86021000Y-108787000D01*
X85969073Y-73069073D02*
X85969073Y-72130927D01*
X85100000Y-86096000D02*
X88601600Y-82594400D01*
X85100000Y-107866000D02*
X85100000Y-86096000D01*
X85939038Y-109895971D02*
X86021000Y-109814009D01*
X85894000Y-116470000D02*
X88307000Y-116470000D01*
X86021000Y-108787000D02*
X85100000Y-107866000D01*
X88601600Y-75701600D02*
X85969073Y-73069073D01*
%TO.N,A14*%
X88201600Y-82130800D02*
X88201600Y-76051600D01*
X85219500Y-115071003D02*
X88434000Y-115071003D01*
X88201600Y-76051600D02*
X84800000Y-72650000D01*
X85296080Y-109197287D02*
X84650000Y-108551207D01*
X84800000Y-72650000D02*
X84800000Y-72400000D01*
X84650000Y-85682400D02*
X88201600Y-82130800D01*
X84650000Y-108551207D02*
X84650000Y-85682400D01*
%TO.N,D4*%
X94030800Y-138890036D02*
X94310500Y-138610335D01*
X94310500Y-137200500D02*
X100753000Y-130758000D01*
X101481960Y-196548600D02*
X100173400Y-196548600D01*
X100753000Y-130758000D02*
X100753000Y-105993000D01*
X94310500Y-138610335D02*
X94310500Y-137200500D01*
X94395105Y-144670167D02*
X94030800Y-144305862D01*
X100173400Y-196548600D02*
X94153005Y-190528205D01*
X94153005Y-190528205D02*
X94153005Y-170675095D01*
X94395105Y-170432995D02*
X94395105Y-144670167D01*
X94153005Y-170675095D02*
X94395105Y-170432995D01*
X103062474Y-198129114D02*
X101481960Y-196548600D01*
X94030800Y-144305862D02*
X94030800Y-138890036D01*
X103022400Y-199288400D02*
X103062474Y-199248326D01*
X103062474Y-199248326D02*
X103062474Y-198129114D01*
%TO.N,D5*%
X95103005Y-144812381D02*
X94430800Y-144140176D01*
X94430800Y-139055721D02*
X94710500Y-138776020D01*
X100339086Y-196148600D02*
X94553005Y-190362519D01*
X94710500Y-138776020D02*
X94710500Y-137648700D01*
X101471300Y-131516380D02*
X101526680Y-131461000D01*
X101813475Y-196148600D02*
X100339086Y-196148600D01*
X94430800Y-144140176D02*
X94430800Y-139055721D01*
X101471300Y-131516380D02*
X101471300Y-104981200D01*
X101471300Y-104981200D02*
X101475500Y-104977000D01*
X104030409Y-198365534D02*
X101813475Y-196148600D01*
X104030409Y-199230813D02*
X104030409Y-198365534D01*
X94710500Y-137648700D02*
X100842820Y-131516380D01*
X95103005Y-189812519D02*
X95103005Y-144812381D01*
X100842820Y-131516380D02*
X101471300Y-131516380D01*
X94553005Y-190362519D02*
X95103005Y-189812519D01*
%TO.N,D6*%
X102150000Y-103216800D02*
X102133400Y-103200200D01*
X95504000Y-144413795D02*
X95975800Y-143941995D01*
X95504000Y-173958300D02*
X95504000Y-172930900D01*
X95504000Y-171795500D02*
X95504000Y-144413795D01*
X95504000Y-172930900D02*
X95792105Y-172642795D01*
X100694200Y-195748600D02*
X95839105Y-190893504D01*
X95839105Y-174293405D02*
X95504000Y-173958300D01*
X104901771Y-198540143D02*
X102110228Y-195748600D01*
X102150000Y-133311720D02*
X102150000Y-132180400D01*
X95839105Y-190893504D02*
X95839105Y-174293405D01*
X102110228Y-195748600D02*
X100694200Y-195748600D01*
X95792105Y-172083605D02*
X95504000Y-171795500D01*
X102150000Y-132180400D02*
X102150000Y-103216800D01*
X95975800Y-139485920D02*
X102150000Y-133311720D01*
X95975800Y-143941995D02*
X95975800Y-139485920D01*
X95792105Y-172642795D02*
X95792105Y-172083605D01*
%TO.N,D7*%
X103045200Y-102380000D02*
X103013600Y-102411600D01*
X99684200Y-137399400D02*
X103039000Y-134044600D01*
X96555600Y-172174090D02*
X96928010Y-172546500D01*
X103039000Y-134044600D02*
X103039000Y-132536000D01*
X97487200Y-172546500D02*
X98230505Y-171803195D01*
X103039000Y-132536000D02*
X102895400Y-132392400D01*
X102895400Y-132392400D02*
X102895400Y-102529800D01*
X100859886Y-195348600D02*
X96555600Y-191044314D01*
X102895400Y-102529800D02*
X103013600Y-102411600D01*
X97948200Y-169337500D02*
X97948200Y-138079205D01*
X98628005Y-137399400D02*
X99684200Y-137399400D01*
X96555600Y-191044314D02*
X96555600Y-172174090D01*
X98230505Y-169619805D02*
X97948200Y-169337500D01*
X96928010Y-172546500D02*
X97487200Y-172546500D01*
X105576771Y-198260548D02*
X102664823Y-195348600D01*
X97948200Y-138079205D02*
X98628005Y-137399400D01*
X102664823Y-195348600D02*
X100859886Y-195348600D01*
X105569693Y-199255298D02*
X105576771Y-199248220D01*
X105576771Y-199248220D02*
X105576771Y-198260548D01*
X98230505Y-171803195D02*
X98230505Y-169619805D01*
%TO.N,~{MRD}*%
X99210000Y-191042632D02*
X101547668Y-193380300D01*
X89323000Y-110070000D02*
X88815000Y-109562000D01*
X88815000Y-108521372D02*
X86575000Y-106281372D01*
X105003600Y-95224600D02*
X105003600Y-92989400D01*
X86575000Y-106281372D02*
X86575000Y-86963299D01*
X100499000Y-145871000D02*
X105714800Y-140655200D01*
X86575000Y-86963299D02*
X88413299Y-85125000D01*
X88413299Y-85125000D02*
X90025000Y-85125000D01*
X105714800Y-140655200D02*
X105714800Y-132308600D01*
X101924884Y-193380300D02*
X102283371Y-193738787D01*
X105003600Y-92989400D02*
X104267000Y-92252800D01*
X99210000Y-176090600D02*
X99210000Y-191042632D01*
X100634800Y-174665800D02*
X99210000Y-176090600D01*
X91246500Y-86200000D02*
X91300000Y-86146500D01*
X91100000Y-86200000D02*
X91246500Y-86200000D01*
X101547668Y-193380300D02*
X101924884Y-193380300D01*
X88815000Y-109562000D02*
X88815000Y-108521372D01*
X105232200Y-100972600D02*
X105198000Y-100938400D01*
X100499000Y-145871000D02*
X99883000Y-146487000D01*
X99883000Y-146487000D02*
X99883000Y-162648561D01*
X99883000Y-162648561D02*
X100634800Y-163400361D01*
X90025000Y-85125000D02*
X91100000Y-86200000D01*
X100634800Y-163400361D02*
X100634800Y-174665800D01*
X105714800Y-132308600D02*
X105232200Y-131826000D01*
X105232200Y-131826000D02*
X105232200Y-100972600D01*
%TO.N,A15*%
X89577000Y-108660000D02*
X89519314Y-108660000D01*
X87418000Y-103884686D02*
X87025000Y-103491685D01*
X87025000Y-103491685D02*
X87025000Y-87149695D01*
X89519314Y-108660000D02*
X87418000Y-106558686D01*
X87418000Y-106558686D02*
X87418000Y-103884686D01*
X89307486Y-85575000D02*
X90216243Y-86483757D01*
X88599695Y-85575000D02*
X89307486Y-85575000D01*
X87025000Y-87149695D02*
X88599695Y-85575000D01*
%TO.N,A16*%
X87475000Y-90615792D02*
X87475000Y-87725000D01*
X87425000Y-103326000D02*
X87425000Y-90665792D01*
X87475000Y-87725000D02*
X88900000Y-86300000D01*
X87907000Y-103808000D02*
X87425000Y-103326000D01*
X89460015Y-107781015D02*
X87907000Y-106228000D01*
X87425000Y-90665792D02*
X87475000Y-90615792D01*
X90201984Y-107781015D02*
X89460015Y-107781015D01*
X87907000Y-106228000D02*
X87907000Y-103808000D01*
%TO.N,A17*%
X87926000Y-90730478D02*
X87926000Y-90626000D01*
X88307000Y-103199000D02*
X87842500Y-102734500D01*
X87842500Y-102734500D02*
X87842500Y-90813978D01*
X87842500Y-90813978D02*
X87926000Y-90730478D01*
X88307000Y-104932143D02*
X88307000Y-103199000D01*
X89895000Y-106520143D02*
X88307000Y-104932143D01*
X87926000Y-90626000D02*
X87925000Y-90625000D01*
X87925000Y-88371785D02*
X88989684Y-87307101D01*
X87925000Y-90625000D02*
X87925000Y-88371785D01*
%TO.N,A18*%
X88375000Y-88999695D02*
X89074198Y-88300497D01*
X90839720Y-106424960D02*
X90045000Y-105630240D01*
X90558525Y-91480525D02*
X89958000Y-90880000D01*
X89074198Y-88300497D02*
X89100000Y-88300497D01*
X88375000Y-90025000D02*
X88375000Y-88999695D01*
X90045000Y-101000000D02*
X90558525Y-100486475D01*
X90045000Y-105630240D02*
X90045000Y-101000000D01*
X90558525Y-100486475D02*
X90558525Y-91480525D01*
X89230000Y-90880000D02*
X88375000Y-90025000D01*
X89958000Y-90880000D02*
X89230000Y-90880000D01*
%TO.N,A20*%
X90974000Y-91174000D02*
X89100000Y-89300000D01*
X90974000Y-105485000D02*
X90974000Y-91174000D01*
%TO.N,~{FLASHCS}*%
X111694600Y-82637000D02*
X112623600Y-83566000D01*
X112623600Y-83566000D02*
X112623600Y-91948000D01*
X113233200Y-59791600D02*
X111694600Y-61330200D01*
X111694600Y-61330200D02*
X111694600Y-82637000D01*
%TO.N,FSCK*%
X120446800Y-135407400D02*
X121437400Y-134416800D01*
X121945400Y-69570600D02*
X121945400Y-67720805D01*
X120472200Y-71043800D02*
X121945400Y-69570600D01*
X120446800Y-164338000D02*
X120446800Y-135407400D01*
X118134000Y-97258591D02*
X118134000Y-128384995D01*
X121945400Y-67720805D02*
X121001195Y-66776600D01*
X101600000Y-53533000D02*
X102153000Y-52980000D01*
X120192800Y-66776600D02*
X117657200Y-69312200D01*
X120599000Y-71170600D02*
X120472200Y-71043800D01*
X118784500Y-165963600D02*
X120206900Y-164541200D01*
X120243600Y-164541200D02*
X120446800Y-164338000D01*
X121001195Y-66776600D02*
X120192800Y-66776600D01*
X102700000Y-69680000D02*
X102700000Y-68165763D01*
X101860000Y-67325763D02*
X101860000Y-61540000D01*
X101860000Y-61540000D02*
X101600000Y-61280000D01*
X102700000Y-68165763D02*
X101860000Y-67325763D01*
X120206900Y-164541200D02*
X120243600Y-164541200D01*
X121437400Y-131688395D02*
X121437400Y-134416800D01*
X101600000Y-61280000D02*
X101600000Y-53533000D01*
X118134000Y-128384995D02*
X121437400Y-131688395D01*
X120599000Y-82528591D02*
X120599000Y-71170600D01*
%TO.N,FMOSI*%
X102115000Y-61033737D02*
X102115000Y-57165000D01*
X102350000Y-67064500D02*
X102350000Y-61268737D01*
X109270800Y-162153600D02*
X110490000Y-160934400D01*
X120050000Y-69950000D02*
X119300000Y-70700000D01*
X112318800Y-146507200D02*
X112318800Y-142227295D01*
X118556400Y-132359800D02*
X118556400Y-133132200D01*
X113639600Y-96926400D02*
X113639600Y-87077491D01*
X107972100Y-134896100D02*
X107972100Y-131092700D01*
X119300000Y-81417091D02*
X117448500Y-83268591D01*
X114998400Y-98285201D02*
X113639600Y-96926400D01*
X102350000Y-61268737D02*
X102115000Y-61033737D01*
X120050000Y-68480000D02*
X120050000Y-69950000D01*
X112318800Y-142227295D02*
X113792000Y-140754095D01*
X117358800Y-134329800D02*
X115305200Y-134329800D01*
X118556400Y-133132200D02*
X117358800Y-134329800D01*
X114996600Y-134021200D02*
X114996600Y-118834772D01*
X110490000Y-148336000D02*
X112318800Y-146507200D01*
X107972100Y-131092700D02*
X110388400Y-128676400D01*
X115305200Y-134329800D02*
X114996600Y-134021200D01*
X110490000Y-160934400D02*
X110490000Y-148336000D01*
X114998400Y-118832971D02*
X114998400Y-98285201D01*
X111495395Y-135940800D02*
X109016800Y-135940800D01*
X110388400Y-128676400D02*
X112369600Y-128676400D01*
X114996600Y-118834772D02*
X114998400Y-118832971D01*
X113792000Y-140754095D02*
X113792000Y-138237405D01*
X119300000Y-70700000D02*
X119300000Y-81417091D01*
X102115000Y-57165000D02*
X102900000Y-56380000D01*
X113792000Y-138237405D02*
X111495395Y-135940800D01*
X109016800Y-135940800D02*
X107972100Y-134896100D01*
X113639600Y-87077491D02*
X117448500Y-83268591D01*
X103750000Y-68464500D02*
X102350000Y-67064500D01*
%TO.N,FMISO*%
X119750000Y-70815686D02*
X120725000Y-69840686D01*
X114424000Y-93929200D02*
X114424000Y-93668591D01*
X115722400Y-133604000D02*
X115671600Y-133654800D01*
X111621700Y-134061200D02*
X111621700Y-134441505D01*
X115011200Y-137831005D02*
X115011200Y-160934400D01*
X115722400Y-97291491D02*
X115722400Y-133604000D01*
X115024000Y-90568591D02*
X116051296Y-89541296D01*
X116051296Y-89541296D02*
X119750000Y-85842591D01*
X114424000Y-95993091D02*
X115722400Y-97291491D01*
X114424000Y-95993091D02*
X114424000Y-93668591D01*
X101396800Y-61642486D02*
X101193600Y-61439286D01*
X120725000Y-69840686D02*
X120725000Y-68505000D01*
X119750000Y-85842591D02*
X119750000Y-70815686D01*
X101193600Y-52580000D02*
X95550000Y-52580000D01*
X101193600Y-61439286D02*
X101193600Y-52580000D01*
X101396800Y-67831300D02*
X101396800Y-61642486D01*
X114424000Y-93668591D02*
X114424000Y-91168591D01*
X111621700Y-134441505D02*
X115011200Y-137831005D01*
X114424000Y-91168591D02*
X115024000Y-90568591D01*
X120725000Y-68505000D02*
X121250000Y-67980000D01*
X101450000Y-67884500D02*
X101396800Y-67831300D01*
%TO.N,/NORA FPGA/ATTBTN*%
X87985600Y-51308000D02*
X85191600Y-51308000D01*
X107202600Y-53405400D02*
X104089200Y-50292000D01*
X101650800Y-50292000D02*
X101549200Y-50393600D01*
X127508000Y-52578000D02*
X126680600Y-53405400D01*
X84378800Y-67602300D02*
X84315500Y-67665600D01*
X85191600Y-51308000D02*
X84378800Y-52120800D01*
X101549200Y-50393600D02*
X101346000Y-50596800D01*
X101346000Y-50596800D02*
X101142800Y-50596800D01*
X84378800Y-52120800D02*
X84378800Y-67602300D01*
X126680600Y-53405400D02*
X107202600Y-53405400D01*
X104089200Y-50292000D02*
X101650800Y-50292000D01*
%TO.N,/USB-Terminal/USBD_P*%
X134325000Y-44250000D02*
X134108800Y-44250000D01*
X133258800Y-45100000D02*
X132975000Y-45100000D01*
D35*
X131938000Y-45100000D02*
X131927600Y-45110400D01*
X132975000Y-45100000D02*
X131938000Y-45100000D01*
X123232400Y-51736200D02*
X112064800Y-51736200D01*
D34*
X134108800Y-44250000D02*
X133258800Y-45100000D01*
D35*
X111783203Y-52046797D02*
X111757847Y-52046797D01*
X112064800Y-51736200D02*
X112064800Y-51765200D01*
X112064800Y-51765200D02*
X111783203Y-52046797D01*
X131927600Y-45110400D02*
X129858200Y-45110400D01*
X129858200Y-45110400D02*
X123232400Y-51736200D01*
D34*
%TO.N,/PS2 Kbd+Mouse\u002C UEXT/UE_3V3*%
X128905000Y-86233000D02*
X129032000Y-86233000D01*
X126746000Y-88392000D02*
X128841500Y-86296500D01*
X128905000Y-86233000D02*
X128841500Y-86296500D01*
%TO.N,Net-(U201-NC{slash}E)*%
X78000000Y-68630000D02*
X79100000Y-69730000D01*
X78000000Y-66680000D02*
X78000000Y-68630000D01*
X78404000Y-76176000D02*
X75873000Y-76176000D01*
X79100000Y-69730000D02*
X79100000Y-75480000D01*
X79100000Y-75480000D02*
X78404000Y-76176000D01*
%TO.N,CPUTYPE02*%
X124000000Y-58500000D02*
X120250000Y-58500000D01*
X125250000Y-57250000D02*
X124000000Y-58500000D01*
%TO.N,/USB-Terminal/FTDI1V8*%
X111930000Y-48900000D02*
X114604800Y-48900000D01*
X110300000Y-47270000D02*
X110300000Y-46200000D01*
X118050000Y-48900000D02*
X119900000Y-47050000D01*
X110300000Y-47270000D02*
X111930000Y-48900000D01*
X114604800Y-48900000D02*
X118050000Y-48900000D01*
D35*
%TO.N,/USB-Terminal/USBD_N*%
X130085400Y-44246800D02*
X123046000Y-51286200D01*
X131978400Y-44246800D02*
X130085400Y-44246800D01*
D34*
X132975000Y-44250000D02*
X131981600Y-44250000D01*
D35*
X112064800Y-51272880D02*
X111899901Y-51107981D01*
X131978400Y-44246800D02*
X131981600Y-44250000D01*
X123046000Y-51286200D02*
X112064800Y-51286200D01*
X112064800Y-51286200D02*
X112064800Y-51272880D01*
D34*
%TO.N,/USB-Terminal/CC2*%
X134358884Y-43400000D02*
X134325000Y-43400000D01*
X134950000Y-41427200D02*
X134950000Y-42808884D01*
X131854600Y-41075000D02*
X134597800Y-41075000D01*
X131368800Y-40589200D02*
X131854600Y-41075000D01*
X134950000Y-42808884D02*
X134358884Y-43400000D01*
X134597800Y-41075000D02*
X134950000Y-41427200D01*
%TO.N,NORADONE*%
X99237605Y-62571000D02*
X98806000Y-63002605D01*
X98806000Y-71671914D02*
X97332800Y-73145114D01*
X99661578Y-62307538D02*
X99398116Y-62571000D01*
X97332800Y-73145114D02*
X97332800Y-89966800D01*
X98806000Y-63002605D02*
X98806000Y-71671914D01*
X99398116Y-62571000D02*
X99237605Y-62571000D01*
%TO.N,~{NORARST}*%
X99517200Y-63246000D02*
X99517200Y-71526400D01*
X98196400Y-72948800D02*
X98196400Y-72847200D01*
X98196400Y-89394500D02*
X98196400Y-72948800D01*
X99517200Y-71526400D02*
X98196400Y-72847200D01*
%TO.N,ICD_SCK*%
X99411200Y-55168800D02*
X99425000Y-55155000D01*
X91553500Y-55168800D02*
X99411200Y-55168800D01*
%TO.N,ICD_MISO*%
X103000000Y-54750000D02*
X103000000Y-52484402D01*
X104000000Y-56750000D02*
X104000000Y-55750000D01*
X104000000Y-55750000D02*
X103000000Y-54750000D01*
X103000000Y-52484402D02*
X102835934Y-52320336D01*
%TO.N,I2C_SDA*%
X90779600Y-82143600D02*
X90678000Y-82042000D01*
X88210000Y-68180172D02*
X88210000Y-62818400D01*
X71170800Y-61061600D02*
X71170800Y-52832000D01*
X88783800Y-68753972D02*
X88210000Y-68180172D01*
X70993000Y-61239400D02*
X71170800Y-61061600D01*
X88210000Y-62818400D02*
X88366600Y-62661800D01*
X90678000Y-82042000D02*
X90678000Y-73141395D01*
X71170800Y-52832000D02*
X70916800Y-52578000D01*
X88783800Y-71247195D02*
X88783800Y-68753972D01*
X90678000Y-73141395D02*
X88783800Y-71247195D01*
%TO.N,I2C_SCL*%
X88300000Y-68850000D02*
X87800000Y-68350000D01*
X89814400Y-82854800D02*
X89814400Y-72843481D01*
X70104000Y-54900700D02*
X70496300Y-54508400D01*
X70104000Y-61925200D02*
X70104000Y-54900700D01*
X89814400Y-72843481D02*
X88300000Y-71329081D01*
X87800000Y-68350000D02*
X87800000Y-63452700D01*
X88300000Y-71329081D02*
X88300000Y-68850000D01*
X87800000Y-63452700D02*
X87491700Y-63144400D01*
%TO.N,~{VCS0}*%
X97230100Y-163092200D02*
X97230100Y-140554700D01*
X97230100Y-163092200D02*
X97207605Y-163114695D01*
X72339200Y-138836400D02*
X72339200Y-137363200D01*
X53238400Y-136245600D02*
X53238400Y-85039200D01*
X54102000Y-84175600D02*
X82139558Y-84175600D01*
X82139558Y-84175600D02*
X84785200Y-81529958D01*
X53238400Y-85039200D02*
X54102000Y-84175600D01*
X97230100Y-140554700D02*
X97273200Y-140511600D01*
X84785200Y-80772000D02*
X86664800Y-78892400D01*
X97207605Y-163114695D02*
X97207605Y-169010400D01*
X72339200Y-137363200D02*
X72237600Y-137261600D01*
X72237600Y-137261600D02*
X54254400Y-137261600D01*
X84785200Y-81529958D02*
X84785200Y-80772000D01*
X54254400Y-137261600D02*
X53238400Y-136245600D01*
%TO.N,~{VIRQ}*%
X54051200Y-85648800D02*
X54610000Y-85090000D01*
X54610000Y-136245600D02*
X54051200Y-135686800D01*
X54610000Y-85090000D02*
X82702400Y-85090000D01*
X75082400Y-139561700D02*
X75082400Y-137617200D01*
X75082400Y-137617200D02*
X73710800Y-136245600D01*
X73710800Y-136245600D02*
X54610000Y-136245600D01*
X82702400Y-85090000D02*
X86614000Y-81178400D01*
X54051200Y-135686800D02*
X54051200Y-85648800D01*
X86614000Y-81178400D02*
X86664800Y-81178400D01*
%TO.N,/USB-Terminal/ICD2NORAROM*%
X99400000Y-56500000D02*
X96900000Y-56500000D01*
%TO.N,CPULED0*%
X83295013Y-81499864D02*
X57757436Y-81499864D01*
X57757436Y-81499864D02*
X56910500Y-82346800D01*
%TO.N,CPULED1*%
X83108800Y-80568800D02*
X82840200Y-80837400D01*
X56983000Y-80837400D02*
X56946800Y-80873600D01*
X82840200Y-80837400D02*
X56983000Y-80837400D01*
%TO.N,/Power Supply/RAW3V3*%
X100838000Y-40233600D02*
X100838000Y-46228000D01*
X100838000Y-46228000D02*
X100279200Y-46786800D01*
X99517200Y-38912800D02*
X100838000Y-40233600D01*
%TO.N,/Power Supply/RAW1V2*%
X89966800Y-38862000D02*
X89966800Y-44653200D01*
X89966800Y-44653200D02*
X90170000Y-44856400D01*
%TO.N,PS2M_DATA*%
X105873000Y-95986600D02*
X105765600Y-95879200D01*
X105765600Y-92075000D02*
X105130600Y-91440000D01*
X105765600Y-95879200D02*
X105765600Y-92075000D01*
%TO.N,PS2M_CLK*%
X106598800Y-91268000D02*
X106598800Y-95448200D01*
X105856400Y-90525600D02*
X106598800Y-91268000D01*
X106598800Y-95448200D02*
X106807000Y-95656400D01*
%TO.N,R_AUDIO*%
X121818400Y-166827200D02*
X123901200Y-168910000D01*
X119380000Y-166827200D02*
X121818400Y-166827200D01*
%TO.N,/Ethernet/~{WIZRST}*%
X104419400Y-200609200D02*
X104267000Y-200456800D01*
X107823000Y-196621400D02*
X107823000Y-200609200D01*
X107797600Y-196596000D02*
X107823000Y-196621400D01*
X107823000Y-200609200D02*
X104419400Y-200609200D01*
%TO.N,/Ethernet/1V2A*%
X109160400Y-195324800D02*
X110074800Y-194410400D01*
X109160400Y-196239200D02*
X109160400Y-195324800D01*
%TO.N,/Ethernet/CTVDD*%
X133900000Y-196540000D02*
X132563569Y-196540000D01*
X132380000Y-185226431D02*
X132380000Y-183890000D01*
X128026431Y-189580000D02*
X132380000Y-185226431D01*
X122660000Y-189580000D02*
X128026431Y-189580000D01*
X128026431Y-192002862D02*
X128026431Y-189580000D01*
X132563569Y-196540000D02*
X128026431Y-192002862D01*
%TO.N,Net-(D802-K)*%
X101447600Y-138074400D02*
X101701600Y-138328400D01*
X98907600Y-138074400D02*
X101447600Y-138074400D01*
%TO.N,VERAFCS*%
X123596400Y-108240005D02*
X123596400Y-64668400D01*
X118973600Y-60136595D02*
X118973600Y-59994800D01*
X117734000Y-130805800D02*
X117734000Y-126928800D01*
X123139200Y-126339600D02*
X123139200Y-125831600D01*
X122642000Y-125334400D02*
X122642000Y-109194405D01*
X118013000Y-131084800D02*
X117734000Y-130805800D01*
X123505405Y-64668400D02*
X118973600Y-60136595D01*
X117734000Y-126928800D02*
X117144800Y-126339600D01*
X122642000Y-109194405D02*
X123596400Y-108240005D01*
X123596400Y-64668400D02*
X123505405Y-64668400D01*
X123139200Y-125831600D02*
X122642000Y-125334400D01*
%TO.N,AURAFCS*%
X124815600Y-160578800D02*
X122529600Y-158292800D01*
X117805200Y-60604400D02*
X122986800Y-65786000D01*
X121920000Y-100594605D02*
X121920000Y-123901200D01*
X122986800Y-99527805D02*
X121920000Y-100594605D01*
X122242000Y-124223200D02*
X122242000Y-130054595D01*
X124815600Y-163169600D02*
X124815600Y-160578800D01*
X122986800Y-65786000D02*
X122986800Y-99527805D01*
X122529600Y-130342195D02*
X122529600Y-158292800D01*
X121920000Y-123901200D02*
X122242000Y-124223200D01*
X122242000Y-130054595D02*
X122529600Y-130342195D01*
%TO.N,~{VRST}*%
X124206000Y-135178800D02*
X124206000Y-64414400D01*
X123342400Y-136042400D02*
X124206000Y-135178800D01*
X110774073Y-140898473D02*
X110591600Y-140716000D01*
X110591600Y-137312400D02*
X111252000Y-136652000D01*
X124206000Y-64414400D02*
X120523000Y-60731400D01*
X110591600Y-140716000D02*
X110591600Y-137312400D01*
%TO.N,~{ARST}*%
X122112400Y-137374000D02*
X122112400Y-130850000D01*
X121361200Y-138125200D02*
X122112400Y-137374000D01*
X121361200Y-164388800D02*
X121361200Y-138125200D01*
X121564400Y-129906205D02*
X120432200Y-128774005D01*
X107382866Y-169871500D02*
X107937966Y-169316400D01*
X122345400Y-66821000D02*
X117348000Y-61823600D01*
X121520000Y-123549805D02*
X121520000Y-99764800D01*
X120432200Y-128774005D02*
X120432200Y-124637605D01*
X121310400Y-164439600D02*
X121361200Y-164388800D01*
X120432200Y-124637605D02*
X121520000Y-123549805D01*
X121520000Y-99764800D02*
X122345400Y-98939400D01*
X122345400Y-98939400D02*
X122345400Y-66821000D01*
X121564400Y-130302000D02*
X121564400Y-129906205D01*
X109982000Y-169316400D02*
X113944400Y-165354000D01*
X107937966Y-169316400D02*
X109982000Y-169316400D01*
X121310400Y-165201600D02*
X121310400Y-164439600D01*
X106995758Y-169871500D02*
X107382866Y-169871500D01*
X122112400Y-130850000D02*
X121564400Y-130302000D01*
%TO.N,/SD-Card/CLK*%
X90322400Y-123545600D02*
X90322400Y-128473200D01*
X90322400Y-128473200D02*
X90271600Y-128524000D01*
X90271600Y-128524000D02*
X90271600Y-128574800D01*
%TO.N,/SD-Card/DAT0*%
X89560400Y-126593600D02*
X89560400Y-122936000D01*
X89560400Y-122936000D02*
X89662000Y-122834400D01*
%TO.N,/Sound Output/SPK2*%
X59385200Y-174142400D02*
X65430400Y-174142400D01*
X65430400Y-174142400D02*
X67970400Y-171602400D01*
%TO.N,/Ethernet/LEDYK*%
X135077200Y-183743600D02*
X131572000Y-180238400D01*
X124104400Y-180238400D02*
X124002800Y-180340000D01*
X135077200Y-185252800D02*
X135077200Y-183743600D01*
X124002800Y-180340000D02*
X121143400Y-183199400D01*
X131572000Y-180238400D02*
X124104400Y-180238400D01*
X121143400Y-183199400D02*
X113284000Y-183199400D01*
X133900000Y-186430000D02*
X135077200Y-185252800D01*
%TO.N,/Ethernet/LEDGK*%
X120980200Y-182524400D02*
X123723400Y-179781200D01*
X135940800Y-183032400D02*
X135940800Y-190550800D01*
X123723400Y-179781200D02*
X132689600Y-179781200D01*
X132689600Y-179781200D02*
X135940800Y-183032400D01*
X135940800Y-190550800D02*
X135432800Y-191058800D01*
X135432800Y-191058800D02*
X135321200Y-191058800D01*
X135321200Y-191058800D02*
X132380000Y-194000000D01*
X111201200Y-182524400D02*
X120980200Y-182524400D01*
D35*
%TO.N,/Ethernet/TDN*%
X120895200Y-194918400D02*
X120120000Y-194143200D01*
X120895200Y-195309500D02*
X120895200Y-194918400D01*
X120120000Y-194143200D02*
X120120000Y-193390000D01*
%TO.N,/Ethernet/RDN*%
X114909600Y-191857600D02*
X119430543Y-191857600D01*
X119430543Y-191857600D02*
X119622943Y-192050000D01*
X121320000Y-189510000D02*
X120120000Y-188310000D01*
X119622943Y-192050000D02*
X120617057Y-192050000D01*
X120617057Y-192050000D02*
X121320000Y-191347057D01*
X121320000Y-191347057D02*
X121320000Y-189510000D01*
D34*
%TO.N,VFPGA_CDONE*%
X83159600Y-126644400D02*
X83682200Y-127167000D01*
X105054400Y-149402800D02*
X103124000Y-151333200D01*
X81178400Y-149199600D02*
X81189200Y-149188800D01*
X83159600Y-126644400D02*
X83108800Y-126593600D01*
X91273000Y-150048600D02*
X91273000Y-153249000D01*
X91273000Y-153249000D02*
X91287600Y-153263600D01*
X111810800Y-142007385D02*
X105054400Y-148763785D01*
X105054400Y-148763785D02*
X105054400Y-149402800D01*
X103124000Y-151333200D02*
X103124000Y-153314400D01*
X83682200Y-127167000D02*
X83682200Y-132827400D01*
X91236800Y-150012400D02*
X91273000Y-150048600D01*
X111810800Y-140868400D02*
X111810800Y-142007385D01*
X83108800Y-126593600D02*
X83108800Y-124650300D01*
X82143600Y-140716000D02*
X81189200Y-141670400D01*
X81189200Y-141670400D02*
X81189200Y-149188800D01*
X83682200Y-132827400D02*
X83616800Y-132892800D01*
X82143600Y-134366000D02*
X82143600Y-140716000D01*
X83616800Y-132892800D02*
X82143600Y-134366000D01*
%TO.N,AFPGA_CDONE*%
X107710600Y-172646603D02*
X107710600Y-174635800D01*
X87680800Y-177850800D02*
X87680800Y-156921200D01*
X87680800Y-156921200D02*
X87680800Y-150063200D01*
X108051600Y-170383200D02*
X108051600Y-172305603D01*
X107710600Y-174635800D02*
X107696000Y-174650400D01*
X107696000Y-174650400D02*
X107696000Y-175006000D01*
X88239600Y-178409600D02*
X87680800Y-177850800D01*
X108051600Y-172305603D02*
X107710600Y-172646603D01*
X87680800Y-149148800D02*
X87680800Y-150063200D01*
%TO.N,/Sound Output/MONOMIX*%
X83362800Y-174548800D02*
X83515200Y-174396400D01*
X124441300Y-178238500D02*
X124460000Y-178257200D01*
X83362800Y-179374800D02*
X83362800Y-174548800D01*
X124576200Y-167603800D02*
X124576200Y-169189595D01*
X123139200Y-166166800D02*
X124576200Y-167603800D01*
X124441300Y-169324495D02*
X124441300Y-178238500D01*
X124576200Y-169189595D02*
X124441300Y-169324495D01*
%TO.N,VSYSCLK*%
X91948000Y-151739600D02*
X91948000Y-145440400D01*
%TO.N,ASYSCLK*%
X90807500Y-180071900D02*
X90807500Y-172669200D01*
%TO.N,~{VSPI_SSEL}*%
X109321600Y-131114800D02*
X109270800Y-131165600D01*
X96113600Y-126302900D02*
X95961200Y-126150500D01*
X83413600Y-134874000D02*
X83413600Y-137566400D01*
X96113600Y-128828800D02*
X96113600Y-126302900D01*
X83413600Y-137566400D02*
X83464400Y-137617200D01*
X92035500Y-132906900D02*
X96113600Y-128828800D01*
X92035500Y-137668000D02*
X92035500Y-132906900D01*
X111622200Y-131114800D02*
X109321600Y-131114800D01*
X83464400Y-137617200D02*
X83464400Y-137668000D01*
%TO.N,VAUDIO_BCK*%
X106934000Y-165862000D02*
X106934000Y-156311600D01*
X106934000Y-156311600D02*
X106324400Y-155702000D01*
X106984800Y-165912800D02*
X106934000Y-165862000D01*
%TO.N,VAUDIO_DATA*%
X107659300Y-167186918D02*
X107659300Y-155441569D01*
X107659288Y-167186930D02*
X107659300Y-167186918D01*
X107659300Y-155441569D02*
X106988011Y-154770280D01*
%TO.N,AUDIO_DATA*%
X112776000Y-172581700D02*
X111201200Y-172581700D01*
X112790100Y-172567600D02*
X112776000Y-172581700D01*
%TO.N,VAUDIO_LRCK*%
X108291000Y-154953140D02*
X108291000Y-166864047D01*
X107918353Y-154580493D02*
X108291000Y-154953140D01*
X108356400Y-166929447D02*
X108356400Y-167995600D01*
X108356400Y-167995600D02*
X107696000Y-168656000D01*
X108291000Y-166864047D02*
X108356400Y-166929447D01*
%TO.N,~{AFLASH_SSEL}*%
X103554805Y-161493200D02*
X105210405Y-159837600D01*
X105210405Y-159837600D02*
X105816400Y-159837600D01*
%TO.N,ASPI_SCK*%
X105291205Y-163779200D02*
X104275205Y-162763200D01*
X106019600Y-163779200D02*
X105291205Y-163779200D01*
%TO.N,~{ERST}*%
X76403200Y-204216000D02*
X76352400Y-204165200D01*
X72135642Y-141093557D02*
X52657643Y-141093557D01*
X50495200Y-79241600D02*
X84334400Y-79241600D01*
X76352400Y-204165200D02*
X76352400Y-204114400D01*
X50495200Y-138931114D02*
X50495200Y-79241600D01*
X72521400Y-143175400D02*
X72521400Y-141479315D01*
X73609200Y-201371200D02*
X73609200Y-144263200D01*
X72521400Y-141479315D02*
X72135642Y-141093557D01*
X76352400Y-204114400D02*
X73609200Y-201371200D01*
X52657643Y-141093557D02*
X50495200Y-138931114D01*
X105562400Y-204216000D02*
X76403200Y-204216000D01*
X73609200Y-144263200D02*
X72521400Y-143175400D01*
X84334400Y-79241600D02*
X86664800Y-76911200D01*
X105765600Y-204012800D02*
X105562400Y-204216000D01*
%TO.N,/Ethernet/XSCI*%
X90017600Y-173126400D02*
X89662000Y-172770800D01*
X90017600Y-182016400D02*
X90017600Y-173126400D01*
%TO.N,UE_SCL*%
X116954300Y-78016100D02*
X115163600Y-79806800D01*
X117411500Y-78016100D02*
X116954300Y-78016100D01*
%TO.N,/LEDs\u002C RTC\u002C SNES/NESCLOCK5*%
X47498000Y-83413600D02*
X47498000Y-151688800D01*
X47498000Y-151688800D02*
X59080400Y-151688800D01*
X61010800Y-58318400D02*
X59283600Y-58318400D01*
X59080400Y-151688800D02*
X59893200Y-150876000D01*
X59283600Y-58318400D02*
X58318400Y-57353200D01*
%TO.N,/LEDs\u002C RTC\u002C SNES/NESLATCH5*%
X60568200Y-150128600D02*
X60568200Y-156246200D01*
X58115200Y-147675600D02*
X60568200Y-150128600D01*
X48514000Y-147675600D02*
X58115200Y-147675600D01*
X60568200Y-156246200D02*
X60248800Y-156565600D01*
X48514000Y-82448400D02*
X48514000Y-147675600D01*
%TO.N,/LEDs\u002C RTC\u002C SNES/NES1DATA5*%
X44196000Y-82550000D02*
X45167000Y-83521000D01*
X57607200Y-161036000D02*
X58521600Y-160121600D01*
X45167000Y-159365400D02*
X46837600Y-161036000D01*
X46837600Y-161036000D02*
X57607200Y-161036000D01*
X45167000Y-83521000D02*
X45167000Y-159365400D01*
%TO.N,~{ECS2}*%
X49885600Y-78892400D02*
X49885600Y-138887200D01*
X72005200Y-141528800D02*
X72121400Y-141645000D01*
X83769200Y-78841600D02*
X49936400Y-78841600D01*
X101794400Y-183259800D02*
X101794400Y-182123300D01*
X72121400Y-181269000D02*
X72085200Y-181305200D01*
X86664800Y-75946000D02*
X83769200Y-78841600D01*
X101311416Y-190660415D02*
X101794400Y-190177431D01*
X49936400Y-78841600D02*
X49885600Y-78892400D01*
X49885600Y-138887200D02*
X52527200Y-141528800D01*
X72121400Y-141645000D02*
X72121400Y-181269000D01*
X101794400Y-190177431D02*
X101794400Y-183259800D01*
X101794400Y-182123300D02*
X101092000Y-181420900D01*
X52527200Y-141528800D02*
X72005200Y-141528800D01*
%TO.N,~{ACS1}*%
X53651200Y-85388400D02*
X53651200Y-135852486D01*
X72295286Y-136753600D02*
X73812400Y-138270714D01*
X73812400Y-140411200D02*
X75372600Y-141971400D01*
X54552314Y-136753600D02*
X72295286Y-136753600D01*
X54356000Y-84683600D02*
X53651200Y-85388400D01*
X86614000Y-80060800D02*
X86614000Y-80266843D01*
X53651200Y-135852486D02*
X54552314Y-136753600D01*
X86614000Y-80266843D02*
X82197243Y-84683600D01*
X75372600Y-177734600D02*
X75387200Y-177749200D01*
X82197243Y-84683600D02*
X54356000Y-84683600D01*
X75372600Y-141971400D02*
X75372600Y-177734600D01*
X73812400Y-138270714D02*
X73812400Y-140411200D01*
%TO.N,VSPI_MOSI*%
X79908400Y-127199500D02*
X79857600Y-127250300D01*
X79908400Y-123915300D02*
X79908400Y-127199500D01*
X79857600Y-127250300D02*
X79857600Y-140258800D01*
X79857600Y-140258800D02*
X79908400Y-140309600D01*
%TO.N,VSPI_SCK*%
X109524800Y-135178800D02*
X109423200Y-135077200D01*
X85902800Y-140919200D02*
X85090000Y-141732000D01*
X94183200Y-125425200D02*
X94183200Y-127914400D01*
X85902800Y-127965200D02*
X85902800Y-140919200D01*
X111404400Y-135178800D02*
X109524800Y-135178800D01*
%TO.N,VSPI_MISO*%
X91592400Y-125918600D02*
X91592400Y-137156505D01*
X111658400Y-133045200D02*
X108647100Y-133045200D01*
X91592400Y-137156505D02*
X90765000Y-137983905D01*
X90765000Y-137983905D02*
X90765000Y-142936600D01*
X90765000Y-142936600D02*
X90779600Y-142951200D01*
%TO.N,~{SD_SSEL}*%
X88544400Y-176428400D02*
X88544400Y-149961600D01*
X88544400Y-149961600D02*
X90104600Y-148401400D01*
X89154000Y-177038000D02*
X88544400Y-176428400D01*
X84124800Y-130596195D02*
X84124800Y-125349300D01*
X84480400Y-133959600D02*
X84480400Y-130951795D01*
X90104600Y-134199000D02*
X90068400Y-134162800D01*
X84480400Y-130951795D02*
X84124800Y-130596195D01*
X84582000Y-134061200D02*
X84480400Y-133959600D01*
X90104600Y-148401400D02*
X90104600Y-134199000D01*
%TO.N,~{VFLASH_SSEL}*%
X89219400Y-144257400D02*
X89204800Y-144272000D01*
X88950800Y-136144000D02*
X89219400Y-136412600D01*
X89219400Y-136412600D02*
X89219400Y-144257400D01*
%TO.N,ASPI_MISO*%
X106070400Y-158394400D02*
X104698800Y-158394400D01*
X104698800Y-158394400D02*
X102920800Y-160172400D01*
%TO.N,~{AIRQ}*%
X103073200Y-77825600D02*
X109677200Y-77825600D01*
X105968800Y-174233395D02*
X105968800Y-173990000D01*
X104597200Y-81026000D02*
X103784400Y-81026000D01*
X111948600Y-95286200D02*
X111948600Y-95801086D01*
X118821200Y-164338000D02*
X118110000Y-165049200D01*
X114598400Y-118667286D02*
X114198400Y-119067286D01*
X111948600Y-84669000D02*
X111948600Y-95286200D01*
X102920800Y-77978000D02*
X103022400Y-77876400D01*
X111948600Y-95801086D02*
X114598400Y-98450886D01*
X110794800Y-78943200D02*
X110794800Y-83515200D01*
X118110000Y-165049200D02*
X118110000Y-172466000D01*
X103784400Y-81026000D02*
X102920800Y-80162400D01*
X118821200Y-139598400D02*
X118821200Y-164338000D01*
X118110000Y-172466000D02*
X114833400Y-175742600D01*
X114198400Y-119067286D02*
X114198400Y-134975600D01*
X103022400Y-77876400D02*
X103073200Y-77825600D01*
X107478005Y-175742600D02*
X105968800Y-174233395D01*
X114198400Y-134975600D02*
X118821200Y-139598400D01*
X114598400Y-98450886D02*
X114598400Y-118667286D01*
X110794800Y-83515200D02*
X111948600Y-84669000D01*
X114833400Y-175742600D02*
X107478005Y-175742600D01*
X102920800Y-80162400D02*
X102920800Y-77978000D01*
X109677200Y-77825600D02*
X110794800Y-78943200D01*
%TO.N,UE_SDA*%
X113715800Y-78359000D02*
X116357400Y-75717400D01*
X116357400Y-75717400D02*
X116357400Y-75692000D01*
%TO.N,Net-(D1003-K)*%
X51562000Y-175615600D02*
X47701200Y-175615600D01*
X51612800Y-175564800D02*
X51562000Y-175615600D01*
X47701200Y-175615600D02*
X47650400Y-175564800D01*
X61518800Y-175564800D02*
X51612800Y-175564800D01*
%TO.N,~{EIRQ}*%
X77249908Y-203691108D02*
X105132697Y-203691108D01*
X86782571Y-82120571D02*
X83268942Y-85634200D01*
X77016795Y-85634200D02*
X75528995Y-87122000D01*
X54508400Y-87833200D02*
X54508400Y-134366000D01*
X105132697Y-203691108D02*
X105674605Y-203149200D01*
X76708000Y-203149200D02*
X77249908Y-203691108D01*
X76149200Y-202590400D02*
X76708000Y-203149200D01*
X55524400Y-135382000D02*
X73412886Y-135382000D01*
X73412886Y-135382000D02*
X76504800Y-138473914D01*
X76504800Y-138473914D02*
X76504800Y-143002000D01*
X83268942Y-85634200D02*
X77016795Y-85634200D01*
X54508400Y-134366000D02*
X55524400Y-135382000D01*
X76504800Y-143002000D02*
X76722600Y-143219800D01*
X76149200Y-159911005D02*
X76149200Y-202590400D01*
X76722600Y-159337605D02*
X76149200Y-159911005D01*
X75528995Y-87122000D02*
X55219600Y-87122000D01*
X55219600Y-87122000D02*
X54508400Y-87833200D01*
X105674605Y-203149200D02*
X110947200Y-203149200D01*
X76722600Y-143219800D02*
X76722600Y-159337605D01*
%TO.N,VEAURADONE*%
X82132672Y-83616800D02*
X51816000Y-83616800D01*
X86461600Y-77876400D02*
X83970013Y-80367987D01*
X51816000Y-139293600D02*
X53215957Y-140693557D01*
X86715600Y-77876400D02*
X86461600Y-77876400D01*
X74574400Y-142966629D02*
X74574400Y-145796000D01*
X51816000Y-83616800D02*
X51816000Y-139293600D01*
X53215957Y-140693557D02*
X72301328Y-140693557D01*
X83970013Y-81779459D02*
X82132672Y-83616800D01*
X72301328Y-140693557D02*
X74574400Y-142966629D01*
X83970013Y-80367987D02*
X83970013Y-81779459D01*
%TO.N,/NORA FPGA/FIO2*%
X119924000Y-94168591D02*
X118174000Y-94168591D01*
%TO.N,~{UE_CS3}*%
X109575600Y-79400400D02*
X109575600Y-84023200D01*
X114198400Y-118501600D02*
X112540000Y-120160000D01*
X114198400Y-99263200D02*
X114198400Y-118501600D01*
X109575600Y-84023200D02*
X110940800Y-85388400D01*
X104597200Y-78951500D02*
X109126700Y-78951500D01*
X109126700Y-78951500D02*
X109575600Y-79400400D01*
X110940800Y-96005600D02*
X114198400Y-99263200D01*
X110940800Y-85388400D02*
X110940800Y-96005600D01*
%TO.N,~{UE_IRQ}*%
X112715991Y-119035000D02*
X111125000Y-119035000D01*
X110540800Y-86156800D02*
X110540800Y-96215200D01*
X111125000Y-119035000D02*
X110000000Y-120160000D01*
X110540800Y-96215200D02*
X113690400Y-99364800D01*
X113690400Y-99364800D02*
X113690400Y-118060591D01*
X109929500Y-85545500D02*
X110540800Y-86156800D01*
X113690400Y-118060591D02*
X112715991Y-119035000D01*
X104394000Y-85545500D02*
X109929500Y-85545500D01*
%TO.N,DIPLED1*%
X86614000Y-68326000D02*
X86817200Y-68122800D01*
X86817200Y-68122800D02*
X86817200Y-60401200D01*
%TD*%
M02*
