%TF.GenerationSoftware,KiCad,Pcbnew,6.0.11-3.fc36*%
%TF.CreationDate,2023-04-28T14:32:20+02:00*%
%TF.ProjectId,openX65-vabo,6f70656e-5836-4352-9d76-61626f2e6b69,rev01*%
%TF.SameCoordinates,Original*%
%TF.FileFunction,Drillmap*%
%TF.FilePolarity,Positive*%
%FSLAX45Y45*%
G04 Gerber Fmt 4.5, Leading zero omitted, Abs format (unit mm)*
G04 Created by KiCad (PCBNEW 6.0.11-3.fc36) date 2023-04-28 14:32:20*
%MOMM*%
%LPD*%
G01*
G04 APERTURE LIST*
%ADD10C,0.100000*%
%ADD11C,0.200000*%
%ADD12C,0.110000*%
%ADD13C,0.130000*%
%ADD14C,0.320000*%
%ADD15C,0.325000*%
G04 APERTURE END LIST*
D10*
X6500000Y-4000000D02*
X15500000Y-4000000D01*
X16000000Y-13500000D02*
X16000000Y-4500000D01*
X6500000Y-4000004D02*
G75*
G03*
X6000000Y-4498000I-2000J-497996D01*
G01*
X6000000Y-13500000D02*
G75*
G03*
X6500000Y-14000000I500000J0D01*
G01*
X15500000Y-14000000D02*
X6500000Y-14000000D01*
X6000000Y-13500000D02*
X6000000Y-4498000D01*
X15500000Y-14000000D02*
G75*
G03*
X16000000Y-13500000I0J500000D01*
G01*
X16000000Y-4500000D02*
G75*
G03*
X15500000Y-4000000I-500000J0D01*
G01*
D11*
D12*
X15127500Y-5070000D02*
X15237500Y-5180000D01*
X15237500Y-5070000D02*
X15127500Y-5180000D01*
X15127500Y-5570000D02*
X15237500Y-5680000D01*
X15237500Y-5570000D02*
X15127500Y-5680000D01*
D13*
X8940000Y-7809000D02*
G75*
G03*
X8940000Y-7809000I-65000J0D01*
G01*
X8940000Y-10049000D02*
G75*
G03*
X8940000Y-10049000I-65000J0D01*
G01*
D14*
X6500000Y-4340000D02*
X6500000Y-4660000D01*
X6340000Y-4500000D02*
X6660000Y-4500000D01*
X6500000Y-13340000D02*
X6500000Y-13660000D01*
X6340000Y-13500000D02*
X6660000Y-13500000D01*
X15500000Y-4340000D02*
X15500000Y-4660000D01*
X15340000Y-4500000D02*
X15660000Y-4500000D01*
X15500000Y-13340000D02*
X15500000Y-13660000D01*
X15340000Y-13500000D02*
X15660000Y-13500000D01*
D15*
X15011906Y-11543406D02*
X15011906Y-11313594D01*
X14782094Y-11313594D01*
X14782094Y-11543406D01*
X15011906Y-11543406D01*
X15011906Y-12686406D02*
X15011906Y-12456594D01*
X14782094Y-12456594D01*
X14782094Y-12686406D01*
X15011906Y-12686406D01*
D11*
X6252619Y-14315476D02*
X6252619Y-14115476D01*
X6300238Y-14115476D01*
X6328809Y-14125000D01*
X6347857Y-14144048D01*
X6357381Y-14163095D01*
X6366905Y-14201190D01*
X6366905Y-14229762D01*
X6357381Y-14267857D01*
X6347857Y-14286905D01*
X6328809Y-14305952D01*
X6300238Y-14315476D01*
X6252619Y-14315476D01*
X6452619Y-14315476D02*
X6452619Y-14182143D01*
X6452619Y-14220238D02*
X6462143Y-14201190D01*
X6471667Y-14191667D01*
X6490714Y-14182143D01*
X6509762Y-14182143D01*
X6576428Y-14315476D02*
X6576428Y-14182143D01*
X6576428Y-14115476D02*
X6566905Y-14125000D01*
X6576428Y-14134524D01*
X6585952Y-14125000D01*
X6576428Y-14115476D01*
X6576428Y-14134524D01*
X6700238Y-14315476D02*
X6681190Y-14305952D01*
X6671667Y-14286905D01*
X6671667Y-14115476D01*
X6805000Y-14315476D02*
X6785952Y-14305952D01*
X6776428Y-14286905D01*
X6776428Y-14115476D01*
X7033571Y-14315476D02*
X7033571Y-14115476D01*
X7100238Y-14258333D01*
X7166905Y-14115476D01*
X7166905Y-14315476D01*
X7347857Y-14315476D02*
X7347857Y-14210714D01*
X7338333Y-14191667D01*
X7319286Y-14182143D01*
X7281190Y-14182143D01*
X7262143Y-14191667D01*
X7347857Y-14305952D02*
X7328809Y-14315476D01*
X7281190Y-14315476D01*
X7262143Y-14305952D01*
X7252619Y-14286905D01*
X7252619Y-14267857D01*
X7262143Y-14248809D01*
X7281190Y-14239286D01*
X7328809Y-14239286D01*
X7347857Y-14229762D01*
X7443095Y-14182143D02*
X7443095Y-14382143D01*
X7443095Y-14191667D02*
X7462143Y-14182143D01*
X7500238Y-14182143D01*
X7519286Y-14191667D01*
X7528809Y-14201190D01*
X7538333Y-14220238D01*
X7538333Y-14277381D01*
X7528809Y-14296428D01*
X7519286Y-14305952D01*
X7500238Y-14315476D01*
X7462143Y-14315476D01*
X7443095Y-14305952D01*
X7624048Y-14296428D02*
X7633571Y-14305952D01*
X7624048Y-14315476D01*
X7614524Y-14305952D01*
X7624048Y-14296428D01*
X7624048Y-14315476D01*
X7624048Y-14191667D02*
X7633571Y-14201190D01*
X7624048Y-14210714D01*
X7614524Y-14201190D01*
X7624048Y-14191667D01*
X7624048Y-14210714D01*
D12*
X5885000Y-14590000D02*
X5995000Y-14700000D01*
X5995000Y-14590000D02*
X5885000Y-14700000D01*
D11*
X6357381Y-14735476D02*
X6243095Y-14735476D01*
X6300238Y-14735476D02*
X6300238Y-14535476D01*
X6281190Y-14564048D01*
X6262143Y-14583095D01*
X6243095Y-14592619D01*
X6443095Y-14716428D02*
X6452619Y-14725952D01*
X6443095Y-14735476D01*
X6433571Y-14725952D01*
X6443095Y-14716428D01*
X6443095Y-14735476D01*
X6643095Y-14735476D02*
X6528809Y-14735476D01*
X6585952Y-14735476D02*
X6585952Y-14535476D01*
X6566905Y-14564048D01*
X6547857Y-14583095D01*
X6528809Y-14592619D01*
X6766905Y-14535476D02*
X6785952Y-14535476D01*
X6805000Y-14545000D01*
X6814524Y-14554524D01*
X6824048Y-14573571D01*
X6833571Y-14611667D01*
X6833571Y-14659286D01*
X6824048Y-14697381D01*
X6814524Y-14716428D01*
X6805000Y-14725952D01*
X6785952Y-14735476D01*
X6766905Y-14735476D01*
X6747857Y-14725952D01*
X6738333Y-14716428D01*
X6728809Y-14697381D01*
X6719286Y-14659286D01*
X6719286Y-14611667D01*
X6728809Y-14573571D01*
X6738333Y-14554524D01*
X6747857Y-14545000D01*
X6766905Y-14535476D01*
X6957381Y-14535476D02*
X6976428Y-14535476D01*
X6995476Y-14545000D01*
X7005000Y-14554524D01*
X7014524Y-14573571D01*
X7024048Y-14611667D01*
X7024048Y-14659286D01*
X7014524Y-14697381D01*
X7005000Y-14716428D01*
X6995476Y-14725952D01*
X6976428Y-14735476D01*
X6957381Y-14735476D01*
X6938333Y-14725952D01*
X6928809Y-14716428D01*
X6919286Y-14697381D01*
X6909762Y-14659286D01*
X6909762Y-14611667D01*
X6919286Y-14573571D01*
X6928809Y-14554524D01*
X6938333Y-14545000D01*
X6957381Y-14535476D01*
X7109762Y-14735476D02*
X7109762Y-14602143D01*
X7109762Y-14621190D02*
X7119286Y-14611667D01*
X7138333Y-14602143D01*
X7166905Y-14602143D01*
X7185952Y-14611667D01*
X7195476Y-14630714D01*
X7195476Y-14735476D01*
X7195476Y-14630714D02*
X7205000Y-14611667D01*
X7224048Y-14602143D01*
X7252619Y-14602143D01*
X7271667Y-14611667D01*
X7281190Y-14630714D01*
X7281190Y-14735476D01*
X7376428Y-14735476D02*
X7376428Y-14602143D01*
X7376428Y-14621190D02*
X7385952Y-14611667D01*
X7405000Y-14602143D01*
X7433571Y-14602143D01*
X7452619Y-14611667D01*
X7462143Y-14630714D01*
X7462143Y-14735476D01*
X7462143Y-14630714D02*
X7471667Y-14611667D01*
X7490714Y-14602143D01*
X7519286Y-14602143D01*
X7538333Y-14611667D01*
X7547857Y-14630714D01*
X7547857Y-14735476D01*
X7938333Y-14525952D02*
X7766905Y-14783095D01*
X8195476Y-14535476D02*
X8214524Y-14535476D01*
X8233571Y-14545000D01*
X8243095Y-14554524D01*
X8252619Y-14573571D01*
X8262143Y-14611667D01*
X8262143Y-14659286D01*
X8252619Y-14697381D01*
X8243095Y-14716428D01*
X8233571Y-14725952D01*
X8214524Y-14735476D01*
X8195476Y-14735476D01*
X8176428Y-14725952D01*
X8166905Y-14716428D01*
X8157381Y-14697381D01*
X8147857Y-14659286D01*
X8147857Y-14611667D01*
X8157381Y-14573571D01*
X8166905Y-14554524D01*
X8176428Y-14545000D01*
X8195476Y-14535476D01*
X8347857Y-14716428D02*
X8357381Y-14725952D01*
X8347857Y-14735476D01*
X8338333Y-14725952D01*
X8347857Y-14716428D01*
X8347857Y-14735476D01*
X8481190Y-14535476D02*
X8500238Y-14535476D01*
X8519286Y-14545000D01*
X8528810Y-14554524D01*
X8538333Y-14573571D01*
X8547857Y-14611667D01*
X8547857Y-14659286D01*
X8538333Y-14697381D01*
X8528810Y-14716428D01*
X8519286Y-14725952D01*
X8500238Y-14735476D01*
X8481190Y-14735476D01*
X8462143Y-14725952D01*
X8452619Y-14716428D01*
X8443095Y-14697381D01*
X8433571Y-14659286D01*
X8433571Y-14611667D01*
X8443095Y-14573571D01*
X8452619Y-14554524D01*
X8462143Y-14545000D01*
X8481190Y-14535476D01*
X8719286Y-14602143D02*
X8719286Y-14735476D01*
X8671667Y-14525952D02*
X8624048Y-14668809D01*
X8747857Y-14668809D01*
X8805000Y-14535476D02*
X8928810Y-14535476D01*
X8862143Y-14611667D01*
X8890714Y-14611667D01*
X8909762Y-14621190D01*
X8919286Y-14630714D01*
X8928810Y-14649762D01*
X8928810Y-14697381D01*
X8919286Y-14716428D01*
X8909762Y-14725952D01*
X8890714Y-14735476D01*
X8833571Y-14735476D01*
X8814524Y-14725952D01*
X8805000Y-14716428D01*
X8995476Y-14535476D02*
X9119286Y-14535476D01*
X9052619Y-14611667D01*
X9081190Y-14611667D01*
X9100238Y-14621190D01*
X9109762Y-14630714D01*
X9119286Y-14649762D01*
X9119286Y-14697381D01*
X9109762Y-14716428D01*
X9100238Y-14725952D01*
X9081190Y-14735476D01*
X9024048Y-14735476D01*
X9005000Y-14725952D01*
X8995476Y-14716428D01*
X9195476Y-14535476D02*
X9195476Y-14573571D01*
X9271667Y-14535476D02*
X9271667Y-14573571D01*
X9566905Y-14811667D02*
X9557381Y-14802143D01*
X9538333Y-14773571D01*
X9528810Y-14754524D01*
X9519286Y-14725952D01*
X9509762Y-14678333D01*
X9509762Y-14640238D01*
X9519286Y-14592619D01*
X9528810Y-14564048D01*
X9538333Y-14545000D01*
X9557381Y-14516428D01*
X9566905Y-14506905D01*
X9633571Y-14554524D02*
X9643095Y-14545000D01*
X9662143Y-14535476D01*
X9709762Y-14535476D01*
X9728810Y-14545000D01*
X9738333Y-14554524D01*
X9747857Y-14573571D01*
X9747857Y-14592619D01*
X9738333Y-14621190D01*
X9624048Y-14735476D01*
X9747857Y-14735476D01*
X9985952Y-14735476D02*
X9985952Y-14535476D01*
X10071667Y-14735476D02*
X10071667Y-14630714D01*
X10062143Y-14611667D01*
X10043095Y-14602143D01*
X10014524Y-14602143D01*
X9995476Y-14611667D01*
X9985952Y-14621190D01*
X10195476Y-14735476D02*
X10176429Y-14725952D01*
X10166905Y-14716428D01*
X10157381Y-14697381D01*
X10157381Y-14640238D01*
X10166905Y-14621190D01*
X10176429Y-14611667D01*
X10195476Y-14602143D01*
X10224048Y-14602143D01*
X10243095Y-14611667D01*
X10252619Y-14621190D01*
X10262143Y-14640238D01*
X10262143Y-14697381D01*
X10252619Y-14716428D01*
X10243095Y-14725952D01*
X10224048Y-14735476D01*
X10195476Y-14735476D01*
X10376429Y-14735476D02*
X10357381Y-14725952D01*
X10347857Y-14706905D01*
X10347857Y-14535476D01*
X10528810Y-14725952D02*
X10509762Y-14735476D01*
X10471667Y-14735476D01*
X10452619Y-14725952D01*
X10443095Y-14706905D01*
X10443095Y-14630714D01*
X10452619Y-14611667D01*
X10471667Y-14602143D01*
X10509762Y-14602143D01*
X10528810Y-14611667D01*
X10538333Y-14630714D01*
X10538333Y-14649762D01*
X10443095Y-14668809D01*
X10614524Y-14725952D02*
X10633571Y-14735476D01*
X10671667Y-14735476D01*
X10690714Y-14725952D01*
X10700238Y-14706905D01*
X10700238Y-14697381D01*
X10690714Y-14678333D01*
X10671667Y-14668809D01*
X10643095Y-14668809D01*
X10624048Y-14659286D01*
X10614524Y-14640238D01*
X10614524Y-14630714D01*
X10624048Y-14611667D01*
X10643095Y-14602143D01*
X10671667Y-14602143D01*
X10690714Y-14611667D01*
X10766905Y-14811667D02*
X10776429Y-14802143D01*
X10795476Y-14773571D01*
X10805000Y-14754524D01*
X10814524Y-14725952D01*
X10824048Y-14678333D01*
X10824048Y-14640238D01*
X10814524Y-14592619D01*
X10805000Y-14564048D01*
X10795476Y-14545000D01*
X10776429Y-14516428D01*
X10766905Y-14506905D01*
X11128810Y-14811667D02*
X11119286Y-14802143D01*
X11100238Y-14773571D01*
X11090714Y-14754524D01*
X11081190Y-14725952D01*
X11071667Y-14678333D01*
X11071667Y-14640238D01*
X11081190Y-14592619D01*
X11090714Y-14564048D01*
X11100238Y-14545000D01*
X11119286Y-14516428D01*
X11128810Y-14506905D01*
X11205000Y-14602143D02*
X11205000Y-14735476D01*
X11205000Y-14621190D02*
X11214524Y-14611667D01*
X11233571Y-14602143D01*
X11262143Y-14602143D01*
X11281190Y-14611667D01*
X11290714Y-14630714D01*
X11290714Y-14735476D01*
X11414524Y-14735476D02*
X11395476Y-14725952D01*
X11385952Y-14716428D01*
X11376428Y-14697381D01*
X11376428Y-14640238D01*
X11385952Y-14621190D01*
X11395476Y-14611667D01*
X11414524Y-14602143D01*
X11443095Y-14602143D01*
X11462143Y-14611667D01*
X11471667Y-14621190D01*
X11481190Y-14640238D01*
X11481190Y-14697381D01*
X11471667Y-14716428D01*
X11462143Y-14725952D01*
X11443095Y-14735476D01*
X11414524Y-14735476D01*
X11538333Y-14602143D02*
X11614524Y-14602143D01*
X11566905Y-14535476D02*
X11566905Y-14706905D01*
X11576428Y-14725952D01*
X11595476Y-14735476D01*
X11614524Y-14735476D01*
X11833571Y-14602143D02*
X11833571Y-14802143D01*
X11833571Y-14611667D02*
X11852619Y-14602143D01*
X11890714Y-14602143D01*
X11909762Y-14611667D01*
X11919286Y-14621190D01*
X11928809Y-14640238D01*
X11928809Y-14697381D01*
X11919286Y-14716428D01*
X11909762Y-14725952D01*
X11890714Y-14735476D01*
X11852619Y-14735476D01*
X11833571Y-14725952D01*
X12043095Y-14735476D02*
X12024048Y-14725952D01*
X12014524Y-14706905D01*
X12014524Y-14535476D01*
X12205000Y-14735476D02*
X12205000Y-14630714D01*
X12195476Y-14611667D01*
X12176428Y-14602143D01*
X12138333Y-14602143D01*
X12119286Y-14611667D01*
X12205000Y-14725952D02*
X12185952Y-14735476D01*
X12138333Y-14735476D01*
X12119286Y-14725952D01*
X12109762Y-14706905D01*
X12109762Y-14687857D01*
X12119286Y-14668809D01*
X12138333Y-14659286D01*
X12185952Y-14659286D01*
X12205000Y-14649762D01*
X12271667Y-14602143D02*
X12347857Y-14602143D01*
X12300238Y-14535476D02*
X12300238Y-14706905D01*
X12309762Y-14725952D01*
X12328809Y-14735476D01*
X12347857Y-14735476D01*
X12490714Y-14725952D02*
X12471667Y-14735476D01*
X12433571Y-14735476D01*
X12414524Y-14725952D01*
X12405000Y-14706905D01*
X12405000Y-14630714D01*
X12414524Y-14611667D01*
X12433571Y-14602143D01*
X12471667Y-14602143D01*
X12490714Y-14611667D01*
X12500238Y-14630714D01*
X12500238Y-14649762D01*
X12405000Y-14668809D01*
X12671667Y-14735476D02*
X12671667Y-14535476D01*
X12671667Y-14725952D02*
X12652619Y-14735476D01*
X12614524Y-14735476D01*
X12595476Y-14725952D01*
X12585952Y-14716428D01*
X12576428Y-14697381D01*
X12576428Y-14640238D01*
X12585952Y-14621190D01*
X12595476Y-14611667D01*
X12614524Y-14602143D01*
X12652619Y-14602143D01*
X12671667Y-14611667D01*
X12747857Y-14811667D02*
X12757381Y-14802143D01*
X12776428Y-14773571D01*
X12785952Y-14754524D01*
X12795476Y-14725952D01*
X12805000Y-14678333D01*
X12805000Y-14640238D01*
X12795476Y-14592619D01*
X12785952Y-14564048D01*
X12776428Y-14545000D01*
X12757381Y-14516428D01*
X12747857Y-14506905D01*
D13*
X5995000Y-14909000D02*
G75*
G03*
X5995000Y-14909000I-65000J0D01*
G01*
D11*
X6357381Y-14999476D02*
X6243095Y-14999476D01*
X6300238Y-14999476D02*
X6300238Y-14799476D01*
X6281190Y-14828048D01*
X6262143Y-14847095D01*
X6243095Y-14856619D01*
X6443095Y-14980428D02*
X6452619Y-14989952D01*
X6443095Y-14999476D01*
X6433571Y-14989952D01*
X6443095Y-14980428D01*
X6443095Y-14999476D01*
X6519286Y-14799476D02*
X6643095Y-14799476D01*
X6576428Y-14875667D01*
X6605000Y-14875667D01*
X6624048Y-14885190D01*
X6633571Y-14894714D01*
X6643095Y-14913762D01*
X6643095Y-14961381D01*
X6633571Y-14980428D01*
X6624048Y-14989952D01*
X6605000Y-14999476D01*
X6547857Y-14999476D01*
X6528809Y-14989952D01*
X6519286Y-14980428D01*
X6766905Y-14799476D02*
X6785952Y-14799476D01*
X6805000Y-14809000D01*
X6814524Y-14818524D01*
X6824048Y-14837571D01*
X6833571Y-14875667D01*
X6833571Y-14923286D01*
X6824048Y-14961381D01*
X6814524Y-14980428D01*
X6805000Y-14989952D01*
X6785952Y-14999476D01*
X6766905Y-14999476D01*
X6747857Y-14989952D01*
X6738333Y-14980428D01*
X6728809Y-14961381D01*
X6719286Y-14923286D01*
X6719286Y-14875667D01*
X6728809Y-14837571D01*
X6738333Y-14818524D01*
X6747857Y-14809000D01*
X6766905Y-14799476D01*
X6957381Y-14799476D02*
X6976428Y-14799476D01*
X6995476Y-14809000D01*
X7005000Y-14818524D01*
X7014524Y-14837571D01*
X7024048Y-14875667D01*
X7024048Y-14923286D01*
X7014524Y-14961381D01*
X7005000Y-14980428D01*
X6995476Y-14989952D01*
X6976428Y-14999476D01*
X6957381Y-14999476D01*
X6938333Y-14989952D01*
X6928809Y-14980428D01*
X6919286Y-14961381D01*
X6909762Y-14923286D01*
X6909762Y-14875667D01*
X6919286Y-14837571D01*
X6928809Y-14818524D01*
X6938333Y-14809000D01*
X6957381Y-14799476D01*
X7109762Y-14999476D02*
X7109762Y-14866143D01*
X7109762Y-14885190D02*
X7119286Y-14875667D01*
X7138333Y-14866143D01*
X7166905Y-14866143D01*
X7185952Y-14875667D01*
X7195476Y-14894714D01*
X7195476Y-14999476D01*
X7195476Y-14894714D02*
X7205000Y-14875667D01*
X7224048Y-14866143D01*
X7252619Y-14866143D01*
X7271667Y-14875667D01*
X7281190Y-14894714D01*
X7281190Y-14999476D01*
X7376428Y-14999476D02*
X7376428Y-14866143D01*
X7376428Y-14885190D02*
X7385952Y-14875667D01*
X7405000Y-14866143D01*
X7433571Y-14866143D01*
X7452619Y-14875667D01*
X7462143Y-14894714D01*
X7462143Y-14999476D01*
X7462143Y-14894714D02*
X7471667Y-14875667D01*
X7490714Y-14866143D01*
X7519286Y-14866143D01*
X7538333Y-14875667D01*
X7547857Y-14894714D01*
X7547857Y-14999476D01*
X7938333Y-14789952D02*
X7766905Y-15047095D01*
X8195476Y-14799476D02*
X8214524Y-14799476D01*
X8233571Y-14809000D01*
X8243095Y-14818524D01*
X8252619Y-14837571D01*
X8262143Y-14875667D01*
X8262143Y-14923286D01*
X8252619Y-14961381D01*
X8243095Y-14980428D01*
X8233571Y-14989952D01*
X8214524Y-14999476D01*
X8195476Y-14999476D01*
X8176428Y-14989952D01*
X8166905Y-14980428D01*
X8157381Y-14961381D01*
X8147857Y-14923286D01*
X8147857Y-14875667D01*
X8157381Y-14837571D01*
X8166905Y-14818524D01*
X8176428Y-14809000D01*
X8195476Y-14799476D01*
X8347857Y-14980428D02*
X8357381Y-14989952D01*
X8347857Y-14999476D01*
X8338333Y-14989952D01*
X8347857Y-14980428D01*
X8347857Y-14999476D01*
X8481190Y-14799476D02*
X8500238Y-14799476D01*
X8519286Y-14809000D01*
X8528810Y-14818524D01*
X8538333Y-14837571D01*
X8547857Y-14875667D01*
X8547857Y-14923286D01*
X8538333Y-14961381D01*
X8528810Y-14980428D01*
X8519286Y-14989952D01*
X8500238Y-14999476D01*
X8481190Y-14999476D01*
X8462143Y-14989952D01*
X8452619Y-14980428D01*
X8443095Y-14961381D01*
X8433571Y-14923286D01*
X8433571Y-14875667D01*
X8443095Y-14837571D01*
X8452619Y-14818524D01*
X8462143Y-14809000D01*
X8481190Y-14799476D01*
X8728810Y-14799476D02*
X8633571Y-14799476D01*
X8624048Y-14894714D01*
X8633571Y-14885190D01*
X8652619Y-14875667D01*
X8700238Y-14875667D01*
X8719286Y-14885190D01*
X8728810Y-14894714D01*
X8738333Y-14913762D01*
X8738333Y-14961381D01*
X8728810Y-14980428D01*
X8719286Y-14989952D01*
X8700238Y-14999476D01*
X8652619Y-14999476D01*
X8633571Y-14989952D01*
X8624048Y-14980428D01*
X8928810Y-14999476D02*
X8814524Y-14999476D01*
X8871667Y-14999476D02*
X8871667Y-14799476D01*
X8852619Y-14828048D01*
X8833571Y-14847095D01*
X8814524Y-14856619D01*
X9005000Y-14818524D02*
X9014524Y-14809000D01*
X9033571Y-14799476D01*
X9081190Y-14799476D01*
X9100238Y-14809000D01*
X9109762Y-14818524D01*
X9119286Y-14837571D01*
X9119286Y-14856619D01*
X9109762Y-14885190D01*
X8995476Y-14999476D01*
X9119286Y-14999476D01*
X9195476Y-14799476D02*
X9195476Y-14837571D01*
X9271667Y-14799476D02*
X9271667Y-14837571D01*
X9566905Y-15075667D02*
X9557381Y-15066143D01*
X9538333Y-15037571D01*
X9528810Y-15018524D01*
X9519286Y-14989952D01*
X9509762Y-14942333D01*
X9509762Y-14904238D01*
X9519286Y-14856619D01*
X9528810Y-14828048D01*
X9538333Y-14809000D01*
X9557381Y-14780428D01*
X9566905Y-14770905D01*
X9633571Y-14818524D02*
X9643095Y-14809000D01*
X9662143Y-14799476D01*
X9709762Y-14799476D01*
X9728810Y-14809000D01*
X9738333Y-14818524D01*
X9747857Y-14837571D01*
X9747857Y-14856619D01*
X9738333Y-14885190D01*
X9624048Y-14999476D01*
X9747857Y-14999476D01*
X9985952Y-14999476D02*
X9985952Y-14799476D01*
X10071667Y-14999476D02*
X10071667Y-14894714D01*
X10062143Y-14875667D01*
X10043095Y-14866143D01*
X10014524Y-14866143D01*
X9995476Y-14875667D01*
X9985952Y-14885190D01*
X10195476Y-14999476D02*
X10176429Y-14989952D01*
X10166905Y-14980428D01*
X10157381Y-14961381D01*
X10157381Y-14904238D01*
X10166905Y-14885190D01*
X10176429Y-14875667D01*
X10195476Y-14866143D01*
X10224048Y-14866143D01*
X10243095Y-14875667D01*
X10252619Y-14885190D01*
X10262143Y-14904238D01*
X10262143Y-14961381D01*
X10252619Y-14980428D01*
X10243095Y-14989952D01*
X10224048Y-14999476D01*
X10195476Y-14999476D01*
X10376429Y-14999476D02*
X10357381Y-14989952D01*
X10347857Y-14970905D01*
X10347857Y-14799476D01*
X10528810Y-14989952D02*
X10509762Y-14999476D01*
X10471667Y-14999476D01*
X10452619Y-14989952D01*
X10443095Y-14970905D01*
X10443095Y-14894714D01*
X10452619Y-14875667D01*
X10471667Y-14866143D01*
X10509762Y-14866143D01*
X10528810Y-14875667D01*
X10538333Y-14894714D01*
X10538333Y-14913762D01*
X10443095Y-14932809D01*
X10614524Y-14989952D02*
X10633571Y-14999476D01*
X10671667Y-14999476D01*
X10690714Y-14989952D01*
X10700238Y-14970905D01*
X10700238Y-14961381D01*
X10690714Y-14942333D01*
X10671667Y-14932809D01*
X10643095Y-14932809D01*
X10624048Y-14923286D01*
X10614524Y-14904238D01*
X10614524Y-14894714D01*
X10624048Y-14875667D01*
X10643095Y-14866143D01*
X10671667Y-14866143D01*
X10690714Y-14875667D01*
X10766905Y-15075667D02*
X10776429Y-15066143D01*
X10795476Y-15037571D01*
X10805000Y-15018524D01*
X10814524Y-14989952D01*
X10824048Y-14942333D01*
X10824048Y-14904238D01*
X10814524Y-14856619D01*
X10805000Y-14828048D01*
X10795476Y-14809000D01*
X10776429Y-14780428D01*
X10766905Y-14770905D01*
X11128810Y-15075667D02*
X11119286Y-15066143D01*
X11100238Y-15037571D01*
X11090714Y-15018524D01*
X11081190Y-14989952D01*
X11071667Y-14942333D01*
X11071667Y-14904238D01*
X11081190Y-14856619D01*
X11090714Y-14828048D01*
X11100238Y-14809000D01*
X11119286Y-14780428D01*
X11128810Y-14770905D01*
X11205000Y-14866143D02*
X11205000Y-14999476D01*
X11205000Y-14885190D02*
X11214524Y-14875667D01*
X11233571Y-14866143D01*
X11262143Y-14866143D01*
X11281190Y-14875667D01*
X11290714Y-14894714D01*
X11290714Y-14999476D01*
X11414524Y-14999476D02*
X11395476Y-14989952D01*
X11385952Y-14980428D01*
X11376428Y-14961381D01*
X11376428Y-14904238D01*
X11385952Y-14885190D01*
X11395476Y-14875667D01*
X11414524Y-14866143D01*
X11443095Y-14866143D01*
X11462143Y-14875667D01*
X11471667Y-14885190D01*
X11481190Y-14904238D01*
X11481190Y-14961381D01*
X11471667Y-14980428D01*
X11462143Y-14989952D01*
X11443095Y-14999476D01*
X11414524Y-14999476D01*
X11538333Y-14866143D02*
X11614524Y-14866143D01*
X11566905Y-14799476D02*
X11566905Y-14970905D01*
X11576428Y-14989952D01*
X11595476Y-14999476D01*
X11614524Y-14999476D01*
X11833571Y-14866143D02*
X11833571Y-15066143D01*
X11833571Y-14875667D02*
X11852619Y-14866143D01*
X11890714Y-14866143D01*
X11909762Y-14875667D01*
X11919286Y-14885190D01*
X11928809Y-14904238D01*
X11928809Y-14961381D01*
X11919286Y-14980428D01*
X11909762Y-14989952D01*
X11890714Y-14999476D01*
X11852619Y-14999476D01*
X11833571Y-14989952D01*
X12043095Y-14999476D02*
X12024048Y-14989952D01*
X12014524Y-14970905D01*
X12014524Y-14799476D01*
X12205000Y-14999476D02*
X12205000Y-14894714D01*
X12195476Y-14875667D01*
X12176428Y-14866143D01*
X12138333Y-14866143D01*
X12119286Y-14875667D01*
X12205000Y-14989952D02*
X12185952Y-14999476D01*
X12138333Y-14999476D01*
X12119286Y-14989952D01*
X12109762Y-14970905D01*
X12109762Y-14951857D01*
X12119286Y-14932809D01*
X12138333Y-14923286D01*
X12185952Y-14923286D01*
X12205000Y-14913762D01*
X12271667Y-14866143D02*
X12347857Y-14866143D01*
X12300238Y-14799476D02*
X12300238Y-14970905D01*
X12309762Y-14989952D01*
X12328809Y-14999476D01*
X12347857Y-14999476D01*
X12490714Y-14989952D02*
X12471667Y-14999476D01*
X12433571Y-14999476D01*
X12414524Y-14989952D01*
X12405000Y-14970905D01*
X12405000Y-14894714D01*
X12414524Y-14875667D01*
X12433571Y-14866143D01*
X12471667Y-14866143D01*
X12490714Y-14875667D01*
X12500238Y-14894714D01*
X12500238Y-14913762D01*
X12405000Y-14932809D01*
X12671667Y-14999476D02*
X12671667Y-14799476D01*
X12671667Y-14989952D02*
X12652619Y-14999476D01*
X12614524Y-14999476D01*
X12595476Y-14989952D01*
X12585952Y-14980428D01*
X12576428Y-14961381D01*
X12576428Y-14904238D01*
X12585952Y-14885190D01*
X12595476Y-14875667D01*
X12614524Y-14866143D01*
X12652619Y-14866143D01*
X12671667Y-14875667D01*
X12747857Y-15075667D02*
X12757381Y-15066143D01*
X12776428Y-15037571D01*
X12785952Y-15018524D01*
X12795476Y-14989952D01*
X12805000Y-14942333D01*
X12805000Y-14904238D01*
X12795476Y-14856619D01*
X12785952Y-14828048D01*
X12776428Y-14809000D01*
X12757381Y-14780428D01*
X12747857Y-14770905D01*
X5895000Y-15073000D02*
X5895000Y-15273000D01*
X5795000Y-15173000D02*
X5995000Y-15173000D01*
X6233571Y-15063476D02*
X6357381Y-15063476D01*
X6290714Y-15139667D01*
X6319286Y-15139667D01*
X6338333Y-15149190D01*
X6347857Y-15158714D01*
X6357381Y-15177762D01*
X6357381Y-15225381D01*
X6347857Y-15244428D01*
X6338333Y-15253952D01*
X6319286Y-15263476D01*
X6262143Y-15263476D01*
X6243095Y-15253952D01*
X6233571Y-15244428D01*
X6443095Y-15244428D02*
X6452619Y-15253952D01*
X6443095Y-15263476D01*
X6433571Y-15253952D01*
X6443095Y-15244428D01*
X6443095Y-15263476D01*
X6528809Y-15082524D02*
X6538333Y-15073000D01*
X6557381Y-15063476D01*
X6605000Y-15063476D01*
X6624048Y-15073000D01*
X6633571Y-15082524D01*
X6643095Y-15101571D01*
X6643095Y-15120619D01*
X6633571Y-15149190D01*
X6519286Y-15263476D01*
X6643095Y-15263476D01*
X6766905Y-15063476D02*
X6785952Y-15063476D01*
X6805000Y-15073000D01*
X6814524Y-15082524D01*
X6824048Y-15101571D01*
X6833571Y-15139667D01*
X6833571Y-15187286D01*
X6824048Y-15225381D01*
X6814524Y-15244428D01*
X6805000Y-15253952D01*
X6785952Y-15263476D01*
X6766905Y-15263476D01*
X6747857Y-15253952D01*
X6738333Y-15244428D01*
X6728809Y-15225381D01*
X6719286Y-15187286D01*
X6719286Y-15139667D01*
X6728809Y-15101571D01*
X6738333Y-15082524D01*
X6747857Y-15073000D01*
X6766905Y-15063476D01*
X6957381Y-15063476D02*
X6976428Y-15063476D01*
X6995476Y-15073000D01*
X7005000Y-15082524D01*
X7014524Y-15101571D01*
X7024048Y-15139667D01*
X7024048Y-15187286D01*
X7014524Y-15225381D01*
X7005000Y-15244428D01*
X6995476Y-15253952D01*
X6976428Y-15263476D01*
X6957381Y-15263476D01*
X6938333Y-15253952D01*
X6928809Y-15244428D01*
X6919286Y-15225381D01*
X6909762Y-15187286D01*
X6909762Y-15139667D01*
X6919286Y-15101571D01*
X6928809Y-15082524D01*
X6938333Y-15073000D01*
X6957381Y-15063476D01*
X7109762Y-15263476D02*
X7109762Y-15130143D01*
X7109762Y-15149190D02*
X7119286Y-15139667D01*
X7138333Y-15130143D01*
X7166905Y-15130143D01*
X7185952Y-15139667D01*
X7195476Y-15158714D01*
X7195476Y-15263476D01*
X7195476Y-15158714D02*
X7205000Y-15139667D01*
X7224048Y-15130143D01*
X7252619Y-15130143D01*
X7271667Y-15139667D01*
X7281190Y-15158714D01*
X7281190Y-15263476D01*
X7376428Y-15263476D02*
X7376428Y-15130143D01*
X7376428Y-15149190D02*
X7385952Y-15139667D01*
X7405000Y-15130143D01*
X7433571Y-15130143D01*
X7452619Y-15139667D01*
X7462143Y-15158714D01*
X7462143Y-15263476D01*
X7462143Y-15158714D02*
X7471667Y-15139667D01*
X7490714Y-15130143D01*
X7519286Y-15130143D01*
X7538333Y-15139667D01*
X7547857Y-15158714D01*
X7547857Y-15263476D01*
X7938333Y-15053952D02*
X7766905Y-15311095D01*
X8195476Y-15063476D02*
X8214524Y-15063476D01*
X8233571Y-15073000D01*
X8243095Y-15082524D01*
X8252619Y-15101571D01*
X8262143Y-15139667D01*
X8262143Y-15187286D01*
X8252619Y-15225381D01*
X8243095Y-15244428D01*
X8233571Y-15253952D01*
X8214524Y-15263476D01*
X8195476Y-15263476D01*
X8176428Y-15253952D01*
X8166905Y-15244428D01*
X8157381Y-15225381D01*
X8147857Y-15187286D01*
X8147857Y-15139667D01*
X8157381Y-15101571D01*
X8166905Y-15082524D01*
X8176428Y-15073000D01*
X8195476Y-15063476D01*
X8347857Y-15244428D02*
X8357381Y-15253952D01*
X8347857Y-15263476D01*
X8338333Y-15253952D01*
X8347857Y-15244428D01*
X8347857Y-15263476D01*
X8547857Y-15263476D02*
X8433571Y-15263476D01*
X8490714Y-15263476D02*
X8490714Y-15063476D01*
X8471667Y-15092048D01*
X8452619Y-15111095D01*
X8433571Y-15120619D01*
X8624048Y-15082524D02*
X8633571Y-15073000D01*
X8652619Y-15063476D01*
X8700238Y-15063476D01*
X8719286Y-15073000D01*
X8728810Y-15082524D01*
X8738333Y-15101571D01*
X8738333Y-15120619D01*
X8728810Y-15149190D01*
X8614524Y-15263476D01*
X8738333Y-15263476D01*
X8909762Y-15063476D02*
X8871667Y-15063476D01*
X8852619Y-15073000D01*
X8843095Y-15082524D01*
X8824048Y-15111095D01*
X8814524Y-15149190D01*
X8814524Y-15225381D01*
X8824048Y-15244428D01*
X8833571Y-15253952D01*
X8852619Y-15263476D01*
X8890714Y-15263476D01*
X8909762Y-15253952D01*
X8919286Y-15244428D01*
X8928810Y-15225381D01*
X8928810Y-15177762D01*
X8919286Y-15158714D01*
X8909762Y-15149190D01*
X8890714Y-15139667D01*
X8852619Y-15139667D01*
X8833571Y-15149190D01*
X8824048Y-15158714D01*
X8814524Y-15177762D01*
X9052619Y-15063476D02*
X9071667Y-15063476D01*
X9090714Y-15073000D01*
X9100238Y-15082524D01*
X9109762Y-15101571D01*
X9119286Y-15139667D01*
X9119286Y-15187286D01*
X9109762Y-15225381D01*
X9100238Y-15244428D01*
X9090714Y-15253952D01*
X9071667Y-15263476D01*
X9052619Y-15263476D01*
X9033571Y-15253952D01*
X9024048Y-15244428D01*
X9014524Y-15225381D01*
X9005000Y-15187286D01*
X9005000Y-15139667D01*
X9014524Y-15101571D01*
X9024048Y-15082524D01*
X9033571Y-15073000D01*
X9052619Y-15063476D01*
X9195476Y-15063476D02*
X9195476Y-15101571D01*
X9271667Y-15063476D02*
X9271667Y-15101571D01*
X9566905Y-15339667D02*
X9557381Y-15330143D01*
X9538333Y-15301571D01*
X9528810Y-15282524D01*
X9519286Y-15253952D01*
X9509762Y-15206333D01*
X9509762Y-15168238D01*
X9519286Y-15120619D01*
X9528810Y-15092048D01*
X9538333Y-15073000D01*
X9557381Y-15044428D01*
X9566905Y-15034905D01*
X9728810Y-15130143D02*
X9728810Y-15263476D01*
X9681190Y-15053952D02*
X9633571Y-15196809D01*
X9757381Y-15196809D01*
X9985952Y-15263476D02*
X9985952Y-15063476D01*
X10071667Y-15263476D02*
X10071667Y-15158714D01*
X10062143Y-15139667D01*
X10043095Y-15130143D01*
X10014524Y-15130143D01*
X9995476Y-15139667D01*
X9985952Y-15149190D01*
X10195476Y-15263476D02*
X10176429Y-15253952D01*
X10166905Y-15244428D01*
X10157381Y-15225381D01*
X10157381Y-15168238D01*
X10166905Y-15149190D01*
X10176429Y-15139667D01*
X10195476Y-15130143D01*
X10224048Y-15130143D01*
X10243095Y-15139667D01*
X10252619Y-15149190D01*
X10262143Y-15168238D01*
X10262143Y-15225381D01*
X10252619Y-15244428D01*
X10243095Y-15253952D01*
X10224048Y-15263476D01*
X10195476Y-15263476D01*
X10376429Y-15263476D02*
X10357381Y-15253952D01*
X10347857Y-15234905D01*
X10347857Y-15063476D01*
X10528810Y-15253952D02*
X10509762Y-15263476D01*
X10471667Y-15263476D01*
X10452619Y-15253952D01*
X10443095Y-15234905D01*
X10443095Y-15158714D01*
X10452619Y-15139667D01*
X10471667Y-15130143D01*
X10509762Y-15130143D01*
X10528810Y-15139667D01*
X10538333Y-15158714D01*
X10538333Y-15177762D01*
X10443095Y-15196809D01*
X10614524Y-15253952D02*
X10633571Y-15263476D01*
X10671667Y-15263476D01*
X10690714Y-15253952D01*
X10700238Y-15234905D01*
X10700238Y-15225381D01*
X10690714Y-15206333D01*
X10671667Y-15196809D01*
X10643095Y-15196809D01*
X10624048Y-15187286D01*
X10614524Y-15168238D01*
X10614524Y-15158714D01*
X10624048Y-15139667D01*
X10643095Y-15130143D01*
X10671667Y-15130143D01*
X10690714Y-15139667D01*
X10766905Y-15339667D02*
X10776429Y-15330143D01*
X10795476Y-15301571D01*
X10805000Y-15282524D01*
X10814524Y-15253952D01*
X10824048Y-15206333D01*
X10824048Y-15168238D01*
X10814524Y-15120619D01*
X10805000Y-15092048D01*
X10795476Y-15073000D01*
X10776429Y-15044428D01*
X10766905Y-15034905D01*
X11128810Y-15339667D02*
X11119286Y-15330143D01*
X11100238Y-15301571D01*
X11090714Y-15282524D01*
X11081190Y-15253952D01*
X11071667Y-15206333D01*
X11071667Y-15168238D01*
X11081190Y-15120619D01*
X11090714Y-15092048D01*
X11100238Y-15073000D01*
X11119286Y-15044428D01*
X11128810Y-15034905D01*
X11205000Y-15130143D02*
X11205000Y-15263476D01*
X11205000Y-15149190D02*
X11214524Y-15139667D01*
X11233571Y-15130143D01*
X11262143Y-15130143D01*
X11281190Y-15139667D01*
X11290714Y-15158714D01*
X11290714Y-15263476D01*
X11414524Y-15263476D02*
X11395476Y-15253952D01*
X11385952Y-15244428D01*
X11376428Y-15225381D01*
X11376428Y-15168238D01*
X11385952Y-15149190D01*
X11395476Y-15139667D01*
X11414524Y-15130143D01*
X11443095Y-15130143D01*
X11462143Y-15139667D01*
X11471667Y-15149190D01*
X11481190Y-15168238D01*
X11481190Y-15225381D01*
X11471667Y-15244428D01*
X11462143Y-15253952D01*
X11443095Y-15263476D01*
X11414524Y-15263476D01*
X11538333Y-15130143D02*
X11614524Y-15130143D01*
X11566905Y-15063476D02*
X11566905Y-15234905D01*
X11576428Y-15253952D01*
X11595476Y-15263476D01*
X11614524Y-15263476D01*
X11833571Y-15130143D02*
X11833571Y-15330143D01*
X11833571Y-15139667D02*
X11852619Y-15130143D01*
X11890714Y-15130143D01*
X11909762Y-15139667D01*
X11919286Y-15149190D01*
X11928809Y-15168238D01*
X11928809Y-15225381D01*
X11919286Y-15244428D01*
X11909762Y-15253952D01*
X11890714Y-15263476D01*
X11852619Y-15263476D01*
X11833571Y-15253952D01*
X12043095Y-15263476D02*
X12024048Y-15253952D01*
X12014524Y-15234905D01*
X12014524Y-15063476D01*
X12205000Y-15263476D02*
X12205000Y-15158714D01*
X12195476Y-15139667D01*
X12176428Y-15130143D01*
X12138333Y-15130143D01*
X12119286Y-15139667D01*
X12205000Y-15253952D02*
X12185952Y-15263476D01*
X12138333Y-15263476D01*
X12119286Y-15253952D01*
X12109762Y-15234905D01*
X12109762Y-15215857D01*
X12119286Y-15196809D01*
X12138333Y-15187286D01*
X12185952Y-15187286D01*
X12205000Y-15177762D01*
X12271667Y-15130143D02*
X12347857Y-15130143D01*
X12300238Y-15063476D02*
X12300238Y-15234905D01*
X12309762Y-15253952D01*
X12328809Y-15263476D01*
X12347857Y-15263476D01*
X12490714Y-15253952D02*
X12471667Y-15263476D01*
X12433571Y-15263476D01*
X12414524Y-15253952D01*
X12405000Y-15234905D01*
X12405000Y-15158714D01*
X12414524Y-15139667D01*
X12433571Y-15130143D01*
X12471667Y-15130143D01*
X12490714Y-15139667D01*
X12500238Y-15158714D01*
X12500238Y-15177762D01*
X12405000Y-15196809D01*
X12671667Y-15263476D02*
X12671667Y-15063476D01*
X12671667Y-15253952D02*
X12652619Y-15263476D01*
X12614524Y-15263476D01*
X12595476Y-15253952D01*
X12585952Y-15244428D01*
X12576428Y-15225381D01*
X12576428Y-15168238D01*
X12585952Y-15149190D01*
X12595476Y-15139667D01*
X12614524Y-15130143D01*
X12652619Y-15130143D01*
X12671667Y-15139667D01*
X12747857Y-15339667D02*
X12757381Y-15330143D01*
X12776428Y-15301571D01*
X12785952Y-15282524D01*
X12795476Y-15253952D01*
X12805000Y-15206333D01*
X12805000Y-15168238D01*
X12795476Y-15120619D01*
X12785952Y-15092048D01*
X12776428Y-15073000D01*
X12757381Y-15044428D01*
X12747857Y-15034905D01*
X5965711Y-15563711D02*
X5965711Y-15422289D01*
X5824289Y-15422289D01*
X5824289Y-15563711D01*
X5965711Y-15563711D01*
X6233571Y-15383476D02*
X6357381Y-15383476D01*
X6290714Y-15459667D01*
X6319286Y-15459667D01*
X6338333Y-15469190D01*
X6347857Y-15478714D01*
X6357381Y-15497762D01*
X6357381Y-15545381D01*
X6347857Y-15564428D01*
X6338333Y-15573952D01*
X6319286Y-15583476D01*
X6262143Y-15583476D01*
X6243095Y-15573952D01*
X6233571Y-15564428D01*
X6443095Y-15564428D02*
X6452619Y-15573952D01*
X6443095Y-15583476D01*
X6433571Y-15573952D01*
X6443095Y-15564428D01*
X6443095Y-15583476D01*
X6528809Y-15402524D02*
X6538333Y-15393000D01*
X6557381Y-15383476D01*
X6605000Y-15383476D01*
X6624048Y-15393000D01*
X6633571Y-15402524D01*
X6643095Y-15421571D01*
X6643095Y-15440619D01*
X6633571Y-15469190D01*
X6519286Y-15583476D01*
X6643095Y-15583476D01*
X6824048Y-15383476D02*
X6728809Y-15383476D01*
X6719286Y-15478714D01*
X6728809Y-15469190D01*
X6747857Y-15459667D01*
X6795476Y-15459667D01*
X6814524Y-15469190D01*
X6824048Y-15478714D01*
X6833571Y-15497762D01*
X6833571Y-15545381D01*
X6824048Y-15564428D01*
X6814524Y-15573952D01*
X6795476Y-15583476D01*
X6747857Y-15583476D01*
X6728809Y-15573952D01*
X6719286Y-15564428D01*
X6957381Y-15383476D02*
X6976428Y-15383476D01*
X6995476Y-15393000D01*
X7005000Y-15402524D01*
X7014524Y-15421571D01*
X7024048Y-15459667D01*
X7024048Y-15507286D01*
X7014524Y-15545381D01*
X7005000Y-15564428D01*
X6995476Y-15573952D01*
X6976428Y-15583476D01*
X6957381Y-15583476D01*
X6938333Y-15573952D01*
X6928809Y-15564428D01*
X6919286Y-15545381D01*
X6909762Y-15507286D01*
X6909762Y-15459667D01*
X6919286Y-15421571D01*
X6928809Y-15402524D01*
X6938333Y-15393000D01*
X6957381Y-15383476D01*
X7109762Y-15583476D02*
X7109762Y-15450143D01*
X7109762Y-15469190D02*
X7119286Y-15459667D01*
X7138333Y-15450143D01*
X7166905Y-15450143D01*
X7185952Y-15459667D01*
X7195476Y-15478714D01*
X7195476Y-15583476D01*
X7195476Y-15478714D02*
X7205000Y-15459667D01*
X7224048Y-15450143D01*
X7252619Y-15450143D01*
X7271667Y-15459667D01*
X7281190Y-15478714D01*
X7281190Y-15583476D01*
X7376428Y-15583476D02*
X7376428Y-15450143D01*
X7376428Y-15469190D02*
X7385952Y-15459667D01*
X7405000Y-15450143D01*
X7433571Y-15450143D01*
X7452619Y-15459667D01*
X7462143Y-15478714D01*
X7462143Y-15583476D01*
X7462143Y-15478714D02*
X7471667Y-15459667D01*
X7490714Y-15450143D01*
X7519286Y-15450143D01*
X7538333Y-15459667D01*
X7547857Y-15478714D01*
X7547857Y-15583476D01*
X7938333Y-15373952D02*
X7766905Y-15631095D01*
X8195476Y-15383476D02*
X8214524Y-15383476D01*
X8233571Y-15393000D01*
X8243095Y-15402524D01*
X8252619Y-15421571D01*
X8262143Y-15459667D01*
X8262143Y-15507286D01*
X8252619Y-15545381D01*
X8243095Y-15564428D01*
X8233571Y-15573952D01*
X8214524Y-15583476D01*
X8195476Y-15583476D01*
X8176428Y-15573952D01*
X8166905Y-15564428D01*
X8157381Y-15545381D01*
X8147857Y-15507286D01*
X8147857Y-15459667D01*
X8157381Y-15421571D01*
X8166905Y-15402524D01*
X8176428Y-15393000D01*
X8195476Y-15383476D01*
X8347857Y-15564428D02*
X8357381Y-15573952D01*
X8347857Y-15583476D01*
X8338333Y-15573952D01*
X8347857Y-15564428D01*
X8347857Y-15583476D01*
X8547857Y-15583476D02*
X8433571Y-15583476D01*
X8490714Y-15583476D02*
X8490714Y-15383476D01*
X8471667Y-15412048D01*
X8452619Y-15431095D01*
X8433571Y-15440619D01*
X8624048Y-15402524D02*
X8633571Y-15393000D01*
X8652619Y-15383476D01*
X8700238Y-15383476D01*
X8719286Y-15393000D01*
X8728810Y-15402524D01*
X8738333Y-15421571D01*
X8738333Y-15440619D01*
X8728810Y-15469190D01*
X8614524Y-15583476D01*
X8738333Y-15583476D01*
X8852619Y-15469190D02*
X8833571Y-15459667D01*
X8824048Y-15450143D01*
X8814524Y-15431095D01*
X8814524Y-15421571D01*
X8824048Y-15402524D01*
X8833571Y-15393000D01*
X8852619Y-15383476D01*
X8890714Y-15383476D01*
X8909762Y-15393000D01*
X8919286Y-15402524D01*
X8928810Y-15421571D01*
X8928810Y-15431095D01*
X8919286Y-15450143D01*
X8909762Y-15459667D01*
X8890714Y-15469190D01*
X8852619Y-15469190D01*
X8833571Y-15478714D01*
X8824048Y-15488238D01*
X8814524Y-15507286D01*
X8814524Y-15545381D01*
X8824048Y-15564428D01*
X8833571Y-15573952D01*
X8852619Y-15583476D01*
X8890714Y-15583476D01*
X8909762Y-15573952D01*
X8919286Y-15564428D01*
X8928810Y-15545381D01*
X8928810Y-15507286D01*
X8919286Y-15488238D01*
X8909762Y-15478714D01*
X8890714Y-15469190D01*
X9052619Y-15383476D02*
X9071667Y-15383476D01*
X9090714Y-15393000D01*
X9100238Y-15402524D01*
X9109762Y-15421571D01*
X9119286Y-15459667D01*
X9119286Y-15507286D01*
X9109762Y-15545381D01*
X9100238Y-15564428D01*
X9090714Y-15573952D01*
X9071667Y-15583476D01*
X9052619Y-15583476D01*
X9033571Y-15573952D01*
X9024048Y-15564428D01*
X9014524Y-15545381D01*
X9005000Y-15507286D01*
X9005000Y-15459667D01*
X9014524Y-15421571D01*
X9024048Y-15402524D01*
X9033571Y-15393000D01*
X9052619Y-15383476D01*
X9195476Y-15383476D02*
X9195476Y-15421571D01*
X9271667Y-15383476D02*
X9271667Y-15421571D01*
X9566905Y-15659667D02*
X9557381Y-15650143D01*
X9538333Y-15621571D01*
X9528810Y-15602524D01*
X9519286Y-15573952D01*
X9509762Y-15526333D01*
X9509762Y-15488238D01*
X9519286Y-15440619D01*
X9528810Y-15412048D01*
X9538333Y-15393000D01*
X9557381Y-15364428D01*
X9566905Y-15354905D01*
X9633571Y-15402524D02*
X9643095Y-15393000D01*
X9662143Y-15383476D01*
X9709762Y-15383476D01*
X9728810Y-15393000D01*
X9738333Y-15402524D01*
X9747857Y-15421571D01*
X9747857Y-15440619D01*
X9738333Y-15469190D01*
X9624048Y-15583476D01*
X9747857Y-15583476D01*
X9985952Y-15583476D02*
X9985952Y-15383476D01*
X10071667Y-15583476D02*
X10071667Y-15478714D01*
X10062143Y-15459667D01*
X10043095Y-15450143D01*
X10014524Y-15450143D01*
X9995476Y-15459667D01*
X9985952Y-15469190D01*
X10195476Y-15583476D02*
X10176429Y-15573952D01*
X10166905Y-15564428D01*
X10157381Y-15545381D01*
X10157381Y-15488238D01*
X10166905Y-15469190D01*
X10176429Y-15459667D01*
X10195476Y-15450143D01*
X10224048Y-15450143D01*
X10243095Y-15459667D01*
X10252619Y-15469190D01*
X10262143Y-15488238D01*
X10262143Y-15545381D01*
X10252619Y-15564428D01*
X10243095Y-15573952D01*
X10224048Y-15583476D01*
X10195476Y-15583476D01*
X10376429Y-15583476D02*
X10357381Y-15573952D01*
X10347857Y-15554905D01*
X10347857Y-15383476D01*
X10528810Y-15573952D02*
X10509762Y-15583476D01*
X10471667Y-15583476D01*
X10452619Y-15573952D01*
X10443095Y-15554905D01*
X10443095Y-15478714D01*
X10452619Y-15459667D01*
X10471667Y-15450143D01*
X10509762Y-15450143D01*
X10528810Y-15459667D01*
X10538333Y-15478714D01*
X10538333Y-15497762D01*
X10443095Y-15516809D01*
X10614524Y-15573952D02*
X10633571Y-15583476D01*
X10671667Y-15583476D01*
X10690714Y-15573952D01*
X10700238Y-15554905D01*
X10700238Y-15545381D01*
X10690714Y-15526333D01*
X10671667Y-15516809D01*
X10643095Y-15516809D01*
X10624048Y-15507286D01*
X10614524Y-15488238D01*
X10614524Y-15478714D01*
X10624048Y-15459667D01*
X10643095Y-15450143D01*
X10671667Y-15450143D01*
X10690714Y-15459667D01*
X10766905Y-15659667D02*
X10776429Y-15650143D01*
X10795476Y-15621571D01*
X10805000Y-15602524D01*
X10814524Y-15573952D01*
X10824048Y-15526333D01*
X10824048Y-15488238D01*
X10814524Y-15440619D01*
X10805000Y-15412048D01*
X10795476Y-15393000D01*
X10776429Y-15364428D01*
X10766905Y-15354905D01*
X11128810Y-15659667D02*
X11119286Y-15650143D01*
X11100238Y-15621571D01*
X11090714Y-15602524D01*
X11081190Y-15573952D01*
X11071667Y-15526333D01*
X11071667Y-15488238D01*
X11081190Y-15440619D01*
X11090714Y-15412048D01*
X11100238Y-15393000D01*
X11119286Y-15364428D01*
X11128810Y-15354905D01*
X11205000Y-15450143D02*
X11205000Y-15583476D01*
X11205000Y-15469190D02*
X11214524Y-15459667D01*
X11233571Y-15450143D01*
X11262143Y-15450143D01*
X11281190Y-15459667D01*
X11290714Y-15478714D01*
X11290714Y-15583476D01*
X11414524Y-15583476D02*
X11395476Y-15573952D01*
X11385952Y-15564428D01*
X11376428Y-15545381D01*
X11376428Y-15488238D01*
X11385952Y-15469190D01*
X11395476Y-15459667D01*
X11414524Y-15450143D01*
X11443095Y-15450143D01*
X11462143Y-15459667D01*
X11471667Y-15469190D01*
X11481190Y-15488238D01*
X11481190Y-15545381D01*
X11471667Y-15564428D01*
X11462143Y-15573952D01*
X11443095Y-15583476D01*
X11414524Y-15583476D01*
X11538333Y-15450143D02*
X11614524Y-15450143D01*
X11566905Y-15383476D02*
X11566905Y-15554905D01*
X11576428Y-15573952D01*
X11595476Y-15583476D01*
X11614524Y-15583476D01*
X11833571Y-15450143D02*
X11833571Y-15650143D01*
X11833571Y-15459667D02*
X11852619Y-15450143D01*
X11890714Y-15450143D01*
X11909762Y-15459667D01*
X11919286Y-15469190D01*
X11928809Y-15488238D01*
X11928809Y-15545381D01*
X11919286Y-15564428D01*
X11909762Y-15573952D01*
X11890714Y-15583476D01*
X11852619Y-15583476D01*
X11833571Y-15573952D01*
X12043095Y-15583476D02*
X12024048Y-15573952D01*
X12014524Y-15554905D01*
X12014524Y-15383476D01*
X12205000Y-15583476D02*
X12205000Y-15478714D01*
X12195476Y-15459667D01*
X12176428Y-15450143D01*
X12138333Y-15450143D01*
X12119286Y-15459667D01*
X12205000Y-15573952D02*
X12185952Y-15583476D01*
X12138333Y-15583476D01*
X12119286Y-15573952D01*
X12109762Y-15554905D01*
X12109762Y-15535857D01*
X12119286Y-15516809D01*
X12138333Y-15507286D01*
X12185952Y-15507286D01*
X12205000Y-15497762D01*
X12271667Y-15450143D02*
X12347857Y-15450143D01*
X12300238Y-15383476D02*
X12300238Y-15554905D01*
X12309762Y-15573952D01*
X12328809Y-15583476D01*
X12347857Y-15583476D01*
X12490714Y-15573952D02*
X12471667Y-15583476D01*
X12433571Y-15583476D01*
X12414524Y-15573952D01*
X12405000Y-15554905D01*
X12405000Y-15478714D01*
X12414524Y-15459667D01*
X12433571Y-15450143D01*
X12471667Y-15450143D01*
X12490714Y-15459667D01*
X12500238Y-15478714D01*
X12500238Y-15497762D01*
X12405000Y-15516809D01*
X12671667Y-15583476D02*
X12671667Y-15383476D01*
X12671667Y-15573952D02*
X12652619Y-15583476D01*
X12614524Y-15583476D01*
X12595476Y-15573952D01*
X12585952Y-15564428D01*
X12576428Y-15545381D01*
X12576428Y-15488238D01*
X12585952Y-15469190D01*
X12595476Y-15459667D01*
X12614524Y-15450143D01*
X12652619Y-15450143D01*
X12671667Y-15459667D01*
X12747857Y-15659667D02*
X12757381Y-15650143D01*
X12776428Y-15621571D01*
X12785952Y-15602524D01*
X12795476Y-15573952D01*
X12805000Y-15526333D01*
X12805000Y-15488238D01*
X12795476Y-15440619D01*
X12785952Y-15412048D01*
X12776428Y-15393000D01*
X12757381Y-15364428D01*
X12747857Y-15354905D01*
M02*
