%TF.GenerationSoftware,KiCad,Pcbnew,6.0.11-3.fc36*%
%TF.CreationDate,2023-04-28T14:31:49+02:00*%
%TF.ProjectId,openX65-vabo,6f70656e-5836-4352-9d76-61626f2e6b69,rev01*%
%TF.SameCoordinates,Original*%
%TF.FileFunction,Legend,Bot*%
%TF.FilePolarity,Positive*%
%FSLAX46Y46*%
G04 Gerber Fmt 4.6, Leading zero omitted, Abs format (unit mm)*
G04 Created by KiCad (PCBNEW 6.0.11-3.fc36) date 2023-04-28 14:31:49*
%MOMM*%
%LPD*%
G01*
G04 APERTURE LIST*
%ADD10C,0.150000*%
%ADD11C,0.300000*%
%ADD12C,0.120000*%
G04 APERTURE END LIST*
D10*
X110861904Y-135800000D02*
X110957142Y-135752380D01*
X111100000Y-135752380D01*
X111242857Y-135800000D01*
X111338095Y-135895238D01*
X111385714Y-135990476D01*
X111433333Y-136180952D01*
X111433333Y-136323809D01*
X111385714Y-136514285D01*
X111338095Y-136609523D01*
X111242857Y-136704761D01*
X111100000Y-136752380D01*
X111004761Y-136752380D01*
X110861904Y-136704761D01*
X110814285Y-136657142D01*
X110814285Y-136323809D01*
X111004761Y-136323809D01*
X110385714Y-136752380D02*
X110385714Y-135752380D01*
X109814285Y-136752380D01*
X109814285Y-135752380D01*
X109338095Y-136752380D02*
X109338095Y-135752380D01*
X109100000Y-135752380D01*
X108957142Y-135800000D01*
X108861904Y-135895238D01*
X108814285Y-135990476D01*
X108766666Y-136180952D01*
X108766666Y-136323809D01*
X108814285Y-136514285D01*
X108861904Y-136609523D01*
X108957142Y-136704761D01*
X109100000Y-136752380D01*
X109338095Y-136752380D01*
X140461904Y-133200000D02*
X140557142Y-133152380D01*
X140700000Y-133152380D01*
X140842857Y-133200000D01*
X140938095Y-133295238D01*
X140985714Y-133390476D01*
X141033333Y-133580952D01*
X141033333Y-133723809D01*
X140985714Y-133914285D01*
X140938095Y-134009523D01*
X140842857Y-134104761D01*
X140700000Y-134152380D01*
X140604761Y-134152380D01*
X140461904Y-134104761D01*
X140414285Y-134057142D01*
X140414285Y-133723809D01*
X140604761Y-133723809D01*
X139985714Y-134152380D02*
X139985714Y-133152380D01*
X139414285Y-134152380D01*
X139414285Y-133152380D01*
X138938095Y-134152380D02*
X138938095Y-133152380D01*
X138700000Y-133152380D01*
X138557142Y-133200000D01*
X138461904Y-133295238D01*
X138414285Y-133390476D01*
X138366666Y-133580952D01*
X138366666Y-133723809D01*
X138414285Y-133914285D01*
X138461904Y-134009523D01*
X138557142Y-134104761D01*
X138700000Y-134152380D01*
X138938095Y-134152380D01*
X111361904Y-43100000D02*
X111457142Y-43052380D01*
X111600000Y-43052380D01*
X111742857Y-43100000D01*
X111838095Y-43195238D01*
X111885714Y-43290476D01*
X111933333Y-43480952D01*
X111933333Y-43623809D01*
X111885714Y-43814285D01*
X111838095Y-43909523D01*
X111742857Y-44004761D01*
X111600000Y-44052380D01*
X111504761Y-44052380D01*
X111361904Y-44004761D01*
X111314285Y-43957142D01*
X111314285Y-43623809D01*
X111504761Y-43623809D01*
X110885714Y-44052380D02*
X110885714Y-43052380D01*
X110314285Y-44052380D01*
X110314285Y-43052380D01*
X109838095Y-44052380D02*
X109838095Y-43052380D01*
X109600000Y-43052380D01*
X109457142Y-43100000D01*
X109361904Y-43195238D01*
X109314285Y-43290476D01*
X109266666Y-43480952D01*
X109266666Y-43623809D01*
X109314285Y-43814285D01*
X109361904Y-43909523D01*
X109457142Y-44004761D01*
X109600000Y-44052380D01*
X109838095Y-44052380D01*
X140061904Y-43100000D02*
X140157142Y-43052380D01*
X140300000Y-43052380D01*
X140442857Y-43100000D01*
X140538095Y-43195238D01*
X140585714Y-43290476D01*
X140633333Y-43480952D01*
X140633333Y-43623809D01*
X140585714Y-43814285D01*
X140538095Y-43909523D01*
X140442857Y-44004761D01*
X140300000Y-44052380D01*
X140204761Y-44052380D01*
X140061904Y-44004761D01*
X140014285Y-43957142D01*
X140014285Y-43623809D01*
X140204761Y-43623809D01*
X139585714Y-44052380D02*
X139585714Y-43052380D01*
X139014285Y-44052380D01*
X139014285Y-43052380D01*
X138538095Y-44052380D02*
X138538095Y-43052380D01*
X138300000Y-43052380D01*
X138157142Y-43100000D01*
X138061904Y-43195238D01*
X138014285Y-43290476D01*
X137966666Y-43480952D01*
X137966666Y-43623809D01*
X138014285Y-43814285D01*
X138061904Y-43909523D01*
X138157142Y-44004761D01*
X138300000Y-44052380D01*
X138538095Y-44052380D01*
X77238095Y-63252380D02*
X77714285Y-63252380D01*
X77714285Y-62252380D01*
X76714285Y-62252380D02*
X76523809Y-62252380D01*
X76428571Y-62300000D01*
X76333333Y-62395238D01*
X76285714Y-62585714D01*
X76285714Y-62919047D01*
X76333333Y-63109523D01*
X76428571Y-63204761D01*
X76523809Y-63252380D01*
X76714285Y-63252380D01*
X76809523Y-63204761D01*
X76904761Y-63109523D01*
X76952380Y-62919047D01*
X76952380Y-62585714D01*
X76904761Y-62395238D01*
X76809523Y-62300000D01*
X76714285Y-62252380D01*
X75857142Y-62252380D02*
X75857142Y-63061904D01*
X75809523Y-63157142D01*
X75761904Y-63204761D01*
X75666666Y-63252380D01*
X75476190Y-63252380D01*
X75380952Y-63204761D01*
X75333333Y-63157142D01*
X75285714Y-63061904D01*
X75285714Y-62252380D01*
X74809523Y-63252380D02*
X74809523Y-62252380D01*
X74571428Y-62252380D01*
X74428571Y-62300000D01*
X74333333Y-62395238D01*
X74285714Y-62490476D01*
X74238095Y-62680952D01*
X74238095Y-62823809D01*
X74285714Y-63014285D01*
X74333333Y-63109523D01*
X74428571Y-63204761D01*
X74571428Y-63252380D01*
X74809523Y-63252380D01*
X77614285Y-58447619D02*
X77709523Y-58400000D01*
X77804761Y-58304761D01*
X77947619Y-58161904D01*
X78042857Y-58114285D01*
X78138095Y-58114285D01*
X78090476Y-58352380D02*
X78185714Y-58304761D01*
X78280952Y-58209523D01*
X78328571Y-58019047D01*
X78328571Y-57685714D01*
X78280952Y-57495238D01*
X78185714Y-57400000D01*
X78090476Y-57352380D01*
X77900000Y-57352380D01*
X77804761Y-57400000D01*
X77709523Y-57495238D01*
X77661904Y-57685714D01*
X77661904Y-58019047D01*
X77709523Y-58209523D01*
X77804761Y-58304761D01*
X77900000Y-58352380D01*
X78090476Y-58352380D01*
X77233333Y-57352380D02*
X77233333Y-58161904D01*
X77185714Y-58257142D01*
X77138095Y-58304761D01*
X77042857Y-58352380D01*
X76852380Y-58352380D01*
X76757142Y-58304761D01*
X76709523Y-58257142D01*
X76661904Y-58161904D01*
X76661904Y-57352380D01*
X76185714Y-58352380D02*
X76185714Y-57352380D01*
X75709523Y-57828571D02*
X75376190Y-57828571D01*
X75233333Y-58352380D02*
X75709523Y-58352380D01*
X75709523Y-57352380D01*
X75233333Y-57352380D01*
X74947619Y-57352380D02*
X74376190Y-57352380D01*
X74661904Y-58352380D02*
X74661904Y-57352380D01*
X77790476Y-53652380D02*
X77790476Y-52652380D01*
X77457142Y-53366666D01*
X77123809Y-52652380D01*
X77123809Y-53652380D01*
X76647619Y-52652380D02*
X76647619Y-53461904D01*
X76600000Y-53557142D01*
X76552380Y-53604761D01*
X76457142Y-53652380D01*
X76266666Y-53652380D01*
X76171428Y-53604761D01*
X76123809Y-53557142D01*
X76076190Y-53461904D01*
X76076190Y-52652380D01*
X75742857Y-52652380D02*
X75171428Y-52652380D01*
X75457142Y-53652380D02*
X75457142Y-52652380D01*
X74838095Y-53128571D02*
X74504761Y-53128571D01*
X74361904Y-53652380D02*
X74838095Y-53652380D01*
X74838095Y-52652380D01*
X74361904Y-52652380D01*
X66399761Y-52066666D02*
X66447380Y-52209523D01*
X66447380Y-52447619D01*
X66399761Y-52542857D01*
X66352142Y-52590476D01*
X66256904Y-52638095D01*
X66161666Y-52638095D01*
X66066428Y-52590476D01*
X66018809Y-52542857D01*
X65971190Y-52447619D01*
X65923571Y-52257142D01*
X65875952Y-52161904D01*
X65828333Y-52114285D01*
X65733095Y-52066666D01*
X65637857Y-52066666D01*
X65542619Y-52114285D01*
X65495000Y-52161904D01*
X65447380Y-52257142D01*
X65447380Y-52495238D01*
X65495000Y-52638095D01*
X65780714Y-53066666D02*
X66780714Y-53066666D01*
X65828333Y-53066666D02*
X65780714Y-53161904D01*
X65780714Y-53352380D01*
X65828333Y-53447619D01*
X65875952Y-53495238D01*
X65971190Y-53542857D01*
X66256904Y-53542857D01*
X66352142Y-53495238D01*
X66399761Y-53447619D01*
X66447380Y-53352380D01*
X66447380Y-53161904D01*
X66399761Y-53066666D01*
X66399761Y-54352380D02*
X66447380Y-54257142D01*
X66447380Y-54066666D01*
X66399761Y-53971428D01*
X66304523Y-53923809D01*
X65923571Y-53923809D01*
X65828333Y-53971428D01*
X65780714Y-54066666D01*
X65780714Y-54257142D01*
X65828333Y-54352380D01*
X65923571Y-54400000D01*
X66018809Y-54400000D01*
X66114047Y-53923809D01*
X66447380Y-55257142D02*
X65923571Y-55257142D01*
X65828333Y-55209523D01*
X65780714Y-55114285D01*
X65780714Y-54923809D01*
X65828333Y-54828571D01*
X66399761Y-55257142D02*
X66447380Y-55161904D01*
X66447380Y-54923809D01*
X66399761Y-54828571D01*
X66304523Y-54780952D01*
X66209285Y-54780952D01*
X66114047Y-54828571D01*
X66066428Y-54923809D01*
X66066428Y-55161904D01*
X66018809Y-55257142D01*
X66447380Y-55733333D02*
X65447380Y-55733333D01*
X66066428Y-55828571D02*
X66447380Y-56114285D01*
X65780714Y-56114285D02*
X66161666Y-55733333D01*
X66399761Y-56923809D02*
X66447380Y-56828571D01*
X66447380Y-56638095D01*
X66399761Y-56542857D01*
X66304523Y-56495238D01*
X65923571Y-56495238D01*
X65828333Y-56542857D01*
X65780714Y-56638095D01*
X65780714Y-56828571D01*
X65828333Y-56923809D01*
X65923571Y-56971428D01*
X66018809Y-56971428D01*
X66114047Y-56495238D01*
X66447380Y-57400000D02*
X65780714Y-57400000D01*
X65971190Y-57400000D02*
X65875952Y-57447619D01*
X65828333Y-57495238D01*
X65780714Y-57590476D01*
X65780714Y-57685714D01*
X65447380Y-58638095D02*
X66447380Y-58971428D01*
X65447380Y-59304761D01*
X66447380Y-59780952D02*
X66399761Y-59685714D01*
X66352142Y-59638095D01*
X66256904Y-59590476D01*
X65971190Y-59590476D01*
X65875952Y-59638095D01*
X65828333Y-59685714D01*
X65780714Y-59780952D01*
X65780714Y-59923809D01*
X65828333Y-60019047D01*
X65875952Y-60066666D01*
X65971190Y-60114285D01*
X66256904Y-60114285D01*
X66352142Y-60066666D01*
X66399761Y-60019047D01*
X66447380Y-59923809D01*
X66447380Y-59780952D01*
X66447380Y-60685714D02*
X66399761Y-60590476D01*
X66304523Y-60542857D01*
X65447380Y-60542857D01*
X65780714Y-61495238D02*
X66447380Y-61495238D01*
X65780714Y-61066666D02*
X66304523Y-61066666D01*
X66399761Y-61114285D01*
X66447380Y-61209523D01*
X66447380Y-61352380D01*
X66399761Y-61447619D01*
X66352142Y-61495238D01*
X66447380Y-61971428D02*
X65780714Y-61971428D01*
X65875952Y-61971428D02*
X65828333Y-62019047D01*
X65780714Y-62114285D01*
X65780714Y-62257142D01*
X65828333Y-62352380D01*
X65923571Y-62400000D01*
X66447380Y-62400000D01*
X65923571Y-62400000D02*
X65828333Y-62447619D01*
X65780714Y-62542857D01*
X65780714Y-62685714D01*
X65828333Y-62780952D01*
X65923571Y-62828571D01*
X66447380Y-62828571D01*
X66399761Y-63685714D02*
X66447380Y-63590476D01*
X66447380Y-63400000D01*
X66399761Y-63304761D01*
X66304523Y-63257142D01*
X65923571Y-63257142D01*
X65828333Y-63304761D01*
X65780714Y-63400000D01*
X65780714Y-63590476D01*
X65828333Y-63685714D01*
X65923571Y-63733333D01*
X66018809Y-63733333D01*
X66114047Y-63257142D01*
X68438333Y-54661904D02*
X68390714Y-54614285D01*
X68247857Y-54519047D01*
X68152619Y-54471428D01*
X68009761Y-54423809D01*
X67771666Y-54376190D01*
X67581190Y-54376190D01*
X67343095Y-54423809D01*
X67200238Y-54471428D01*
X67105000Y-54519047D01*
X66962142Y-54614285D01*
X66914523Y-54661904D01*
X67390714Y-54900000D02*
X67390714Y-55280952D01*
X67057380Y-55042857D02*
X67914523Y-55042857D01*
X68009761Y-55090476D01*
X68057380Y-55185714D01*
X68057380Y-55280952D01*
X68057380Y-55757142D02*
X68009761Y-55661904D01*
X67962142Y-55614285D01*
X67866904Y-55566666D01*
X67581190Y-55566666D01*
X67485952Y-55614285D01*
X67438333Y-55661904D01*
X67390714Y-55757142D01*
X67390714Y-55900000D01*
X67438333Y-55995238D01*
X67485952Y-56042857D01*
X67581190Y-56090476D01*
X67866904Y-56090476D01*
X67962142Y-56042857D01*
X68009761Y-55995238D01*
X68057380Y-55900000D01*
X68057380Y-55757142D01*
X67390714Y-56519047D02*
X68390714Y-56519047D01*
X67438333Y-56519047D02*
X67390714Y-56614285D01*
X67390714Y-56804761D01*
X67438333Y-56900000D01*
X67485952Y-56947619D01*
X67581190Y-56995238D01*
X67866904Y-56995238D01*
X67962142Y-56947619D01*
X68009761Y-56900000D01*
X68057380Y-56804761D01*
X68057380Y-56614285D01*
X68009761Y-56519047D01*
X68009761Y-58138095D02*
X68057380Y-58233333D01*
X68057380Y-58423809D01*
X68009761Y-58519047D01*
X67914523Y-58566666D01*
X67866904Y-58566666D01*
X67771666Y-58519047D01*
X67724047Y-58423809D01*
X67724047Y-58280952D01*
X67676428Y-58185714D01*
X67581190Y-58138095D01*
X67533571Y-58138095D01*
X67438333Y-58185714D01*
X67390714Y-58280952D01*
X67390714Y-58423809D01*
X67438333Y-58519047D01*
X68057380Y-58995238D02*
X67390714Y-58995238D01*
X67057380Y-58995238D02*
X67105000Y-58947619D01*
X67152619Y-58995238D01*
X67105000Y-59042857D01*
X67057380Y-58995238D01*
X67152619Y-58995238D01*
X68057380Y-59900000D02*
X67057380Y-59900000D01*
X68009761Y-59900000D02*
X68057380Y-59804761D01*
X68057380Y-59614285D01*
X68009761Y-59519047D01*
X67962142Y-59471428D01*
X67866904Y-59423809D01*
X67581190Y-59423809D01*
X67485952Y-59471428D01*
X67438333Y-59519047D01*
X67390714Y-59614285D01*
X67390714Y-59804761D01*
X67438333Y-59900000D01*
X68009761Y-60757142D02*
X68057380Y-60661904D01*
X68057380Y-60471428D01*
X68009761Y-60376190D01*
X67914523Y-60328571D01*
X67533571Y-60328571D01*
X67438333Y-60376190D01*
X67390714Y-60471428D01*
X67390714Y-60661904D01*
X67438333Y-60757142D01*
X67533571Y-60804761D01*
X67628809Y-60804761D01*
X67724047Y-60328571D01*
X68438333Y-61138095D02*
X68390714Y-61185714D01*
X68247857Y-61280952D01*
X68152619Y-61328571D01*
X68009761Y-61376190D01*
X67771666Y-61423809D01*
X67581190Y-61423809D01*
X67343095Y-61376190D01*
X67200238Y-61328571D01*
X67105000Y-61280952D01*
X66962142Y-61185714D01*
X66914523Y-61138095D01*
X157028571Y-119347380D02*
X157504761Y-119347380D01*
X157504761Y-118347380D01*
X156742857Y-119061666D02*
X156266666Y-119061666D01*
X156838095Y-119347380D02*
X156504761Y-118347380D01*
X156171428Y-119347380D01*
X155838095Y-119347380D02*
X155838095Y-118347380D01*
X155266666Y-119347380D01*
X155266666Y-118347380D01*
X153504761Y-119347380D02*
X154076190Y-119347380D01*
X153790476Y-119347380D02*
X153790476Y-118347380D01*
X153885714Y-118490238D01*
X153980952Y-118585476D01*
X154076190Y-118633095D01*
X152885714Y-118347380D02*
X152790476Y-118347380D01*
X152695238Y-118395000D01*
X152647619Y-118442619D01*
X152600000Y-118537857D01*
X152552380Y-118728333D01*
X152552380Y-118966428D01*
X152600000Y-119156904D01*
X152647619Y-119252142D01*
X152695238Y-119299761D01*
X152790476Y-119347380D01*
X152885714Y-119347380D01*
X152980952Y-119299761D01*
X153028571Y-119252142D01*
X153076190Y-119156904D01*
X153123809Y-118966428D01*
X153123809Y-118728333D01*
X153076190Y-118537857D01*
X153028571Y-118442619D01*
X152980952Y-118395000D01*
X152885714Y-118347380D01*
X151409523Y-118299761D02*
X152266666Y-119585476D01*
X150552380Y-119347380D02*
X151123809Y-119347380D01*
X150838095Y-119347380D02*
X150838095Y-118347380D01*
X150933333Y-118490238D01*
X151028571Y-118585476D01*
X151123809Y-118633095D01*
X149933333Y-118347380D02*
X149838095Y-118347380D01*
X149742857Y-118395000D01*
X149695238Y-118442619D01*
X149647619Y-118537857D01*
X149600000Y-118728333D01*
X149600000Y-118966428D01*
X149647619Y-119156904D01*
X149695238Y-119252142D01*
X149742857Y-119299761D01*
X149838095Y-119347380D01*
X149933333Y-119347380D01*
X150028571Y-119299761D01*
X150076190Y-119252142D01*
X150123809Y-119156904D01*
X150171428Y-118966428D01*
X150171428Y-118728333D01*
X150123809Y-118537857D01*
X150076190Y-118442619D01*
X150028571Y-118395000D01*
X149933333Y-118347380D01*
X148980952Y-118347380D02*
X148885714Y-118347380D01*
X148790476Y-118395000D01*
X148742857Y-118442619D01*
X148695238Y-118537857D01*
X148647619Y-118728333D01*
X148647619Y-118966428D01*
X148695238Y-119156904D01*
X148742857Y-119252142D01*
X148790476Y-119299761D01*
X148885714Y-119347380D01*
X148980952Y-119347380D01*
X149076190Y-119299761D01*
X149123809Y-119252142D01*
X149171428Y-119156904D01*
X149219047Y-118966428D01*
X149219047Y-118728333D01*
X149171428Y-118537857D01*
X149123809Y-118442619D01*
X149076190Y-118395000D01*
X148980952Y-118347380D01*
X156338095Y-121338333D02*
X156385714Y-121290714D01*
X156480952Y-121147857D01*
X156528571Y-121052619D01*
X156576190Y-120909761D01*
X156623809Y-120671666D01*
X156623809Y-120481190D01*
X156576190Y-120243095D01*
X156528571Y-120100238D01*
X156480952Y-120005000D01*
X156385714Y-119862142D01*
X156338095Y-119814523D01*
X156100000Y-120290714D02*
X155719047Y-120290714D01*
X155957142Y-119957380D02*
X155957142Y-120814523D01*
X155909523Y-120909761D01*
X155814285Y-120957380D01*
X155719047Y-120957380D01*
X155242857Y-120957380D02*
X155338095Y-120909761D01*
X155385714Y-120862142D01*
X155433333Y-120766904D01*
X155433333Y-120481190D01*
X155385714Y-120385952D01*
X155338095Y-120338333D01*
X155242857Y-120290714D01*
X155100000Y-120290714D01*
X155004761Y-120338333D01*
X154957142Y-120385952D01*
X154909523Y-120481190D01*
X154909523Y-120766904D01*
X154957142Y-120862142D01*
X155004761Y-120909761D01*
X155100000Y-120957380D01*
X155242857Y-120957380D01*
X154480952Y-120290714D02*
X154480952Y-121290714D01*
X154480952Y-120338333D02*
X154385714Y-120290714D01*
X154195238Y-120290714D01*
X154100000Y-120338333D01*
X154052380Y-120385952D01*
X154004761Y-120481190D01*
X154004761Y-120766904D01*
X154052380Y-120862142D01*
X154100000Y-120909761D01*
X154195238Y-120957380D01*
X154385714Y-120957380D01*
X154480952Y-120909761D01*
X152861904Y-120909761D02*
X152766666Y-120957380D01*
X152576190Y-120957380D01*
X152480952Y-120909761D01*
X152433333Y-120814523D01*
X152433333Y-120766904D01*
X152480952Y-120671666D01*
X152576190Y-120624047D01*
X152719047Y-120624047D01*
X152814285Y-120576428D01*
X152861904Y-120481190D01*
X152861904Y-120433571D01*
X152814285Y-120338333D01*
X152719047Y-120290714D01*
X152576190Y-120290714D01*
X152480952Y-120338333D01*
X152004761Y-120957380D02*
X152004761Y-120290714D01*
X152004761Y-119957380D02*
X152052380Y-120005000D01*
X152004761Y-120052619D01*
X151957142Y-120005000D01*
X152004761Y-119957380D01*
X152004761Y-120052619D01*
X151100000Y-120957380D02*
X151100000Y-119957380D01*
X151100000Y-120909761D02*
X151195238Y-120957380D01*
X151385714Y-120957380D01*
X151480952Y-120909761D01*
X151528571Y-120862142D01*
X151576190Y-120766904D01*
X151576190Y-120481190D01*
X151528571Y-120385952D01*
X151480952Y-120338333D01*
X151385714Y-120290714D01*
X151195238Y-120290714D01*
X151100000Y-120338333D01*
X150242857Y-120909761D02*
X150338095Y-120957380D01*
X150528571Y-120957380D01*
X150623809Y-120909761D01*
X150671428Y-120814523D01*
X150671428Y-120433571D01*
X150623809Y-120338333D01*
X150528571Y-120290714D01*
X150338095Y-120290714D01*
X150242857Y-120338333D01*
X150195238Y-120433571D01*
X150195238Y-120528809D01*
X150671428Y-120624047D01*
X149861904Y-121338333D02*
X149814285Y-121290714D01*
X149719047Y-121147857D01*
X149671428Y-121052619D01*
X149623809Y-120909761D01*
X149576190Y-120671666D01*
X149576190Y-120481190D01*
X149623809Y-120243095D01*
X149671428Y-120100238D01*
X149719047Y-120005000D01*
X149814285Y-119862142D01*
X149861904Y-119814523D01*
X143071428Y-61452142D02*
X143119047Y-61499761D01*
X143261904Y-61547380D01*
X143357142Y-61547380D01*
X143500000Y-61499761D01*
X143595238Y-61404523D01*
X143642857Y-61309285D01*
X143690476Y-61118809D01*
X143690476Y-60975952D01*
X143642857Y-60785476D01*
X143595238Y-60690238D01*
X143500000Y-60595000D01*
X143357142Y-60547380D01*
X143261904Y-60547380D01*
X143119047Y-60595000D01*
X143071428Y-60642619D01*
X142500000Y-61547380D02*
X142595238Y-61499761D01*
X142642857Y-61452142D01*
X142690476Y-61356904D01*
X142690476Y-61071190D01*
X142642857Y-60975952D01*
X142595238Y-60928333D01*
X142500000Y-60880714D01*
X142357142Y-60880714D01*
X142261904Y-60928333D01*
X142214285Y-60975952D01*
X142166666Y-61071190D01*
X142166666Y-61356904D01*
X142214285Y-61452142D01*
X142261904Y-61499761D01*
X142357142Y-61547380D01*
X142500000Y-61547380D01*
X141738095Y-61547380D02*
X141738095Y-60880714D01*
X141738095Y-60975952D02*
X141690476Y-60928333D01*
X141595238Y-60880714D01*
X141452380Y-60880714D01*
X141357142Y-60928333D01*
X141309523Y-61023571D01*
X141309523Y-61547380D01*
X141309523Y-61023571D02*
X141261904Y-60928333D01*
X141166666Y-60880714D01*
X141023809Y-60880714D01*
X140928571Y-60928333D01*
X140880952Y-61023571D01*
X140880952Y-61547380D01*
X140404761Y-60880714D02*
X140404761Y-61880714D01*
X140404761Y-60928333D02*
X140309523Y-60880714D01*
X140119047Y-60880714D01*
X140023809Y-60928333D01*
X139976190Y-60975952D01*
X139928571Y-61071190D01*
X139928571Y-61356904D01*
X139976190Y-61452142D01*
X140023809Y-61499761D01*
X140119047Y-61547380D01*
X140309523Y-61547380D01*
X140404761Y-61499761D01*
X139357142Y-61547380D02*
X139452380Y-61499761D01*
X139500000Y-61452142D01*
X139547619Y-61356904D01*
X139547619Y-61071190D01*
X139500000Y-60975952D01*
X139452380Y-60928333D01*
X139357142Y-60880714D01*
X139214285Y-60880714D01*
X139119047Y-60928333D01*
X139071428Y-60975952D01*
X139023809Y-61071190D01*
X139023809Y-61356904D01*
X139071428Y-61452142D01*
X139119047Y-61499761D01*
X139214285Y-61547380D01*
X139357142Y-61547380D01*
X138642857Y-61499761D02*
X138547619Y-61547380D01*
X138357142Y-61547380D01*
X138261904Y-61499761D01*
X138214285Y-61404523D01*
X138214285Y-61356904D01*
X138261904Y-61261666D01*
X138357142Y-61214047D01*
X138500000Y-61214047D01*
X138595238Y-61166428D01*
X138642857Y-61071190D01*
X138642857Y-61023571D01*
X138595238Y-60928333D01*
X138500000Y-60880714D01*
X138357142Y-60880714D01*
X138261904Y-60928333D01*
X137785714Y-61547380D02*
X137785714Y-60880714D01*
X137785714Y-60547380D02*
X137833333Y-60595000D01*
X137785714Y-60642619D01*
X137738095Y-60595000D01*
X137785714Y-60547380D01*
X137785714Y-60642619D01*
X137452380Y-60880714D02*
X137071428Y-60880714D01*
X137309523Y-60547380D02*
X137309523Y-61404523D01*
X137261904Y-61499761D01*
X137166666Y-61547380D01*
X137071428Y-61547380D01*
X136357142Y-61499761D02*
X136452380Y-61547380D01*
X136642857Y-61547380D01*
X136738095Y-61499761D01*
X136785714Y-61404523D01*
X136785714Y-61023571D01*
X136738095Y-60928333D01*
X136642857Y-60880714D01*
X136452380Y-60880714D01*
X136357142Y-60928333D01*
X136309523Y-61023571D01*
X136309523Y-61118809D01*
X136785714Y-61214047D01*
X144047619Y-62490714D02*
X144047619Y-63490714D01*
X144047619Y-62538333D02*
X143952380Y-62490714D01*
X143761904Y-62490714D01*
X143666666Y-62538333D01*
X143619047Y-62585952D01*
X143571428Y-62681190D01*
X143571428Y-62966904D01*
X143619047Y-63062142D01*
X143666666Y-63109761D01*
X143761904Y-63157380D01*
X143952380Y-63157380D01*
X144047619Y-63109761D01*
X143142857Y-63157380D02*
X143142857Y-62490714D01*
X143142857Y-62157380D02*
X143190476Y-62205000D01*
X143142857Y-62252619D01*
X143095238Y-62205000D01*
X143142857Y-62157380D01*
X143142857Y-62252619D01*
X142666666Y-62490714D02*
X142666666Y-63157380D01*
X142666666Y-62585952D02*
X142619047Y-62538333D01*
X142523809Y-62490714D01*
X142380952Y-62490714D01*
X142285714Y-62538333D01*
X142238095Y-62633571D01*
X142238095Y-63157380D01*
X141761904Y-62776428D02*
X141000000Y-62776428D01*
X140523809Y-63157380D02*
X140523809Y-62157380D01*
X140095238Y-63157380D02*
X140095238Y-62633571D01*
X140142857Y-62538333D01*
X140238095Y-62490714D01*
X140380952Y-62490714D01*
X140476190Y-62538333D01*
X140523809Y-62585952D01*
X139238095Y-63109761D02*
X139333333Y-63157380D01*
X139523809Y-63157380D01*
X139619047Y-63109761D01*
X139666666Y-63014523D01*
X139666666Y-62633571D01*
X139619047Y-62538333D01*
X139523809Y-62490714D01*
X139333333Y-62490714D01*
X139238095Y-62538333D01*
X139190476Y-62633571D01*
X139190476Y-62728809D01*
X139666666Y-62824047D01*
X138333333Y-63157380D02*
X138333333Y-62633571D01*
X138380952Y-62538333D01*
X138476190Y-62490714D01*
X138666666Y-62490714D01*
X138761904Y-62538333D01*
X138333333Y-63109761D02*
X138428571Y-63157380D01*
X138666666Y-63157380D01*
X138761904Y-63109761D01*
X138809523Y-63014523D01*
X138809523Y-62919285D01*
X138761904Y-62824047D01*
X138666666Y-62776428D01*
X138428571Y-62776428D01*
X138333333Y-62728809D01*
X137428571Y-63157380D02*
X137428571Y-62157380D01*
X137428571Y-63109761D02*
X137523809Y-63157380D01*
X137714285Y-63157380D01*
X137809523Y-63109761D01*
X137857142Y-63062142D01*
X137904761Y-62966904D01*
X137904761Y-62681190D01*
X137857142Y-62585952D01*
X137809523Y-62538333D01*
X137714285Y-62490714D01*
X137523809Y-62490714D01*
X137428571Y-62538333D01*
X136571428Y-63109761D02*
X136666666Y-63157380D01*
X136857142Y-63157380D01*
X136952380Y-63109761D01*
X137000000Y-63014523D01*
X137000000Y-62633571D01*
X136952380Y-62538333D01*
X136857142Y-62490714D01*
X136666666Y-62490714D01*
X136571428Y-62538333D01*
X136523809Y-62633571D01*
X136523809Y-62728809D01*
X137000000Y-62824047D01*
X136095238Y-63157380D02*
X136095238Y-62490714D01*
X136095238Y-62681190D02*
X136047619Y-62585952D01*
X136000000Y-62538333D01*
X135904761Y-62490714D01*
X135809523Y-62490714D01*
X143547380Y-49042857D02*
X143547380Y-48566666D01*
X142547380Y-48566666D01*
X143547380Y-49376190D02*
X142880714Y-49376190D01*
X142547380Y-49376190D02*
X142595000Y-49328571D01*
X142642619Y-49376190D01*
X142595000Y-49423809D01*
X142547380Y-49376190D01*
X142642619Y-49376190D01*
X142880714Y-49852380D02*
X143547380Y-49852380D01*
X142975952Y-49852380D02*
X142928333Y-49900000D01*
X142880714Y-49995238D01*
X142880714Y-50138095D01*
X142928333Y-50233333D01*
X143023571Y-50280952D01*
X143547380Y-50280952D01*
X143499761Y-51138095D02*
X143547380Y-51042857D01*
X143547380Y-50852380D01*
X143499761Y-50757142D01*
X143404523Y-50709523D01*
X143023571Y-50709523D01*
X142928333Y-50757142D01*
X142880714Y-50852380D01*
X142880714Y-51042857D01*
X142928333Y-51138095D01*
X143023571Y-51185714D01*
X143118809Y-51185714D01*
X143214047Y-50709523D01*
X143261666Y-52328571D02*
X143261666Y-52804761D01*
X143547380Y-52233333D02*
X142547380Y-52566666D01*
X143547380Y-52900000D01*
X142880714Y-53661904D02*
X143547380Y-53661904D01*
X142880714Y-53233333D02*
X143404523Y-53233333D01*
X143499761Y-53280952D01*
X143547380Y-53376190D01*
X143547380Y-53519047D01*
X143499761Y-53614285D01*
X143452142Y-53661904D01*
X143547380Y-54566666D02*
X142547380Y-54566666D01*
X143499761Y-54566666D02*
X143547380Y-54471428D01*
X143547380Y-54280952D01*
X143499761Y-54185714D01*
X143452142Y-54138095D01*
X143356904Y-54090476D01*
X143071190Y-54090476D01*
X142975952Y-54138095D01*
X142928333Y-54185714D01*
X142880714Y-54280952D01*
X142880714Y-54471428D01*
X142928333Y-54566666D01*
X143547380Y-55042857D02*
X142880714Y-55042857D01*
X142547380Y-55042857D02*
X142595000Y-54995238D01*
X142642619Y-55042857D01*
X142595000Y-55090476D01*
X142547380Y-55042857D01*
X142642619Y-55042857D01*
X143547380Y-55661904D02*
X143499761Y-55566666D01*
X143452142Y-55519047D01*
X143356904Y-55471428D01*
X143071190Y-55471428D01*
X142975952Y-55519047D01*
X142928333Y-55566666D01*
X142880714Y-55661904D01*
X142880714Y-55804761D01*
X142928333Y-55900000D01*
X142975952Y-55947619D01*
X143071190Y-55995238D01*
X143356904Y-55995238D01*
X143452142Y-55947619D01*
X143499761Y-55900000D01*
X143547380Y-55804761D01*
X143547380Y-55661904D01*
X142547380Y-57376190D02*
X142547380Y-57566666D01*
X142595000Y-57661904D01*
X142690238Y-57757142D01*
X142880714Y-57804761D01*
X143214047Y-57804761D01*
X143404523Y-57757142D01*
X143499761Y-57661904D01*
X143547380Y-57566666D01*
X143547380Y-57376190D01*
X143499761Y-57280952D01*
X143404523Y-57185714D01*
X143214047Y-57138095D01*
X142880714Y-57138095D01*
X142690238Y-57185714D01*
X142595000Y-57280952D01*
X142547380Y-57376190D01*
X142880714Y-58661904D02*
X143547380Y-58661904D01*
X142880714Y-58233333D02*
X143404523Y-58233333D01*
X143499761Y-58280952D01*
X143547380Y-58376190D01*
X143547380Y-58519047D01*
X143499761Y-58614285D01*
X143452142Y-58661904D01*
X142880714Y-58995238D02*
X142880714Y-59376190D01*
X142547380Y-59138095D02*
X143404523Y-59138095D01*
X143499761Y-59185714D01*
X143547380Y-59280952D01*
X143547380Y-59376190D01*
X145538333Y-50661904D02*
X145490714Y-50614285D01*
X145347857Y-50519047D01*
X145252619Y-50471428D01*
X145109761Y-50423809D01*
X144871666Y-50376190D01*
X144681190Y-50376190D01*
X144443095Y-50423809D01*
X144300238Y-50471428D01*
X144205000Y-50519047D01*
X144062142Y-50614285D01*
X144014523Y-50661904D01*
X144490714Y-50900000D02*
X144490714Y-51280952D01*
X144157380Y-51042857D02*
X145014523Y-51042857D01*
X145109761Y-51090476D01*
X145157380Y-51185714D01*
X145157380Y-51280952D01*
X145157380Y-51757142D02*
X145109761Y-51661904D01*
X145062142Y-51614285D01*
X144966904Y-51566666D01*
X144681190Y-51566666D01*
X144585952Y-51614285D01*
X144538333Y-51661904D01*
X144490714Y-51757142D01*
X144490714Y-51900000D01*
X144538333Y-51995238D01*
X144585952Y-52042857D01*
X144681190Y-52090476D01*
X144966904Y-52090476D01*
X145062142Y-52042857D01*
X145109761Y-51995238D01*
X145157380Y-51900000D01*
X145157380Y-51757142D01*
X144490714Y-52519047D02*
X145490714Y-52519047D01*
X144538333Y-52519047D02*
X144490714Y-52614285D01*
X144490714Y-52804761D01*
X144538333Y-52900000D01*
X144585952Y-52947619D01*
X144681190Y-52995238D01*
X144966904Y-52995238D01*
X145062142Y-52947619D01*
X145109761Y-52900000D01*
X145157380Y-52804761D01*
X145157380Y-52614285D01*
X145109761Y-52519047D01*
X145109761Y-54138095D02*
X145157380Y-54233333D01*
X145157380Y-54423809D01*
X145109761Y-54519047D01*
X145014523Y-54566666D01*
X144966904Y-54566666D01*
X144871666Y-54519047D01*
X144824047Y-54423809D01*
X144824047Y-54280952D01*
X144776428Y-54185714D01*
X144681190Y-54138095D01*
X144633571Y-54138095D01*
X144538333Y-54185714D01*
X144490714Y-54280952D01*
X144490714Y-54423809D01*
X144538333Y-54519047D01*
X145157380Y-54995238D02*
X144490714Y-54995238D01*
X144157380Y-54995238D02*
X144205000Y-54947619D01*
X144252619Y-54995238D01*
X144205000Y-55042857D01*
X144157380Y-54995238D01*
X144252619Y-54995238D01*
X145157380Y-55900000D02*
X144157380Y-55900000D01*
X145109761Y-55900000D02*
X145157380Y-55804761D01*
X145157380Y-55614285D01*
X145109761Y-55519047D01*
X145062142Y-55471428D01*
X144966904Y-55423809D01*
X144681190Y-55423809D01*
X144585952Y-55471428D01*
X144538333Y-55519047D01*
X144490714Y-55614285D01*
X144490714Y-55804761D01*
X144538333Y-55900000D01*
X145109761Y-56757142D02*
X145157380Y-56661904D01*
X145157380Y-56471428D01*
X145109761Y-56376190D01*
X145014523Y-56328571D01*
X144633571Y-56328571D01*
X144538333Y-56376190D01*
X144490714Y-56471428D01*
X144490714Y-56661904D01*
X144538333Y-56757142D01*
X144633571Y-56804761D01*
X144728809Y-56804761D01*
X144824047Y-56328571D01*
X145538333Y-57138095D02*
X145490714Y-57185714D01*
X145347857Y-57280952D01*
X145252619Y-57328571D01*
X145109761Y-57376190D01*
X144871666Y-57423809D01*
X144681190Y-57423809D01*
X144443095Y-57376190D01*
X144300238Y-57328571D01*
X144205000Y-57280952D01*
X144062142Y-57185714D01*
X144014523Y-57138095D01*
X145499761Y-65523809D02*
X145547380Y-65666666D01*
X145547380Y-65904761D01*
X145499761Y-66000000D01*
X145452142Y-66047619D01*
X145356904Y-66095238D01*
X145261666Y-66095238D01*
X145166428Y-66047619D01*
X145118809Y-66000000D01*
X145071190Y-65904761D01*
X145023571Y-65714285D01*
X144975952Y-65619047D01*
X144928333Y-65571428D01*
X144833095Y-65523809D01*
X144737857Y-65523809D01*
X144642619Y-65571428D01*
X144595000Y-65619047D01*
X144547380Y-65714285D01*
X144547380Y-65952380D01*
X144595000Y-66095238D01*
X145166428Y-66523809D02*
X145166428Y-67285714D01*
X144547380Y-67619047D02*
X145547380Y-67952380D01*
X144547380Y-68285714D01*
X145547380Y-68619047D02*
X144880714Y-68619047D01*
X144547380Y-68619047D02*
X144595000Y-68571428D01*
X144642619Y-68619047D01*
X144595000Y-68666666D01*
X144547380Y-68619047D01*
X144642619Y-68619047D01*
X145547380Y-69523809D02*
X144547380Y-69523809D01*
X145499761Y-69523809D02*
X145547380Y-69428571D01*
X145547380Y-69238095D01*
X145499761Y-69142857D01*
X145452142Y-69095238D01*
X145356904Y-69047619D01*
X145071190Y-69047619D01*
X144975952Y-69095238D01*
X144928333Y-69142857D01*
X144880714Y-69238095D01*
X144880714Y-69428571D01*
X144928333Y-69523809D01*
X145499761Y-70380952D02*
X145547380Y-70285714D01*
X145547380Y-70095238D01*
X145499761Y-70000000D01*
X145404523Y-69952380D01*
X145023571Y-69952380D01*
X144928333Y-70000000D01*
X144880714Y-70095238D01*
X144880714Y-70285714D01*
X144928333Y-70380952D01*
X145023571Y-70428571D01*
X145118809Y-70428571D01*
X145214047Y-69952380D01*
X145547380Y-71000000D02*
X145499761Y-70904761D01*
X145452142Y-70857142D01*
X145356904Y-70809523D01*
X145071190Y-70809523D01*
X144975952Y-70857142D01*
X144928333Y-70904761D01*
X144880714Y-71000000D01*
X144880714Y-71142857D01*
X144928333Y-71238095D01*
X144975952Y-71285714D01*
X145071190Y-71333333D01*
X145356904Y-71333333D01*
X145452142Y-71285714D01*
X145499761Y-71238095D01*
X145547380Y-71142857D01*
X145547380Y-71000000D01*
X145547380Y-72666666D02*
X145499761Y-72571428D01*
X145452142Y-72523809D01*
X145356904Y-72476190D01*
X145071190Y-72476190D01*
X144975952Y-72523809D01*
X144928333Y-72571428D01*
X144880714Y-72666666D01*
X144880714Y-72809523D01*
X144928333Y-72904761D01*
X144975952Y-72952380D01*
X145071190Y-73000000D01*
X145356904Y-73000000D01*
X145452142Y-72952380D01*
X145499761Y-72904761D01*
X145547380Y-72809523D01*
X145547380Y-72666666D01*
X144880714Y-73857142D02*
X145547380Y-73857142D01*
X144880714Y-73428571D02*
X145404523Y-73428571D01*
X145499761Y-73476190D01*
X145547380Y-73571428D01*
X145547380Y-73714285D01*
X145499761Y-73809523D01*
X145452142Y-73857142D01*
X144880714Y-74190476D02*
X144880714Y-74571428D01*
X144547380Y-74333333D02*
X145404523Y-74333333D01*
X145499761Y-74380952D01*
X145547380Y-74476190D01*
X145547380Y-74571428D01*
X147538333Y-66761904D02*
X147490714Y-66714285D01*
X147347857Y-66619047D01*
X147252619Y-66571428D01*
X147109761Y-66523809D01*
X146871666Y-66476190D01*
X146681190Y-66476190D01*
X146443095Y-66523809D01*
X146300238Y-66571428D01*
X146205000Y-66619047D01*
X146062142Y-66714285D01*
X146014523Y-66761904D01*
X146490714Y-67000000D02*
X146490714Y-67380952D01*
X146157380Y-67142857D02*
X147014523Y-67142857D01*
X147109761Y-67190476D01*
X147157380Y-67285714D01*
X147157380Y-67380952D01*
X147157380Y-67857142D02*
X147109761Y-67761904D01*
X147062142Y-67714285D01*
X146966904Y-67666666D01*
X146681190Y-67666666D01*
X146585952Y-67714285D01*
X146538333Y-67761904D01*
X146490714Y-67857142D01*
X146490714Y-68000000D01*
X146538333Y-68095238D01*
X146585952Y-68142857D01*
X146681190Y-68190476D01*
X146966904Y-68190476D01*
X147062142Y-68142857D01*
X147109761Y-68095238D01*
X147157380Y-68000000D01*
X147157380Y-67857142D01*
X146490714Y-68619047D02*
X147490714Y-68619047D01*
X146538333Y-68619047D02*
X146490714Y-68714285D01*
X146490714Y-68904761D01*
X146538333Y-69000000D01*
X146585952Y-69047619D01*
X146681190Y-69095238D01*
X146966904Y-69095238D01*
X147062142Y-69047619D01*
X147109761Y-69000000D01*
X147157380Y-68904761D01*
X147157380Y-68714285D01*
X147109761Y-68619047D01*
X147109761Y-70238095D02*
X147157380Y-70333333D01*
X147157380Y-70523809D01*
X147109761Y-70619047D01*
X147014523Y-70666666D01*
X146966904Y-70666666D01*
X146871666Y-70619047D01*
X146824047Y-70523809D01*
X146824047Y-70380952D01*
X146776428Y-70285714D01*
X146681190Y-70238095D01*
X146633571Y-70238095D01*
X146538333Y-70285714D01*
X146490714Y-70380952D01*
X146490714Y-70523809D01*
X146538333Y-70619047D01*
X147157380Y-71095238D02*
X146490714Y-71095238D01*
X146157380Y-71095238D02*
X146205000Y-71047619D01*
X146252619Y-71095238D01*
X146205000Y-71142857D01*
X146157380Y-71095238D01*
X146252619Y-71095238D01*
X147157380Y-72000000D02*
X146157380Y-72000000D01*
X147109761Y-72000000D02*
X147157380Y-71904761D01*
X147157380Y-71714285D01*
X147109761Y-71619047D01*
X147062142Y-71571428D01*
X146966904Y-71523809D01*
X146681190Y-71523809D01*
X146585952Y-71571428D01*
X146538333Y-71619047D01*
X146490714Y-71714285D01*
X146490714Y-71904761D01*
X146538333Y-72000000D01*
X147109761Y-72857142D02*
X147157380Y-72761904D01*
X147157380Y-72571428D01*
X147109761Y-72476190D01*
X147014523Y-72428571D01*
X146633571Y-72428571D01*
X146538333Y-72476190D01*
X146490714Y-72571428D01*
X146490714Y-72761904D01*
X146538333Y-72857142D01*
X146633571Y-72904761D01*
X146728809Y-72904761D01*
X146824047Y-72428571D01*
X147538333Y-73238095D02*
X147490714Y-73285714D01*
X147347857Y-73380952D01*
X147252619Y-73428571D01*
X147109761Y-73476190D01*
X146871666Y-73523809D01*
X146681190Y-73523809D01*
X146443095Y-73476190D01*
X146300238Y-73428571D01*
X146205000Y-73380952D01*
X146062142Y-73285714D01*
X146014523Y-73238095D01*
D11*
X153371071Y-86757142D02*
X154871071Y-87257142D01*
X153371071Y-87757142D01*
X153442500Y-89042857D02*
X153371071Y-88900000D01*
X153371071Y-88685714D01*
X153442500Y-88471428D01*
X153585357Y-88328571D01*
X153728214Y-88257142D01*
X154013928Y-88185714D01*
X154228214Y-88185714D01*
X154513928Y-88257142D01*
X154656785Y-88328571D01*
X154799642Y-88471428D01*
X154871071Y-88685714D01*
X154871071Y-88828571D01*
X154799642Y-89042857D01*
X154728214Y-89114285D01*
X154228214Y-89114285D01*
X154228214Y-88828571D01*
X154442500Y-89685714D02*
X154442500Y-90400000D01*
X154871071Y-89542857D02*
X153371071Y-90042857D01*
X154871071Y-90542857D01*
X153371071Y-92471428D02*
X153371071Y-92757142D01*
X153442500Y-92900000D01*
X153585357Y-93042857D01*
X153871071Y-93114285D01*
X154371071Y-93114285D01*
X154656785Y-93042857D01*
X154799642Y-92900000D01*
X154871071Y-92757142D01*
X154871071Y-92471428D01*
X154799642Y-92328571D01*
X154656785Y-92185714D01*
X154371071Y-92114285D01*
X153871071Y-92114285D01*
X153585357Y-92185714D01*
X153442500Y-92328571D01*
X153371071Y-92471428D01*
X153871071Y-94400000D02*
X154871071Y-94400000D01*
X153871071Y-93757142D02*
X154656785Y-93757142D01*
X154799642Y-93828571D01*
X154871071Y-93971428D01*
X154871071Y-94185714D01*
X154799642Y-94328571D01*
X154728214Y-94400000D01*
X153871071Y-94900000D02*
X153871071Y-95471428D01*
X153371071Y-95114285D02*
X154656785Y-95114285D01*
X154799642Y-95185714D01*
X154871071Y-95328571D01*
X154871071Y-95471428D01*
X153871071Y-95971428D02*
X155371071Y-95971428D01*
X153942500Y-95971428D02*
X153871071Y-96114285D01*
X153871071Y-96400000D01*
X153942500Y-96542857D01*
X154013928Y-96614285D01*
X154156785Y-96685714D01*
X154585357Y-96685714D01*
X154728214Y-96614285D01*
X154799642Y-96542857D01*
X154871071Y-96400000D01*
X154871071Y-96114285D01*
X154799642Y-95971428D01*
X153871071Y-97971428D02*
X154871071Y-97971428D01*
X153871071Y-97328571D02*
X154656785Y-97328571D01*
X154799642Y-97400000D01*
X154871071Y-97542857D01*
X154871071Y-97757142D01*
X154799642Y-97900000D01*
X154728214Y-97971428D01*
X153871071Y-98471428D02*
X153871071Y-99042857D01*
X153371071Y-98685714D02*
X154656785Y-98685714D01*
X154799642Y-98757142D01*
X154871071Y-98900000D01*
X154871071Y-99042857D01*
X157857500Y-88042857D02*
X157786071Y-87971428D01*
X157571785Y-87828571D01*
X157428928Y-87757142D01*
X157214642Y-87685714D01*
X156857500Y-87614285D01*
X156571785Y-87614285D01*
X156214642Y-87685714D01*
X156000357Y-87757142D01*
X155857500Y-87828571D01*
X155643214Y-87971428D01*
X155571785Y-88042857D01*
X156286071Y-88400000D02*
X156286071Y-88971428D01*
X155786071Y-88614285D02*
X157071785Y-88614285D01*
X157214642Y-88685714D01*
X157286071Y-88828571D01*
X157286071Y-88971428D01*
X157286071Y-89685714D02*
X157214642Y-89542857D01*
X157143214Y-89471428D01*
X157000357Y-89400000D01*
X156571785Y-89400000D01*
X156428928Y-89471428D01*
X156357500Y-89542857D01*
X156286071Y-89685714D01*
X156286071Y-89900000D01*
X156357500Y-90042857D01*
X156428928Y-90114285D01*
X156571785Y-90185714D01*
X157000357Y-90185714D01*
X157143214Y-90114285D01*
X157214642Y-90042857D01*
X157286071Y-89900000D01*
X157286071Y-89685714D01*
X156286071Y-90828571D02*
X157786071Y-90828571D01*
X156357500Y-90828571D02*
X156286071Y-90971428D01*
X156286071Y-91257142D01*
X156357500Y-91400000D01*
X156428928Y-91471428D01*
X156571785Y-91542857D01*
X157000357Y-91542857D01*
X157143214Y-91471428D01*
X157214642Y-91400000D01*
X157286071Y-91257142D01*
X157286071Y-90971428D01*
X157214642Y-90828571D01*
X157214642Y-93257142D02*
X157286071Y-93400000D01*
X157286071Y-93685714D01*
X157214642Y-93828571D01*
X157071785Y-93900000D01*
X157000357Y-93900000D01*
X156857500Y-93828571D01*
X156786071Y-93685714D01*
X156786071Y-93471428D01*
X156714642Y-93328571D01*
X156571785Y-93257142D01*
X156500357Y-93257142D01*
X156357500Y-93328571D01*
X156286071Y-93471428D01*
X156286071Y-93685714D01*
X156357500Y-93828571D01*
X157286071Y-94542857D02*
X156286071Y-94542857D01*
X155786071Y-94542857D02*
X155857500Y-94471428D01*
X155928928Y-94542857D01*
X155857500Y-94614285D01*
X155786071Y-94542857D01*
X155928928Y-94542857D01*
X157286071Y-95900000D02*
X155786071Y-95900000D01*
X157214642Y-95900000D02*
X157286071Y-95757142D01*
X157286071Y-95471428D01*
X157214642Y-95328571D01*
X157143214Y-95257142D01*
X157000357Y-95185714D01*
X156571785Y-95185714D01*
X156428928Y-95257142D01*
X156357500Y-95328571D01*
X156286071Y-95471428D01*
X156286071Y-95757142D01*
X156357500Y-95900000D01*
X157214642Y-97185714D02*
X157286071Y-97042857D01*
X157286071Y-96757142D01*
X157214642Y-96614285D01*
X157071785Y-96542857D01*
X156500357Y-96542857D01*
X156357500Y-96614285D01*
X156286071Y-96757142D01*
X156286071Y-97042857D01*
X156357500Y-97185714D01*
X156500357Y-97257142D01*
X156643214Y-97257142D01*
X156786071Y-96542857D01*
X157857500Y-97757142D02*
X157786071Y-97828571D01*
X157571785Y-97971428D01*
X157428928Y-98042857D01*
X157214642Y-98114285D01*
X156857500Y-98185714D01*
X156571785Y-98185714D01*
X156214642Y-98114285D01*
X156000357Y-98042857D01*
X155857500Y-97971428D01*
X155643214Y-97828571D01*
X155571785Y-97757142D01*
D10*
%TO.C,J501*%
X115285714Y-130752380D02*
X115285714Y-131466666D01*
X115333333Y-131609523D01*
X115428571Y-131704761D01*
X115571428Y-131752380D01*
X115666666Y-131752380D01*
X114333333Y-130752380D02*
X114809523Y-130752380D01*
X114857142Y-131228571D01*
X114809523Y-131180952D01*
X114714285Y-131133333D01*
X114476190Y-131133333D01*
X114380952Y-131180952D01*
X114333333Y-131228571D01*
X114285714Y-131323809D01*
X114285714Y-131561904D01*
X114333333Y-131657142D01*
X114380952Y-131704761D01*
X114476190Y-131752380D01*
X114714285Y-131752380D01*
X114809523Y-131704761D01*
X114857142Y-131657142D01*
X113666666Y-130752380D02*
X113571428Y-130752380D01*
X113476190Y-130800000D01*
X113428571Y-130847619D01*
X113380952Y-130942857D01*
X113333333Y-131133333D01*
X113333333Y-131371428D01*
X113380952Y-131561904D01*
X113428571Y-131657142D01*
X113476190Y-131704761D01*
X113571428Y-131752380D01*
X113666666Y-131752380D01*
X113761904Y-131704761D01*
X113809523Y-131657142D01*
X113857142Y-131561904D01*
X113904761Y-131371428D01*
X113904761Y-131133333D01*
X113857142Y-130942857D01*
X113809523Y-130847619D01*
X113761904Y-130800000D01*
X113666666Y-130752380D01*
X112380952Y-131752380D02*
X112952380Y-131752380D01*
X112666666Y-131752380D02*
X112666666Y-130752380D01*
X112761904Y-130895238D01*
X112857142Y-130990476D01*
X112952380Y-131038095D01*
%TO.C,J502*%
X110352380Y-45214285D02*
X111066666Y-45214285D01*
X111209523Y-45166666D01*
X111304761Y-45071428D01*
X111352380Y-44928571D01*
X111352380Y-44833333D01*
X110352380Y-46166666D02*
X110352380Y-45690476D01*
X110828571Y-45642857D01*
X110780952Y-45690476D01*
X110733333Y-45785714D01*
X110733333Y-46023809D01*
X110780952Y-46119047D01*
X110828571Y-46166666D01*
X110923809Y-46214285D01*
X111161904Y-46214285D01*
X111257142Y-46166666D01*
X111304761Y-46119047D01*
X111352380Y-46023809D01*
X111352380Y-45785714D01*
X111304761Y-45690476D01*
X111257142Y-45642857D01*
X110352380Y-46833333D02*
X110352380Y-46928571D01*
X110400000Y-47023809D01*
X110447619Y-47071428D01*
X110542857Y-47119047D01*
X110733333Y-47166666D01*
X110971428Y-47166666D01*
X111161904Y-47119047D01*
X111257142Y-47071428D01*
X111304761Y-47023809D01*
X111352380Y-46928571D01*
X111352380Y-46833333D01*
X111304761Y-46738095D01*
X111257142Y-46690476D01*
X111161904Y-46642857D01*
X110971428Y-46595238D01*
X110733333Y-46595238D01*
X110542857Y-46642857D01*
X110447619Y-46690476D01*
X110400000Y-46738095D01*
X110352380Y-46833333D01*
X110447619Y-47547619D02*
X110400000Y-47595238D01*
X110352380Y-47690476D01*
X110352380Y-47928571D01*
X110400000Y-48023809D01*
X110447619Y-48071428D01*
X110542857Y-48119047D01*
X110638095Y-48119047D01*
X110780952Y-48071428D01*
X111352380Y-47500000D01*
X111352380Y-48119047D01*
%TO.C,JP402*%
X123835714Y-63452380D02*
X123835714Y-64166666D01*
X123883333Y-64309523D01*
X123978571Y-64404761D01*
X124121428Y-64452380D01*
X124216666Y-64452380D01*
X123359523Y-64452380D02*
X123359523Y-63452380D01*
X122978571Y-63452380D01*
X122883333Y-63500000D01*
X122835714Y-63547619D01*
X122788095Y-63642857D01*
X122788095Y-63785714D01*
X122835714Y-63880952D01*
X122883333Y-63928571D01*
X122978571Y-63976190D01*
X123359523Y-63976190D01*
X121930952Y-63785714D02*
X121930952Y-64452380D01*
X122169047Y-63404761D02*
X122407142Y-64119047D01*
X121788095Y-64119047D01*
X121216666Y-63452380D02*
X121121428Y-63452380D01*
X121026190Y-63500000D01*
X120978571Y-63547619D01*
X120930952Y-63642857D01*
X120883333Y-63833333D01*
X120883333Y-64071428D01*
X120930952Y-64261904D01*
X120978571Y-64357142D01*
X121026190Y-64404761D01*
X121121428Y-64452380D01*
X121216666Y-64452380D01*
X121311904Y-64404761D01*
X121359523Y-64357142D01*
X121407142Y-64261904D01*
X121454761Y-64071428D01*
X121454761Y-63833333D01*
X121407142Y-63642857D01*
X121359523Y-63547619D01*
X121311904Y-63500000D01*
X121216666Y-63452380D01*
X120502380Y-63547619D02*
X120454761Y-63500000D01*
X120359523Y-63452380D01*
X120121428Y-63452380D01*
X120026190Y-63500000D01*
X119978571Y-63547619D01*
X119930952Y-63642857D01*
X119930952Y-63738095D01*
X119978571Y-63880952D01*
X120550000Y-64452380D01*
X119930952Y-64452380D01*
D12*
%TO.C,J501*%
X112270000Y-132420000D02*
X137790000Y-132420000D01*
X137790000Y-132420000D02*
X137790000Y-137620000D01*
X112270000Y-136290000D02*
X112270000Y-137620000D01*
X112270000Y-137620000D02*
X113600000Y-137620000D01*
X114870000Y-135020000D02*
X114870000Y-137620000D01*
X114870000Y-137620000D02*
X137790000Y-137620000D01*
X112270000Y-132420000D02*
X112270000Y-135020000D01*
X112270000Y-135020000D02*
X114870000Y-135020000D01*
%TO.C,J502*%
X114870000Y-45020000D02*
X114870000Y-47620000D01*
X112270000Y-42420000D02*
X112270000Y-45020000D01*
X112270000Y-46290000D02*
X112270000Y-47620000D01*
X112270000Y-42420000D02*
X137790000Y-42420000D01*
X112270000Y-45020000D02*
X114870000Y-45020000D01*
X137790000Y-42420000D02*
X137790000Y-47620000D01*
X112270000Y-47620000D02*
X113600000Y-47620000D01*
X114870000Y-47620000D02*
X137790000Y-47620000D01*
%TO.C,JP402*%
X120650000Y-65500000D02*
X120650000Y-66100000D01*
X123450000Y-66100000D02*
X123450000Y-65500000D01*
X121350000Y-66800000D02*
X122750000Y-66800000D01*
X122750000Y-64800000D02*
X121350000Y-64800000D01*
X121350000Y-64800000D02*
G75*
G03*
X120650000Y-65500000I0J-700000D01*
G01*
X123450000Y-65500000D02*
G75*
G03*
X122750000Y-64800000I-699999J1D01*
G01*
X120650000Y-66100000D02*
G75*
G03*
X121350000Y-66800000I700000J0D01*
G01*
X122750000Y-66800000D02*
G75*
G03*
X123450000Y-66100000I1J699999D01*
G01*
%TD*%
M02*
