%TF.GenerationSoftware,KiCad,Pcbnew,6.0.11-3.fc36*%
%TF.CreationDate,2023-04-28T14:31:49+02:00*%
%TF.ProjectId,openX65-vabo,6f70656e-5836-4352-9d76-61626f2e6b69,rev01*%
%TF.SameCoordinates,Original*%
%TF.FileFunction,Paste,Top*%
%TF.FilePolarity,Positive*%
%FSLAX46Y46*%
G04 Gerber Fmt 4.6, Leading zero omitted, Abs format (unit mm)*
G04 Created by KiCad (PCBNEW 6.0.11-3.fc36) date 2023-04-28 14:31:49*
%MOMM*%
%LPD*%
G01*
G04 APERTURE LIST*
G04 Aperture macros list*
%AMRoundRect*
0 Rectangle with rounded corners*
0 $1 Rounding radius*
0 $2 $3 $4 $5 $6 $7 $8 $9 X,Y pos of 4 corners*
0 Add a 4 corners polygon primitive as box body*
4,1,4,$2,$3,$4,$5,$6,$7,$8,$9,$2,$3,0*
0 Add four circle primitives for the rounded corners*
1,1,$1+$1,$2,$3*
1,1,$1+$1,$4,$5*
1,1,$1+$1,$6,$7*
1,1,$1+$1,$8,$9*
0 Add four rect primitives between the rounded corners*
20,1,$1+$1,$2,$3,$4,$5,0*
20,1,$1+$1,$4,$5,$6,$7,0*
20,1,$1+$1,$6,$7,$8,$9,0*
20,1,$1+$1,$8,$9,$2,$3,0*%
G04 Aperture macros list end*
%ADD10RoundRect,0.249999X-1.425001X0.450001X-1.425001X-0.450001X1.425001X-0.450001X1.425001X0.450001X0*%
%ADD11RoundRect,0.250000X-0.412500X-0.650000X0.412500X-0.650000X0.412500X0.650000X-0.412500X0.650000X0*%
%ADD12RoundRect,0.237500X-0.250000X-0.237500X0.250000X-0.237500X0.250000X0.237500X-0.250000X0.237500X0*%
%ADD13RoundRect,0.237500X-0.300000X-0.237500X0.300000X-0.237500X0.300000X0.237500X-0.300000X0.237500X0*%
%ADD14RoundRect,0.500000X-1.500000X0.500000X-1.500000X-0.500000X1.500000X-0.500000X1.500000X0.500000X0*%
%ADD15RoundRect,0.237500X-0.237500X0.250000X-0.237500X-0.250000X0.237500X-0.250000X0.237500X0.250000X0*%
%ADD16RoundRect,0.075000X0.662500X0.075000X-0.662500X0.075000X-0.662500X-0.075000X0.662500X-0.075000X0*%
%ADD17RoundRect,0.075000X0.075000X0.662500X-0.075000X0.662500X-0.075000X-0.662500X0.075000X-0.662500X0*%
%ADD18RoundRect,0.237500X0.250000X0.237500X-0.250000X0.237500X-0.250000X-0.237500X0.250000X-0.237500X0*%
%ADD19RoundRect,0.237500X-0.237500X0.300000X-0.237500X-0.300000X0.237500X-0.300000X0.237500X0.300000X0*%
%ADD20RoundRect,0.100000X-0.637500X-0.100000X0.637500X-0.100000X0.637500X0.100000X-0.637500X0.100000X0*%
%ADD21RoundRect,0.237500X0.237500X-0.250000X0.237500X0.250000X-0.237500X0.250000X-0.237500X-0.250000X0*%
%ADD22RoundRect,0.150000X0.150000X-0.587500X0.150000X0.587500X-0.150000X0.587500X-0.150000X-0.587500X0*%
%ADD23RoundRect,0.237500X0.237500X-0.300000X0.237500X0.300000X-0.237500X0.300000X-0.237500X-0.300000X0*%
%ADD24RoundRect,0.150000X-0.825000X-0.150000X0.825000X-0.150000X0.825000X0.150000X-0.825000X0.150000X0*%
%ADD25RoundRect,0.237500X0.300000X0.237500X-0.300000X0.237500X-0.300000X-0.237500X0.300000X-0.237500X0*%
%ADD26RoundRect,0.100000X0.637500X0.100000X-0.637500X0.100000X-0.637500X-0.100000X0.637500X-0.100000X0*%
%ADD27RoundRect,0.250000X-0.337500X-0.475000X0.337500X-0.475000X0.337500X0.475000X-0.337500X0.475000X0*%
%ADD28RoundRect,0.250000X0.285000X0.285000X-0.285000X0.285000X-0.285000X-0.285000X0.285000X-0.285000X0*%
%ADD29RoundRect,0.062500X0.337500X0.062500X-0.337500X0.062500X-0.337500X-0.062500X0.337500X-0.062500X0*%
%ADD30RoundRect,0.062500X0.062500X0.337500X-0.062500X0.337500X-0.062500X-0.337500X0.062500X-0.337500X0*%
%ADD31R,1.560000X0.650000*%
%ADD32R,0.800000X0.500000*%
%ADD33R,0.800000X0.400000*%
%ADD34R,2.400000X3.325000*%
%ADD35RoundRect,0.150000X-0.150000X0.587500X-0.150000X-0.587500X0.150000X-0.587500X0.150000X0.587500X0*%
%ADD36RoundRect,0.237500X-0.287500X-0.237500X0.287500X-0.237500X0.287500X0.237500X-0.287500X0.237500X0*%
%ADD37RoundRect,0.237500X0.287500X0.237500X-0.287500X0.237500X-0.287500X-0.237500X0.287500X-0.237500X0*%
%ADD38RoundRect,0.250000X0.315000X0.315000X-0.315000X0.315000X-0.315000X-0.315000X0.315000X-0.315000X0*%
%ADD39RoundRect,0.062500X0.375000X0.062500X-0.375000X0.062500X-0.375000X-0.062500X0.375000X-0.062500X0*%
%ADD40RoundRect,0.062500X0.062500X0.375000X-0.062500X0.375000X-0.062500X-0.375000X0.062500X-0.375000X0*%
%ADD41R,1.760000X2.250000*%
%ADD42RoundRect,0.250000X0.475000X-0.337500X0.475000X0.337500X-0.475000X0.337500X-0.475000X-0.337500X0*%
%ADD43R,2.000000X1.100000*%
%ADD44R,1.000000X2.000000*%
%ADD45R,2.000000X2.000000*%
%ADD46R,0.400000X1.100000*%
%ADD47R,1.000000X1.000000*%
%ADD48RoundRect,0.250000X0.700000X-0.250000X0.700000X0.250000X-0.700000X0.250000X-0.700000X-0.250000X0*%
%ADD49RoundRect,0.425000X0.425000X-0.425000X0.425000X0.425000X-0.425000X0.425000X-0.425000X-0.425000X0*%
%ADD50R,1.500000X1.100000*%
%ADD51RoundRect,0.150000X0.150000X-0.825000X0.150000X0.825000X-0.150000X0.825000X-0.150000X-0.825000X0*%
G04 APERTURE END LIST*
D10*
%TO.C,R804*%
X142300000Y-131050000D03*
X142300000Y-137150000D03*
%TD*%
D11*
%TO.C,C818*%
X148962500Y-131200000D03*
X145837500Y-131200000D03*
%TD*%
D12*
%TO.C,R606*%
X115687500Y-60900000D03*
X117512500Y-60900000D03*
%TD*%
D13*
%TO.C,C202*%
X118237500Y-96750000D03*
X119962500Y-96750000D03*
%TD*%
D14*
%TO.C,D502*%
X62400000Y-108350000D03*
X62400000Y-110950000D03*
%TD*%
D15*
%TO.C,R603*%
X116000000Y-57400000D03*
X116000000Y-59225000D03*
%TD*%
D16*
%TO.C,U801*%
X118612500Y-118750000D03*
X118612500Y-118250000D03*
X118612500Y-117750000D03*
X118612500Y-117250000D03*
X118612500Y-116750000D03*
X118612500Y-116250000D03*
X118612500Y-115750000D03*
X118612500Y-115250000D03*
X118612500Y-114750000D03*
X118612500Y-114250000D03*
X118612500Y-113750000D03*
X118612500Y-113250000D03*
D17*
X117200000Y-111837500D03*
X116700000Y-111837500D03*
X116200000Y-111837500D03*
X115700000Y-111837500D03*
X115200000Y-111837500D03*
X114700000Y-111837500D03*
X114200000Y-111837500D03*
X113700000Y-111837500D03*
X113200000Y-111837500D03*
X112700000Y-111837500D03*
X112200000Y-111837500D03*
X111700000Y-111837500D03*
D16*
X110287500Y-113250000D03*
X110287500Y-113750000D03*
X110287500Y-114250000D03*
X110287500Y-114750000D03*
X110287500Y-115250000D03*
X110287500Y-115750000D03*
X110287500Y-116250000D03*
X110287500Y-116750000D03*
X110287500Y-117250000D03*
X110287500Y-117750000D03*
X110287500Y-118250000D03*
X110287500Y-118750000D03*
D17*
X111700000Y-120162500D03*
X112200000Y-120162500D03*
X112700000Y-120162500D03*
X113200000Y-120162500D03*
X113700000Y-120162500D03*
X114200000Y-120162500D03*
X114700000Y-120162500D03*
X115200000Y-120162500D03*
X115700000Y-120162500D03*
X116200000Y-120162500D03*
X116700000Y-120162500D03*
X117200000Y-120162500D03*
%TD*%
D12*
%TO.C,R505*%
X109487500Y-67350000D03*
X111312500Y-67350000D03*
%TD*%
D18*
%TO.C,R324*%
X141412500Y-83300000D03*
X139587500Y-83300000D03*
%TD*%
D19*
%TO.C,C717*%
X98550000Y-45587500D03*
X98550000Y-47312500D03*
%TD*%
D18*
%TO.C,FB803*%
X136212500Y-128600000D03*
X134387500Y-128600000D03*
%TD*%
D13*
%TO.C,C812*%
X126737500Y-112100000D03*
X128462500Y-112100000D03*
%TD*%
D20*
%TO.C,U402*%
X87737500Y-68500000D03*
X87737500Y-69150000D03*
X87737500Y-69800000D03*
X87737500Y-70450000D03*
X87737500Y-71100000D03*
X87737500Y-71750000D03*
X87737500Y-72400000D03*
X93462500Y-72400000D03*
X93462500Y-71750000D03*
X93462500Y-71100000D03*
X93462500Y-70450000D03*
X93462500Y-69800000D03*
X93462500Y-69150000D03*
X93462500Y-68500000D03*
%TD*%
D15*
%TO.C,R303*%
X137300000Y-77175000D03*
X137300000Y-79000000D03*
%TD*%
D12*
%TO.C,R511*%
X82750000Y-131500000D03*
X84575000Y-131500000D03*
%TD*%
D18*
%TO.C,R319*%
X137512500Y-97900000D03*
X135687500Y-97900000D03*
%TD*%
D21*
%TO.C,R305*%
X134137500Y-75687500D03*
X134137500Y-73862500D03*
%TD*%
D22*
%TO.C,Q201*%
X79450000Y-45787500D03*
X81350000Y-45787500D03*
X80400000Y-43912500D03*
%TD*%
D23*
%TO.C,C206*%
X118900000Y-94062500D03*
X118900000Y-92337500D03*
%TD*%
D24*
%TO.C,U401*%
X124425000Y-72795000D03*
X124425000Y-74065000D03*
X124425000Y-75335000D03*
X124425000Y-76605000D03*
X129375000Y-76605000D03*
X129375000Y-75335000D03*
X129375000Y-74065000D03*
X129375000Y-72795000D03*
%TD*%
D18*
%TO.C,R207*%
X77212500Y-45800000D03*
X75387500Y-45800000D03*
%TD*%
D23*
%TO.C,C713*%
X108850000Y-48112500D03*
X108850000Y-46387500D03*
%TD*%
D19*
%TO.C,C403*%
X94200000Y-88937500D03*
X94200000Y-90662500D03*
%TD*%
D21*
%TO.C,R801*%
X124500000Y-114912500D03*
X124500000Y-113087500D03*
%TD*%
D19*
%TO.C,C602*%
X117625000Y-57112500D03*
X117625000Y-58837500D03*
%TD*%
%TO.C,C211*%
X91300000Y-109837500D03*
X91300000Y-111562500D03*
%TD*%
D15*
%TO.C,R707*%
X75400000Y-56987500D03*
X75400000Y-58812500D03*
%TD*%
D18*
%TO.C,R810*%
X128312500Y-124000000D03*
X126487500Y-124000000D03*
%TD*%
D21*
%TO.C,R817*%
X120600000Y-113212500D03*
X120600000Y-111387500D03*
%TD*%
D20*
%TO.C,U403*%
X122300000Y-57750000D03*
X122300000Y-58400000D03*
X122300000Y-59050000D03*
X122300000Y-59700000D03*
X122300000Y-60350000D03*
X122300000Y-61000000D03*
X122300000Y-61650000D03*
X128025000Y-61650000D03*
X128025000Y-61000000D03*
X128025000Y-60350000D03*
X128025000Y-59700000D03*
X128025000Y-59050000D03*
X128025000Y-58400000D03*
X128025000Y-57750000D03*
%TD*%
D19*
%TO.C,C701*%
X142700000Y-57687500D03*
X142700000Y-59412500D03*
%TD*%
D23*
%TO.C,C712*%
X96500000Y-47312500D03*
X96500000Y-45587500D03*
%TD*%
D15*
%TO.C,R607*%
X135525000Y-49612500D03*
X135525000Y-51437500D03*
%TD*%
D12*
%TO.C,R807*%
X140137500Y-108400000D03*
X141962500Y-108400000D03*
%TD*%
D15*
%TO.C,R410*%
X88800000Y-107887500D03*
X88800000Y-109712500D03*
%TD*%
D12*
%TO.C,R604*%
X133637500Y-53350000D03*
X135462500Y-53350000D03*
%TD*%
D18*
%TO.C,FB801*%
X123112500Y-123500000D03*
X121287500Y-123500000D03*
%TD*%
%TO.C,R502*%
X107887500Y-67350000D03*
X106062500Y-67350000D03*
%TD*%
%TO.C,R610*%
X119512500Y-69400000D03*
X117687500Y-69400000D03*
%TD*%
%TO.C,R309*%
X137012500Y-81600000D03*
X135187500Y-81600000D03*
%TD*%
%TO.C,R702*%
X141212500Y-54300000D03*
X139387500Y-54300000D03*
%TD*%
D20*
%TO.C,U602*%
X94337500Y-57650000D03*
X94337500Y-58300000D03*
X94337500Y-58950000D03*
X94337500Y-59600000D03*
X94337500Y-60250000D03*
X94337500Y-60900000D03*
X94337500Y-61550000D03*
X100062500Y-61550000D03*
X100062500Y-60900000D03*
X100062500Y-60250000D03*
X100062500Y-59600000D03*
X100062500Y-58950000D03*
X100062500Y-58300000D03*
X100062500Y-57650000D03*
%TD*%
D12*
%TO.C,R204*%
X99500000Y-108400000D03*
X101325000Y-108400000D03*
%TD*%
D13*
%TO.C,C718*%
X108987500Y-50350000D03*
X110712500Y-50350000D03*
%TD*%
D20*
%TO.C,U404*%
X123937500Y-65250000D03*
X123937500Y-65900000D03*
X123937500Y-66550000D03*
X123937500Y-67200000D03*
X123937500Y-67850000D03*
X123937500Y-68500000D03*
X123937500Y-69150000D03*
X129662500Y-69150000D03*
X129662500Y-68500000D03*
X129662500Y-67850000D03*
X129662500Y-67200000D03*
X129662500Y-66550000D03*
X129662500Y-65900000D03*
X129662500Y-65250000D03*
%TD*%
D19*
%TO.C,C607*%
X116350000Y-81887500D03*
X116350000Y-83612500D03*
%TD*%
D25*
%TO.C,C601*%
X100225000Y-55800000D03*
X98500000Y-55800000D03*
%TD*%
D12*
%TO.C,R206*%
X99487500Y-110600000D03*
X101312500Y-110600000D03*
%TD*%
%TO.C,R203*%
X82737500Y-48400000D03*
X84562500Y-48400000D03*
%TD*%
D18*
%TO.C,R404*%
X95312500Y-93500000D03*
X93487500Y-93500000D03*
%TD*%
D12*
%TO.C,R808*%
X140137500Y-106600000D03*
X141962500Y-106600000D03*
%TD*%
D18*
%TO.C,R318*%
X137512500Y-99700000D03*
X135687500Y-99700000D03*
%TD*%
D25*
%TO.C,C811*%
X131962500Y-124000000D03*
X130237500Y-124000000D03*
%TD*%
D13*
%TO.C,C703*%
X133687500Y-55500000D03*
X135412500Y-55500000D03*
%TD*%
D25*
%TO.C,C808*%
X106262500Y-118800000D03*
X104537500Y-118800000D03*
%TD*%
D18*
%TO.C,R315*%
X137312500Y-92700000D03*
X135487500Y-92700000D03*
%TD*%
%TO.C,R701*%
X141312500Y-52300000D03*
X139487500Y-52300000D03*
%TD*%
D26*
%TO.C,U505*%
X98512500Y-126025000D03*
X98512500Y-125375000D03*
X98512500Y-124725000D03*
X98512500Y-124075000D03*
X98512500Y-123425000D03*
X98512500Y-122775000D03*
X98512500Y-122125000D03*
X98512500Y-121475000D03*
X98512500Y-120825000D03*
X98512500Y-120175000D03*
X92787500Y-120175000D03*
X92787500Y-120825000D03*
X92787500Y-121475000D03*
X92787500Y-122125000D03*
X92787500Y-122775000D03*
X92787500Y-123425000D03*
X92787500Y-124075000D03*
X92787500Y-124725000D03*
X92787500Y-125375000D03*
X92787500Y-126025000D03*
%TD*%
D12*
%TO.C,R508*%
X65937500Y-107750000D03*
X67762500Y-107750000D03*
%TD*%
D27*
%TO.C,C719*%
X71362500Y-47700000D03*
X73437500Y-47700000D03*
%TD*%
D25*
%TO.C,C813*%
X129962500Y-106500000D03*
X128237500Y-106500000D03*
%TD*%
D12*
%TO.C,R601*%
X94475000Y-55800000D03*
X96300000Y-55800000D03*
%TD*%
D23*
%TO.C,C815*%
X119500000Y-124562500D03*
X119500000Y-122837500D03*
%TD*%
D12*
%TO.C,R818*%
X104137500Y-127750000D03*
X105962500Y-127750000D03*
%TD*%
D13*
%TO.C,C707*%
X137037500Y-63400000D03*
X138762500Y-63400000D03*
%TD*%
D12*
%TO.C,R712*%
X105087500Y-50150000D03*
X106912500Y-50150000D03*
%TD*%
D18*
%TO.C,R619*%
X88862500Y-45275000D03*
X87037500Y-45275000D03*
%TD*%
D14*
%TO.C,D501*%
X62400000Y-69500000D03*
X62400000Y-72100000D03*
%TD*%
D26*
%TO.C,U703*%
X106600000Y-48925000D03*
X106600000Y-48275000D03*
X106600000Y-47625000D03*
X106600000Y-46975000D03*
X106600000Y-46325000D03*
X106600000Y-45675000D03*
X106600000Y-45025000D03*
X106600000Y-44375000D03*
X100875000Y-44375000D03*
X100875000Y-45025000D03*
X100875000Y-45675000D03*
X100875000Y-46325000D03*
X100875000Y-46975000D03*
X100875000Y-47625000D03*
X100875000Y-48275000D03*
X100875000Y-48925000D03*
%TD*%
D28*
%TO.C,U201*%
X110480000Y-94620000D03*
X111800000Y-94620000D03*
X114440000Y-91980000D03*
X110480000Y-91980000D03*
X110480000Y-90660000D03*
X114440000Y-90660000D03*
X110480000Y-93300000D03*
X111800000Y-93300000D03*
X113120000Y-91980000D03*
X111800000Y-90660000D03*
X113120000Y-94620000D03*
X114440000Y-94620000D03*
X113120000Y-93300000D03*
X111800000Y-91980000D03*
X113120000Y-90660000D03*
X114440000Y-93300000D03*
D29*
X115910000Y-95390000D03*
X115910000Y-94890000D03*
X115910000Y-94390000D03*
X115910000Y-93890000D03*
X115910000Y-93390000D03*
X115910000Y-92890000D03*
X115910000Y-92390000D03*
X115910000Y-91890000D03*
X115910000Y-91390000D03*
X115910000Y-90890000D03*
X115910000Y-90390000D03*
X115910000Y-89890000D03*
D30*
X115210000Y-89190000D03*
X114710000Y-89190000D03*
X114210000Y-89190000D03*
X113710000Y-89190000D03*
X113210000Y-89190000D03*
X112710000Y-89190000D03*
X112210000Y-89190000D03*
X111710000Y-89190000D03*
X111210000Y-89190000D03*
X110710000Y-89190000D03*
X110210000Y-89190000D03*
X109710000Y-89190000D03*
D29*
X109010000Y-89890000D03*
X109010000Y-90390000D03*
X109010000Y-90890000D03*
X109010000Y-91390000D03*
X109010000Y-91890000D03*
X109010000Y-92390000D03*
X109010000Y-92890000D03*
X109010000Y-93390000D03*
X109010000Y-93890000D03*
X109010000Y-94390000D03*
X109010000Y-94890000D03*
X109010000Y-95390000D03*
D30*
X109710000Y-96090000D03*
X110210000Y-96090000D03*
X110710000Y-96090000D03*
X111210000Y-96090000D03*
X111710000Y-96090000D03*
X112210000Y-96090000D03*
X112710000Y-96090000D03*
X113210000Y-96090000D03*
X113710000Y-96090000D03*
X114210000Y-96090000D03*
X114710000Y-96090000D03*
X115210000Y-96090000D03*
%TD*%
D15*
%TO.C,R304*%
X139000000Y-77175000D03*
X139000000Y-79000000D03*
%TD*%
D12*
%TO.C,R713*%
X96637500Y-50100000D03*
X98462500Y-50100000D03*
%TD*%
D23*
%TO.C,C807*%
X112600000Y-108962500D03*
X112600000Y-107237500D03*
%TD*%
D18*
%TO.C,R311*%
X137012500Y-85100000D03*
X135187500Y-85100000D03*
%TD*%
D31*
%TO.C,U501*%
X115550000Y-49650000D03*
X115550000Y-50600000D03*
X115550000Y-51550000D03*
X118250000Y-51550000D03*
X118250000Y-50600000D03*
X118250000Y-49650000D03*
%TD*%
D21*
%TO.C,R809*%
X128500000Y-122012500D03*
X128500000Y-120187500D03*
%TD*%
D18*
%TO.C,R308*%
X146112500Y-68700000D03*
X144287500Y-68700000D03*
%TD*%
%TO.C,R403*%
X95612500Y-81200000D03*
X93787500Y-81200000D03*
%TD*%
D21*
%TO.C,R504*%
X102325000Y-94512500D03*
X102325000Y-92687500D03*
%TD*%
D14*
%TO.C,D503*%
X62350000Y-114950000D03*
X62350000Y-117550000D03*
%TD*%
D18*
%TO.C,R405*%
X95325000Y-96100000D03*
X93500000Y-96100000D03*
%TD*%
D23*
%TO.C,C709*%
X77500000Y-58762500D03*
X77500000Y-57037500D03*
%TD*%
D19*
%TO.C,C801*%
X121300000Y-119337500D03*
X121300000Y-121062500D03*
%TD*%
D13*
%TO.C,C303*%
X136637500Y-66900000D03*
X138362500Y-66900000D03*
%TD*%
D18*
%TO.C,R310*%
X137012500Y-83300000D03*
X135187500Y-83300000D03*
%TD*%
%TO.C,R317*%
X137512500Y-96100000D03*
X135687500Y-96100000D03*
%TD*%
D19*
%TO.C,C814*%
X137250000Y-106487500D03*
X137250000Y-108212500D03*
%TD*%
D12*
%TO.C,R704*%
X81787500Y-61300000D03*
X83612500Y-61300000D03*
%TD*%
D23*
%TO.C,C803*%
X116200000Y-108962500D03*
X116200000Y-107237500D03*
%TD*%
%TO.C,C608*%
X110600000Y-71312500D03*
X110600000Y-69587500D03*
%TD*%
D18*
%TO.C,R325*%
X141512500Y-85100000D03*
X139687500Y-85100000D03*
%TD*%
D20*
%TO.C,U701*%
X134937500Y-57325000D03*
X134937500Y-57975000D03*
X134937500Y-58625000D03*
X134937500Y-59275000D03*
X134937500Y-59925000D03*
X134937500Y-60575000D03*
X134937500Y-61225000D03*
X134937500Y-61875000D03*
X140662500Y-61875000D03*
X140662500Y-61225000D03*
X140662500Y-60575000D03*
X140662500Y-59925000D03*
X140662500Y-59275000D03*
X140662500Y-58625000D03*
X140662500Y-57975000D03*
X140662500Y-57325000D03*
%TD*%
D18*
%TO.C,R802*%
X124512500Y-111500000D03*
X122687500Y-111500000D03*
%TD*%
D15*
%TO.C,R709*%
X145000000Y-54187500D03*
X145000000Y-56012500D03*
%TD*%
D23*
%TO.C,C809*%
X109700000Y-108962500D03*
X109700000Y-107237500D03*
%TD*%
D21*
%TO.C,FB802*%
X114400000Y-109012500D03*
X114400000Y-107187500D03*
%TD*%
D13*
%TO.C,C708*%
X77537500Y-62200000D03*
X79262500Y-62200000D03*
%TD*%
D32*
%TO.C,RN301*%
X122200000Y-81400000D03*
D33*
X122200000Y-82200000D03*
X122200000Y-83000000D03*
D32*
X122200000Y-83800000D03*
X124000000Y-83800000D03*
D33*
X124000000Y-83000000D03*
X124000000Y-82200000D03*
D32*
X124000000Y-81400000D03*
%TD*%
D21*
%TO.C,FB804*%
X106900000Y-109012500D03*
X106900000Y-107187500D03*
%TD*%
D34*
%TO.C,Y801*%
X134200000Y-113162500D03*
X134200000Y-107637500D03*
%TD*%
D24*
%TO.C,U603*%
X108425000Y-57795000D03*
X108425000Y-59065000D03*
X108425000Y-60335000D03*
X108425000Y-61605000D03*
X113375000Y-61605000D03*
X113375000Y-60335000D03*
X113375000Y-59065000D03*
X113375000Y-57795000D03*
%TD*%
D18*
%TO.C,R307*%
X146112500Y-66700000D03*
X144287500Y-66700000D03*
%TD*%
D32*
%TO.C,RN307*%
X130900000Y-81400000D03*
D33*
X130900000Y-82200000D03*
X130900000Y-83000000D03*
D32*
X130900000Y-83800000D03*
X132700000Y-83800000D03*
D33*
X132700000Y-83000000D03*
X132700000Y-82200000D03*
D32*
X132700000Y-81400000D03*
%TD*%
D25*
%TO.C,C806*%
X116362500Y-105250000D03*
X114637500Y-105250000D03*
%TD*%
D32*
%TO.C,RN305*%
X126500000Y-88900000D03*
D33*
X126500000Y-89700000D03*
X126500000Y-90500000D03*
D32*
X126500000Y-91300000D03*
X128300000Y-91300000D03*
D33*
X128300000Y-90500000D03*
X128300000Y-89700000D03*
D32*
X128300000Y-88900000D03*
%TD*%
D18*
%TO.C,R609*%
X119512500Y-71000000D03*
X117687500Y-71000000D03*
%TD*%
D12*
%TO.C,R820*%
X124087500Y-106300000D03*
X125912500Y-106300000D03*
%TD*%
%TO.C,R409*%
X125737500Y-53750000D03*
X127562500Y-53750000D03*
%TD*%
D21*
%TO.C,R706*%
X80600000Y-52612500D03*
X80600000Y-50787500D03*
%TD*%
D35*
%TO.C,Q701*%
X78650000Y-51062500D03*
X76750000Y-51062500D03*
X77700000Y-52937500D03*
%TD*%
D12*
%TO.C,R301*%
X130875000Y-87200000D03*
X132700000Y-87200000D03*
%TD*%
D13*
%TO.C,C405*%
X132037500Y-65300000D03*
X133762500Y-65300000D03*
%TD*%
D27*
%TO.C,C502*%
X97562500Y-75000000D03*
X99637500Y-75000000D03*
%TD*%
D12*
%TO.C,R302*%
X131087500Y-100600000D03*
X132912500Y-100600000D03*
%TD*%
D13*
%TO.C,C810*%
X134425000Y-126800000D03*
X136150000Y-126800000D03*
%TD*%
D23*
%TO.C,C711*%
X87700000Y-58662500D03*
X87700000Y-56937500D03*
%TD*%
D36*
%TO.C,D203*%
X75475000Y-43700000D03*
X77225000Y-43700000D03*
%TD*%
D13*
%TO.C,C604*%
X117537500Y-78350000D03*
X119262500Y-78350000D03*
%TD*%
D18*
%TO.C,R506*%
X123112500Y-125250000D03*
X121287500Y-125250000D03*
%TD*%
D23*
%TO.C,C501*%
X96550000Y-136412500D03*
X96550000Y-134687500D03*
%TD*%
D18*
%TO.C,R329*%
X141625000Y-96000000D03*
X139800000Y-96000000D03*
%TD*%
D37*
%TO.C,D605*%
X88775000Y-43625000D03*
X87025000Y-43625000D03*
%TD*%
D18*
%TO.C,R313*%
X137212500Y-88900000D03*
X135387500Y-88900000D03*
%TD*%
D25*
%TO.C,C804*%
X106262500Y-116200000D03*
X104537500Y-116200000D03*
%TD*%
D32*
%TO.C,RN306*%
X126500000Y-96300000D03*
D33*
X126500000Y-97100000D03*
X126500000Y-97900000D03*
D32*
X126500000Y-98700000D03*
X128300000Y-98700000D03*
D33*
X128300000Y-97900000D03*
X128300000Y-97100000D03*
D32*
X128300000Y-96300000D03*
%TD*%
D24*
%TO.C,U702*%
X80225000Y-55695000D03*
X80225000Y-56965000D03*
X80225000Y-58235000D03*
X80225000Y-59505000D03*
X85175000Y-59505000D03*
X85175000Y-58235000D03*
X85175000Y-56965000D03*
X85175000Y-55695000D03*
%TD*%
D25*
%TO.C,C603*%
X104912500Y-76925000D03*
X103187500Y-76925000D03*
%TD*%
D18*
%TO.C,R316*%
X141512500Y-94200000D03*
X139687500Y-94200000D03*
%TD*%
D35*
%TO.C,Q401*%
X69100000Y-117012500D03*
X67200000Y-117012500D03*
X68150000Y-118887500D03*
%TD*%
D15*
%TO.C,R710*%
X143050000Y-49187500D03*
X143050000Y-51012500D03*
%TD*%
D38*
%TO.C,U601*%
X113100000Y-76200000D03*
X114500000Y-79000000D03*
X111700000Y-77600000D03*
X110300000Y-79000000D03*
X110300000Y-74800000D03*
X111700000Y-76200000D03*
X113100000Y-74800000D03*
X114500000Y-77600000D03*
X110300000Y-76200000D03*
X110300000Y-77600000D03*
X114500000Y-76200000D03*
X111700000Y-79000000D03*
X113100000Y-77600000D03*
X113100000Y-79000000D03*
X111700000Y-74800000D03*
X114500000Y-74800000D03*
D39*
X115837500Y-79650000D03*
X115837500Y-79150000D03*
X115837500Y-78650000D03*
X115837500Y-78150000D03*
X115837500Y-77650000D03*
X115837500Y-77150000D03*
X115837500Y-76650000D03*
X115837500Y-76150000D03*
X115837500Y-75650000D03*
X115837500Y-75150000D03*
X115837500Y-74650000D03*
X115837500Y-74150000D03*
D40*
X115150000Y-73462500D03*
X114650000Y-73462500D03*
X114150000Y-73462500D03*
X113650000Y-73462500D03*
X113150000Y-73462500D03*
X112650000Y-73462500D03*
X112150000Y-73462500D03*
X111650000Y-73462500D03*
X111150000Y-73462500D03*
X110650000Y-73462500D03*
X110150000Y-73462500D03*
X109650000Y-73462500D03*
D39*
X108962500Y-74150000D03*
X108962500Y-74650000D03*
X108962500Y-75150000D03*
X108962500Y-75650000D03*
X108962500Y-76150000D03*
X108962500Y-76650000D03*
X108962500Y-77150000D03*
X108962500Y-77650000D03*
X108962500Y-78150000D03*
X108962500Y-78650000D03*
X108962500Y-79150000D03*
X108962500Y-79650000D03*
D40*
X109650000Y-80337500D03*
X110150000Y-80337500D03*
X110650000Y-80337500D03*
X111150000Y-80337500D03*
X111650000Y-80337500D03*
X112150000Y-80337500D03*
X112650000Y-80337500D03*
X113150000Y-80337500D03*
X113650000Y-80337500D03*
X114150000Y-80337500D03*
X114650000Y-80337500D03*
X115150000Y-80337500D03*
%TD*%
D41*
%TO.C,X201*%
X93850000Y-113075000D03*
X96550000Y-113075000D03*
X96550000Y-110125000D03*
X93850000Y-110125000D03*
%TD*%
D32*
%TO.C,RN308*%
X130900000Y-88900000D03*
D33*
X130900000Y-89700000D03*
X130900000Y-90500000D03*
D32*
X130900000Y-91300000D03*
X132700000Y-91300000D03*
D33*
X132700000Y-90500000D03*
X132700000Y-89700000D03*
D32*
X132700000Y-88900000D03*
%TD*%
D18*
%TO.C,R327*%
X141512500Y-90700000D03*
X139687500Y-90700000D03*
%TD*%
D25*
%TO.C,C402*%
X130262500Y-71000000D03*
X128537500Y-71000000D03*
%TD*%
%TO.C,C715*%
X103062500Y-50400000D03*
X101337500Y-50400000D03*
%TD*%
D21*
%TO.C,R503*%
X140750000Y-45337500D03*
X140750000Y-43512500D03*
%TD*%
D42*
%TO.C,C817*%
X105000000Y-104487500D03*
X105000000Y-102412500D03*
%TD*%
D19*
%TO.C,C702*%
X131900000Y-57437500D03*
X131900000Y-59162500D03*
%TD*%
D15*
%TO.C,R208*%
X132000000Y-49687500D03*
X132000000Y-51512500D03*
%TD*%
%TO.C,R306*%
X134137500Y-69762500D03*
X134137500Y-71587500D03*
%TD*%
D18*
%TO.C,R407*%
X95512500Y-79300000D03*
X93687500Y-79300000D03*
%TD*%
D25*
%TO.C,C404*%
X127537500Y-55875000D03*
X125812500Y-55875000D03*
%TD*%
D12*
%TO.C,R205*%
X99487500Y-106000000D03*
X101312500Y-106000000D03*
%TD*%
D23*
%TO.C,C706*%
X131775000Y-62887500D03*
X131775000Y-61162500D03*
%TD*%
D21*
%TO.C,R708*%
X82400000Y-52600000D03*
X82400000Y-50775000D03*
%TD*%
D19*
%TO.C,C805*%
X116200000Y-122737500D03*
X116200000Y-124462500D03*
%TD*%
D25*
%TO.C,C201*%
X105662500Y-93500000D03*
X103937500Y-93500000D03*
%TD*%
D15*
%TO.C,R812*%
X128500000Y-116387500D03*
X128500000Y-118212500D03*
%TD*%
D12*
%TO.C,R507*%
X65987500Y-67450000D03*
X67812500Y-67450000D03*
%TD*%
D18*
%TO.C,R330*%
X141612500Y-99600000D03*
X139787500Y-99600000D03*
%TD*%
%TO.C,R705*%
X103112500Y-52050000D03*
X101287500Y-52050000D03*
%TD*%
%TO.C,R408*%
X95412500Y-98600000D03*
X93587500Y-98600000D03*
%TD*%
D27*
%TO.C,C816*%
X130612500Y-127800000D03*
X132687500Y-127800000D03*
%TD*%
D23*
%TO.C,C802*%
X122800000Y-114862500D03*
X122800000Y-113137500D03*
%TD*%
D18*
%TO.C,R608*%
X119512500Y-72600000D03*
X117687500Y-72600000D03*
%TD*%
D12*
%TO.C,R816*%
X124687500Y-118100000D03*
X126512500Y-118100000D03*
%TD*%
D18*
%TO.C,R803*%
X107750000Y-112400000D03*
X105925000Y-112400000D03*
%TD*%
D12*
%TO.C,R411*%
X76787500Y-73650000D03*
X78612500Y-73650000D03*
%TD*%
D18*
%TO.C,R320*%
X141612500Y-101400000D03*
X139787500Y-101400000D03*
%TD*%
D43*
%TO.C,J401*%
X90950000Y-96065000D03*
X90950000Y-93565000D03*
X90950000Y-91065000D03*
X90950000Y-88565000D03*
X90950000Y-86065000D03*
X90950000Y-83565000D03*
X90950000Y-81140000D03*
X90950000Y-79440000D03*
X90950000Y-98565000D03*
D44*
X79550000Y-76390000D03*
D45*
X65550000Y-75490000D03*
X65550000Y-104490000D03*
X84200000Y-104490000D03*
X84200000Y-75490000D03*
D44*
X68000000Y-76390000D03*
X70600000Y-76390000D03*
%TD*%
D12*
%TO.C,R821*%
X123975000Y-108400000D03*
X125800000Y-108400000D03*
%TD*%
%TO.C,R605*%
X101987500Y-57575000D03*
X103812500Y-57575000D03*
%TD*%
%TO.C,R509*%
X66487500Y-114250000D03*
X68312500Y-114250000D03*
%TD*%
D19*
%TO.C,C203*%
X105800000Y-84787500D03*
X105800000Y-86512500D03*
%TD*%
D32*
%TO.C,RN309*%
X131000000Y-96300000D03*
D33*
X131000000Y-97100000D03*
X131000000Y-97900000D03*
D32*
X131000000Y-98700000D03*
X132800000Y-98700000D03*
D33*
X132800000Y-97900000D03*
X132800000Y-97100000D03*
D32*
X132800000Y-96300000D03*
%TD*%
D46*
%TO.C,U503*%
X100225000Y-130150000D03*
X99575000Y-130150000D03*
X98925000Y-130150000D03*
X98275000Y-130150000D03*
X98275000Y-134450000D03*
X98925000Y-134450000D03*
X99575000Y-134450000D03*
X100225000Y-134450000D03*
%TD*%
D18*
%TO.C,R314*%
X137312500Y-90800000D03*
X135487500Y-90800000D03*
%TD*%
D31*
%TO.C,U502*%
X86625000Y-50150000D03*
X86625000Y-51100000D03*
X86625000Y-52050000D03*
X89325000Y-52050000D03*
X89325000Y-51100000D03*
X89325000Y-50150000D03*
%TD*%
D18*
%TO.C,R326*%
X141512500Y-88900000D03*
X139687500Y-88900000D03*
%TD*%
D32*
%TO.C,RN303*%
X122200000Y-96300000D03*
D33*
X122200000Y-97100000D03*
X122200000Y-97900000D03*
D32*
X122200000Y-98700000D03*
X124000000Y-98700000D03*
D33*
X124000000Y-97900000D03*
X124000000Y-97100000D03*
D32*
X124000000Y-96300000D03*
%TD*%
D12*
%TO.C,R819*%
X104137500Y-129350000D03*
X105962500Y-129350000D03*
%TD*%
D21*
%TO.C,R413*%
X95700000Y-68162500D03*
X95700000Y-66337500D03*
%TD*%
D42*
%TO.C,C302*%
X142137500Y-72712500D03*
X142137500Y-70637500D03*
%TD*%
D18*
%TO.C,R323*%
X141412500Y-81500000D03*
X139587500Y-81500000D03*
%TD*%
D15*
%TO.C,R501*%
X104050000Y-85587500D03*
X104050000Y-87412500D03*
%TD*%
D12*
%TO.C,R602*%
X103987500Y-60300000D03*
X105812500Y-60300000D03*
%TD*%
D13*
%TO.C,C710*%
X81837500Y-63000000D03*
X83562500Y-63000000D03*
%TD*%
D15*
%TO.C,R401*%
X122100000Y-73737500D03*
X122100000Y-75562500D03*
%TD*%
D47*
%TO.C,D601*%
X108300000Y-71450000D03*
X108300000Y-68950000D03*
%TD*%
D12*
%TO.C,R815*%
X124687500Y-116500000D03*
X126512500Y-116500000D03*
%TD*%
D48*
%TO.C,SW401*%
X64300000Y-128300000D03*
X64300000Y-123700000D03*
D49*
X66500000Y-121700000D03*
X61900000Y-130350000D03*
X61900000Y-121700000D03*
X66500000Y-130350000D03*
%TD*%
D13*
%TO.C,C704*%
X143037500Y-52700000D03*
X144762500Y-52700000D03*
%TD*%
D32*
%TO.C,RN302*%
X122200000Y-88900000D03*
D33*
X122200000Y-89700000D03*
X122200000Y-90500000D03*
D32*
X122200000Y-91300000D03*
X124000000Y-91300000D03*
D33*
X124000000Y-90500000D03*
X124000000Y-89700000D03*
D32*
X124000000Y-88900000D03*
%TD*%
D12*
%TO.C,R703*%
X96587500Y-51775000D03*
X98412500Y-51775000D03*
%TD*%
D18*
%TO.C,R811*%
X128512500Y-114000000D03*
X126687500Y-114000000D03*
%TD*%
%TO.C,R322*%
X119612500Y-101500000D03*
X117787500Y-101500000D03*
%TD*%
D15*
%TO.C,R514*%
X106100000Y-72012500D03*
X106100000Y-73837500D03*
%TD*%
D18*
%TO.C,R414*%
X90562500Y-74400000D03*
X88737500Y-74400000D03*
%TD*%
D12*
%TO.C,R510*%
X82837500Y-134000000D03*
X84662500Y-134000000D03*
%TD*%
D15*
%TO.C,R201*%
X133650000Y-49687500D03*
X133650000Y-51512500D03*
%TD*%
D50*
%TO.C,SW501*%
X80512500Y-133860000D03*
X80512500Y-131320000D03*
X80512500Y-128780000D03*
X80512500Y-126240000D03*
X71612500Y-126240000D03*
X71612500Y-128780000D03*
X71612500Y-131320000D03*
X71612500Y-133860000D03*
%TD*%
D18*
%TO.C,R331*%
X141612500Y-97800000D03*
X139787500Y-97800000D03*
%TD*%
D19*
%TO.C,C606*%
X103200000Y-78862500D03*
X103200000Y-80587500D03*
%TD*%
D20*
%TO.C,U504*%
X87637500Y-129250000D03*
X87637500Y-129900000D03*
X87637500Y-130550000D03*
X87637500Y-131200000D03*
X87637500Y-131850000D03*
X87637500Y-132500000D03*
X87637500Y-133150000D03*
X93362500Y-133150000D03*
X93362500Y-132500000D03*
X93362500Y-131850000D03*
X93362500Y-131200000D03*
X93362500Y-130550000D03*
X93362500Y-129900000D03*
X93362500Y-129250000D03*
%TD*%
D32*
%TO.C,RN304*%
X126500000Y-81400000D03*
D33*
X126500000Y-82200000D03*
X126500000Y-83000000D03*
D32*
X126500000Y-83800000D03*
X128300000Y-83800000D03*
D33*
X128300000Y-83000000D03*
X128300000Y-82200000D03*
D32*
X128300000Y-81400000D03*
%TD*%
D15*
%TO.C,R402*%
X131800000Y-72187500D03*
X131800000Y-74012500D03*
%TD*%
D18*
%TO.C,R321*%
X119612500Y-99900000D03*
X117787500Y-99900000D03*
%TD*%
D23*
%TO.C,C716*%
X94550000Y-49862500D03*
X94550000Y-48137500D03*
%TD*%
D47*
%TO.C,D201*%
X107800000Y-87100000D03*
X107800000Y-84600000D03*
%TD*%
D18*
%TO.C,R611*%
X88737500Y-48425000D03*
X86912500Y-48425000D03*
%TD*%
D51*
%TO.C,U301*%
X136232500Y-74850000D03*
X137502500Y-74850000D03*
X138772500Y-74850000D03*
X140042500Y-74850000D03*
X140042500Y-69900000D03*
X138772500Y-69900000D03*
X137502500Y-69900000D03*
X136232500Y-69900000D03*
%TD*%
D12*
%TO.C,R806*%
X104487500Y-114200000D03*
X106312500Y-114200000D03*
%TD*%
D25*
%TO.C,C205*%
X105662500Y-91800000D03*
X103937500Y-91800000D03*
%TD*%
D12*
%TO.C,R814*%
X124687500Y-121300000D03*
X126512500Y-121300000D03*
%TD*%
D23*
%TO.C,C705*%
X143350000Y-56012500D03*
X143350000Y-54287500D03*
%TD*%
D12*
%TO.C,R406*%
X93887500Y-86100000D03*
X95712500Y-86100000D03*
%TD*%
D25*
%TO.C,C401*%
X93650000Y-66600000D03*
X91925000Y-66600000D03*
%TD*%
D23*
%TO.C,C714*%
X110550000Y-48062500D03*
X110550000Y-46337500D03*
%TD*%
D18*
%TO.C,R328*%
X141512500Y-92500000D03*
X139687500Y-92500000D03*
%TD*%
D12*
%TO.C,R813*%
X124687500Y-119700000D03*
X126512500Y-119700000D03*
%TD*%
D22*
%TO.C,Q601*%
X83250000Y-45762500D03*
X85150000Y-45762500D03*
X84200000Y-43887500D03*
%TD*%
D18*
%TO.C,R312*%
X141512500Y-86900000D03*
X139687500Y-86900000D03*
%TD*%
%TO.C,R412*%
X74412500Y-73700000D03*
X72587500Y-73700000D03*
%TD*%
M02*
