M48
; DRILL file {KiCad 6.0.11-3.fc36} date Pá 28. dubna 2023, 14:31:51
; FORMAT={-:-/ absolute / inch / decimal}
; #@! TF.CreationDate,2023-04-28T14:31:51+02:00
; #@! TF.GenerationSoftware,Kicad,Pcbnew,6.0.11-3.fc36
; #@! TF.FileFunction,Plated,1,2,PTH
FMAT,2
INCH
; #@! TA.AperFunction,Plated,PTH,ViaDrill
T1C0.0157
; #@! TA.AperFunction,Plated,PTH,ComponentDrill
T2C0.0315
; #@! TA.AperFunction,Plated,PTH,ComponentDrill
T3C0.0350
; #@! TA.AperFunction,Plated,PTH,ComponentDrill
T4C0.0354
; #@! TA.AperFunction,Plated,PTH,ComponentDrill
T5C0.0394
; #@! TA.AperFunction,Plated,PTH,ComponentDrill
T6C0.0630
; #@! TA.AperFunction,Plated,PTH,ComponentDrill
T7C0.0787
; #@! TA.AperFunction,Plated,PTH,ComponentDrill
T8C0.0866
; #@! TA.AperFunction,Plated,PTH,ComponentDrill
T9C0.1260
%
G90
G05
T1
X2.5543Y-2.8477
X2.5748Y-4.7303
X2.5787Y-3.0394
X2.5827Y-4.0413
X2.6132Y-2.8789
X2.7195Y-5.0118
X2.7264Y-4.3327
X2.7579Y-5.1555
X2.7776Y-4.5945
X2.7835Y-4.4291
X2.8228Y-1.8091
X2.9173Y-4.6565
X2.9528Y-3.189
X2.9564Y-4.6605
X2.9606Y-3.9606
X3.0Y-4.9734
X3.0098Y-2.1496
X3.0217Y-2.8563
X3.0433Y-4.5925
X3.1437Y-2.5295
X3.1673Y-2.7717
X3.189Y-4.4429
X3.2264Y-3.122
X3.2559Y-2.6161
X3.3051Y-2.122
X3.313Y-3.0413
X3.313Y-4.0433
X3.3465Y-4.8317
X3.3484Y-4.9409
X3.3504Y-2.5305
X3.3612Y-2.0098
X3.378Y-5.128
X3.3829Y-1.8248
X3.3839Y-2.7244
X3.3957Y-4.8287
X3.4173Y-2.6024
X3.437Y-2.3543
X3.4429Y-3.0236
X3.4488Y-2.1309
X3.4488Y-2.8819
X3.4567Y-1.6811
X3.4665Y-4.439
X3.4941Y-4.9606
X3.5039Y-5.3189
X3.5059Y-3.5827
X3.5061Y-5.1419
X3.5079Y-2.6063
X3.5118Y-5.2402
X3.5177Y-3.2776
X3.5276Y-2.5138
X3.5295Y-2.7992
X3.5433Y-2.1732
X3.5492Y-5.3504
X3.565Y-2.0876
X3.5679Y-1.9754
X3.5748Y-4.7274
X3.5748Y-4.9951
X3.5768Y-1.8583
X3.5787Y-2.622
X3.5945Y-4.4429
X3.6004Y-5.0886
X3.6063Y-5.1909
X3.6083Y-2.2402
X3.622Y-2.6949
X3.6358Y-2.1713
X3.6476Y-2.435
X3.6526Y-1.7559
X3.6732Y-2.0472
X3.6742Y-3.0128
X3.7087Y-3.6152
X3.7146Y-4.9331
X3.7224Y-5.2539
X3.7283Y-2.0896
X3.7343Y-1.6535
X3.7382Y-5.1654
X3.7392Y-1.8297
X3.7411Y-1.7539
X3.75Y-4.9055
X3.7579Y-2.8878
X3.7677Y-2.8228
X3.7697Y-2.7421
X3.7835Y-4.5413
X3.7874Y-4.1339
X3.7953Y-3.0128
X3.8031Y-5.0295
X3.8091Y-3.3898
X3.811Y-5.2559
X3.8189Y-2.2579
X3.8307Y-2.1969
X3.8329Y-2.5529
X3.8386Y-5.1043
X3.8415Y-1.7835
X3.8425Y-4.1988
X3.8465Y-2.8563
X3.8642Y-3.4055
X3.8644Y-2.6439
X3.8701Y-2.4232
X3.876Y-3.5669
X3.878Y-3.686
X3.8819Y-4.4508
X3.8878Y-1.7028
X3.8957Y-3.2303
X3.9242Y-2.69
X3.9242Y-2.8829
X3.9242Y-3.0138
X3.9291Y-4.9636
X3.9341Y-2.0492
X3.939Y-5.2402
X3.939Y-3.9311
X3.9409Y-4.7185
X3.9429Y-1.9793
X3.9656Y-3.0659
X3.9665Y-3.686
X3.9695Y-2.8888
X3.9803Y-3.5394
X3.9803Y-5.2992
X3.9823Y-2.2382
X3.9843Y-2.561
X3.9843Y-5.372
X3.9941Y-3.6486
X4.0138Y-3.0167
X4.0167Y-5.0571
X4.0188Y-3.8263
X4.0197Y-2.3425
X4.0235Y-2.0181
X4.0256Y-1.8504
X4.0295Y-2.437
X4.0413Y-5.252
X4.0512Y-3.878
X4.0611Y-2.5629
X4.0631Y-3.2316
X4.0728Y-2.7323
X4.0748Y-3.8465
X4.0754Y-2.937
X4.0827Y-4.626
X4.0866Y-4.1732
X4.1004Y-2.565
X4.1029Y-2.111
X4.1029Y-2.9651
X4.1063Y-4.2598
X4.1142Y-3.8475
X4.1305Y-2.937
X4.1311Y-2.0563
X4.1319Y-1.8504
X4.1381Y-3.2209
X4.1398Y-2.5571
X4.1428Y-3.173
X4.1447Y-1.7636
X4.1457Y-3.0984
X4.1535Y-3.9488
X4.1675Y-2.0978
X4.1693Y-3.1339
X4.1713Y-2.0551
X4.1772Y-2.9764
X4.1772Y-3.2165
X4.178Y-2.5891
X4.1812Y-3.0393
X4.185Y-3.5512
X4.1929Y-3.8819
X4.1949Y-4.7717
X4.2069Y-3.2423
X4.2087Y-4.626
X4.2096Y-2.565
X4.2106Y-4.3681
X4.2126Y-2.0551
X4.2165Y-2.9311
X4.2165Y-4.8248
X4.2205Y-5.0315
X4.2205Y-4.7224
X4.2205Y-4.864
X4.2205Y-4.9033
X4.2205Y-4.9427
X4.2237Y-4.076
X4.2303Y-4.0177
X4.2303Y-5.3169
X4.2322Y-4.1574
X4.2323Y-3.6532
X4.2343Y-3.0689
X4.236Y-5.1058
X4.2362Y-4.5748
X4.2471Y-3.5332
X4.252Y-3.2441
X4.252Y-5.1417
X4.2559Y-5.2353
X4.2618Y-4.2559
X4.2644Y-3.4955
X4.2677Y-4.6102
X4.2756Y-3.8583
X4.2776Y-2.6319
X4.2776Y-4.2087
X4.2795Y-3.9764
X4.2854Y-2.5374
X4.2913Y-3.2835
X4.2921Y-3.4413
X4.3012Y-2.4766
X4.3031Y-4.0453
X4.3031Y-4.372
X4.3071Y-5.3898
X4.3071Y-2.4213
X4.311Y-4.1732
X4.314Y-1.9843
X4.3211Y-3.3132
X4.3231Y-2.5092
X4.3287Y-5.1024
X4.3287Y-5.1417
X4.3287Y-4.7047
X4.3302Y-3.4316
X4.337Y-5.1802
X4.3386Y-3.9016
X4.3386Y-5.2382
X4.3494Y-3.7008
X4.3543Y-3.1033
X4.3543Y-3.3661
X4.3573Y-3.0138
X4.3602Y-4.7559
X4.3622Y-3.3268
X4.3721Y-5.1979
X4.378Y-2.5669
X4.3898Y-4.8228
X4.3917Y-2.2579
X4.3937Y-3.5728
X4.3957Y-2.7244
X4.3976Y-3.3701
X4.3991Y-4.8611
X4.4038Y-4.9001
X4.4272Y-2.6654
X4.4272Y-2.7598
X4.438Y-2.9567
X4.4424Y-4.9078
X4.4433Y-3.3685
X4.4488Y-2.4744
X4.4518Y-3.1053
X4.4567Y-4.9528
X4.4872Y-2.003
X4.4952Y-4.9751
X4.498Y-2.2303
X4.502Y-3.0443
X4.5118Y-2.1693
X4.5236Y-3.565
X4.5236Y-3.6319
X4.5236Y-3.7126
X4.5256Y-2.5315
X4.5388Y-3.374
X4.5394Y-4.0669
X4.5413Y-2.1969
X4.5433Y-4.9409
X4.5433Y-2.7205
X4.5439Y-4.5892
X4.5502Y-2.5622
X4.5512Y-4.9882
X4.5551Y-4.3366
X4.561Y-2.4843
X4.563Y-3.2106
X4.5657Y-4.5106
X4.5709Y-3.3465
X4.5807Y-2.813
X4.5807Y-3.8189
X4.5827Y-2.7441
X4.6024Y-4.5519
X4.6063Y-3.2815
X4.6083Y-4.4714
X4.626Y-2.9094
X4.627Y-2.1909
X4.628Y-3.1535
X4.6289Y-2.3642
X4.6339Y-4.2913
X4.6358Y-4.1358
X4.6388Y-2.1534
X4.6398Y-4.8228
X4.6437Y-2.9862
X4.6437Y-4.9213
X4.6476Y-2.5906
X4.6486Y-4.7707
X4.6522Y-3.6308
X4.6701Y-2.9146
X4.6712Y-2.9574
X4.6732Y-4.3957
X4.6791Y-3.128
X4.6988Y-1.9035
X4.6988Y-4.1122
X4.7008Y-3.8268
X4.7008Y-4.185
X4.7028Y-3.0512
X4.7087Y-3.5787
X4.7244Y-1.6634
X4.7264Y-4.9587
X4.7313Y-3.7037
X4.7382Y-2.2303
X4.7393Y-5.196
X4.7403Y-3.5285
X4.752Y-1.9291
X4.7541Y-2.2973
X4.7579Y-3.4567
X4.7598Y-4.0236
X4.7615Y-2.1257
X4.7697Y-2.565
X4.7702Y-2.4262
X4.799Y-4.028
X4.8083Y-2.8681
X4.811Y-1.9213
X4.8149Y-2.6732
X4.8169Y-4.1732
X4.8327Y-4.2402
X4.8346Y-3.0827
X4.8425Y-2.1447
X4.8425Y-4.0236
X4.8465Y-1.998
X4.8465Y-3.126
X4.8465Y-4.3484
X4.8563Y-4.1181
X4.8622Y-4.565
X4.876Y-3.3937
X4.8789Y-2.7766
X4.8812Y-4.0666
X4.8898Y-1.9449
X4.8917Y-2.1201
X4.8927Y-2.374
X4.9045Y-4.9065
X4.9094Y-2.1791
X4.9232Y-4.0807
X4.9321Y-2.6358
X4.9587Y-3.746
X4.9606Y-2.8031
X4.9606Y-3.0217
X4.9862Y-2.3494
X4.9882Y-2.5906
X4.9921Y-2.6929
X5.0039Y-3.4488
X5.0076Y-4.234
X5.0157Y-3.6358
X5.0374Y-4.0394
X5.0453Y-2.6398
X5.0551Y-1.6516
X5.0591Y-2.1634
X5.063Y-1.9941
X5.0848Y-2.813
X5.1063Y-3.2008
X5.1063Y-3.559
X5.1063Y-3.7874
X5.1161Y-1.6418
X5.1161Y-3.435
X5.1181Y-3.5
X5.1181Y-4.689
X5.1201Y-3.9449
X5.1299Y-2.0591
X5.1317Y-4.7464
X5.1418Y-1.9282
X5.1555Y-4.4803
X5.1634Y-5.0768
X5.1801Y-2.6476
X5.1909Y-2.7972
X5.1982Y-4.7269
X5.2185Y-1.9075
X5.2205Y-3.6221
X5.2264Y-2.3888
X5.2303Y-3.0394
X5.2382Y-4.9626
X5.2411Y-2.9774
X5.2579Y-2.5354
X5.2677Y-3.3071
X5.2776Y-2.4843
X5.2776Y-2.6634
X5.2908Y-5.1491
X5.2933Y-4.7126
X5.3268Y-2.5098
X5.3307Y-3.1339
X5.3327Y-4.5807
X5.3443Y-3.0825
X5.372Y-2.3317
X5.375Y-2.1998
X5.4035Y-4.315
X5.4134Y-2.3839
X5.4331Y-2.2992
X5.435Y-3.1339
X5.437Y-4.6219
X5.4508Y-2.4547
X5.4528Y-5.3701
X5.499Y-2.5551
X5.5157Y-2.4793
X5.5236Y-3.0945
X5.5305Y-2.0276
X5.5413Y-2.1132
X5.5492Y-2.5
X5.5846Y-2.9606
X5.6398Y-2.7854
X5.6496Y-3.498
X5.6634Y-1.7185
X5.6654Y-3.6339
X5.6791Y-1.8386
X5.8071Y-4.7736
X5.8602Y-1.6969
X5.876Y-1.9547
X5.9291Y-4.689
X5.9902Y-4.0
X6.0492Y-3.378
X6.0783Y-4.3429
X6.1006Y-4.0947
X6.187Y-2.1083
X6.2244Y-3.3819
X6.2244Y-3.998
T3
X5.998Y-4.4754
X5.998Y-4.8734
X6.0579Y-4.5754
X6.0579Y-4.9734
T4
X5.5154Y-4.5494
X5.5154Y-4.6494
X5.5154Y-4.7494
X5.5154Y-4.8494
X5.6154Y-4.5994
X5.6154Y-4.6994
X5.6154Y-4.7994
X5.6154Y-4.8994
X5.8637Y-2.5039
X5.8637Y-2.7717
X5.9621Y-2.5039
X5.9621Y-2.7717
T5
X2.6427Y-2.7756
X2.7427Y-2.7756
X2.9921Y-2.6339
X3.001Y-4.2441
X3.101Y-4.2441
X4.4724Y-1.7224
X4.4724Y-1.8224
X4.4724Y-5.2657
X4.4724Y-5.3657
X4.5724Y-1.7224
X4.5724Y-1.8224
X4.5724Y-5.2657
X4.5724Y-5.3657
X4.6724Y-1.7224
X4.6724Y-1.8224
X4.6724Y-5.2657
X4.6724Y-5.3657
X4.7724Y-1.7224
X4.7724Y-1.8224
X4.7724Y-5.2657
X4.7724Y-5.3657
X4.8724Y-1.7224
X4.8724Y-1.8224
X4.8724Y-5.2657
X4.8724Y-5.3657
X4.9724Y-1.7224
X4.9724Y-1.8224
X4.9724Y-5.2657
X4.9724Y-5.3657
X5.0724Y-1.7224
X5.0724Y-1.8224
X5.0724Y-5.2657
X5.0724Y-5.3657
X5.1724Y-1.7224
X5.1724Y-1.8224
X5.1724Y-5.2657
X5.1724Y-5.3657
X5.2724Y-1.7224
X5.2724Y-1.8224
X5.2724Y-5.2657
X5.2724Y-5.3657
X5.3724Y-1.7224
X5.3724Y-1.8224
X5.3724Y-5.2657
X5.3724Y-5.3657
X5.5984Y-3.0945
X5.7205Y-2.3911
X5.7205Y-2.4911
X5.7494Y-3.4522
X5.7494Y-3.5423
X5.7494Y-3.6325
X5.7494Y-3.7226
X5.7494Y-3.8128
X5.8494Y-3.4073
X5.8494Y-3.4974
X5.8494Y-3.5876
X5.8494Y-3.6778
X5.8494Y-3.7679
X5.9494Y-3.4522
X5.9494Y-3.5423
X5.9494Y-3.6325
X5.9494Y-3.7226
X5.9494Y-3.8128
T6
X5.7449Y-4.4183
X5.7449Y-5.0305
T7
X2.4488Y-2.0234
X2.4488Y-2.5435
X2.824Y-2.0984
X2.824Y-2.2835
X2.824Y-2.4685
T8
X6.0802Y-2.3661
X6.0802Y-2.9094
X6.1117Y-2.6398
T9
X5.8494Y-3.1301
X5.8494Y-4.114
T2
G00X5.8297Y-2.0256
M15
G01X5.81Y-2.0256
M16
G05
G00X5.8297Y-2.2067
M15
G01X5.81Y-2.2067
M16
G05
T5
G00X6.1211Y-2.0079
M15
G01X6.1093Y-2.0079
M16
G05
G00X6.1211Y-2.2244
M15
G01X6.1093Y-2.2244
M16
G05
T0
M30
