%TF.GenerationSoftware,KiCad,Pcbnew,6.0.11-3.fc36*%
%TF.CreationDate,2023-04-28T14:32:20+02:00*%
%TF.ProjectId,openX65-vabo,6f70656e-5836-4352-9d76-61626f2e6b69,rev01*%
%TF.SameCoordinates,Original*%
%TF.FileFunction,Drillmap*%
%TF.FilePolarity,Positive*%
%FSLAX45Y45*%
G04 Gerber Fmt 4.5, Leading zero omitted, Abs format (unit mm)*
G04 Created by KiCad (PCBNEW 6.0.11-3.fc36) date 2023-04-28 14:32:20*
%MOMM*%
%LPD*%
G01*
G04 APERTURE LIST*
%ADD10C,0.100000*%
%ADD11C,0.200000*%
%ADD12C,0.040000*%
%ADD13C,0.080000*%
%ADD14C,0.089000*%
%ADD15C,0.090000*%
%ADD16C,0.160000*%
%ADD17C,0.220000*%
%ADD18C,0.320000*%
G04 APERTURE END LIST*
D10*
X6500000Y-4000000D02*
X15500000Y-4000000D01*
X16000000Y-13500000D02*
X16000000Y-4500000D01*
X6500000Y-4000004D02*
G75*
G03*
X6000000Y-4498000I-2000J-497996D01*
G01*
X6000000Y-13500000D02*
G75*
G03*
X6500000Y-14000000I500000J0D01*
G01*
X15500000Y-14000000D02*
X6500000Y-14000000D01*
X6000000Y-13500000D02*
X6000000Y-4498000D01*
X15500000Y-14000000D02*
G75*
G03*
X16000000Y-13500000I0J500000D01*
G01*
X16000000Y-4500000D02*
G75*
G03*
X15500000Y-4000000I-500000J0D01*
G01*
D11*
D12*
X6468038Y-7213038D02*
X6508038Y-7253038D01*
X6508038Y-7213038D02*
X6468038Y-7253038D01*
X6520000Y-11995000D02*
X6560000Y-12035000D01*
X6560000Y-11995000D02*
X6520000Y-12035000D01*
X6530000Y-7700000D02*
X6570000Y-7740000D01*
X6570000Y-7700000D02*
X6530000Y-7740000D01*
X6540000Y-10245000D02*
X6580000Y-10285000D01*
X6580000Y-10245000D02*
X6540000Y-10285000D01*
X6617500Y-7292500D02*
X6657500Y-7332500D01*
X6657500Y-7292500D02*
X6617500Y-7332500D01*
X6887500Y-12710000D02*
X6927500Y-12750000D01*
X6927500Y-12710000D02*
X6887500Y-12750000D01*
X6905000Y-10985000D02*
X6945000Y-11025000D01*
X6945000Y-10985000D02*
X6905000Y-11025000D01*
X6985000Y-13075000D02*
X7025000Y-13115000D01*
X7025000Y-13075000D02*
X6985000Y-13115000D01*
X7035000Y-11650000D02*
X7075000Y-11690000D01*
X7075000Y-11650000D02*
X7035000Y-11690000D01*
X7050000Y-11230000D02*
X7090000Y-11270000D01*
X7090000Y-11230000D02*
X7050000Y-11270000D01*
X7150000Y-4575000D02*
X7190000Y-4615000D01*
X7190000Y-4575000D02*
X7150000Y-4615000D01*
X7389950Y-11807500D02*
X7429950Y-11847500D01*
X7429950Y-11807500D02*
X7389950Y-11847500D01*
X7480000Y-8080000D02*
X7520000Y-8120000D01*
X7520000Y-8080000D02*
X7480000Y-8120000D01*
X7489379Y-11817693D02*
X7529379Y-11857693D01*
X7529379Y-11817693D02*
X7489379Y-11857693D01*
X7500000Y-10040000D02*
X7540000Y-10080000D01*
X7540000Y-10040000D02*
X7500000Y-10080000D01*
X7600000Y-12612500D02*
X7640000Y-12652500D01*
X7640000Y-12612500D02*
X7600000Y-12652500D01*
X7625000Y-5440000D02*
X7665000Y-5480000D01*
X7665000Y-5440000D02*
X7625000Y-5480000D01*
X7655000Y-7235000D02*
X7695000Y-7275000D01*
X7695000Y-7235000D02*
X7655000Y-7275000D01*
X7710000Y-11645000D02*
X7750000Y-11685000D01*
X7750000Y-11645000D02*
X7710000Y-11685000D01*
X7965000Y-6405000D02*
X8005000Y-6445000D01*
X8005000Y-6405000D02*
X7965000Y-6445000D01*
X8025000Y-7020000D02*
X8065000Y-7060000D01*
X8065000Y-7020000D02*
X8025000Y-7060000D01*
X8080000Y-11265000D02*
X8120000Y-11305000D01*
X8120000Y-11265000D02*
X8080000Y-11305000D01*
X8175000Y-7910000D02*
X8215000Y-7950000D01*
X8215000Y-7910000D02*
X8175000Y-7950000D01*
X8250000Y-6625000D02*
X8290000Y-6665000D01*
X8290000Y-6625000D02*
X8250000Y-6665000D01*
X8375000Y-5370000D02*
X8415000Y-5410000D01*
X8415000Y-5370000D02*
X8375000Y-5410000D01*
X8395000Y-7705000D02*
X8435000Y-7745000D01*
X8435000Y-7705000D02*
X8395000Y-7745000D01*
X8395000Y-10250000D02*
X8435000Y-10290000D01*
X8435000Y-10250000D02*
X8395000Y-10290000D01*
X8480000Y-12252550D02*
X8520000Y-12292550D01*
X8520000Y-12252550D02*
X8480000Y-12292550D01*
X8485000Y-12530000D02*
X8525000Y-12570000D01*
X8525000Y-12530000D02*
X8485000Y-12570000D01*
X8490000Y-6407500D02*
X8530000Y-6447500D01*
X8530000Y-6407500D02*
X8490000Y-6447500D01*
X8517500Y-5085000D02*
X8557500Y-5125000D01*
X8557500Y-5085000D02*
X8517500Y-5125000D01*
X8560000Y-13005000D02*
X8600000Y-13045000D01*
X8600000Y-13005000D02*
X8560000Y-13045000D01*
X8572500Y-4615000D02*
X8612500Y-4655000D01*
X8612500Y-4615000D02*
X8572500Y-4655000D01*
X8575000Y-6899950D02*
X8615000Y-6939950D01*
X8615000Y-6899950D02*
X8575000Y-6939950D01*
X8605000Y-12245000D02*
X8645000Y-12285000D01*
X8645000Y-12245000D02*
X8605000Y-12285000D01*
X8660000Y-6590000D02*
X8700000Y-6630000D01*
X8700000Y-6590000D02*
X8660000Y-6630000D01*
X8710000Y-5960000D02*
X8750000Y-6000000D01*
X8750000Y-5960000D02*
X8710000Y-6000000D01*
X8725000Y-7660000D02*
X8765000Y-7700000D01*
X8765000Y-7660000D02*
X8725000Y-7700000D01*
X8740000Y-5392500D02*
X8780000Y-5432500D01*
X8780000Y-5392500D02*
X8740000Y-5432500D01*
X8740000Y-7300000D02*
X8780000Y-7340000D01*
X8780000Y-7300000D02*
X8740000Y-7340000D01*
X8760000Y-4250000D02*
X8800000Y-4290000D01*
X8800000Y-4250000D02*
X8760000Y-4290000D01*
X8785000Y-11255000D02*
X8825000Y-11295000D01*
X8825000Y-11255000D02*
X8785000Y-11295000D01*
X8855000Y-12580000D02*
X8895000Y-12620000D01*
X8895000Y-12580000D02*
X8855000Y-12620000D01*
X8880000Y-13490000D02*
X8920000Y-13530000D01*
X8920000Y-13490000D02*
X8880000Y-13530000D01*
X8885000Y-9080000D02*
X8925000Y-9120000D01*
X8925000Y-9080000D02*
X8885000Y-9120000D01*
X8885538Y-13040538D02*
X8925538Y-13080538D01*
X8925538Y-13040538D02*
X8885538Y-13080538D01*
X8890000Y-6600000D02*
X8930000Y-6640000D01*
X8930000Y-6600000D02*
X8890000Y-6640000D01*
X8900000Y-13290000D02*
X8940000Y-13330000D01*
X8940000Y-13290000D02*
X8900000Y-13330000D01*
X8915000Y-8305000D02*
X8955000Y-8345000D01*
X8955000Y-8305000D02*
X8915000Y-8345000D01*
X8940000Y-6365000D02*
X8980000Y-6405000D01*
X8980000Y-6365000D02*
X8940000Y-6405000D01*
X8945000Y-7090000D02*
X8985000Y-7130000D01*
X8985000Y-7090000D02*
X8945000Y-7130000D01*
X8980000Y-5500000D02*
X9020000Y-5540000D01*
X9020000Y-5500000D02*
X8980000Y-5540000D01*
X8995000Y-13570000D02*
X9035000Y-13610000D01*
X9035000Y-13570000D02*
X8995000Y-13610000D01*
X9035000Y-5282500D02*
X9075000Y-5322500D01*
X9075000Y-5282500D02*
X9035000Y-5322500D01*
X9042500Y-4997500D02*
X9082500Y-5037500D01*
X9082500Y-4997500D02*
X9042500Y-5037500D01*
X9060000Y-11987500D02*
X9100000Y-12027500D01*
X9100000Y-11987500D02*
X9060000Y-12027500D01*
X9060000Y-12667500D02*
X9100000Y-12707500D01*
X9100000Y-12667500D02*
X9060000Y-12707500D01*
X9065000Y-4700000D02*
X9105000Y-4740000D01*
X9105000Y-4700000D02*
X9065000Y-4740000D01*
X9070000Y-6640000D02*
X9110000Y-6680000D01*
X9110000Y-6640000D02*
X9070000Y-6680000D01*
X9110000Y-11265000D02*
X9150000Y-11305000D01*
X9150000Y-11265000D02*
X9110000Y-11305000D01*
X9125000Y-12905000D02*
X9165000Y-12945000D01*
X9165000Y-12905000D02*
X9125000Y-12945000D01*
X9140000Y-13165000D02*
X9180000Y-13205000D01*
X9180000Y-13165000D02*
X9140000Y-13205000D01*
X9145000Y-5670000D02*
X9185000Y-5710000D01*
X9185000Y-5670000D02*
X9145000Y-5710000D01*
X9180000Y-6825000D02*
X9220000Y-6865000D01*
X9220000Y-6825000D02*
X9180000Y-6865000D01*
X9214950Y-5495000D02*
X9254950Y-5535000D01*
X9254950Y-5495000D02*
X9214950Y-5535000D01*
X9245000Y-6165000D02*
X9285000Y-6205000D01*
X9285000Y-6165000D02*
X9245000Y-6205000D01*
X9257500Y-4440000D02*
X9297500Y-4480000D01*
X9297500Y-4440000D02*
X9257500Y-4480000D01*
X9310000Y-5180000D02*
X9350000Y-5220000D01*
X9350000Y-5180000D02*
X9310000Y-5220000D01*
X9312500Y-7632500D02*
X9352500Y-7672500D01*
X9352500Y-7632500D02*
X9312500Y-7672500D01*
X9400000Y-9162500D02*
X9440000Y-9202500D01*
X9440000Y-9162500D02*
X9400000Y-9202500D01*
X9415000Y-12510000D02*
X9455000Y-12550000D01*
X9455000Y-12510000D02*
X9415000Y-12550000D01*
X9435000Y-13325000D02*
X9475000Y-13365000D01*
X9475000Y-13325000D02*
X9435000Y-13365000D01*
X9450000Y-5287500D02*
X9490000Y-5327500D01*
X9490000Y-5287500D02*
X9450000Y-5327500D01*
X9465000Y-4180000D02*
X9505000Y-4220000D01*
X9505000Y-4180000D02*
X9465000Y-4220000D01*
X9475000Y-13100000D02*
X9515000Y-13140000D01*
X9515000Y-13100000D02*
X9475000Y-13140000D01*
X9477500Y-4627500D02*
X9517500Y-4667500D01*
X9517500Y-4627500D02*
X9477500Y-4667500D01*
X9482500Y-4435000D02*
X9522500Y-4475000D01*
X9522500Y-4435000D02*
X9482500Y-4475000D01*
X9505000Y-12440000D02*
X9545000Y-12480000D01*
X9545000Y-12440000D02*
X9505000Y-12480000D01*
X9525000Y-7315000D02*
X9565000Y-7355000D01*
X9565000Y-7315000D02*
X9525000Y-7355000D01*
X9550000Y-7150000D02*
X9590000Y-7190000D01*
X9590000Y-7150000D02*
X9550000Y-7190000D01*
X9555000Y-6945000D02*
X9595000Y-6985000D01*
X9595000Y-6945000D02*
X9555000Y-6985000D01*
X9590000Y-11515000D02*
X9630000Y-11555000D01*
X9630000Y-11515000D02*
X9590000Y-11555000D01*
X9600000Y-10480000D02*
X9640000Y-10520000D01*
X9640000Y-10480000D02*
X9600000Y-10520000D01*
X9620000Y-7632500D02*
X9660000Y-7672500D01*
X9660000Y-7632500D02*
X9620000Y-7672500D01*
X9640000Y-12755000D02*
X9680000Y-12795000D01*
X9680000Y-12755000D02*
X9640000Y-12795000D01*
X9655000Y-8590000D02*
X9695000Y-8630000D01*
X9695000Y-8590000D02*
X9655000Y-8630000D01*
X9660000Y-13330000D02*
X9700000Y-13370000D01*
X9700000Y-13330000D02*
X9660000Y-13370000D01*
X9680000Y-5715000D02*
X9720000Y-5755000D01*
X9720000Y-5715000D02*
X9680000Y-5755000D01*
X9710000Y-5560000D02*
X9750000Y-5600000D01*
X9750000Y-5560000D02*
X9710000Y-5600000D01*
X9715538Y-6464462D02*
X9755538Y-6504462D01*
X9755538Y-6464462D02*
X9715538Y-6504462D01*
X9730000Y-12945000D02*
X9770000Y-12985000D01*
X9770000Y-12945000D02*
X9730000Y-12985000D01*
X9737450Y-4510000D02*
X9777450Y-4550000D01*
X9777450Y-4510000D02*
X9737450Y-4550000D01*
X9740000Y-10645000D02*
X9780000Y-10685000D01*
X9780000Y-10645000D02*
X9740000Y-10685000D01*
X9750000Y-7235000D02*
X9790000Y-7275000D01*
X9790000Y-7235000D02*
X9750000Y-7275000D01*
X9795000Y-8630000D02*
X9835000Y-8670000D01*
X9835000Y-8630000D02*
X9795000Y-8670000D01*
X9795538Y-6695538D02*
X9835538Y-6735538D01*
X9835538Y-6695538D02*
X9795538Y-6735538D01*
X9810000Y-6135000D02*
X9850000Y-6175000D01*
X9850000Y-6135000D02*
X9810000Y-6175000D01*
X9825000Y-9040000D02*
X9865000Y-9080000D01*
X9865000Y-9040000D02*
X9825000Y-9080000D01*
X9830050Y-9342500D02*
X9870050Y-9382500D01*
X9870050Y-9342500D02*
X9830050Y-9382500D01*
X9840000Y-11285000D02*
X9880000Y-11325000D01*
X9880000Y-11285000D02*
X9840000Y-11325000D01*
X9855000Y-4305000D02*
X9895000Y-4345000D01*
X9895000Y-4305000D02*
X9855000Y-4345000D01*
X9875000Y-8185000D02*
X9915000Y-8225000D01*
X9915000Y-8185000D02*
X9875000Y-8225000D01*
X9947500Y-6812500D02*
X9987500Y-6852500D01*
X9987500Y-6812500D02*
X9947500Y-6852500D01*
X9947500Y-7302500D02*
X9987500Y-7342500D01*
X9987500Y-7302500D02*
X9947500Y-7342500D01*
X9947500Y-7635000D02*
X9987500Y-7675000D01*
X9987500Y-7635000D02*
X9947500Y-7675000D01*
X9960000Y-12587450D02*
X10000000Y-12627450D01*
X10000000Y-12587450D02*
X9960000Y-12627450D01*
X9972500Y-5185000D02*
X10012500Y-5225000D01*
X10012500Y-5185000D02*
X9972500Y-5225000D01*
X9985000Y-13290000D02*
X10025000Y-13330000D01*
X10025000Y-13290000D02*
X9985000Y-13330000D01*
X9985050Y-9965000D02*
X10025050Y-10005000D01*
X10025050Y-9965000D02*
X9985050Y-10005000D01*
X9990000Y-11965000D02*
X10030000Y-12005000D01*
X10030000Y-11965000D02*
X9990000Y-12005000D01*
X9995000Y-5007500D02*
X10035000Y-5047500D01*
X10035000Y-5007500D02*
X9995000Y-5047500D01*
X10052500Y-7767500D02*
X10092500Y-7807500D01*
X10092500Y-7767500D02*
X10052500Y-7807500D01*
X10055000Y-9342500D02*
X10095000Y-9382500D01*
X10095000Y-9342500D02*
X10055000Y-9382500D01*
X10062500Y-7317500D02*
X10102500Y-7357500D01*
X10102500Y-7317500D02*
X10062500Y-7357500D01*
X10090000Y-8970000D02*
X10130000Y-9010000D01*
X10130000Y-8970000D02*
X10090000Y-9010000D01*
X10090000Y-13440000D02*
X10130000Y-13480000D01*
X10130000Y-13440000D02*
X10090000Y-13480000D01*
X10095000Y-5665000D02*
X10135000Y-5705000D01*
X10135000Y-5665000D02*
X10095000Y-5705000D01*
X10100000Y-6485000D02*
X10140000Y-6525000D01*
X10140000Y-6485000D02*
X10100000Y-6525000D01*
X10100000Y-13624950D02*
X10140000Y-13664950D01*
X10140000Y-13624950D02*
X10100000Y-13664950D01*
X10124950Y-9247500D02*
X10164950Y-9287500D01*
X10164950Y-9247500D02*
X10124950Y-9287500D01*
X10175000Y-7642500D02*
X10215000Y-7682500D01*
X10215000Y-7642500D02*
X10175000Y-7682500D01*
X10182500Y-12825000D02*
X10222500Y-12865000D01*
X10222500Y-12825000D02*
X10182500Y-12865000D01*
X10187857Y-9698892D02*
X10227857Y-9738892D01*
X10227857Y-9698892D02*
X10187857Y-9738892D01*
X10190000Y-5930000D02*
X10230000Y-5970000D01*
X10230000Y-5930000D02*
X10190000Y-5970000D01*
X10199771Y-5105938D02*
X10239771Y-5145938D01*
X10239771Y-5105938D02*
X10199771Y-5145938D01*
X10205000Y-4680000D02*
X10245000Y-4720000D01*
X10245000Y-4680000D02*
X10205000Y-4720000D01*
X10215000Y-6170000D02*
X10255000Y-6210000D01*
X10255000Y-6170000D02*
X10215000Y-6210000D01*
X10245000Y-13320000D02*
X10285000Y-13360000D01*
X10285000Y-13320000D02*
X10245000Y-13360000D01*
X10270000Y-9830000D02*
X10310000Y-9870000D01*
X10310000Y-9830000D02*
X10270000Y-9870000D01*
X10295188Y-6489747D02*
X10335188Y-6529747D01*
X10335188Y-6489747D02*
X10295188Y-6529747D01*
X10300202Y-8188297D02*
X10340202Y-8228297D01*
X10340202Y-8188297D02*
X10300202Y-8228297D01*
X10325000Y-6920000D02*
X10365000Y-6960000D01*
X10365000Y-6920000D02*
X10325000Y-6960000D01*
X10330000Y-9750000D02*
X10370000Y-9790000D01*
X10370000Y-9750000D02*
X10330000Y-9790000D01*
X10331457Y-7439950D02*
X10371457Y-7479950D01*
X10371457Y-7439950D02*
X10331457Y-7479950D01*
X10350000Y-11730000D02*
X10390000Y-11770000D01*
X10390000Y-11730000D02*
X10350000Y-11770000D01*
X10360050Y-10580000D02*
X10400050Y-10620000D01*
X10400050Y-10580000D02*
X10360050Y-10620000D01*
X10395000Y-6495000D02*
X10435000Y-6535000D01*
X10435000Y-6495000D02*
X10395000Y-6535000D01*
X10401386Y-5341824D02*
X10441386Y-5381824D01*
X10441386Y-5341824D02*
X10401386Y-5381824D01*
X10401407Y-7511344D02*
X10441407Y-7551344D01*
X10441407Y-7511344D02*
X10401407Y-7551344D01*
X10410000Y-10800000D02*
X10450000Y-10840000D01*
X10450000Y-10800000D02*
X10410000Y-10840000D01*
X10430000Y-9752747D02*
X10470000Y-9792747D01*
X10470000Y-9752747D02*
X10430000Y-9792747D01*
X10471357Y-7439950D02*
X10511357Y-7479950D01*
X10511357Y-7439950D02*
X10471357Y-7479950D01*
X10472980Y-5203045D02*
X10512980Y-5243045D01*
X10512980Y-5203045D02*
X10472980Y-5243045D01*
X10475000Y-4680000D02*
X10515000Y-4720000D01*
X10515000Y-4680000D02*
X10475000Y-4720000D01*
X10490661Y-8161038D02*
X10530661Y-8201038D01*
X10530661Y-8161038D02*
X10490661Y-8201038D01*
X10495000Y-6474950D02*
X10535000Y-6514950D01*
X10535000Y-6474950D02*
X10495000Y-6514950D01*
X10502614Y-8039466D02*
X10542614Y-8079466D01*
X10542614Y-8039466D02*
X10502614Y-8079466D01*
X10507513Y-4459531D02*
X10547513Y-4499531D01*
X10547513Y-4459531D02*
X10507513Y-4499531D01*
X10510000Y-7850000D02*
X10550000Y-7890000D01*
X10550000Y-7850000D02*
X10510000Y-7890000D01*
X10530000Y-10010000D02*
X10570000Y-10050000D01*
X10570000Y-10010000D02*
X10530000Y-10050000D01*
X10565410Y-5308464D02*
X10605410Y-5348464D01*
X10605410Y-5308464D02*
X10565410Y-5348464D01*
X10570000Y-7940000D02*
X10610000Y-7980000D01*
X10610000Y-7940000D02*
X10570000Y-7980000D01*
X10575000Y-5199950D02*
X10615000Y-5239950D01*
X10615000Y-5199950D02*
X10575000Y-5239950D01*
X10590000Y-7539950D02*
X10630000Y-7579950D01*
X10630000Y-7539950D02*
X10590000Y-7579950D01*
X10590000Y-8150000D02*
X10630000Y-8190000D01*
X10630000Y-8150000D02*
X10590000Y-8190000D01*
X10592118Y-6556377D02*
X10632118Y-6596377D01*
X10632118Y-6556377D02*
X10592118Y-6596377D01*
X10600175Y-7699939D02*
X10640175Y-7739939D01*
X10640175Y-7699939D02*
X10600175Y-7739939D01*
X10610000Y-9000000D02*
X10650000Y-9040000D01*
X10650000Y-9000000D02*
X10610000Y-9040000D01*
X10630000Y-9840000D02*
X10670000Y-9880000D01*
X10670000Y-9840000D02*
X10630000Y-9880000D01*
X10635000Y-12100000D02*
X10675000Y-12140000D01*
X10675000Y-12100000D02*
X10635000Y-12140000D01*
X10665538Y-8215538D02*
X10705538Y-8255538D01*
X10705538Y-8215538D02*
X10665538Y-8255538D01*
X10670000Y-11730000D02*
X10710000Y-11770000D01*
X10710000Y-11730000D02*
X10670000Y-11770000D01*
X10672500Y-6495000D02*
X10712500Y-6535000D01*
X10712500Y-6495000D02*
X10672500Y-6535000D01*
X10675000Y-11075000D02*
X10715000Y-11115000D01*
X10715000Y-11075000D02*
X10675000Y-11115000D01*
X10680000Y-5199950D02*
X10720000Y-5239950D01*
X10720000Y-5199950D02*
X10680000Y-5239950D01*
X10690000Y-7425000D02*
X10730000Y-7465000D01*
X10730000Y-7425000D02*
X10690000Y-7465000D01*
X10690000Y-12235000D02*
X10730000Y-12275000D01*
X10730000Y-12235000D02*
X10690000Y-12275000D01*
X10699950Y-12760000D02*
X10739950Y-12800000D01*
X10739950Y-12760000D02*
X10699950Y-12800000D01*
X10700050Y-11975000D02*
X10740050Y-12015000D01*
X10740050Y-11975000D02*
X10700050Y-12015000D01*
X10700050Y-12334444D02*
X10740050Y-12374444D01*
X10740050Y-12334444D02*
X10700050Y-12374444D01*
X10700050Y-12434394D02*
X10740050Y-12474394D01*
X10740050Y-12434394D02*
X10700050Y-12474394D01*
X10700050Y-12534344D02*
X10740050Y-12574344D01*
X10740050Y-12534344D02*
X10700050Y-12574344D01*
X10708206Y-10333007D02*
X10748206Y-10373007D01*
X10748206Y-10333007D02*
X10708206Y-10373007D01*
X10725000Y-10185000D02*
X10765000Y-10225000D01*
X10765000Y-10185000D02*
X10725000Y-10225000D01*
X10725000Y-13485050D02*
X10765000Y-13525050D01*
X10765000Y-13485050D02*
X10725000Y-13525050D01*
X10729913Y-10539913D02*
X10769913Y-10579913D01*
X10769913Y-10539913D02*
X10729913Y-10579913D01*
X10730050Y-9259050D02*
X10770050Y-9299050D01*
X10770050Y-9259050D02*
X10730050Y-9299050D01*
X10735000Y-7775050D02*
X10775000Y-7815050D01*
X10775000Y-7775050D02*
X10735000Y-7815050D01*
X10739456Y-12948664D02*
X10779456Y-12988664D01*
X10779456Y-12948664D02*
X10739456Y-12988664D01*
X10740000Y-11600000D02*
X10780000Y-11640000D01*
X10780000Y-11600000D02*
X10740000Y-11640000D01*
X10767529Y-8954454D02*
X10807529Y-8994454D01*
X10807529Y-8954454D02*
X10767529Y-8994454D01*
X10780000Y-8220050D02*
X10820000Y-8260050D01*
X10820000Y-8220050D02*
X10780000Y-8260050D01*
X10780050Y-13040000D02*
X10820050Y-13080000D01*
X10820050Y-13040000D02*
X10780050Y-13080000D01*
X10790000Y-13277667D02*
X10830000Y-13317667D01*
X10830000Y-13277667D02*
X10790000Y-13317667D01*
X10805000Y-10790000D02*
X10845000Y-10830000D01*
X10845000Y-10790000D02*
X10805000Y-10830000D01*
X10811538Y-8858462D02*
X10851538Y-8898462D01*
X10851538Y-8858462D02*
X10811538Y-8898462D01*
X10820000Y-11690000D02*
X10860000Y-11730000D01*
X10860000Y-11690000D02*
X10820000Y-11730000D01*
X10840000Y-9780050D02*
X10880000Y-9820050D01*
X10880000Y-9780050D02*
X10840000Y-9820050D01*
X10845000Y-6665000D02*
X10885000Y-6705000D01*
X10885000Y-6665000D02*
X10845000Y-6705000D01*
X10845000Y-10670000D02*
X10885000Y-10710000D01*
X10885000Y-10670000D02*
X10845000Y-10710000D01*
X10850000Y-10080000D02*
X10890000Y-10120000D01*
X10890000Y-10080000D02*
X10850000Y-10120000D01*
X10865000Y-6425000D02*
X10905000Y-6465000D01*
X10905000Y-6425000D02*
X10865000Y-6465000D01*
X10880000Y-8320000D02*
X10920000Y-8360000D01*
X10920000Y-8320000D02*
X10880000Y-8360000D01*
X10881977Y-8720871D02*
X10921977Y-8760871D01*
X10921977Y-8720871D02*
X10881977Y-8760871D01*
X10904979Y-6270471D02*
X10944979Y-6310471D01*
X10944979Y-6270471D02*
X10904979Y-6310471D01*
X10910000Y-10255000D02*
X10950000Y-10295000D01*
X10950000Y-10255000D02*
X10910000Y-10295000D01*
X10910000Y-11085000D02*
X10950000Y-11125000D01*
X10950000Y-11085000D02*
X10910000Y-11125000D01*
X10919950Y-13670000D02*
X10959950Y-13710000D01*
X10959950Y-13670000D02*
X10919950Y-13710000D01*
X10920050Y-6130000D02*
X10960050Y-6170000D01*
X10960050Y-6130000D02*
X10920050Y-6170000D01*
X10930000Y-10580000D02*
X10970000Y-10620000D01*
X10970000Y-10580000D02*
X10930000Y-10620000D01*
X10937550Y-5020000D02*
X10977550Y-5060000D01*
X10977550Y-5020000D02*
X10937550Y-5060000D01*
X10955538Y-8395538D02*
X10995538Y-8435538D01*
X10995538Y-8395538D02*
X10955538Y-8435538D01*
X10960680Y-6353462D02*
X11000680Y-6393462D01*
X11000680Y-6353462D02*
X10960680Y-6393462D01*
X10974950Y-12940050D02*
X11014950Y-12980050D01*
X11014950Y-12940050D02*
X10974950Y-12980050D01*
X10974950Y-13040000D02*
X11014950Y-13080000D01*
X11014950Y-13040000D02*
X10974950Y-13080000D01*
X10975000Y-11930000D02*
X11015000Y-11970000D01*
X11015000Y-11930000D02*
X10975000Y-11970000D01*
X10978827Y-8696173D02*
X11018827Y-8736173D01*
X11018827Y-8696173D02*
X10978827Y-8736173D01*
X10995959Y-13137717D02*
X11035959Y-13177717D01*
X11035959Y-13137717D02*
X10995959Y-13177717D01*
X11000000Y-9890000D02*
X11040000Y-9930000D01*
X11040000Y-9890000D02*
X11000000Y-9930000D01*
X11000000Y-13285050D02*
X11040000Y-13325050D01*
X11040000Y-13285050D02*
X11000000Y-13325050D01*
X11027500Y-9380000D02*
X11067500Y-9420000D01*
X11067500Y-9380000D02*
X11027500Y-9420000D01*
X11040000Y-7862500D02*
X11080000Y-7902500D01*
X11080000Y-7862500D02*
X11040000Y-7902500D01*
X11040000Y-8530000D02*
X11080000Y-8570000D01*
X11080000Y-8530000D02*
X11040000Y-8570000D01*
X11047500Y-7635000D02*
X11087500Y-7675000D01*
X11087500Y-7635000D02*
X11047500Y-7675000D01*
X11055000Y-12060000D02*
X11095000Y-12100000D01*
X11095000Y-12060000D02*
X11055000Y-12100000D01*
X11060000Y-8430000D02*
X11100000Y-8470000D01*
X11100000Y-8430000D02*
X11060000Y-8470000D01*
X11085246Y-13182639D02*
X11125246Y-13222639D01*
X11125246Y-13182639D02*
X11085246Y-13222639D01*
X11100000Y-6499950D02*
X11140000Y-6539950D01*
X11140000Y-6499950D02*
X11100000Y-6539950D01*
X11130050Y-12230000D02*
X11170050Y-12270000D01*
X11170050Y-12230000D02*
X11130050Y-12270000D01*
X11135000Y-5715000D02*
X11175000Y-5755000D01*
X11175000Y-5715000D02*
X11135000Y-5755000D01*
X11140000Y-9055000D02*
X11180000Y-9095000D01*
X11180000Y-9055000D02*
X11140000Y-9095000D01*
X11145000Y-6900000D02*
X11185000Y-6940000D01*
X11185000Y-6900000D02*
X11145000Y-6940000D01*
X11150000Y-8540000D02*
X11190000Y-8580000D01*
X11190000Y-8540000D02*
X11150000Y-8580000D01*
X11153792Y-12327090D02*
X11193791Y-12367090D01*
X11193791Y-12327090D02*
X11153792Y-12367090D01*
X11165763Y-12426320D02*
X11205762Y-12466320D01*
X11205762Y-12426320D02*
X11165763Y-12466320D01*
X11225050Y-6750000D02*
X11265050Y-6790000D01*
X11265050Y-6750000D02*
X11225050Y-6790000D01*
X11225050Y-6990000D02*
X11265050Y-7030000D01*
X11265050Y-6990000D02*
X11225050Y-7030000D01*
X11252500Y-7490000D02*
X11292500Y-7530000D01*
X11292500Y-7490000D02*
X11252500Y-7530000D01*
X11263817Y-12445694D02*
X11303817Y-12485694D01*
X11303817Y-12445694D02*
X11263817Y-12485694D01*
X11266040Y-8536040D02*
X11306040Y-8576040D01*
X11306040Y-8536040D02*
X11266040Y-8576040D01*
X11280000Y-6265000D02*
X11320000Y-6305000D01*
X11320000Y-6265000D02*
X11280000Y-6305000D01*
X11287500Y-7867500D02*
X11327500Y-7907500D01*
X11327500Y-7867500D02*
X11287500Y-7907500D01*
X11300000Y-12560000D02*
X11340000Y-12600000D01*
X11340000Y-12560000D02*
X11300000Y-12600000D01*
X11377450Y-5067500D02*
X11417450Y-5107500D01*
X11417450Y-5067500D02*
X11377450Y-5107500D01*
X11397870Y-12616642D02*
X11437870Y-12656642D01*
X11437870Y-12616642D02*
X11397870Y-12656642D01*
X11405000Y-5644950D02*
X11445000Y-5684950D01*
X11445000Y-5644950D02*
X11405000Y-5684950D01*
X11415000Y-7712500D02*
X11455000Y-7752500D01*
X11455000Y-7712500D02*
X11415000Y-7752500D01*
X11440000Y-5489950D02*
X11480000Y-5529950D01*
X11480000Y-5489950D02*
X11440000Y-5529950D01*
X11469950Y-9035000D02*
X11509950Y-9075000D01*
X11509950Y-9035000D02*
X11469950Y-9075000D01*
X11469950Y-9205000D02*
X11509950Y-9245000D01*
X11509950Y-9205000D02*
X11469950Y-9245000D01*
X11469950Y-9410000D02*
X11509950Y-9450000D01*
X11509950Y-9410000D02*
X11469950Y-9450000D01*
X11475000Y-6410000D02*
X11515000Y-6450000D01*
X11515000Y-6410000D02*
X11475000Y-6450000D01*
X11508667Y-8549950D02*
X11548667Y-8589950D01*
X11548667Y-8549950D02*
X11508667Y-8589950D01*
X11509950Y-10310000D02*
X11549950Y-10350000D01*
X11549950Y-10310000D02*
X11509950Y-10350000D01*
X11515000Y-5560000D02*
X11555000Y-5600000D01*
X11555000Y-5560000D02*
X11515000Y-5600000D01*
X11519950Y-12530000D02*
X11559950Y-12570000D01*
X11559950Y-12530000D02*
X11519950Y-12570000D01*
X11520000Y-6890000D02*
X11560000Y-6930000D01*
X11560000Y-6890000D02*
X11520000Y-6930000D01*
X11521569Y-11636569D02*
X11561569Y-11676569D01*
X11561569Y-11636569D02*
X11521569Y-11676569D01*
X11537438Y-6488048D02*
X11577438Y-6528048D01*
X11577438Y-6488048D02*
X11537438Y-6528048D01*
X11540000Y-12650000D02*
X11580000Y-12690000D01*
X11580000Y-12650000D02*
X11540000Y-12690000D01*
X11550000Y-10995000D02*
X11590000Y-11035000D01*
X11590000Y-10995000D02*
X11550000Y-11035000D01*
X11565000Y-6290000D02*
X11605000Y-6330000D01*
X11605000Y-6290000D02*
X11565000Y-6330000D01*
X11569950Y-8135000D02*
X11609950Y-8175000D01*
X11609950Y-8135000D02*
X11569950Y-8175000D01*
X11576937Y-11436987D02*
X11616937Y-11476987D01*
X11616937Y-11436987D02*
X11576937Y-11476987D01*
X11590000Y-8480000D02*
X11630000Y-8520000D01*
X11630000Y-8480000D02*
X11590000Y-8520000D01*
X11615000Y-7125000D02*
X11655000Y-7165000D01*
X11655000Y-7125000D02*
X11615000Y-7165000D01*
X11615000Y-9680000D02*
X11655000Y-9720000D01*
X11655000Y-9680000D02*
X11615000Y-9720000D01*
X11620000Y-6950000D02*
X11660000Y-6990000D01*
X11660000Y-6950000D02*
X11620000Y-6990000D01*
X11670069Y-11541774D02*
X11710069Y-11581774D01*
X11710069Y-11541774D02*
X11670069Y-11581774D01*
X11680000Y-8315000D02*
X11720000Y-8355000D01*
X11720000Y-8315000D02*
X11680000Y-8355000D01*
X11685000Y-11337450D02*
X11725000Y-11377450D01*
X11725000Y-11337450D02*
X11685000Y-11377450D01*
X11730000Y-7370000D02*
X11770000Y-7410000D01*
X11770000Y-7370000D02*
X11730000Y-7410000D01*
X11732500Y-5545000D02*
X11772500Y-5585000D01*
X11772500Y-5545000D02*
X11732500Y-5585000D01*
X11735000Y-7990000D02*
X11775000Y-8030000D01*
X11775000Y-7990000D02*
X11735000Y-8030000D01*
X11737500Y-5985000D02*
X11777500Y-6025000D01*
X11777500Y-5985000D02*
X11737500Y-6025000D01*
X11750000Y-10880000D02*
X11790000Y-10920000D01*
X11790000Y-10880000D02*
X11750000Y-10920000D01*
X11755000Y-10485000D02*
X11795000Y-10525000D01*
X11795000Y-10485000D02*
X11755000Y-10525000D01*
X11762550Y-5449674D02*
X11802550Y-5489674D01*
X11802550Y-5449674D02*
X11762550Y-5489674D01*
X11765000Y-12230000D02*
X11805000Y-12270000D01*
X11805000Y-12230000D02*
X11765000Y-12270000D01*
X11775000Y-7564950D02*
X11815000Y-7604950D01*
X11815000Y-7564950D02*
X11775000Y-7604950D01*
X11775000Y-12480000D02*
X11815000Y-12520000D01*
X11815000Y-12480000D02*
X11775000Y-12520000D01*
X11785000Y-6560000D02*
X11825000Y-6600000D01*
X11825000Y-6560000D02*
X11785000Y-6600000D01*
X11787500Y-12097500D02*
X11827500Y-12137500D01*
X11827500Y-12097500D02*
X11787500Y-12137500D01*
X11796609Y-9202315D02*
X11836609Y-9242315D01*
X11836609Y-9202315D02*
X11796609Y-9242315D01*
X11841962Y-7383038D02*
X11881962Y-7423038D01*
X11881962Y-7383038D02*
X11841962Y-7423038D01*
X11844950Y-7491731D02*
X11884950Y-7531731D01*
X11884950Y-7491731D02*
X11844950Y-7531731D01*
X11850000Y-11145000D02*
X11890000Y-11185000D01*
X11890000Y-11145000D02*
X11850000Y-11185000D01*
X11865000Y-7925000D02*
X11905000Y-7965000D01*
X11905000Y-7925000D02*
X11865000Y-7965000D01*
X11915000Y-4815000D02*
X11955000Y-4855000D01*
X11955000Y-4815000D02*
X11915000Y-4855000D01*
X11915000Y-10425000D02*
X11955000Y-10465000D01*
X11955000Y-10425000D02*
X11915000Y-10465000D01*
X11920000Y-9700050D02*
X11960000Y-9740050D01*
X11960000Y-9700050D02*
X11920000Y-9740050D01*
X11920000Y-10610000D02*
X11960000Y-10650000D01*
X11960000Y-10610000D02*
X11920000Y-10650000D01*
X11925000Y-7730000D02*
X11965000Y-7770000D01*
X11965000Y-7730000D02*
X11925000Y-7770000D01*
X11940000Y-9070000D02*
X11980000Y-9110000D01*
X11980000Y-9070000D02*
X11940000Y-9110000D01*
X11980000Y-4205000D02*
X12020000Y-4245000D01*
X12020000Y-4205000D02*
X11980000Y-4245000D01*
X11985000Y-12575000D02*
X12025000Y-12615000D01*
X12025000Y-12575000D02*
X11985000Y-12615000D01*
X11997500Y-9387500D02*
X12037500Y-9427500D01*
X12037500Y-9387500D02*
X11997500Y-9427500D01*
X12014950Y-5645000D02*
X12054950Y-5685000D01*
X12054950Y-5645000D02*
X12014950Y-5685000D01*
X12017720Y-13177720D02*
X12057720Y-13217720D01*
X12057720Y-13177720D02*
X12017720Y-13217720D01*
X12020478Y-8942275D02*
X12060478Y-8982275D01*
X12060478Y-8942275D02*
X12020478Y-8982275D01*
X12050000Y-4880000D02*
X12090000Y-4920000D01*
X12090000Y-4880000D02*
X12050000Y-4920000D01*
X12055384Y-5815050D02*
X12095384Y-5855050D01*
X12095384Y-5815050D02*
X12055384Y-5855050D01*
X12065000Y-8760000D02*
X12105000Y-8800000D01*
X12105000Y-8760000D02*
X12065000Y-8800000D01*
X12070000Y-10200050D02*
X12110000Y-10240050D01*
X12110000Y-10200050D02*
X12070000Y-10240050D01*
X12074288Y-5379288D02*
X12114288Y-5419288D01*
X12114288Y-5379288D02*
X12074288Y-5419288D01*
X12094950Y-6495000D02*
X12134950Y-6535000D01*
X12134950Y-6495000D02*
X12094950Y-6535000D01*
X12096200Y-6142500D02*
X12136200Y-6182500D01*
X12136200Y-6142500D02*
X12096200Y-6182500D01*
X12169345Y-10211033D02*
X12209345Y-10251033D01*
X12209345Y-10211033D02*
X12169345Y-10251033D01*
X12193038Y-7264950D02*
X12233038Y-7304950D01*
X12233038Y-7264950D02*
X12193038Y-7304950D01*
X12200000Y-4860000D02*
X12240000Y-4900000D01*
X12240000Y-4860000D02*
X12200000Y-4900000D01*
X12209950Y-6770000D02*
X12249950Y-6810000D01*
X12249950Y-6770000D02*
X12209950Y-6810000D01*
X12215000Y-10580000D02*
X12255000Y-10620000D01*
X12255000Y-10580000D02*
X12215000Y-10620000D01*
X12255000Y-10750050D02*
X12295000Y-10790050D01*
X12295000Y-10750050D02*
X12255000Y-10790050D01*
X12260000Y-7810000D02*
X12300000Y-7850000D01*
X12300000Y-7810000D02*
X12260000Y-7850000D01*
X12280000Y-5427550D02*
X12320000Y-5467550D01*
X12320000Y-5427550D02*
X12280000Y-5467550D01*
X12280000Y-10199950D02*
X12320000Y-10239950D01*
X12320000Y-10199950D02*
X12280000Y-10239950D01*
X12290000Y-5055000D02*
X12330000Y-5095000D01*
X12330000Y-5055000D02*
X12290000Y-5095000D01*
X12290000Y-7920000D02*
X12330000Y-7960000D01*
X12330000Y-7920000D02*
X12290000Y-7960000D01*
X12290000Y-11025000D02*
X12330000Y-11065000D01*
X12330000Y-11025000D02*
X12290000Y-11065000D01*
X12315000Y-10440000D02*
X12355000Y-10480000D01*
X12355000Y-10440000D02*
X12315000Y-10480000D01*
X12330000Y-11575000D02*
X12370000Y-11615000D01*
X12370000Y-11575000D02*
X12330000Y-11615000D01*
X12365000Y-8599950D02*
X12405000Y-8639950D01*
X12405000Y-8599950D02*
X12365000Y-8639950D01*
X12372500Y-7032500D02*
X12412500Y-7072500D01*
X12412500Y-7032500D02*
X12372500Y-7072500D01*
X12378346Y-10309065D02*
X12418346Y-10349065D01*
X12418346Y-10309065D02*
X12378346Y-10349065D01*
X12400000Y-4920000D02*
X12440000Y-4960000D01*
X12440000Y-4920000D02*
X12400000Y-4960000D01*
X12405000Y-5365000D02*
X12445000Y-5405000D01*
X12445000Y-5365000D02*
X12405000Y-5405000D01*
X12407500Y-6010050D02*
X12447500Y-6050050D01*
X12447500Y-6010050D02*
X12407500Y-6050050D01*
X12437500Y-12442500D02*
X12477500Y-12482500D01*
X12477500Y-12442500D02*
X12437500Y-12482500D01*
X12450000Y-5515000D02*
X12490000Y-5555000D01*
X12490000Y-5515000D02*
X12450000Y-5555000D01*
X12485000Y-10345000D02*
X12525000Y-10385000D01*
X12525000Y-10345000D02*
X12485000Y-10385000D01*
X12507450Y-6675050D02*
X12547450Y-6715050D01*
X12547450Y-6675050D02*
X12507450Y-6715050D01*
X12575000Y-9494950D02*
X12615000Y-9534950D01*
X12615000Y-9494950D02*
X12575000Y-9534950D01*
X12580050Y-7100000D02*
X12620050Y-7140000D01*
X12620050Y-7100000D02*
X12580050Y-7140000D01*
X12580050Y-7655000D02*
X12620050Y-7695000D01*
X12620050Y-7655000D02*
X12580050Y-7695000D01*
X12645000Y-5947500D02*
X12685000Y-5987500D01*
X12685000Y-5947500D02*
X12645000Y-5987500D01*
X12650000Y-6560000D02*
X12690000Y-6600000D01*
X12690000Y-6560000D02*
X12650000Y-6600000D01*
X12659950Y-6820050D02*
X12699950Y-6860050D01*
X12699950Y-6820050D02*
X12659950Y-6860050D01*
X12690000Y-8740000D02*
X12730000Y-8780000D01*
X12730000Y-8740000D02*
X12690000Y-8780000D01*
X12699375Y-10734375D02*
X12739375Y-10774375D01*
X12739375Y-10734375D02*
X12699375Y-10774375D01*
X12720000Y-9215050D02*
X12760000Y-9255050D01*
X12760000Y-9215050D02*
X12720000Y-9255050D01*
X12775000Y-10240000D02*
X12815000Y-10280000D01*
X12815000Y-10240000D02*
X12775000Y-10280000D01*
X12795000Y-6685000D02*
X12835000Y-6725000D01*
X12835000Y-6685000D02*
X12795000Y-6725000D01*
X12820000Y-4175000D02*
X12860000Y-4215000D01*
X12860000Y-4175000D02*
X12820000Y-4215000D01*
X12830000Y-5475000D02*
X12870000Y-5515000D01*
X12870000Y-5475000D02*
X12830000Y-5515000D01*
X12840000Y-5045000D02*
X12880000Y-5085000D01*
X12880000Y-5045000D02*
X12840000Y-5085000D01*
X12895306Y-7125051D02*
X12935306Y-7165051D01*
X12935306Y-7125051D02*
X12895306Y-7165051D01*
X12950000Y-8110000D02*
X12990000Y-8150000D01*
X12990000Y-8110000D02*
X12950000Y-8150000D01*
X12950000Y-9019950D02*
X12990000Y-9059950D01*
X12990000Y-9019950D02*
X12950000Y-9059950D01*
X12950000Y-9600000D02*
X12990000Y-9640000D01*
X12990000Y-9600000D02*
X12950000Y-9640000D01*
X12975000Y-4150050D02*
X13015000Y-4190050D01*
X13015000Y-4150050D02*
X12975000Y-4190050D01*
X12975000Y-8705000D02*
X13015000Y-8745000D01*
X13015000Y-8705000D02*
X12975000Y-8745000D01*
X12980000Y-8870000D02*
X13020000Y-8910000D01*
X13020000Y-8870000D02*
X12980000Y-8910000D01*
X12980000Y-11890000D02*
X13020000Y-11930000D01*
X13020000Y-11890000D02*
X12980000Y-11930000D01*
X12985000Y-10000000D02*
X13025000Y-10040000D01*
X13025000Y-10000000D02*
X12985000Y-10040000D01*
X13010000Y-5210000D02*
X13050000Y-5250000D01*
X13050000Y-5210000D02*
X13010000Y-5250000D01*
X13014628Y-12035860D02*
X13054628Y-12075860D01*
X13054628Y-12035860D02*
X13014628Y-12075860D01*
X13040114Y-4877695D02*
X13080114Y-4917695D01*
X13080114Y-4877695D02*
X13040114Y-4917695D01*
X13075000Y-11360000D02*
X13115000Y-11400000D01*
X13115000Y-11360000D02*
X13075000Y-11400000D01*
X13095000Y-12875000D02*
X13135000Y-12915000D01*
X13135000Y-12875000D02*
X13095000Y-12915000D01*
X13137500Y-6705000D02*
X13177500Y-6745000D01*
X13177500Y-6705000D02*
X13137500Y-6745000D01*
X13165000Y-7085000D02*
X13205000Y-7125000D01*
X13205000Y-7085000D02*
X13165000Y-7125000D01*
X13183552Y-11986448D02*
X13223552Y-12026448D01*
X13223552Y-11986448D02*
X13183552Y-12026448D01*
X13235000Y-4825000D02*
X13275000Y-4865000D01*
X13275000Y-4825000D02*
X13235000Y-4865000D01*
X13240000Y-9180050D02*
X13280000Y-9220050D01*
X13280000Y-9180050D02*
X13240000Y-9220050D01*
X13255000Y-6047500D02*
X13295000Y-6087500D01*
X13295000Y-6047500D02*
X13255000Y-6087500D01*
X13265000Y-7700000D02*
X13305000Y-7740000D01*
X13305000Y-7700000D02*
X13265000Y-7740000D01*
X13285000Y-12585000D02*
X13325000Y-12625000D01*
X13325000Y-12585000D02*
X13285000Y-12625000D01*
X13292500Y-7542500D02*
X13332500Y-7582500D01*
X13332500Y-7542500D02*
X13292500Y-7582500D01*
X13335000Y-6420000D02*
X13375000Y-6460000D01*
X13375000Y-6420000D02*
X13335000Y-6460000D01*
X13360000Y-8380000D02*
X13400000Y-8420000D01*
X13400000Y-8380000D02*
X13360000Y-8420000D01*
X13385000Y-6290000D02*
X13425000Y-6330000D01*
X13425000Y-6290000D02*
X13385000Y-6330000D01*
X13385000Y-6745000D02*
X13425000Y-6785000D01*
X13425000Y-6745000D02*
X13385000Y-6785000D01*
X13418750Y-13058750D02*
X13458750Y-13098750D01*
X13458750Y-13058750D02*
X13418750Y-13098750D01*
X13425000Y-11950000D02*
X13465000Y-11990000D01*
X13465000Y-11950000D02*
X13425000Y-11990000D01*
X13510000Y-6355000D02*
X13550000Y-6395000D01*
X13550000Y-6355000D02*
X13510000Y-6395000D01*
X13520000Y-7940000D02*
X13560000Y-7980000D01*
X13560000Y-7940000D02*
X13520000Y-7980000D01*
X13525000Y-11615000D02*
X13565000Y-11655000D01*
X13565000Y-11615000D02*
X13525000Y-11655000D01*
X13554462Y-7809462D02*
X13594462Y-7849462D01*
X13594462Y-7809462D02*
X13554462Y-7849462D01*
X13625000Y-5902500D02*
X13665000Y-5942500D01*
X13665000Y-5902500D02*
X13625000Y-5942500D01*
X13632500Y-5567500D02*
X13672500Y-5607500D01*
X13672500Y-5567500D02*
X13632500Y-5607500D01*
X13705000Y-10940000D02*
X13745000Y-10980000D01*
X13745000Y-10940000D02*
X13705000Y-10980000D01*
X13730000Y-6035000D02*
X13770000Y-6075000D01*
X13770000Y-6035000D02*
X13730000Y-6075000D01*
X13780000Y-5820000D02*
X13820000Y-5860000D01*
X13820000Y-5820000D02*
X13780000Y-5860000D01*
X13785000Y-7940000D02*
X13825000Y-7980000D01*
X13825000Y-7940000D02*
X13785000Y-7980000D01*
X13790000Y-11719550D02*
X13830000Y-11759550D01*
X13830000Y-11719550D02*
X13790000Y-11759550D01*
X13825000Y-6215000D02*
X13865000Y-6255000D01*
X13865000Y-6215000D02*
X13825000Y-6255000D01*
X13830000Y-13620000D02*
X13870000Y-13660000D01*
X13870000Y-13620000D02*
X13830000Y-13660000D01*
X13947500Y-6469950D02*
X13987500Y-6509950D01*
X13987500Y-6469950D02*
X13947500Y-6509950D01*
X13989963Y-6277477D02*
X14029963Y-6317477D01*
X14029963Y-6277477D02*
X13989963Y-6317477D01*
X14010000Y-7840000D02*
X14050000Y-7880000D01*
X14050000Y-7840000D02*
X14010000Y-7880000D01*
X14027500Y-5130000D02*
X14067500Y-5170000D01*
X14067500Y-5130000D02*
X14027500Y-5170000D01*
X14055000Y-5347500D02*
X14095000Y-5387500D01*
X14095000Y-5347500D02*
X14055000Y-5387500D01*
X14075000Y-6330000D02*
X14115000Y-6370000D01*
X14115000Y-6330000D02*
X14075000Y-6370000D01*
X14165000Y-7500000D02*
X14205000Y-7540000D01*
X14205000Y-7500000D02*
X14165000Y-7540000D01*
X14305000Y-7055000D02*
X14345000Y-7095000D01*
X14345000Y-7055000D02*
X14305000Y-7095000D01*
X14330000Y-8865000D02*
X14370000Y-8905000D01*
X14370000Y-8865000D02*
X14330000Y-8905000D01*
X14365000Y-4345000D02*
X14405000Y-4385000D01*
X14405000Y-4345000D02*
X14365000Y-4385000D01*
X14370000Y-9210000D02*
X14410000Y-9250000D01*
X14410000Y-9210000D02*
X14370000Y-9250000D01*
X14405000Y-4650000D02*
X14445000Y-4690000D01*
X14445000Y-4650000D02*
X14405000Y-4690000D01*
X14730000Y-12105000D02*
X14770000Y-12145000D01*
X14770000Y-12105000D02*
X14730000Y-12145000D01*
X14865000Y-4290000D02*
X14905000Y-4330000D01*
X14905000Y-4290000D02*
X14865000Y-4330000D01*
X14905000Y-4945050D02*
X14945000Y-4985050D01*
X14945000Y-4945050D02*
X14905000Y-4985050D01*
X15040000Y-11890000D02*
X15080000Y-11930000D01*
X15080000Y-11890000D02*
X15040000Y-11930000D01*
X15195000Y-10140000D02*
X15235000Y-10180000D01*
X15235000Y-10140000D02*
X15195000Y-10180000D01*
X15345000Y-8560000D02*
X15385000Y-8600000D01*
X15385000Y-8560000D02*
X15345000Y-8600000D01*
X15419000Y-11011000D02*
X15459000Y-11051000D01*
X15459000Y-11011000D02*
X15419000Y-11051000D01*
X15475538Y-10380538D02*
X15515538Y-10420538D01*
X15515538Y-10380538D02*
X15475538Y-10420538D01*
X15695000Y-5335000D02*
X15735000Y-5375000D01*
X15735000Y-5335000D02*
X15695000Y-5375000D01*
X15790000Y-8570000D02*
X15830000Y-8610000D01*
X15830000Y-8570000D02*
X15790000Y-8610000D01*
X15790000Y-10135000D02*
X15830000Y-10175000D01*
X15830000Y-10135000D02*
X15790000Y-10175000D01*
D13*
X14822500Y-5145000D02*
G75*
G03*
X14822500Y-5145000I-40000J0D01*
G01*
D11*
X14807500Y-5105000D02*
X14757500Y-5105000D01*
X14807500Y-5185000D02*
X14757500Y-5185000D01*
X14757500Y-5105000D02*
G75*
G03*
X14757500Y-5185000I0J-40000D01*
G01*
X14807500Y-5185000D02*
G75*
G03*
X14807500Y-5105000I0J40000D01*
G01*
D13*
X14822500Y-5605000D02*
G75*
G03*
X14822500Y-5605000I-40000J0D01*
G01*
D11*
X14807500Y-5565000D02*
X14757500Y-5565000D01*
X14807500Y-5645000D02*
X14757500Y-5645000D01*
X14757500Y-5565000D02*
G75*
G03*
X14757500Y-5645000I0J-40000D01*
G01*
X14807500Y-5645000D02*
G75*
G03*
X14807500Y-5565000I0J40000D01*
G01*
D14*
X15235000Y-11323000D02*
X15235000Y-11412000D01*
X15190500Y-11367500D02*
X15279500Y-11367500D01*
X15235000Y-12334000D02*
X15235000Y-12423000D01*
X15190500Y-12378500D02*
X15279500Y-12378500D01*
X15387000Y-11577000D02*
X15387000Y-11666000D01*
X15342500Y-11621500D02*
X15431500Y-11621500D01*
X15387000Y-12588000D02*
X15387000Y-12677000D01*
X15342500Y-12632500D02*
X15431500Y-12632500D01*
D15*
X14040820Y-11587320D02*
X14040820Y-11523680D01*
X13977180Y-11523680D01*
X13977180Y-11587320D01*
X14040820Y-11587320D01*
X14040820Y-11841320D02*
X14040820Y-11777680D01*
X13977180Y-11777680D01*
X13977180Y-11841320D01*
X14040820Y-11841320D01*
X14040820Y-12095320D02*
X14040820Y-12031680D01*
X13977180Y-12031680D01*
X13977180Y-12095320D01*
X14040820Y-12095320D01*
X14040820Y-12349320D02*
X14040820Y-12285680D01*
X13977180Y-12285680D01*
X13977180Y-12349320D01*
X14040820Y-12349320D01*
X14294820Y-11714320D02*
X14294820Y-11650680D01*
X14231180Y-11650680D01*
X14231180Y-11714320D01*
X14294820Y-11714320D01*
X14294820Y-11968320D02*
X14294820Y-11904680D01*
X14231180Y-11904680D01*
X14231180Y-11968320D01*
X14294820Y-11968320D01*
X14294820Y-12222320D02*
X14294820Y-12158680D01*
X14231180Y-12158680D01*
X14231180Y-12222320D01*
X14294820Y-12222320D01*
X14294820Y-12476320D02*
X14294820Y-12412680D01*
X14231180Y-12412680D01*
X14231180Y-12476320D01*
X14294820Y-12476320D01*
X14925570Y-6391820D02*
X14925570Y-6328180D01*
X14861930Y-6328180D01*
X14861930Y-6391820D01*
X14925570Y-6391820D01*
X14925570Y-7071820D02*
X14925570Y-7008180D01*
X14861930Y-7008180D01*
X14861930Y-7071820D01*
X14925570Y-7071820D01*
X15175570Y-6391820D02*
X15175570Y-6328180D01*
X15111930Y-6328180D01*
X15111930Y-6391820D01*
X15175570Y-6391820D01*
X15175570Y-7071820D02*
X15175570Y-7008180D01*
X15111930Y-7008180D01*
X15111930Y-7071820D01*
X15175570Y-7071820D01*
D10*
X6712500Y-7100000D02*
X6762500Y-7050000D01*
X6712500Y-7000000D01*
X6662500Y-7050000D01*
X6712500Y-7100000D01*
X6966500Y-7100000D02*
X7016500Y-7050000D01*
X6966500Y-7000000D01*
X6916500Y-7050000D01*
X6966500Y-7100000D01*
X7600000Y-6740000D02*
X7650000Y-6690000D01*
X7600000Y-6640000D01*
X7550000Y-6690000D01*
X7600000Y-6740000D01*
X7622500Y-10830000D02*
X7672500Y-10780000D01*
X7622500Y-10730000D01*
X7572500Y-10780000D01*
X7622500Y-10830000D01*
X7876500Y-10830000D02*
X7926500Y-10780000D01*
X7876500Y-10730000D01*
X7826500Y-10780000D01*
X7876500Y-10830000D01*
X11360000Y-4425000D02*
X11410000Y-4375000D01*
X11360000Y-4325000D01*
X11310000Y-4375000D01*
X11360000Y-4425000D01*
X11360000Y-4679000D02*
X11410000Y-4629000D01*
X11360000Y-4579000D01*
X11310000Y-4629000D01*
X11360000Y-4679000D01*
X11360000Y-13425000D02*
X11410000Y-13375000D01*
X11360000Y-13325000D01*
X11310000Y-13375000D01*
X11360000Y-13425000D01*
X11360000Y-13679000D02*
X11410000Y-13629000D01*
X11360000Y-13579000D01*
X11310000Y-13629000D01*
X11360000Y-13679000D01*
X11614000Y-4425000D02*
X11664000Y-4375000D01*
X11614000Y-4325000D01*
X11564000Y-4375000D01*
X11614000Y-4425000D01*
X11614000Y-4679000D02*
X11664000Y-4629000D01*
X11614000Y-4579000D01*
X11564000Y-4629000D01*
X11614000Y-4679000D01*
X11614000Y-13425000D02*
X11664000Y-13375000D01*
X11614000Y-13325000D01*
X11564000Y-13375000D01*
X11614000Y-13425000D01*
X11614000Y-13679000D02*
X11664000Y-13629000D01*
X11614000Y-13579000D01*
X11564000Y-13629000D01*
X11614000Y-13679000D01*
X11868000Y-4425000D02*
X11918000Y-4375000D01*
X11868000Y-4325000D01*
X11818000Y-4375000D01*
X11868000Y-4425000D01*
X11868000Y-4679000D02*
X11918000Y-4629000D01*
X11868000Y-4579000D01*
X11818000Y-4629000D01*
X11868000Y-4679000D01*
X11868000Y-13425000D02*
X11918000Y-13375000D01*
X11868000Y-13325000D01*
X11818000Y-13375000D01*
X11868000Y-13425000D01*
X11868000Y-13679000D02*
X11918000Y-13629000D01*
X11868000Y-13579000D01*
X11818000Y-13629000D01*
X11868000Y-13679000D01*
X12122000Y-4425000D02*
X12172000Y-4375000D01*
X12122000Y-4325000D01*
X12072000Y-4375000D01*
X12122000Y-4425000D01*
X12122000Y-4679000D02*
X12172000Y-4629000D01*
X12122000Y-4579000D01*
X12072000Y-4629000D01*
X12122000Y-4679000D01*
X12122000Y-13425000D02*
X12172000Y-13375000D01*
X12122000Y-13325000D01*
X12072000Y-13375000D01*
X12122000Y-13425000D01*
X12122000Y-13679000D02*
X12172000Y-13629000D01*
X12122000Y-13579000D01*
X12072000Y-13629000D01*
X12122000Y-13679000D01*
X12376000Y-4425000D02*
X12426000Y-4375000D01*
X12376000Y-4325000D01*
X12326000Y-4375000D01*
X12376000Y-4425000D01*
X12376000Y-4679000D02*
X12426000Y-4629000D01*
X12376000Y-4579000D01*
X12326000Y-4629000D01*
X12376000Y-4679000D01*
X12376000Y-13425000D02*
X12426000Y-13375000D01*
X12376000Y-13325000D01*
X12326000Y-13375000D01*
X12376000Y-13425000D01*
X12376000Y-13679000D02*
X12426000Y-13629000D01*
X12376000Y-13579000D01*
X12326000Y-13629000D01*
X12376000Y-13679000D01*
X12630000Y-4425000D02*
X12680000Y-4375000D01*
X12630000Y-4325000D01*
X12580000Y-4375000D01*
X12630000Y-4425000D01*
X12630000Y-4679000D02*
X12680000Y-4629000D01*
X12630000Y-4579000D01*
X12580000Y-4629000D01*
X12630000Y-4679000D01*
X12630000Y-13425000D02*
X12680000Y-13375000D01*
X12630000Y-13325000D01*
X12580000Y-13375000D01*
X12630000Y-13425000D01*
X12630000Y-13679000D02*
X12680000Y-13629000D01*
X12630000Y-13579000D01*
X12580000Y-13629000D01*
X12630000Y-13679000D01*
X12884000Y-4425000D02*
X12934000Y-4375000D01*
X12884000Y-4325000D01*
X12834000Y-4375000D01*
X12884000Y-4425000D01*
X12884000Y-4679000D02*
X12934000Y-4629000D01*
X12884000Y-4579000D01*
X12834000Y-4629000D01*
X12884000Y-4679000D01*
X12884000Y-13425000D02*
X12934000Y-13375000D01*
X12884000Y-13325000D01*
X12834000Y-13375000D01*
X12884000Y-13425000D01*
X12884000Y-13679000D02*
X12934000Y-13629000D01*
X12884000Y-13579000D01*
X12834000Y-13629000D01*
X12884000Y-13679000D01*
X13138000Y-4425000D02*
X13188000Y-4375000D01*
X13138000Y-4325000D01*
X13088000Y-4375000D01*
X13138000Y-4425000D01*
X13138000Y-4679000D02*
X13188000Y-4629000D01*
X13138000Y-4579000D01*
X13088000Y-4629000D01*
X13138000Y-4679000D01*
X13138000Y-13425000D02*
X13188000Y-13375000D01*
X13138000Y-13325000D01*
X13088000Y-13375000D01*
X13138000Y-13425000D01*
X13138000Y-13679000D02*
X13188000Y-13629000D01*
X13138000Y-13579000D01*
X13088000Y-13629000D01*
X13138000Y-13679000D01*
X13392000Y-4425000D02*
X13442000Y-4375000D01*
X13392000Y-4325000D01*
X13342000Y-4375000D01*
X13392000Y-4425000D01*
X13392000Y-4679000D02*
X13442000Y-4629000D01*
X13392000Y-4579000D01*
X13342000Y-4629000D01*
X13392000Y-4679000D01*
X13392000Y-13425000D02*
X13442000Y-13375000D01*
X13392000Y-13325000D01*
X13342000Y-13375000D01*
X13392000Y-13425000D01*
X13392000Y-13679000D02*
X13442000Y-13629000D01*
X13392000Y-13579000D01*
X13342000Y-13629000D01*
X13392000Y-13679000D01*
X13646000Y-4425000D02*
X13696000Y-4375000D01*
X13646000Y-4325000D01*
X13596000Y-4375000D01*
X13646000Y-4425000D01*
X13646000Y-4679000D02*
X13696000Y-4629000D01*
X13646000Y-4579000D01*
X13596000Y-4629000D01*
X13646000Y-4679000D01*
X13646000Y-13425000D02*
X13696000Y-13375000D01*
X13646000Y-13325000D01*
X13596000Y-13375000D01*
X13646000Y-13425000D01*
X13646000Y-13679000D02*
X13696000Y-13629000D01*
X13646000Y-13579000D01*
X13596000Y-13629000D01*
X13646000Y-13679000D01*
X14220000Y-7910000D02*
X14270000Y-7860000D01*
X14220000Y-7810000D01*
X14170000Y-7860000D01*
X14220000Y-7910000D01*
X14530000Y-6123500D02*
X14580000Y-6073500D01*
X14530000Y-6023500D01*
X14480000Y-6073500D01*
X14530000Y-6123500D01*
X14530000Y-6377500D02*
X14580000Y-6327500D01*
X14530000Y-6277500D01*
X14480000Y-6327500D01*
X14530000Y-6377500D01*
X14603500Y-8818500D02*
X14653500Y-8768500D01*
X14603500Y-8718500D01*
X14553500Y-8768500D01*
X14603500Y-8818500D01*
X14603500Y-9047500D02*
X14653500Y-8997500D01*
X14603500Y-8947500D01*
X14553500Y-8997500D01*
X14603500Y-9047500D01*
X14603500Y-9276500D02*
X14653500Y-9226500D01*
X14603500Y-9176500D01*
X14553500Y-9226500D01*
X14603500Y-9276500D01*
X14603500Y-9505500D02*
X14653500Y-9455500D01*
X14603500Y-9405500D01*
X14553500Y-9455500D01*
X14603500Y-9505500D01*
X14603500Y-9734500D02*
X14653500Y-9684500D01*
X14603500Y-9634500D01*
X14553500Y-9684500D01*
X14603500Y-9734500D01*
X14857500Y-8704500D02*
X14907500Y-8654500D01*
X14857500Y-8604500D01*
X14807500Y-8654500D01*
X14857500Y-8704500D01*
X14857500Y-8933500D02*
X14907500Y-8883500D01*
X14857500Y-8833500D01*
X14807500Y-8883500D01*
X14857500Y-8933500D01*
X14857500Y-9162500D02*
X14907500Y-9112500D01*
X14857500Y-9062500D01*
X14807500Y-9112500D01*
X14857500Y-9162500D01*
X14857500Y-9391500D02*
X14907500Y-9341500D01*
X14857500Y-9291500D01*
X14807500Y-9341500D01*
X14857500Y-9391500D01*
X14857500Y-9620500D02*
X14907500Y-9570500D01*
X14857500Y-9520500D01*
X14807500Y-9570500D01*
X14857500Y-9620500D01*
X15111500Y-8818500D02*
X15161500Y-8768500D01*
X15111500Y-8718500D01*
X15061500Y-8768500D01*
X15111500Y-8818500D01*
X15111500Y-9047500D02*
X15161500Y-8997500D01*
X15111500Y-8947500D01*
X15061500Y-8997500D01*
X15111500Y-9047500D01*
X15111500Y-9276500D02*
X15161500Y-9226500D01*
X15111500Y-9176500D01*
X15061500Y-9226500D01*
X15111500Y-9276500D01*
X15111500Y-9505500D02*
X15161500Y-9455500D01*
X15111500Y-9405500D01*
X15061500Y-9455500D01*
X15111500Y-9505500D01*
X15111500Y-9734500D02*
X15161500Y-9684500D01*
X15111500Y-9634500D01*
X15061500Y-9684500D01*
X15111500Y-9734500D01*
X15532500Y-5150000D02*
X15582500Y-5100000D01*
X15532500Y-5050000D01*
X15482500Y-5100000D01*
X15532500Y-5150000D01*
D11*
X15547500Y-5050000D02*
X15517500Y-5050000D01*
X15547500Y-5150000D02*
X15517500Y-5150000D01*
X15517500Y-5050000D02*
G75*
G03*
X15517500Y-5150000I0J-50000D01*
G01*
X15547500Y-5150000D02*
G75*
G03*
X15547500Y-5050000I0J50000D01*
G01*
D10*
X15532500Y-5700000D02*
X15582500Y-5650000D01*
X15532500Y-5600000D01*
X15482500Y-5650000D01*
X15532500Y-5700000D01*
D11*
X15547500Y-5600000D02*
X15517500Y-5600000D01*
X15547500Y-5700000D02*
X15517500Y-5700000D01*
X15517500Y-5600000D02*
G75*
G03*
X15517500Y-5700000I0J-50000D01*
G01*
X15547500Y-5700000D02*
G75*
G03*
X15547500Y-5600000I0J50000D01*
G01*
D16*
X14512000Y-11142500D02*
X14672000Y-11302500D01*
X14672000Y-11142500D02*
X14512000Y-11302500D01*
X14672000Y-11222500D02*
G75*
G03*
X14672000Y-11222500I-80000J0D01*
G01*
X14512000Y-12697500D02*
X14672000Y-12857500D01*
X14672000Y-12697500D02*
X14512000Y-12857500D01*
X14672000Y-12777500D02*
G75*
G03*
X14672000Y-12777500I-80000J0D01*
G01*
D11*
X6120000Y-5039500D02*
X6320000Y-5239500D01*
X6320000Y-5039500D02*
X6120000Y-5239500D01*
X6220000Y-5039500D02*
X6220000Y-5239500D01*
X6120000Y-5139500D02*
X6320000Y-5139500D01*
X6120000Y-6360500D02*
X6320000Y-6560500D01*
X6320000Y-6360500D02*
X6120000Y-6560500D01*
X6220000Y-6360500D02*
X6220000Y-6560500D01*
X6120000Y-6460500D02*
X6320000Y-6460500D01*
X7073000Y-5230000D02*
X7273000Y-5430000D01*
X7273000Y-5230000D02*
X7073000Y-5430000D01*
X7173000Y-5230000D02*
X7173000Y-5430000D01*
X7073000Y-5330000D02*
X7273000Y-5330000D01*
X7073000Y-5700000D02*
X7273000Y-5900000D01*
X7273000Y-5700000D02*
X7073000Y-5900000D01*
X7173000Y-5700000D02*
X7173000Y-5900000D01*
X7073000Y-5800000D02*
X7273000Y-5800000D01*
X7073000Y-6170000D02*
X7273000Y-6370000D01*
X7273000Y-6170000D02*
X7073000Y-6370000D01*
X7173000Y-6170000D02*
X7173000Y-6370000D01*
X7073000Y-6270000D02*
X7273000Y-6270000D01*
D17*
X15333750Y-5900000D02*
X15553750Y-6120000D01*
X15553750Y-5900000D02*
X15333750Y-6120000D01*
X15521532Y-6087782D02*
X15521532Y-5932217D01*
X15365967Y-5932217D01*
X15365967Y-6087782D01*
X15521532Y-6087782D01*
X15333750Y-7280000D02*
X15553750Y-7500000D01*
X15553750Y-7280000D02*
X15333750Y-7500000D01*
X15521532Y-7467782D02*
X15521532Y-7312217D01*
X15365967Y-7312217D01*
X15365967Y-7467782D01*
X15521532Y-7467782D01*
X15413750Y-6595000D02*
X15633750Y-6815000D01*
X15633750Y-6595000D02*
X15413750Y-6815000D01*
X15601532Y-6782782D02*
X15601532Y-6627217D01*
X15445967Y-6627217D01*
X15445967Y-6782782D01*
X15601532Y-6782782D01*
D18*
X14697500Y-7790500D02*
X15017500Y-8110500D01*
X15017500Y-7790500D02*
X14697500Y-8110500D01*
X14857500Y-8110500D02*
X15017500Y-7950500D01*
X14857500Y-7790500D01*
X14697500Y-7950500D01*
X14857500Y-8110500D01*
X14697500Y-10289500D02*
X15017500Y-10609500D01*
X15017500Y-10289500D02*
X14697500Y-10609500D01*
X14857500Y-10609500D02*
X15017500Y-10449500D01*
X14857500Y-10289500D01*
X14697500Y-10449500D01*
X14857500Y-10609500D01*
D11*
X6252619Y-14315476D02*
X6252619Y-14115476D01*
X6300238Y-14115476D01*
X6328809Y-14125000D01*
X6347857Y-14144048D01*
X6357381Y-14163095D01*
X6366905Y-14201190D01*
X6366905Y-14229762D01*
X6357381Y-14267857D01*
X6347857Y-14286905D01*
X6328809Y-14305952D01*
X6300238Y-14315476D01*
X6252619Y-14315476D01*
X6452619Y-14315476D02*
X6452619Y-14182143D01*
X6452619Y-14220238D02*
X6462143Y-14201190D01*
X6471667Y-14191667D01*
X6490714Y-14182143D01*
X6509762Y-14182143D01*
X6576428Y-14315476D02*
X6576428Y-14182143D01*
X6576428Y-14115476D02*
X6566905Y-14125000D01*
X6576428Y-14134524D01*
X6585952Y-14125000D01*
X6576428Y-14115476D01*
X6576428Y-14134524D01*
X6700238Y-14315476D02*
X6681190Y-14305952D01*
X6671667Y-14286905D01*
X6671667Y-14115476D01*
X6805000Y-14315476D02*
X6785952Y-14305952D01*
X6776428Y-14286905D01*
X6776428Y-14115476D01*
X7033571Y-14315476D02*
X7033571Y-14115476D01*
X7100238Y-14258333D01*
X7166905Y-14115476D01*
X7166905Y-14315476D01*
X7347857Y-14315476D02*
X7347857Y-14210714D01*
X7338333Y-14191667D01*
X7319286Y-14182143D01*
X7281190Y-14182143D01*
X7262143Y-14191667D01*
X7347857Y-14305952D02*
X7328809Y-14315476D01*
X7281190Y-14315476D01*
X7262143Y-14305952D01*
X7252619Y-14286905D01*
X7252619Y-14267857D01*
X7262143Y-14248809D01*
X7281190Y-14239286D01*
X7328809Y-14239286D01*
X7347857Y-14229762D01*
X7443095Y-14182143D02*
X7443095Y-14382143D01*
X7443095Y-14191667D02*
X7462143Y-14182143D01*
X7500238Y-14182143D01*
X7519286Y-14191667D01*
X7528809Y-14201190D01*
X7538333Y-14220238D01*
X7538333Y-14277381D01*
X7528809Y-14296428D01*
X7519286Y-14305952D01*
X7500238Y-14315476D01*
X7462143Y-14315476D01*
X7443095Y-14305952D01*
X7624048Y-14296428D02*
X7633571Y-14305952D01*
X7624048Y-14315476D01*
X7614524Y-14305952D01*
X7624048Y-14296428D01*
X7624048Y-14315476D01*
X7624048Y-14191667D02*
X7633571Y-14201190D01*
X7624048Y-14210714D01*
X7614524Y-14201190D01*
X7624048Y-14191667D01*
X7624048Y-14210714D01*
D12*
X5955000Y-14625000D02*
X5995000Y-14665000D01*
X5995000Y-14625000D02*
X5955000Y-14665000D01*
D11*
X6290714Y-14535476D02*
X6309762Y-14535476D01*
X6328809Y-14545000D01*
X6338333Y-14554524D01*
X6347857Y-14573571D01*
X6357381Y-14611667D01*
X6357381Y-14659286D01*
X6347857Y-14697381D01*
X6338333Y-14716428D01*
X6328809Y-14725952D01*
X6309762Y-14735476D01*
X6290714Y-14735476D01*
X6271667Y-14725952D01*
X6262143Y-14716428D01*
X6252619Y-14697381D01*
X6243095Y-14659286D01*
X6243095Y-14611667D01*
X6252619Y-14573571D01*
X6262143Y-14554524D01*
X6271667Y-14545000D01*
X6290714Y-14535476D01*
X6443095Y-14716428D02*
X6452619Y-14725952D01*
X6443095Y-14735476D01*
X6433571Y-14725952D01*
X6443095Y-14716428D01*
X6443095Y-14735476D01*
X6624048Y-14602143D02*
X6624048Y-14735476D01*
X6576428Y-14525952D02*
X6528809Y-14668809D01*
X6652619Y-14668809D01*
X6766905Y-14535476D02*
X6785952Y-14535476D01*
X6805000Y-14545000D01*
X6814524Y-14554524D01*
X6824048Y-14573571D01*
X6833571Y-14611667D01*
X6833571Y-14659286D01*
X6824048Y-14697381D01*
X6814524Y-14716428D01*
X6805000Y-14725952D01*
X6785952Y-14735476D01*
X6766905Y-14735476D01*
X6747857Y-14725952D01*
X6738333Y-14716428D01*
X6728809Y-14697381D01*
X6719286Y-14659286D01*
X6719286Y-14611667D01*
X6728809Y-14573571D01*
X6738333Y-14554524D01*
X6747857Y-14545000D01*
X6766905Y-14535476D01*
X6957381Y-14535476D02*
X6976428Y-14535476D01*
X6995476Y-14545000D01*
X7005000Y-14554524D01*
X7014524Y-14573571D01*
X7024048Y-14611667D01*
X7024048Y-14659286D01*
X7014524Y-14697381D01*
X7005000Y-14716428D01*
X6995476Y-14725952D01*
X6976428Y-14735476D01*
X6957381Y-14735476D01*
X6938333Y-14725952D01*
X6928809Y-14716428D01*
X6919286Y-14697381D01*
X6909762Y-14659286D01*
X6909762Y-14611667D01*
X6919286Y-14573571D01*
X6928809Y-14554524D01*
X6938333Y-14545000D01*
X6957381Y-14535476D01*
X7109762Y-14735476D02*
X7109762Y-14602143D01*
X7109762Y-14621190D02*
X7119286Y-14611667D01*
X7138333Y-14602143D01*
X7166905Y-14602143D01*
X7185952Y-14611667D01*
X7195476Y-14630714D01*
X7195476Y-14735476D01*
X7195476Y-14630714D02*
X7205000Y-14611667D01*
X7224048Y-14602143D01*
X7252619Y-14602143D01*
X7271667Y-14611667D01*
X7281190Y-14630714D01*
X7281190Y-14735476D01*
X7376428Y-14735476D02*
X7376428Y-14602143D01*
X7376428Y-14621190D02*
X7385952Y-14611667D01*
X7405000Y-14602143D01*
X7433571Y-14602143D01*
X7452619Y-14611667D01*
X7462143Y-14630714D01*
X7462143Y-14735476D01*
X7462143Y-14630714D02*
X7471667Y-14611667D01*
X7490714Y-14602143D01*
X7519286Y-14602143D01*
X7538333Y-14611667D01*
X7547857Y-14630714D01*
X7547857Y-14735476D01*
X7938333Y-14525952D02*
X7766905Y-14783095D01*
X8195476Y-14535476D02*
X8214524Y-14535476D01*
X8233571Y-14545000D01*
X8243095Y-14554524D01*
X8252619Y-14573571D01*
X8262143Y-14611667D01*
X8262143Y-14659286D01*
X8252619Y-14697381D01*
X8243095Y-14716428D01*
X8233571Y-14725952D01*
X8214524Y-14735476D01*
X8195476Y-14735476D01*
X8176428Y-14725952D01*
X8166905Y-14716428D01*
X8157381Y-14697381D01*
X8147857Y-14659286D01*
X8147857Y-14611667D01*
X8157381Y-14573571D01*
X8166905Y-14554524D01*
X8176428Y-14545000D01*
X8195476Y-14535476D01*
X8347857Y-14716428D02*
X8357381Y-14725952D01*
X8347857Y-14735476D01*
X8338333Y-14725952D01*
X8347857Y-14716428D01*
X8347857Y-14735476D01*
X8481190Y-14535476D02*
X8500238Y-14535476D01*
X8519286Y-14545000D01*
X8528810Y-14554524D01*
X8538333Y-14573571D01*
X8547857Y-14611667D01*
X8547857Y-14659286D01*
X8538333Y-14697381D01*
X8528810Y-14716428D01*
X8519286Y-14725952D01*
X8500238Y-14735476D01*
X8481190Y-14735476D01*
X8462143Y-14725952D01*
X8452619Y-14716428D01*
X8443095Y-14697381D01*
X8433571Y-14659286D01*
X8433571Y-14611667D01*
X8443095Y-14573571D01*
X8452619Y-14554524D01*
X8462143Y-14545000D01*
X8481190Y-14535476D01*
X8738333Y-14735476D02*
X8624048Y-14735476D01*
X8681190Y-14735476D02*
X8681190Y-14535476D01*
X8662143Y-14564048D01*
X8643095Y-14583095D01*
X8624048Y-14592619D01*
X8919286Y-14535476D02*
X8824048Y-14535476D01*
X8814524Y-14630714D01*
X8824048Y-14621190D01*
X8843095Y-14611667D01*
X8890714Y-14611667D01*
X8909762Y-14621190D01*
X8919286Y-14630714D01*
X8928810Y-14649762D01*
X8928810Y-14697381D01*
X8919286Y-14716428D01*
X8909762Y-14725952D01*
X8890714Y-14735476D01*
X8843095Y-14735476D01*
X8824048Y-14725952D01*
X8814524Y-14716428D01*
X8995476Y-14535476D02*
X9128810Y-14535476D01*
X9043095Y-14735476D01*
X9195476Y-14535476D02*
X9195476Y-14573571D01*
X9271667Y-14535476D02*
X9271667Y-14573571D01*
X9566905Y-14811667D02*
X9557381Y-14802143D01*
X9538333Y-14773571D01*
X9528810Y-14754524D01*
X9519286Y-14725952D01*
X9509762Y-14678333D01*
X9509762Y-14640238D01*
X9519286Y-14592619D01*
X9528810Y-14564048D01*
X9538333Y-14545000D01*
X9557381Y-14516428D01*
X9566905Y-14506905D01*
X9728810Y-14602143D02*
X9728810Y-14735476D01*
X9681190Y-14525952D02*
X9633571Y-14668809D01*
X9757381Y-14668809D01*
X9871667Y-14535476D02*
X9890714Y-14535476D01*
X9909762Y-14545000D01*
X9919286Y-14554524D01*
X9928810Y-14573571D01*
X9938333Y-14611667D01*
X9938333Y-14659286D01*
X9928810Y-14697381D01*
X9919286Y-14716428D01*
X9909762Y-14725952D01*
X9890714Y-14735476D01*
X9871667Y-14735476D01*
X9852619Y-14725952D01*
X9843095Y-14716428D01*
X9833571Y-14697381D01*
X9824048Y-14659286D01*
X9824048Y-14611667D01*
X9833571Y-14573571D01*
X9843095Y-14554524D01*
X9852619Y-14545000D01*
X9871667Y-14535476D01*
X10062143Y-14535476D02*
X10081190Y-14535476D01*
X10100238Y-14545000D01*
X10109762Y-14554524D01*
X10119286Y-14573571D01*
X10128810Y-14611667D01*
X10128810Y-14659286D01*
X10119286Y-14697381D01*
X10109762Y-14716428D01*
X10100238Y-14725952D01*
X10081190Y-14735476D01*
X10062143Y-14735476D01*
X10043095Y-14725952D01*
X10033571Y-14716428D01*
X10024048Y-14697381D01*
X10014524Y-14659286D01*
X10014524Y-14611667D01*
X10024048Y-14573571D01*
X10033571Y-14554524D01*
X10043095Y-14545000D01*
X10062143Y-14535476D01*
X10366905Y-14735476D02*
X10366905Y-14535476D01*
X10452619Y-14735476D02*
X10452619Y-14630714D01*
X10443095Y-14611667D01*
X10424048Y-14602143D01*
X10395476Y-14602143D01*
X10376429Y-14611667D01*
X10366905Y-14621190D01*
X10576429Y-14735476D02*
X10557381Y-14725952D01*
X10547857Y-14716428D01*
X10538333Y-14697381D01*
X10538333Y-14640238D01*
X10547857Y-14621190D01*
X10557381Y-14611667D01*
X10576429Y-14602143D01*
X10605000Y-14602143D01*
X10624048Y-14611667D01*
X10633571Y-14621190D01*
X10643095Y-14640238D01*
X10643095Y-14697381D01*
X10633571Y-14716428D01*
X10624048Y-14725952D01*
X10605000Y-14735476D01*
X10576429Y-14735476D01*
X10757381Y-14735476D02*
X10738333Y-14725952D01*
X10728810Y-14706905D01*
X10728810Y-14535476D01*
X10909762Y-14725952D02*
X10890714Y-14735476D01*
X10852619Y-14735476D01*
X10833571Y-14725952D01*
X10824048Y-14706905D01*
X10824048Y-14630714D01*
X10833571Y-14611667D01*
X10852619Y-14602143D01*
X10890714Y-14602143D01*
X10909762Y-14611667D01*
X10919286Y-14630714D01*
X10919286Y-14649762D01*
X10824048Y-14668809D01*
X10995476Y-14725952D02*
X11014524Y-14735476D01*
X11052619Y-14735476D01*
X11071667Y-14725952D01*
X11081190Y-14706905D01*
X11081190Y-14697381D01*
X11071667Y-14678333D01*
X11052619Y-14668809D01*
X11024048Y-14668809D01*
X11005000Y-14659286D01*
X10995476Y-14640238D01*
X10995476Y-14630714D01*
X11005000Y-14611667D01*
X11024048Y-14602143D01*
X11052619Y-14602143D01*
X11071667Y-14611667D01*
X11147857Y-14811667D02*
X11157381Y-14802143D01*
X11176429Y-14773571D01*
X11185952Y-14754524D01*
X11195476Y-14725952D01*
X11205000Y-14678333D01*
X11205000Y-14640238D01*
X11195476Y-14592619D01*
X11185952Y-14564048D01*
X11176429Y-14545000D01*
X11157381Y-14516428D01*
X11147857Y-14506905D01*
D13*
X5995000Y-14909000D02*
G75*
G03*
X5995000Y-14909000I-40000J0D01*
G01*
D11*
X6290714Y-14799476D02*
X6309762Y-14799476D01*
X6328809Y-14809000D01*
X6338333Y-14818524D01*
X6347857Y-14837571D01*
X6357381Y-14875667D01*
X6357381Y-14923286D01*
X6347857Y-14961381D01*
X6338333Y-14980428D01*
X6328809Y-14989952D01*
X6309762Y-14999476D01*
X6290714Y-14999476D01*
X6271667Y-14989952D01*
X6262143Y-14980428D01*
X6252619Y-14961381D01*
X6243095Y-14923286D01*
X6243095Y-14875667D01*
X6252619Y-14837571D01*
X6262143Y-14818524D01*
X6271667Y-14809000D01*
X6290714Y-14799476D01*
X6443095Y-14980428D02*
X6452619Y-14989952D01*
X6443095Y-14999476D01*
X6433571Y-14989952D01*
X6443095Y-14980428D01*
X6443095Y-14999476D01*
X6566905Y-14885190D02*
X6547857Y-14875667D01*
X6538333Y-14866143D01*
X6528809Y-14847095D01*
X6528809Y-14837571D01*
X6538333Y-14818524D01*
X6547857Y-14809000D01*
X6566905Y-14799476D01*
X6605000Y-14799476D01*
X6624048Y-14809000D01*
X6633571Y-14818524D01*
X6643095Y-14837571D01*
X6643095Y-14847095D01*
X6633571Y-14866143D01*
X6624048Y-14875667D01*
X6605000Y-14885190D01*
X6566905Y-14885190D01*
X6547857Y-14894714D01*
X6538333Y-14904238D01*
X6528809Y-14923286D01*
X6528809Y-14961381D01*
X6538333Y-14980428D01*
X6547857Y-14989952D01*
X6566905Y-14999476D01*
X6605000Y-14999476D01*
X6624048Y-14989952D01*
X6633571Y-14980428D01*
X6643095Y-14961381D01*
X6643095Y-14923286D01*
X6633571Y-14904238D01*
X6624048Y-14894714D01*
X6605000Y-14885190D01*
X6766905Y-14799476D02*
X6785952Y-14799476D01*
X6805000Y-14809000D01*
X6814524Y-14818524D01*
X6824048Y-14837571D01*
X6833571Y-14875667D01*
X6833571Y-14923286D01*
X6824048Y-14961381D01*
X6814524Y-14980428D01*
X6805000Y-14989952D01*
X6785952Y-14999476D01*
X6766905Y-14999476D01*
X6747857Y-14989952D01*
X6738333Y-14980428D01*
X6728809Y-14961381D01*
X6719286Y-14923286D01*
X6719286Y-14875667D01*
X6728809Y-14837571D01*
X6738333Y-14818524D01*
X6747857Y-14809000D01*
X6766905Y-14799476D01*
X6957381Y-14799476D02*
X6976428Y-14799476D01*
X6995476Y-14809000D01*
X7005000Y-14818524D01*
X7014524Y-14837571D01*
X7024048Y-14875667D01*
X7024048Y-14923286D01*
X7014524Y-14961381D01*
X7005000Y-14980428D01*
X6995476Y-14989952D01*
X6976428Y-14999476D01*
X6957381Y-14999476D01*
X6938333Y-14989952D01*
X6928809Y-14980428D01*
X6919286Y-14961381D01*
X6909762Y-14923286D01*
X6909762Y-14875667D01*
X6919286Y-14837571D01*
X6928809Y-14818524D01*
X6938333Y-14809000D01*
X6957381Y-14799476D01*
X7109762Y-14999476D02*
X7109762Y-14866143D01*
X7109762Y-14885190D02*
X7119286Y-14875667D01*
X7138333Y-14866143D01*
X7166905Y-14866143D01*
X7185952Y-14875667D01*
X7195476Y-14894714D01*
X7195476Y-14999476D01*
X7195476Y-14894714D02*
X7205000Y-14875667D01*
X7224048Y-14866143D01*
X7252619Y-14866143D01*
X7271667Y-14875667D01*
X7281190Y-14894714D01*
X7281190Y-14999476D01*
X7376428Y-14999476D02*
X7376428Y-14866143D01*
X7376428Y-14885190D02*
X7385952Y-14875667D01*
X7405000Y-14866143D01*
X7433571Y-14866143D01*
X7452619Y-14875667D01*
X7462143Y-14894714D01*
X7462143Y-14999476D01*
X7462143Y-14894714D02*
X7471667Y-14875667D01*
X7490714Y-14866143D01*
X7519286Y-14866143D01*
X7538333Y-14875667D01*
X7547857Y-14894714D01*
X7547857Y-14999476D01*
X7938333Y-14789952D02*
X7766905Y-15047095D01*
X8195476Y-14799476D02*
X8214524Y-14799476D01*
X8233571Y-14809000D01*
X8243095Y-14818524D01*
X8252619Y-14837571D01*
X8262143Y-14875667D01*
X8262143Y-14923286D01*
X8252619Y-14961381D01*
X8243095Y-14980428D01*
X8233571Y-14989952D01*
X8214524Y-14999476D01*
X8195476Y-14999476D01*
X8176428Y-14989952D01*
X8166905Y-14980428D01*
X8157381Y-14961381D01*
X8147857Y-14923286D01*
X8147857Y-14875667D01*
X8157381Y-14837571D01*
X8166905Y-14818524D01*
X8176428Y-14809000D01*
X8195476Y-14799476D01*
X8347857Y-14980428D02*
X8357381Y-14989952D01*
X8347857Y-14999476D01*
X8338333Y-14989952D01*
X8347857Y-14980428D01*
X8347857Y-14999476D01*
X8481190Y-14799476D02*
X8500238Y-14799476D01*
X8519286Y-14809000D01*
X8528810Y-14818524D01*
X8538333Y-14837571D01*
X8547857Y-14875667D01*
X8547857Y-14923286D01*
X8538333Y-14961381D01*
X8528810Y-14980428D01*
X8519286Y-14989952D01*
X8500238Y-14999476D01*
X8481190Y-14999476D01*
X8462143Y-14989952D01*
X8452619Y-14980428D01*
X8443095Y-14961381D01*
X8433571Y-14923286D01*
X8433571Y-14875667D01*
X8443095Y-14837571D01*
X8452619Y-14818524D01*
X8462143Y-14809000D01*
X8481190Y-14799476D01*
X8614524Y-14799476D02*
X8738333Y-14799476D01*
X8671667Y-14875667D01*
X8700238Y-14875667D01*
X8719286Y-14885190D01*
X8728810Y-14894714D01*
X8738333Y-14913762D01*
X8738333Y-14961381D01*
X8728810Y-14980428D01*
X8719286Y-14989952D01*
X8700238Y-14999476D01*
X8643095Y-14999476D01*
X8624048Y-14989952D01*
X8614524Y-14980428D01*
X8928810Y-14999476D02*
X8814524Y-14999476D01*
X8871667Y-14999476D02*
X8871667Y-14799476D01*
X8852619Y-14828048D01*
X8833571Y-14847095D01*
X8814524Y-14856619D01*
X9109762Y-14799476D02*
X9014524Y-14799476D01*
X9005000Y-14894714D01*
X9014524Y-14885190D01*
X9033571Y-14875667D01*
X9081190Y-14875667D01*
X9100238Y-14885190D01*
X9109762Y-14894714D01*
X9119286Y-14913762D01*
X9119286Y-14961381D01*
X9109762Y-14980428D01*
X9100238Y-14989952D01*
X9081190Y-14999476D01*
X9033571Y-14999476D01*
X9014524Y-14989952D01*
X9005000Y-14980428D01*
X9195476Y-14799476D02*
X9195476Y-14837571D01*
X9271667Y-14799476D02*
X9271667Y-14837571D01*
X9566905Y-15075667D02*
X9557381Y-15066143D01*
X9538333Y-15037571D01*
X9528810Y-15018524D01*
X9519286Y-14989952D01*
X9509762Y-14942333D01*
X9509762Y-14904238D01*
X9519286Y-14856619D01*
X9528810Y-14828048D01*
X9538333Y-14809000D01*
X9557381Y-14780428D01*
X9566905Y-14770905D01*
X9681190Y-14799476D02*
X9700238Y-14799476D01*
X9719286Y-14809000D01*
X9728810Y-14818524D01*
X9738333Y-14837571D01*
X9747857Y-14875667D01*
X9747857Y-14923286D01*
X9738333Y-14961381D01*
X9728810Y-14980428D01*
X9719286Y-14989952D01*
X9700238Y-14999476D01*
X9681190Y-14999476D01*
X9662143Y-14989952D01*
X9652619Y-14980428D01*
X9643095Y-14961381D01*
X9633571Y-14923286D01*
X9633571Y-14875667D01*
X9643095Y-14837571D01*
X9652619Y-14818524D01*
X9662143Y-14809000D01*
X9681190Y-14799476D01*
X9985952Y-14999476D02*
X9985952Y-14799476D01*
X10071667Y-14999476D02*
X10071667Y-14894714D01*
X10062143Y-14875667D01*
X10043095Y-14866143D01*
X10014524Y-14866143D01*
X9995476Y-14875667D01*
X9985952Y-14885190D01*
X10195476Y-14999476D02*
X10176429Y-14989952D01*
X10166905Y-14980428D01*
X10157381Y-14961381D01*
X10157381Y-14904238D01*
X10166905Y-14885190D01*
X10176429Y-14875667D01*
X10195476Y-14866143D01*
X10224048Y-14866143D01*
X10243095Y-14875667D01*
X10252619Y-14885190D01*
X10262143Y-14904238D01*
X10262143Y-14961381D01*
X10252619Y-14980428D01*
X10243095Y-14989952D01*
X10224048Y-14999476D01*
X10195476Y-14999476D01*
X10376429Y-14999476D02*
X10357381Y-14989952D01*
X10347857Y-14970905D01*
X10347857Y-14799476D01*
X10528810Y-14989952D02*
X10509762Y-14999476D01*
X10471667Y-14999476D01*
X10452619Y-14989952D01*
X10443095Y-14970905D01*
X10443095Y-14894714D01*
X10452619Y-14875667D01*
X10471667Y-14866143D01*
X10509762Y-14866143D01*
X10528810Y-14875667D01*
X10538333Y-14894714D01*
X10538333Y-14913762D01*
X10443095Y-14932809D01*
X10614524Y-14989952D02*
X10633571Y-14999476D01*
X10671667Y-14999476D01*
X10690714Y-14989952D01*
X10700238Y-14970905D01*
X10700238Y-14961381D01*
X10690714Y-14942333D01*
X10671667Y-14932809D01*
X10643095Y-14932809D01*
X10624048Y-14923286D01*
X10614524Y-14904238D01*
X10614524Y-14894714D01*
X10624048Y-14875667D01*
X10643095Y-14866143D01*
X10671667Y-14866143D01*
X10690714Y-14875667D01*
X10938333Y-14923286D02*
X11090714Y-14923286D01*
X11014524Y-14999476D02*
X11014524Y-14847095D01*
X11328809Y-14818524D02*
X11338333Y-14809000D01*
X11357381Y-14799476D01*
X11405000Y-14799476D01*
X11424048Y-14809000D01*
X11433571Y-14818524D01*
X11443095Y-14837571D01*
X11443095Y-14856619D01*
X11433571Y-14885190D01*
X11319286Y-14999476D01*
X11443095Y-14999476D01*
X11671667Y-14989952D02*
X11690714Y-14999476D01*
X11728809Y-14999476D01*
X11747857Y-14989952D01*
X11757381Y-14970905D01*
X11757381Y-14961381D01*
X11747857Y-14942333D01*
X11728809Y-14932809D01*
X11700238Y-14932809D01*
X11681190Y-14923286D01*
X11671667Y-14904238D01*
X11671667Y-14894714D01*
X11681190Y-14875667D01*
X11700238Y-14866143D01*
X11728809Y-14866143D01*
X11747857Y-14875667D01*
X11871667Y-14999476D02*
X11852619Y-14989952D01*
X11843095Y-14970905D01*
X11843095Y-14799476D01*
X11976428Y-14999476D02*
X11957381Y-14989952D01*
X11947857Y-14980428D01*
X11938333Y-14961381D01*
X11938333Y-14904238D01*
X11947857Y-14885190D01*
X11957381Y-14875667D01*
X11976428Y-14866143D01*
X12005000Y-14866143D01*
X12024048Y-14875667D01*
X12033571Y-14885190D01*
X12043095Y-14904238D01*
X12043095Y-14961381D01*
X12033571Y-14980428D01*
X12024048Y-14989952D01*
X12005000Y-14999476D01*
X11976428Y-14999476D01*
X12100238Y-14866143D02*
X12176428Y-14866143D01*
X12128809Y-14799476D02*
X12128809Y-14970905D01*
X12138333Y-14989952D01*
X12157381Y-14999476D01*
X12176428Y-14999476D01*
X12233571Y-14989952D02*
X12252619Y-14999476D01*
X12290714Y-14999476D01*
X12309762Y-14989952D01*
X12319286Y-14970905D01*
X12319286Y-14961381D01*
X12309762Y-14942333D01*
X12290714Y-14932809D01*
X12262143Y-14932809D01*
X12243095Y-14923286D01*
X12233571Y-14904238D01*
X12233571Y-14894714D01*
X12243095Y-14875667D01*
X12262143Y-14866143D01*
X12290714Y-14866143D01*
X12309762Y-14875667D01*
X12385952Y-15075667D02*
X12395476Y-15066143D01*
X12414524Y-15037571D01*
X12424048Y-15018524D01*
X12433571Y-14989952D01*
X12443095Y-14942333D01*
X12443095Y-14904238D01*
X12433571Y-14856619D01*
X12424048Y-14828048D01*
X12414524Y-14809000D01*
X12395476Y-14780428D01*
X12385952Y-14770905D01*
D14*
X5950500Y-15128500D02*
X5950500Y-15217500D01*
X5906000Y-15173000D02*
X5995000Y-15173000D01*
D11*
X6290714Y-15063476D02*
X6309762Y-15063476D01*
X6328809Y-15073000D01*
X6338333Y-15082524D01*
X6347857Y-15101571D01*
X6357381Y-15139667D01*
X6357381Y-15187286D01*
X6347857Y-15225381D01*
X6338333Y-15244428D01*
X6328809Y-15253952D01*
X6309762Y-15263476D01*
X6290714Y-15263476D01*
X6271667Y-15253952D01*
X6262143Y-15244428D01*
X6252619Y-15225381D01*
X6243095Y-15187286D01*
X6243095Y-15139667D01*
X6252619Y-15101571D01*
X6262143Y-15082524D01*
X6271667Y-15073000D01*
X6290714Y-15063476D01*
X6443095Y-15244428D02*
X6452619Y-15253952D01*
X6443095Y-15263476D01*
X6433571Y-15253952D01*
X6443095Y-15244428D01*
X6443095Y-15263476D01*
X6566905Y-15149190D02*
X6547857Y-15139667D01*
X6538333Y-15130143D01*
X6528809Y-15111095D01*
X6528809Y-15101571D01*
X6538333Y-15082524D01*
X6547857Y-15073000D01*
X6566905Y-15063476D01*
X6605000Y-15063476D01*
X6624048Y-15073000D01*
X6633571Y-15082524D01*
X6643095Y-15101571D01*
X6643095Y-15111095D01*
X6633571Y-15130143D01*
X6624048Y-15139667D01*
X6605000Y-15149190D01*
X6566905Y-15149190D01*
X6547857Y-15158714D01*
X6538333Y-15168238D01*
X6528809Y-15187286D01*
X6528809Y-15225381D01*
X6538333Y-15244428D01*
X6547857Y-15253952D01*
X6566905Y-15263476D01*
X6605000Y-15263476D01*
X6624048Y-15253952D01*
X6633571Y-15244428D01*
X6643095Y-15225381D01*
X6643095Y-15187286D01*
X6633571Y-15168238D01*
X6624048Y-15158714D01*
X6605000Y-15149190D01*
X6738333Y-15263476D02*
X6776428Y-15263476D01*
X6795476Y-15253952D01*
X6805000Y-15244428D01*
X6824048Y-15215857D01*
X6833571Y-15177762D01*
X6833571Y-15101571D01*
X6824048Y-15082524D01*
X6814524Y-15073000D01*
X6795476Y-15063476D01*
X6757381Y-15063476D01*
X6738333Y-15073000D01*
X6728809Y-15082524D01*
X6719286Y-15101571D01*
X6719286Y-15149190D01*
X6728809Y-15168238D01*
X6738333Y-15177762D01*
X6757381Y-15187286D01*
X6795476Y-15187286D01*
X6814524Y-15177762D01*
X6824048Y-15168238D01*
X6833571Y-15149190D01*
X6957381Y-15063476D02*
X6976428Y-15063476D01*
X6995476Y-15073000D01*
X7005000Y-15082524D01*
X7014524Y-15101571D01*
X7024048Y-15139667D01*
X7024048Y-15187286D01*
X7014524Y-15225381D01*
X7005000Y-15244428D01*
X6995476Y-15253952D01*
X6976428Y-15263476D01*
X6957381Y-15263476D01*
X6938333Y-15253952D01*
X6928809Y-15244428D01*
X6919286Y-15225381D01*
X6909762Y-15187286D01*
X6909762Y-15139667D01*
X6919286Y-15101571D01*
X6928809Y-15082524D01*
X6938333Y-15073000D01*
X6957381Y-15063476D01*
X7109762Y-15263476D02*
X7109762Y-15130143D01*
X7109762Y-15149190D02*
X7119286Y-15139667D01*
X7138333Y-15130143D01*
X7166905Y-15130143D01*
X7185952Y-15139667D01*
X7195476Y-15158714D01*
X7195476Y-15263476D01*
X7195476Y-15158714D02*
X7205000Y-15139667D01*
X7224048Y-15130143D01*
X7252619Y-15130143D01*
X7271667Y-15139667D01*
X7281190Y-15158714D01*
X7281190Y-15263476D01*
X7376428Y-15263476D02*
X7376428Y-15130143D01*
X7376428Y-15149190D02*
X7385952Y-15139667D01*
X7405000Y-15130143D01*
X7433571Y-15130143D01*
X7452619Y-15139667D01*
X7462143Y-15158714D01*
X7462143Y-15263476D01*
X7462143Y-15158714D02*
X7471667Y-15139667D01*
X7490714Y-15130143D01*
X7519286Y-15130143D01*
X7538333Y-15139667D01*
X7547857Y-15158714D01*
X7547857Y-15263476D01*
X7938333Y-15053952D02*
X7766905Y-15311095D01*
X8195476Y-15063476D02*
X8214524Y-15063476D01*
X8233571Y-15073000D01*
X8243095Y-15082524D01*
X8252619Y-15101571D01*
X8262143Y-15139667D01*
X8262143Y-15187286D01*
X8252619Y-15225381D01*
X8243095Y-15244428D01*
X8233571Y-15253952D01*
X8214524Y-15263476D01*
X8195476Y-15263476D01*
X8176428Y-15253952D01*
X8166905Y-15244428D01*
X8157381Y-15225381D01*
X8147857Y-15187286D01*
X8147857Y-15139667D01*
X8157381Y-15101571D01*
X8166905Y-15082524D01*
X8176428Y-15073000D01*
X8195476Y-15063476D01*
X8347857Y-15244428D02*
X8357381Y-15253952D01*
X8347857Y-15263476D01*
X8338333Y-15253952D01*
X8347857Y-15244428D01*
X8347857Y-15263476D01*
X8481190Y-15063476D02*
X8500238Y-15063476D01*
X8519286Y-15073000D01*
X8528810Y-15082524D01*
X8538333Y-15101571D01*
X8547857Y-15139667D01*
X8547857Y-15187286D01*
X8538333Y-15225381D01*
X8528810Y-15244428D01*
X8519286Y-15253952D01*
X8500238Y-15263476D01*
X8481190Y-15263476D01*
X8462143Y-15253952D01*
X8452619Y-15244428D01*
X8443095Y-15225381D01*
X8433571Y-15187286D01*
X8433571Y-15139667D01*
X8443095Y-15101571D01*
X8452619Y-15082524D01*
X8462143Y-15073000D01*
X8481190Y-15063476D01*
X8614524Y-15063476D02*
X8738333Y-15063476D01*
X8671667Y-15139667D01*
X8700238Y-15139667D01*
X8719286Y-15149190D01*
X8728810Y-15158714D01*
X8738333Y-15177762D01*
X8738333Y-15225381D01*
X8728810Y-15244428D01*
X8719286Y-15253952D01*
X8700238Y-15263476D01*
X8643095Y-15263476D01*
X8624048Y-15253952D01*
X8614524Y-15244428D01*
X8919286Y-15063476D02*
X8824048Y-15063476D01*
X8814524Y-15158714D01*
X8824048Y-15149190D01*
X8843095Y-15139667D01*
X8890714Y-15139667D01*
X8909762Y-15149190D01*
X8919286Y-15158714D01*
X8928810Y-15177762D01*
X8928810Y-15225381D01*
X8919286Y-15244428D01*
X8909762Y-15253952D01*
X8890714Y-15263476D01*
X8843095Y-15263476D01*
X8824048Y-15253952D01*
X8814524Y-15244428D01*
X9052619Y-15063476D02*
X9071667Y-15063476D01*
X9090714Y-15073000D01*
X9100238Y-15082524D01*
X9109762Y-15101571D01*
X9119286Y-15139667D01*
X9119286Y-15187286D01*
X9109762Y-15225381D01*
X9100238Y-15244428D01*
X9090714Y-15253952D01*
X9071667Y-15263476D01*
X9052619Y-15263476D01*
X9033571Y-15253952D01*
X9024048Y-15244428D01*
X9014524Y-15225381D01*
X9005000Y-15187286D01*
X9005000Y-15139667D01*
X9014524Y-15101571D01*
X9024048Y-15082524D01*
X9033571Y-15073000D01*
X9052619Y-15063476D01*
X9195476Y-15063476D02*
X9195476Y-15101571D01*
X9271667Y-15063476D02*
X9271667Y-15101571D01*
X9566905Y-15339667D02*
X9557381Y-15330143D01*
X9538333Y-15301571D01*
X9528810Y-15282524D01*
X9519286Y-15253952D01*
X9509762Y-15206333D01*
X9509762Y-15168238D01*
X9519286Y-15120619D01*
X9528810Y-15092048D01*
X9538333Y-15073000D01*
X9557381Y-15044428D01*
X9566905Y-15034905D01*
X9728810Y-15130143D02*
X9728810Y-15263476D01*
X9681190Y-15053952D02*
X9633571Y-15196809D01*
X9757381Y-15196809D01*
X9985952Y-15263476D02*
X9985952Y-15063476D01*
X10071667Y-15263476D02*
X10071667Y-15158714D01*
X10062143Y-15139667D01*
X10043095Y-15130143D01*
X10014524Y-15130143D01*
X9995476Y-15139667D01*
X9985952Y-15149190D01*
X10195476Y-15263476D02*
X10176429Y-15253952D01*
X10166905Y-15244428D01*
X10157381Y-15225381D01*
X10157381Y-15168238D01*
X10166905Y-15149190D01*
X10176429Y-15139667D01*
X10195476Y-15130143D01*
X10224048Y-15130143D01*
X10243095Y-15139667D01*
X10252619Y-15149190D01*
X10262143Y-15168238D01*
X10262143Y-15225381D01*
X10252619Y-15244428D01*
X10243095Y-15253952D01*
X10224048Y-15263476D01*
X10195476Y-15263476D01*
X10376429Y-15263476D02*
X10357381Y-15253952D01*
X10347857Y-15234905D01*
X10347857Y-15063476D01*
X10528810Y-15253952D02*
X10509762Y-15263476D01*
X10471667Y-15263476D01*
X10452619Y-15253952D01*
X10443095Y-15234905D01*
X10443095Y-15158714D01*
X10452619Y-15139667D01*
X10471667Y-15130143D01*
X10509762Y-15130143D01*
X10528810Y-15139667D01*
X10538333Y-15158714D01*
X10538333Y-15177762D01*
X10443095Y-15196809D01*
X10614524Y-15253952D02*
X10633571Y-15263476D01*
X10671667Y-15263476D01*
X10690714Y-15253952D01*
X10700238Y-15234905D01*
X10700238Y-15225381D01*
X10690714Y-15206333D01*
X10671667Y-15196809D01*
X10643095Y-15196809D01*
X10624048Y-15187286D01*
X10614524Y-15168238D01*
X10614524Y-15158714D01*
X10624048Y-15139667D01*
X10643095Y-15130143D01*
X10671667Y-15130143D01*
X10690714Y-15139667D01*
X10766905Y-15339667D02*
X10776429Y-15330143D01*
X10795476Y-15301571D01*
X10805000Y-15282524D01*
X10814524Y-15253952D01*
X10824048Y-15206333D01*
X10824048Y-15168238D01*
X10814524Y-15120619D01*
X10805000Y-15092048D01*
X10795476Y-15073000D01*
X10776429Y-15044428D01*
X10766905Y-15034905D01*
D15*
X5981820Y-15468820D02*
X5981820Y-15405180D01*
X5918180Y-15405180D01*
X5918180Y-15468820D01*
X5981820Y-15468820D01*
D11*
X6290714Y-15327476D02*
X6309762Y-15327476D01*
X6328809Y-15337000D01*
X6338333Y-15346524D01*
X6347857Y-15365571D01*
X6357381Y-15403667D01*
X6357381Y-15451286D01*
X6347857Y-15489381D01*
X6338333Y-15508428D01*
X6328809Y-15517952D01*
X6309762Y-15527476D01*
X6290714Y-15527476D01*
X6271667Y-15517952D01*
X6262143Y-15508428D01*
X6252619Y-15489381D01*
X6243095Y-15451286D01*
X6243095Y-15403667D01*
X6252619Y-15365571D01*
X6262143Y-15346524D01*
X6271667Y-15337000D01*
X6290714Y-15327476D01*
X6443095Y-15508428D02*
X6452619Y-15517952D01*
X6443095Y-15527476D01*
X6433571Y-15517952D01*
X6443095Y-15508428D01*
X6443095Y-15527476D01*
X6547857Y-15527476D02*
X6585952Y-15527476D01*
X6605000Y-15517952D01*
X6614524Y-15508428D01*
X6633571Y-15479857D01*
X6643095Y-15441762D01*
X6643095Y-15365571D01*
X6633571Y-15346524D01*
X6624048Y-15337000D01*
X6605000Y-15327476D01*
X6566905Y-15327476D01*
X6547857Y-15337000D01*
X6538333Y-15346524D01*
X6528809Y-15365571D01*
X6528809Y-15413190D01*
X6538333Y-15432238D01*
X6547857Y-15441762D01*
X6566905Y-15451286D01*
X6605000Y-15451286D01*
X6624048Y-15441762D01*
X6633571Y-15432238D01*
X6643095Y-15413190D01*
X6766905Y-15327476D02*
X6785952Y-15327476D01*
X6805000Y-15337000D01*
X6814524Y-15346524D01*
X6824048Y-15365571D01*
X6833571Y-15403667D01*
X6833571Y-15451286D01*
X6824048Y-15489381D01*
X6814524Y-15508428D01*
X6805000Y-15517952D01*
X6785952Y-15527476D01*
X6766905Y-15527476D01*
X6747857Y-15517952D01*
X6738333Y-15508428D01*
X6728809Y-15489381D01*
X6719286Y-15451286D01*
X6719286Y-15403667D01*
X6728809Y-15365571D01*
X6738333Y-15346524D01*
X6747857Y-15337000D01*
X6766905Y-15327476D01*
X6957381Y-15327476D02*
X6976428Y-15327476D01*
X6995476Y-15337000D01*
X7005000Y-15346524D01*
X7014524Y-15365571D01*
X7024048Y-15403667D01*
X7024048Y-15451286D01*
X7014524Y-15489381D01*
X7005000Y-15508428D01*
X6995476Y-15517952D01*
X6976428Y-15527476D01*
X6957381Y-15527476D01*
X6938333Y-15517952D01*
X6928809Y-15508428D01*
X6919286Y-15489381D01*
X6909762Y-15451286D01*
X6909762Y-15403667D01*
X6919286Y-15365571D01*
X6928809Y-15346524D01*
X6938333Y-15337000D01*
X6957381Y-15327476D01*
X7109762Y-15527476D02*
X7109762Y-15394143D01*
X7109762Y-15413190D02*
X7119286Y-15403667D01*
X7138333Y-15394143D01*
X7166905Y-15394143D01*
X7185952Y-15403667D01*
X7195476Y-15422714D01*
X7195476Y-15527476D01*
X7195476Y-15422714D02*
X7205000Y-15403667D01*
X7224048Y-15394143D01*
X7252619Y-15394143D01*
X7271667Y-15403667D01*
X7281190Y-15422714D01*
X7281190Y-15527476D01*
X7376428Y-15527476D02*
X7376428Y-15394143D01*
X7376428Y-15413190D02*
X7385952Y-15403667D01*
X7405000Y-15394143D01*
X7433571Y-15394143D01*
X7452619Y-15403667D01*
X7462143Y-15422714D01*
X7462143Y-15527476D01*
X7462143Y-15422714D02*
X7471667Y-15403667D01*
X7490714Y-15394143D01*
X7519286Y-15394143D01*
X7538333Y-15403667D01*
X7547857Y-15422714D01*
X7547857Y-15527476D01*
X7938333Y-15317952D02*
X7766905Y-15575095D01*
X8195476Y-15327476D02*
X8214524Y-15327476D01*
X8233571Y-15337000D01*
X8243095Y-15346524D01*
X8252619Y-15365571D01*
X8262143Y-15403667D01*
X8262143Y-15451286D01*
X8252619Y-15489381D01*
X8243095Y-15508428D01*
X8233571Y-15517952D01*
X8214524Y-15527476D01*
X8195476Y-15527476D01*
X8176428Y-15517952D01*
X8166905Y-15508428D01*
X8157381Y-15489381D01*
X8147857Y-15451286D01*
X8147857Y-15403667D01*
X8157381Y-15365571D01*
X8166905Y-15346524D01*
X8176428Y-15337000D01*
X8195476Y-15327476D01*
X8347857Y-15508428D02*
X8357381Y-15517952D01*
X8347857Y-15527476D01*
X8338333Y-15517952D01*
X8347857Y-15508428D01*
X8347857Y-15527476D01*
X8481190Y-15327476D02*
X8500238Y-15327476D01*
X8519286Y-15337000D01*
X8528810Y-15346524D01*
X8538333Y-15365571D01*
X8547857Y-15403667D01*
X8547857Y-15451286D01*
X8538333Y-15489381D01*
X8528810Y-15508428D01*
X8519286Y-15517952D01*
X8500238Y-15527476D01*
X8481190Y-15527476D01*
X8462143Y-15517952D01*
X8452619Y-15508428D01*
X8443095Y-15489381D01*
X8433571Y-15451286D01*
X8433571Y-15403667D01*
X8443095Y-15365571D01*
X8452619Y-15346524D01*
X8462143Y-15337000D01*
X8481190Y-15327476D01*
X8614524Y-15327476D02*
X8738333Y-15327476D01*
X8671667Y-15403667D01*
X8700238Y-15403667D01*
X8719286Y-15413190D01*
X8728810Y-15422714D01*
X8738333Y-15441762D01*
X8738333Y-15489381D01*
X8728810Y-15508428D01*
X8719286Y-15517952D01*
X8700238Y-15527476D01*
X8643095Y-15527476D01*
X8624048Y-15517952D01*
X8614524Y-15508428D01*
X8919286Y-15327476D02*
X8824048Y-15327476D01*
X8814524Y-15422714D01*
X8824048Y-15413190D01*
X8843095Y-15403667D01*
X8890714Y-15403667D01*
X8909762Y-15413190D01*
X8919286Y-15422714D01*
X8928810Y-15441762D01*
X8928810Y-15489381D01*
X8919286Y-15508428D01*
X8909762Y-15517952D01*
X8890714Y-15527476D01*
X8843095Y-15527476D01*
X8824048Y-15517952D01*
X8814524Y-15508428D01*
X9100238Y-15394143D02*
X9100238Y-15527476D01*
X9052619Y-15317952D02*
X9005000Y-15460809D01*
X9128810Y-15460809D01*
X9195476Y-15327476D02*
X9195476Y-15365571D01*
X9271667Y-15327476D02*
X9271667Y-15365571D01*
X9566905Y-15603667D02*
X9557381Y-15594143D01*
X9538333Y-15565571D01*
X9528810Y-15546524D01*
X9519286Y-15517952D01*
X9509762Y-15470333D01*
X9509762Y-15432238D01*
X9519286Y-15384619D01*
X9528810Y-15356048D01*
X9538333Y-15337000D01*
X9557381Y-15308428D01*
X9566905Y-15298905D01*
X9747857Y-15527476D02*
X9633571Y-15527476D01*
X9690714Y-15527476D02*
X9690714Y-15327476D01*
X9671667Y-15356048D01*
X9652619Y-15375095D01*
X9633571Y-15384619D01*
X9824048Y-15346524D02*
X9833571Y-15337000D01*
X9852619Y-15327476D01*
X9900238Y-15327476D01*
X9919286Y-15337000D01*
X9928810Y-15346524D01*
X9938333Y-15365571D01*
X9938333Y-15384619D01*
X9928810Y-15413190D01*
X9814524Y-15527476D01*
X9938333Y-15527476D01*
X10176429Y-15527476D02*
X10176429Y-15327476D01*
X10262143Y-15527476D02*
X10262143Y-15422714D01*
X10252619Y-15403667D01*
X10233571Y-15394143D01*
X10205000Y-15394143D01*
X10185952Y-15403667D01*
X10176429Y-15413190D01*
X10385952Y-15527476D02*
X10366905Y-15517952D01*
X10357381Y-15508428D01*
X10347857Y-15489381D01*
X10347857Y-15432238D01*
X10357381Y-15413190D01*
X10366905Y-15403667D01*
X10385952Y-15394143D01*
X10414524Y-15394143D01*
X10433571Y-15403667D01*
X10443095Y-15413190D01*
X10452619Y-15432238D01*
X10452619Y-15489381D01*
X10443095Y-15508428D01*
X10433571Y-15517952D01*
X10414524Y-15527476D01*
X10385952Y-15527476D01*
X10566905Y-15527476D02*
X10547857Y-15517952D01*
X10538333Y-15498905D01*
X10538333Y-15327476D01*
X10719286Y-15517952D02*
X10700238Y-15527476D01*
X10662143Y-15527476D01*
X10643095Y-15517952D01*
X10633571Y-15498905D01*
X10633571Y-15422714D01*
X10643095Y-15403667D01*
X10662143Y-15394143D01*
X10700238Y-15394143D01*
X10719286Y-15403667D01*
X10728810Y-15422714D01*
X10728810Y-15441762D01*
X10633571Y-15460809D01*
X10805000Y-15517952D02*
X10824048Y-15527476D01*
X10862143Y-15527476D01*
X10881190Y-15517952D01*
X10890714Y-15498905D01*
X10890714Y-15489381D01*
X10881190Y-15470333D01*
X10862143Y-15460809D01*
X10833571Y-15460809D01*
X10814524Y-15451286D01*
X10805000Y-15432238D01*
X10805000Y-15422714D01*
X10814524Y-15403667D01*
X10833571Y-15394143D01*
X10862143Y-15394143D01*
X10881190Y-15403667D01*
X10957381Y-15603667D02*
X10966905Y-15594143D01*
X10985952Y-15565571D01*
X10995476Y-15546524D01*
X11005000Y-15517952D01*
X11014524Y-15470333D01*
X11014524Y-15432238D01*
X11005000Y-15384619D01*
X10995476Y-15356048D01*
X10985952Y-15337000D01*
X10966905Y-15308428D01*
X10957381Y-15298905D01*
D10*
X5945000Y-15751000D02*
X5995000Y-15701000D01*
X5945000Y-15651000D01*
X5895000Y-15701000D01*
X5945000Y-15751000D01*
D11*
X6357381Y-15791476D02*
X6243095Y-15791476D01*
X6300238Y-15791476D02*
X6300238Y-15591476D01*
X6281190Y-15620048D01*
X6262143Y-15639095D01*
X6243095Y-15648619D01*
X6443095Y-15772428D02*
X6452619Y-15781952D01*
X6443095Y-15791476D01*
X6433571Y-15781952D01*
X6443095Y-15772428D01*
X6443095Y-15791476D01*
X6576428Y-15591476D02*
X6595476Y-15591476D01*
X6614524Y-15601000D01*
X6624048Y-15610524D01*
X6633571Y-15629571D01*
X6643095Y-15667667D01*
X6643095Y-15715286D01*
X6633571Y-15753381D01*
X6624048Y-15772428D01*
X6614524Y-15781952D01*
X6595476Y-15791476D01*
X6576428Y-15791476D01*
X6557381Y-15781952D01*
X6547857Y-15772428D01*
X6538333Y-15753381D01*
X6528809Y-15715286D01*
X6528809Y-15667667D01*
X6538333Y-15629571D01*
X6547857Y-15610524D01*
X6557381Y-15601000D01*
X6576428Y-15591476D01*
X6766905Y-15591476D02*
X6785952Y-15591476D01*
X6805000Y-15601000D01*
X6814524Y-15610524D01*
X6824048Y-15629571D01*
X6833571Y-15667667D01*
X6833571Y-15715286D01*
X6824048Y-15753381D01*
X6814524Y-15772428D01*
X6805000Y-15781952D01*
X6785952Y-15791476D01*
X6766905Y-15791476D01*
X6747857Y-15781952D01*
X6738333Y-15772428D01*
X6728809Y-15753381D01*
X6719286Y-15715286D01*
X6719286Y-15667667D01*
X6728809Y-15629571D01*
X6738333Y-15610524D01*
X6747857Y-15601000D01*
X6766905Y-15591476D01*
X6957381Y-15591476D02*
X6976428Y-15591476D01*
X6995476Y-15601000D01*
X7005000Y-15610524D01*
X7014524Y-15629571D01*
X7024048Y-15667667D01*
X7024048Y-15715286D01*
X7014524Y-15753381D01*
X7005000Y-15772428D01*
X6995476Y-15781952D01*
X6976428Y-15791476D01*
X6957381Y-15791476D01*
X6938333Y-15781952D01*
X6928809Y-15772428D01*
X6919286Y-15753381D01*
X6909762Y-15715286D01*
X6909762Y-15667667D01*
X6919286Y-15629571D01*
X6928809Y-15610524D01*
X6938333Y-15601000D01*
X6957381Y-15591476D01*
X7109762Y-15791476D02*
X7109762Y-15658143D01*
X7109762Y-15677190D02*
X7119286Y-15667667D01*
X7138333Y-15658143D01*
X7166905Y-15658143D01*
X7185952Y-15667667D01*
X7195476Y-15686714D01*
X7195476Y-15791476D01*
X7195476Y-15686714D02*
X7205000Y-15667667D01*
X7224048Y-15658143D01*
X7252619Y-15658143D01*
X7271667Y-15667667D01*
X7281190Y-15686714D01*
X7281190Y-15791476D01*
X7376428Y-15791476D02*
X7376428Y-15658143D01*
X7376428Y-15677190D02*
X7385952Y-15667667D01*
X7405000Y-15658143D01*
X7433571Y-15658143D01*
X7452619Y-15667667D01*
X7462143Y-15686714D01*
X7462143Y-15791476D01*
X7462143Y-15686714D02*
X7471667Y-15667667D01*
X7490714Y-15658143D01*
X7519286Y-15658143D01*
X7538333Y-15667667D01*
X7547857Y-15686714D01*
X7547857Y-15791476D01*
X7938333Y-15581952D02*
X7766905Y-15839095D01*
X8195476Y-15591476D02*
X8214524Y-15591476D01*
X8233571Y-15601000D01*
X8243095Y-15610524D01*
X8252619Y-15629571D01*
X8262143Y-15667667D01*
X8262143Y-15715286D01*
X8252619Y-15753381D01*
X8243095Y-15772428D01*
X8233571Y-15781952D01*
X8214524Y-15791476D01*
X8195476Y-15791476D01*
X8176428Y-15781952D01*
X8166905Y-15772428D01*
X8157381Y-15753381D01*
X8147857Y-15715286D01*
X8147857Y-15667667D01*
X8157381Y-15629571D01*
X8166905Y-15610524D01*
X8176428Y-15601000D01*
X8195476Y-15591476D01*
X8347857Y-15772428D02*
X8357381Y-15781952D01*
X8347857Y-15791476D01*
X8338333Y-15781952D01*
X8347857Y-15772428D01*
X8347857Y-15791476D01*
X8481190Y-15591476D02*
X8500238Y-15591476D01*
X8519286Y-15601000D01*
X8528810Y-15610524D01*
X8538333Y-15629571D01*
X8547857Y-15667667D01*
X8547857Y-15715286D01*
X8538333Y-15753381D01*
X8528810Y-15772428D01*
X8519286Y-15781952D01*
X8500238Y-15791476D01*
X8481190Y-15791476D01*
X8462143Y-15781952D01*
X8452619Y-15772428D01*
X8443095Y-15753381D01*
X8433571Y-15715286D01*
X8433571Y-15667667D01*
X8443095Y-15629571D01*
X8452619Y-15610524D01*
X8462143Y-15601000D01*
X8481190Y-15591476D01*
X8614524Y-15591476D02*
X8738333Y-15591476D01*
X8671667Y-15667667D01*
X8700238Y-15667667D01*
X8719286Y-15677190D01*
X8728810Y-15686714D01*
X8738333Y-15705762D01*
X8738333Y-15753381D01*
X8728810Y-15772428D01*
X8719286Y-15781952D01*
X8700238Y-15791476D01*
X8643095Y-15791476D01*
X8624048Y-15781952D01*
X8614524Y-15772428D01*
X8833571Y-15791476D02*
X8871667Y-15791476D01*
X8890714Y-15781952D01*
X8900238Y-15772428D01*
X8919286Y-15743857D01*
X8928810Y-15705762D01*
X8928810Y-15629571D01*
X8919286Y-15610524D01*
X8909762Y-15601000D01*
X8890714Y-15591476D01*
X8852619Y-15591476D01*
X8833571Y-15601000D01*
X8824048Y-15610524D01*
X8814524Y-15629571D01*
X8814524Y-15677190D01*
X8824048Y-15696238D01*
X8833571Y-15705762D01*
X8852619Y-15715286D01*
X8890714Y-15715286D01*
X8909762Y-15705762D01*
X8919286Y-15696238D01*
X8928810Y-15677190D01*
X9100238Y-15658143D02*
X9100238Y-15791476D01*
X9052619Y-15581952D02*
X9005000Y-15724809D01*
X9128810Y-15724809D01*
X9195476Y-15591476D02*
X9195476Y-15629571D01*
X9271667Y-15591476D02*
X9271667Y-15629571D01*
X9566905Y-15867667D02*
X9557381Y-15858143D01*
X9538333Y-15829571D01*
X9528810Y-15810524D01*
X9519286Y-15781952D01*
X9509762Y-15734333D01*
X9509762Y-15696238D01*
X9519286Y-15648619D01*
X9528810Y-15620048D01*
X9538333Y-15601000D01*
X9557381Y-15572428D01*
X9566905Y-15562905D01*
X9728810Y-15591476D02*
X9690714Y-15591476D01*
X9671667Y-15601000D01*
X9662143Y-15610524D01*
X9643095Y-15639095D01*
X9633571Y-15677190D01*
X9633571Y-15753381D01*
X9643095Y-15772428D01*
X9652619Y-15781952D01*
X9671667Y-15791476D01*
X9709762Y-15791476D01*
X9728810Y-15781952D01*
X9738333Y-15772428D01*
X9747857Y-15753381D01*
X9747857Y-15705762D01*
X9738333Y-15686714D01*
X9728810Y-15677190D01*
X9709762Y-15667667D01*
X9671667Y-15667667D01*
X9652619Y-15677190D01*
X9643095Y-15686714D01*
X9633571Y-15705762D01*
X9814524Y-15591476D02*
X9938333Y-15591476D01*
X9871667Y-15667667D01*
X9900238Y-15667667D01*
X9919286Y-15677190D01*
X9928810Y-15686714D01*
X9938333Y-15705762D01*
X9938333Y-15753381D01*
X9928810Y-15772428D01*
X9919286Y-15781952D01*
X9900238Y-15791476D01*
X9843095Y-15791476D01*
X9824048Y-15781952D01*
X9814524Y-15772428D01*
X10176429Y-15791476D02*
X10176429Y-15591476D01*
X10262143Y-15791476D02*
X10262143Y-15686714D01*
X10252619Y-15667667D01*
X10233571Y-15658143D01*
X10205000Y-15658143D01*
X10185952Y-15667667D01*
X10176429Y-15677190D01*
X10385952Y-15791476D02*
X10366905Y-15781952D01*
X10357381Y-15772428D01*
X10347857Y-15753381D01*
X10347857Y-15696238D01*
X10357381Y-15677190D01*
X10366905Y-15667667D01*
X10385952Y-15658143D01*
X10414524Y-15658143D01*
X10433571Y-15667667D01*
X10443095Y-15677190D01*
X10452619Y-15696238D01*
X10452619Y-15753381D01*
X10443095Y-15772428D01*
X10433571Y-15781952D01*
X10414524Y-15791476D01*
X10385952Y-15791476D01*
X10566905Y-15791476D02*
X10547857Y-15781952D01*
X10538333Y-15762905D01*
X10538333Y-15591476D01*
X10719286Y-15781952D02*
X10700238Y-15791476D01*
X10662143Y-15791476D01*
X10643095Y-15781952D01*
X10633571Y-15762905D01*
X10633571Y-15686714D01*
X10643095Y-15667667D01*
X10662143Y-15658143D01*
X10700238Y-15658143D01*
X10719286Y-15667667D01*
X10728810Y-15686714D01*
X10728810Y-15705762D01*
X10633571Y-15724809D01*
X10805000Y-15781952D02*
X10824048Y-15791476D01*
X10862143Y-15791476D01*
X10881190Y-15781952D01*
X10890714Y-15762905D01*
X10890714Y-15753381D01*
X10881190Y-15734333D01*
X10862143Y-15724809D01*
X10833571Y-15724809D01*
X10814524Y-15715286D01*
X10805000Y-15696238D01*
X10805000Y-15686714D01*
X10814524Y-15667667D01*
X10833571Y-15658143D01*
X10862143Y-15658143D01*
X10881190Y-15667667D01*
X11128810Y-15715286D02*
X11281190Y-15715286D01*
X11205000Y-15791476D02*
X11205000Y-15639095D01*
X11519286Y-15610524D02*
X11528809Y-15601000D01*
X11547857Y-15591476D01*
X11595476Y-15591476D01*
X11614524Y-15601000D01*
X11624048Y-15610524D01*
X11633571Y-15629571D01*
X11633571Y-15648619D01*
X11624048Y-15677190D01*
X11509762Y-15791476D01*
X11633571Y-15791476D01*
X11862143Y-15781952D02*
X11881190Y-15791476D01*
X11919286Y-15791476D01*
X11938333Y-15781952D01*
X11947857Y-15762905D01*
X11947857Y-15753381D01*
X11938333Y-15734333D01*
X11919286Y-15724809D01*
X11890714Y-15724809D01*
X11871667Y-15715286D01*
X11862143Y-15696238D01*
X11862143Y-15686714D01*
X11871667Y-15667667D01*
X11890714Y-15658143D01*
X11919286Y-15658143D01*
X11938333Y-15667667D01*
X12062143Y-15791476D02*
X12043095Y-15781952D01*
X12033571Y-15762905D01*
X12033571Y-15591476D01*
X12166905Y-15791476D02*
X12147857Y-15781952D01*
X12138333Y-15772428D01*
X12128809Y-15753381D01*
X12128809Y-15696238D01*
X12138333Y-15677190D01*
X12147857Y-15667667D01*
X12166905Y-15658143D01*
X12195476Y-15658143D01*
X12214524Y-15667667D01*
X12224048Y-15677190D01*
X12233571Y-15696238D01*
X12233571Y-15753381D01*
X12224048Y-15772428D01*
X12214524Y-15781952D01*
X12195476Y-15791476D01*
X12166905Y-15791476D01*
X12290714Y-15658143D02*
X12366905Y-15658143D01*
X12319286Y-15591476D02*
X12319286Y-15762905D01*
X12328809Y-15781952D01*
X12347857Y-15791476D01*
X12366905Y-15791476D01*
X12424048Y-15781952D02*
X12443095Y-15791476D01*
X12481190Y-15791476D01*
X12500238Y-15781952D01*
X12509762Y-15762905D01*
X12509762Y-15753381D01*
X12500238Y-15734333D01*
X12481190Y-15724809D01*
X12452619Y-15724809D01*
X12433571Y-15715286D01*
X12424048Y-15696238D01*
X12424048Y-15686714D01*
X12433571Y-15667667D01*
X12452619Y-15658143D01*
X12481190Y-15658143D01*
X12500238Y-15667667D01*
X12576428Y-15867667D02*
X12585952Y-15858143D01*
X12605000Y-15829571D01*
X12614524Y-15810524D01*
X12624048Y-15781952D01*
X12633571Y-15734333D01*
X12633571Y-15696238D01*
X12624048Y-15648619D01*
X12614524Y-15620048D01*
X12605000Y-15601000D01*
X12585952Y-15572428D01*
X12576428Y-15562905D01*
D16*
X5835000Y-15885000D02*
X5995000Y-16045000D01*
X5995000Y-15885000D02*
X5835000Y-16045000D01*
X5995000Y-15965000D02*
G75*
G03*
X5995000Y-15965000I-80000J0D01*
G01*
D11*
X6357381Y-16055476D02*
X6243095Y-16055476D01*
X6300238Y-16055476D02*
X6300238Y-15855476D01*
X6281190Y-15884048D01*
X6262143Y-15903095D01*
X6243095Y-15912619D01*
X6443095Y-16036428D02*
X6452619Y-16045952D01*
X6443095Y-16055476D01*
X6433571Y-16045952D01*
X6443095Y-16036428D01*
X6443095Y-16055476D01*
X6624048Y-15855476D02*
X6585952Y-15855476D01*
X6566905Y-15865000D01*
X6557381Y-15874524D01*
X6538333Y-15903095D01*
X6528809Y-15941190D01*
X6528809Y-16017381D01*
X6538333Y-16036428D01*
X6547857Y-16045952D01*
X6566905Y-16055476D01*
X6605000Y-16055476D01*
X6624048Y-16045952D01*
X6633571Y-16036428D01*
X6643095Y-16017381D01*
X6643095Y-15969762D01*
X6633571Y-15950714D01*
X6624048Y-15941190D01*
X6605000Y-15931667D01*
X6566905Y-15931667D01*
X6547857Y-15941190D01*
X6538333Y-15950714D01*
X6528809Y-15969762D01*
X6766905Y-15855476D02*
X6785952Y-15855476D01*
X6805000Y-15865000D01*
X6814524Y-15874524D01*
X6824048Y-15893571D01*
X6833571Y-15931667D01*
X6833571Y-15979286D01*
X6824048Y-16017381D01*
X6814524Y-16036428D01*
X6805000Y-16045952D01*
X6785952Y-16055476D01*
X6766905Y-16055476D01*
X6747857Y-16045952D01*
X6738333Y-16036428D01*
X6728809Y-16017381D01*
X6719286Y-15979286D01*
X6719286Y-15931667D01*
X6728809Y-15893571D01*
X6738333Y-15874524D01*
X6747857Y-15865000D01*
X6766905Y-15855476D01*
X6957381Y-15855476D02*
X6976428Y-15855476D01*
X6995476Y-15865000D01*
X7005000Y-15874524D01*
X7014524Y-15893571D01*
X7024048Y-15931667D01*
X7024048Y-15979286D01*
X7014524Y-16017381D01*
X7005000Y-16036428D01*
X6995476Y-16045952D01*
X6976428Y-16055476D01*
X6957381Y-16055476D01*
X6938333Y-16045952D01*
X6928809Y-16036428D01*
X6919286Y-16017381D01*
X6909762Y-15979286D01*
X6909762Y-15931667D01*
X6919286Y-15893571D01*
X6928809Y-15874524D01*
X6938333Y-15865000D01*
X6957381Y-15855476D01*
X7109762Y-16055476D02*
X7109762Y-15922143D01*
X7109762Y-15941190D02*
X7119286Y-15931667D01*
X7138333Y-15922143D01*
X7166905Y-15922143D01*
X7185952Y-15931667D01*
X7195476Y-15950714D01*
X7195476Y-16055476D01*
X7195476Y-15950714D02*
X7205000Y-15931667D01*
X7224048Y-15922143D01*
X7252619Y-15922143D01*
X7271667Y-15931667D01*
X7281190Y-15950714D01*
X7281190Y-16055476D01*
X7376428Y-16055476D02*
X7376428Y-15922143D01*
X7376428Y-15941190D02*
X7385952Y-15931667D01*
X7405000Y-15922143D01*
X7433571Y-15922143D01*
X7452619Y-15931667D01*
X7462143Y-15950714D01*
X7462143Y-16055476D01*
X7462143Y-15950714D02*
X7471667Y-15931667D01*
X7490714Y-15922143D01*
X7519286Y-15922143D01*
X7538333Y-15931667D01*
X7547857Y-15950714D01*
X7547857Y-16055476D01*
X7938333Y-15845952D02*
X7766905Y-16103095D01*
X8195476Y-15855476D02*
X8214524Y-15855476D01*
X8233571Y-15865000D01*
X8243095Y-15874524D01*
X8252619Y-15893571D01*
X8262143Y-15931667D01*
X8262143Y-15979286D01*
X8252619Y-16017381D01*
X8243095Y-16036428D01*
X8233571Y-16045952D01*
X8214524Y-16055476D01*
X8195476Y-16055476D01*
X8176428Y-16045952D01*
X8166905Y-16036428D01*
X8157381Y-16017381D01*
X8147857Y-15979286D01*
X8147857Y-15931667D01*
X8157381Y-15893571D01*
X8166905Y-15874524D01*
X8176428Y-15865000D01*
X8195476Y-15855476D01*
X8347857Y-16036428D02*
X8357381Y-16045952D01*
X8347857Y-16055476D01*
X8338333Y-16045952D01*
X8347857Y-16036428D01*
X8347857Y-16055476D01*
X8481190Y-15855476D02*
X8500238Y-15855476D01*
X8519286Y-15865000D01*
X8528810Y-15874524D01*
X8538333Y-15893571D01*
X8547857Y-15931667D01*
X8547857Y-15979286D01*
X8538333Y-16017381D01*
X8528810Y-16036428D01*
X8519286Y-16045952D01*
X8500238Y-16055476D01*
X8481190Y-16055476D01*
X8462143Y-16045952D01*
X8452619Y-16036428D01*
X8443095Y-16017381D01*
X8433571Y-15979286D01*
X8433571Y-15931667D01*
X8443095Y-15893571D01*
X8452619Y-15874524D01*
X8462143Y-15865000D01*
X8481190Y-15855476D01*
X8719286Y-15855476D02*
X8681190Y-15855476D01*
X8662143Y-15865000D01*
X8652619Y-15874524D01*
X8633571Y-15903095D01*
X8624048Y-15941190D01*
X8624048Y-16017381D01*
X8633571Y-16036428D01*
X8643095Y-16045952D01*
X8662143Y-16055476D01*
X8700238Y-16055476D01*
X8719286Y-16045952D01*
X8728810Y-16036428D01*
X8738333Y-16017381D01*
X8738333Y-15969762D01*
X8728810Y-15950714D01*
X8719286Y-15941190D01*
X8700238Y-15931667D01*
X8662143Y-15931667D01*
X8643095Y-15941190D01*
X8633571Y-15950714D01*
X8624048Y-15969762D01*
X8805000Y-15855476D02*
X8928810Y-15855476D01*
X8862143Y-15931667D01*
X8890714Y-15931667D01*
X8909762Y-15941190D01*
X8919286Y-15950714D01*
X8928810Y-15969762D01*
X8928810Y-16017381D01*
X8919286Y-16036428D01*
X8909762Y-16045952D01*
X8890714Y-16055476D01*
X8833571Y-16055476D01*
X8814524Y-16045952D01*
X8805000Y-16036428D01*
X9052619Y-15855476D02*
X9071667Y-15855476D01*
X9090714Y-15865000D01*
X9100238Y-15874524D01*
X9109762Y-15893571D01*
X9119286Y-15931667D01*
X9119286Y-15979286D01*
X9109762Y-16017381D01*
X9100238Y-16036428D01*
X9090714Y-16045952D01*
X9071667Y-16055476D01*
X9052619Y-16055476D01*
X9033571Y-16045952D01*
X9024048Y-16036428D01*
X9014524Y-16017381D01*
X9005000Y-15979286D01*
X9005000Y-15931667D01*
X9014524Y-15893571D01*
X9024048Y-15874524D01*
X9033571Y-15865000D01*
X9052619Y-15855476D01*
X9195476Y-15855476D02*
X9195476Y-15893571D01*
X9271667Y-15855476D02*
X9271667Y-15893571D01*
X9566905Y-16131667D02*
X9557381Y-16122143D01*
X9538333Y-16093571D01*
X9528810Y-16074524D01*
X9519286Y-16045952D01*
X9509762Y-15998333D01*
X9509762Y-15960238D01*
X9519286Y-15912619D01*
X9528810Y-15884048D01*
X9538333Y-15865000D01*
X9557381Y-15836428D01*
X9566905Y-15826905D01*
X9633571Y-15874524D02*
X9643095Y-15865000D01*
X9662143Y-15855476D01*
X9709762Y-15855476D01*
X9728810Y-15865000D01*
X9738333Y-15874524D01*
X9747857Y-15893571D01*
X9747857Y-15912619D01*
X9738333Y-15941190D01*
X9624048Y-16055476D01*
X9747857Y-16055476D01*
X9985952Y-16055476D02*
X9985952Y-15855476D01*
X10071667Y-16055476D02*
X10071667Y-15950714D01*
X10062143Y-15931667D01*
X10043095Y-15922143D01*
X10014524Y-15922143D01*
X9995476Y-15931667D01*
X9985952Y-15941190D01*
X10195476Y-16055476D02*
X10176429Y-16045952D01*
X10166905Y-16036428D01*
X10157381Y-16017381D01*
X10157381Y-15960238D01*
X10166905Y-15941190D01*
X10176429Y-15931667D01*
X10195476Y-15922143D01*
X10224048Y-15922143D01*
X10243095Y-15931667D01*
X10252619Y-15941190D01*
X10262143Y-15960238D01*
X10262143Y-16017381D01*
X10252619Y-16036428D01*
X10243095Y-16045952D01*
X10224048Y-16055476D01*
X10195476Y-16055476D01*
X10376429Y-16055476D02*
X10357381Y-16045952D01*
X10347857Y-16026905D01*
X10347857Y-15855476D01*
X10528810Y-16045952D02*
X10509762Y-16055476D01*
X10471667Y-16055476D01*
X10452619Y-16045952D01*
X10443095Y-16026905D01*
X10443095Y-15950714D01*
X10452619Y-15931667D01*
X10471667Y-15922143D01*
X10509762Y-15922143D01*
X10528810Y-15931667D01*
X10538333Y-15950714D01*
X10538333Y-15969762D01*
X10443095Y-15988809D01*
X10614524Y-16045952D02*
X10633571Y-16055476D01*
X10671667Y-16055476D01*
X10690714Y-16045952D01*
X10700238Y-16026905D01*
X10700238Y-16017381D01*
X10690714Y-15998333D01*
X10671667Y-15988809D01*
X10643095Y-15988809D01*
X10624048Y-15979286D01*
X10614524Y-15960238D01*
X10614524Y-15950714D01*
X10624048Y-15931667D01*
X10643095Y-15922143D01*
X10671667Y-15922143D01*
X10690714Y-15931667D01*
X10766905Y-16131667D02*
X10776429Y-16122143D01*
X10795476Y-16093571D01*
X10805000Y-16074524D01*
X10814524Y-16045952D01*
X10824048Y-15998333D01*
X10824048Y-15960238D01*
X10814524Y-15912619D01*
X10805000Y-15884048D01*
X10795476Y-15865000D01*
X10776429Y-15836428D01*
X10766905Y-15826905D01*
X5795000Y-16145000D02*
X5995000Y-16345000D01*
X5995000Y-16145000D02*
X5795000Y-16345000D01*
X5895000Y-16145000D02*
X5895000Y-16345000D01*
X5795000Y-16245000D02*
X5995000Y-16245000D01*
X6243095Y-16154524D02*
X6252619Y-16145000D01*
X6271667Y-16135476D01*
X6319286Y-16135476D01*
X6338333Y-16145000D01*
X6347857Y-16154524D01*
X6357381Y-16173571D01*
X6357381Y-16192619D01*
X6347857Y-16221190D01*
X6233571Y-16335476D01*
X6357381Y-16335476D01*
X6443095Y-16316428D02*
X6452619Y-16325952D01*
X6443095Y-16335476D01*
X6433571Y-16325952D01*
X6443095Y-16316428D01*
X6443095Y-16335476D01*
X6576428Y-16135476D02*
X6595476Y-16135476D01*
X6614524Y-16145000D01*
X6624048Y-16154524D01*
X6633571Y-16173571D01*
X6643095Y-16211667D01*
X6643095Y-16259286D01*
X6633571Y-16297381D01*
X6624048Y-16316428D01*
X6614524Y-16325952D01*
X6595476Y-16335476D01*
X6576428Y-16335476D01*
X6557381Y-16325952D01*
X6547857Y-16316428D01*
X6538333Y-16297381D01*
X6528809Y-16259286D01*
X6528809Y-16211667D01*
X6538333Y-16173571D01*
X6547857Y-16154524D01*
X6557381Y-16145000D01*
X6576428Y-16135476D01*
X6766905Y-16135476D02*
X6785952Y-16135476D01*
X6805000Y-16145000D01*
X6814524Y-16154524D01*
X6824048Y-16173571D01*
X6833571Y-16211667D01*
X6833571Y-16259286D01*
X6824048Y-16297381D01*
X6814524Y-16316428D01*
X6805000Y-16325952D01*
X6785952Y-16335476D01*
X6766905Y-16335476D01*
X6747857Y-16325952D01*
X6738333Y-16316428D01*
X6728809Y-16297381D01*
X6719286Y-16259286D01*
X6719286Y-16211667D01*
X6728809Y-16173571D01*
X6738333Y-16154524D01*
X6747857Y-16145000D01*
X6766905Y-16135476D01*
X6957381Y-16135476D02*
X6976428Y-16135476D01*
X6995476Y-16145000D01*
X7005000Y-16154524D01*
X7014524Y-16173571D01*
X7024048Y-16211667D01*
X7024048Y-16259286D01*
X7014524Y-16297381D01*
X7005000Y-16316428D01*
X6995476Y-16325952D01*
X6976428Y-16335476D01*
X6957381Y-16335476D01*
X6938333Y-16325952D01*
X6928809Y-16316428D01*
X6919286Y-16297381D01*
X6909762Y-16259286D01*
X6909762Y-16211667D01*
X6919286Y-16173571D01*
X6928809Y-16154524D01*
X6938333Y-16145000D01*
X6957381Y-16135476D01*
X7109762Y-16335476D02*
X7109762Y-16202143D01*
X7109762Y-16221190D02*
X7119286Y-16211667D01*
X7138333Y-16202143D01*
X7166905Y-16202143D01*
X7185952Y-16211667D01*
X7195476Y-16230714D01*
X7195476Y-16335476D01*
X7195476Y-16230714D02*
X7205000Y-16211667D01*
X7224048Y-16202143D01*
X7252619Y-16202143D01*
X7271667Y-16211667D01*
X7281190Y-16230714D01*
X7281190Y-16335476D01*
X7376428Y-16335476D02*
X7376428Y-16202143D01*
X7376428Y-16221190D02*
X7385952Y-16211667D01*
X7405000Y-16202143D01*
X7433571Y-16202143D01*
X7452619Y-16211667D01*
X7462143Y-16230714D01*
X7462143Y-16335476D01*
X7462143Y-16230714D02*
X7471667Y-16211667D01*
X7490714Y-16202143D01*
X7519286Y-16202143D01*
X7538333Y-16211667D01*
X7547857Y-16230714D01*
X7547857Y-16335476D01*
X7938333Y-16125952D02*
X7766905Y-16383095D01*
X8195476Y-16135476D02*
X8214524Y-16135476D01*
X8233571Y-16145000D01*
X8243095Y-16154524D01*
X8252619Y-16173571D01*
X8262143Y-16211667D01*
X8262143Y-16259286D01*
X8252619Y-16297381D01*
X8243095Y-16316428D01*
X8233571Y-16325952D01*
X8214524Y-16335476D01*
X8195476Y-16335476D01*
X8176428Y-16325952D01*
X8166905Y-16316428D01*
X8157381Y-16297381D01*
X8147857Y-16259286D01*
X8147857Y-16211667D01*
X8157381Y-16173571D01*
X8166905Y-16154524D01*
X8176428Y-16145000D01*
X8195476Y-16135476D01*
X8347857Y-16316428D02*
X8357381Y-16325952D01*
X8347857Y-16335476D01*
X8338333Y-16325952D01*
X8347857Y-16316428D01*
X8347857Y-16335476D01*
X8481190Y-16135476D02*
X8500238Y-16135476D01*
X8519286Y-16145000D01*
X8528810Y-16154524D01*
X8538333Y-16173571D01*
X8547857Y-16211667D01*
X8547857Y-16259286D01*
X8538333Y-16297381D01*
X8528810Y-16316428D01*
X8519286Y-16325952D01*
X8500238Y-16335476D01*
X8481190Y-16335476D01*
X8462143Y-16325952D01*
X8452619Y-16316428D01*
X8443095Y-16297381D01*
X8433571Y-16259286D01*
X8433571Y-16211667D01*
X8443095Y-16173571D01*
X8452619Y-16154524D01*
X8462143Y-16145000D01*
X8481190Y-16135476D01*
X8614524Y-16135476D02*
X8747857Y-16135476D01*
X8662143Y-16335476D01*
X8852619Y-16221190D02*
X8833571Y-16211667D01*
X8824048Y-16202143D01*
X8814524Y-16183095D01*
X8814524Y-16173571D01*
X8824048Y-16154524D01*
X8833571Y-16145000D01*
X8852619Y-16135476D01*
X8890714Y-16135476D01*
X8909762Y-16145000D01*
X8919286Y-16154524D01*
X8928810Y-16173571D01*
X8928810Y-16183095D01*
X8919286Y-16202143D01*
X8909762Y-16211667D01*
X8890714Y-16221190D01*
X8852619Y-16221190D01*
X8833571Y-16230714D01*
X8824048Y-16240238D01*
X8814524Y-16259286D01*
X8814524Y-16297381D01*
X8824048Y-16316428D01*
X8833571Y-16325952D01*
X8852619Y-16335476D01*
X8890714Y-16335476D01*
X8909762Y-16325952D01*
X8919286Y-16316428D01*
X8928810Y-16297381D01*
X8928810Y-16259286D01*
X8919286Y-16240238D01*
X8909762Y-16230714D01*
X8890714Y-16221190D01*
X8995476Y-16135476D02*
X9128810Y-16135476D01*
X9043095Y-16335476D01*
X9195476Y-16135476D02*
X9195476Y-16173571D01*
X9271667Y-16135476D02*
X9271667Y-16173571D01*
X9566905Y-16411667D02*
X9557381Y-16402143D01*
X9538333Y-16373571D01*
X9528810Y-16354524D01*
X9519286Y-16325952D01*
X9509762Y-16278333D01*
X9509762Y-16240238D01*
X9519286Y-16192619D01*
X9528810Y-16164048D01*
X9538333Y-16145000D01*
X9557381Y-16116428D01*
X9566905Y-16106905D01*
X9738333Y-16135476D02*
X9643095Y-16135476D01*
X9633571Y-16230714D01*
X9643095Y-16221190D01*
X9662143Y-16211667D01*
X9709762Y-16211667D01*
X9728810Y-16221190D01*
X9738333Y-16230714D01*
X9747857Y-16249762D01*
X9747857Y-16297381D01*
X9738333Y-16316428D01*
X9728810Y-16325952D01*
X9709762Y-16335476D01*
X9662143Y-16335476D01*
X9643095Y-16325952D01*
X9633571Y-16316428D01*
X9985952Y-16335476D02*
X9985952Y-16135476D01*
X10071667Y-16335476D02*
X10071667Y-16230714D01*
X10062143Y-16211667D01*
X10043095Y-16202143D01*
X10014524Y-16202143D01*
X9995476Y-16211667D01*
X9985952Y-16221190D01*
X10195476Y-16335476D02*
X10176429Y-16325952D01*
X10166905Y-16316428D01*
X10157381Y-16297381D01*
X10157381Y-16240238D01*
X10166905Y-16221190D01*
X10176429Y-16211667D01*
X10195476Y-16202143D01*
X10224048Y-16202143D01*
X10243095Y-16211667D01*
X10252619Y-16221190D01*
X10262143Y-16240238D01*
X10262143Y-16297381D01*
X10252619Y-16316428D01*
X10243095Y-16325952D01*
X10224048Y-16335476D01*
X10195476Y-16335476D01*
X10376429Y-16335476D02*
X10357381Y-16325952D01*
X10347857Y-16306905D01*
X10347857Y-16135476D01*
X10528810Y-16325952D02*
X10509762Y-16335476D01*
X10471667Y-16335476D01*
X10452619Y-16325952D01*
X10443095Y-16306905D01*
X10443095Y-16230714D01*
X10452619Y-16211667D01*
X10471667Y-16202143D01*
X10509762Y-16202143D01*
X10528810Y-16211667D01*
X10538333Y-16230714D01*
X10538333Y-16249762D01*
X10443095Y-16268809D01*
X10614524Y-16325952D02*
X10633571Y-16335476D01*
X10671667Y-16335476D01*
X10690714Y-16325952D01*
X10700238Y-16306905D01*
X10700238Y-16297381D01*
X10690714Y-16278333D01*
X10671667Y-16268809D01*
X10643095Y-16268809D01*
X10624048Y-16259286D01*
X10614524Y-16240238D01*
X10614524Y-16230714D01*
X10624048Y-16211667D01*
X10643095Y-16202143D01*
X10671667Y-16202143D01*
X10690714Y-16211667D01*
X10766905Y-16411667D02*
X10776429Y-16402143D01*
X10795476Y-16373571D01*
X10805000Y-16354524D01*
X10814524Y-16325952D01*
X10824048Y-16278333D01*
X10824048Y-16240238D01*
X10814524Y-16192619D01*
X10805000Y-16164048D01*
X10795476Y-16145000D01*
X10776429Y-16116428D01*
X10766905Y-16106905D01*
X5795000Y-16465000D02*
X5995000Y-16665000D01*
X5995000Y-16465000D02*
X5795000Y-16665000D01*
X5965711Y-16635711D02*
X5965711Y-16494289D01*
X5824289Y-16494289D01*
X5824289Y-16635711D01*
X5965711Y-16635711D01*
X6243095Y-16474524D02*
X6252619Y-16465000D01*
X6271667Y-16455476D01*
X6319286Y-16455476D01*
X6338333Y-16465000D01*
X6347857Y-16474524D01*
X6357381Y-16493571D01*
X6357381Y-16512619D01*
X6347857Y-16541190D01*
X6233571Y-16655476D01*
X6357381Y-16655476D01*
X6443095Y-16636428D02*
X6452619Y-16645952D01*
X6443095Y-16655476D01*
X6433571Y-16645952D01*
X6443095Y-16636428D01*
X6443095Y-16655476D01*
X6528809Y-16474524D02*
X6538333Y-16465000D01*
X6557381Y-16455476D01*
X6605000Y-16455476D01*
X6624048Y-16465000D01*
X6633571Y-16474524D01*
X6643095Y-16493571D01*
X6643095Y-16512619D01*
X6633571Y-16541190D01*
X6519286Y-16655476D01*
X6643095Y-16655476D01*
X6766905Y-16455476D02*
X6785952Y-16455476D01*
X6805000Y-16465000D01*
X6814524Y-16474524D01*
X6824048Y-16493571D01*
X6833571Y-16531667D01*
X6833571Y-16579286D01*
X6824048Y-16617381D01*
X6814524Y-16636428D01*
X6805000Y-16645952D01*
X6785952Y-16655476D01*
X6766905Y-16655476D01*
X6747857Y-16645952D01*
X6738333Y-16636428D01*
X6728809Y-16617381D01*
X6719286Y-16579286D01*
X6719286Y-16531667D01*
X6728809Y-16493571D01*
X6738333Y-16474524D01*
X6747857Y-16465000D01*
X6766905Y-16455476D01*
X6957381Y-16455476D02*
X6976428Y-16455476D01*
X6995476Y-16465000D01*
X7005000Y-16474524D01*
X7014524Y-16493571D01*
X7024048Y-16531667D01*
X7024048Y-16579286D01*
X7014524Y-16617381D01*
X7005000Y-16636428D01*
X6995476Y-16645952D01*
X6976428Y-16655476D01*
X6957381Y-16655476D01*
X6938333Y-16645952D01*
X6928809Y-16636428D01*
X6919286Y-16617381D01*
X6909762Y-16579286D01*
X6909762Y-16531667D01*
X6919286Y-16493571D01*
X6928809Y-16474524D01*
X6938333Y-16465000D01*
X6957381Y-16455476D01*
X7109762Y-16655476D02*
X7109762Y-16522143D01*
X7109762Y-16541190D02*
X7119286Y-16531667D01*
X7138333Y-16522143D01*
X7166905Y-16522143D01*
X7185952Y-16531667D01*
X7195476Y-16550714D01*
X7195476Y-16655476D01*
X7195476Y-16550714D02*
X7205000Y-16531667D01*
X7224048Y-16522143D01*
X7252619Y-16522143D01*
X7271667Y-16531667D01*
X7281190Y-16550714D01*
X7281190Y-16655476D01*
X7376428Y-16655476D02*
X7376428Y-16522143D01*
X7376428Y-16541190D02*
X7385952Y-16531667D01*
X7405000Y-16522143D01*
X7433571Y-16522143D01*
X7452619Y-16531667D01*
X7462143Y-16550714D01*
X7462143Y-16655476D01*
X7462143Y-16550714D02*
X7471667Y-16531667D01*
X7490714Y-16522143D01*
X7519286Y-16522143D01*
X7538333Y-16531667D01*
X7547857Y-16550714D01*
X7547857Y-16655476D01*
X7938333Y-16445952D02*
X7766905Y-16703095D01*
X8195476Y-16455476D02*
X8214524Y-16455476D01*
X8233571Y-16465000D01*
X8243095Y-16474524D01*
X8252619Y-16493571D01*
X8262143Y-16531667D01*
X8262143Y-16579286D01*
X8252619Y-16617381D01*
X8243095Y-16636428D01*
X8233571Y-16645952D01*
X8214524Y-16655476D01*
X8195476Y-16655476D01*
X8176428Y-16645952D01*
X8166905Y-16636428D01*
X8157381Y-16617381D01*
X8147857Y-16579286D01*
X8147857Y-16531667D01*
X8157381Y-16493571D01*
X8166905Y-16474524D01*
X8176428Y-16465000D01*
X8195476Y-16455476D01*
X8347857Y-16636428D02*
X8357381Y-16645952D01*
X8347857Y-16655476D01*
X8338333Y-16645952D01*
X8347857Y-16636428D01*
X8347857Y-16655476D01*
X8481190Y-16455476D02*
X8500238Y-16455476D01*
X8519286Y-16465000D01*
X8528810Y-16474524D01*
X8538333Y-16493571D01*
X8547857Y-16531667D01*
X8547857Y-16579286D01*
X8538333Y-16617381D01*
X8528810Y-16636428D01*
X8519286Y-16645952D01*
X8500238Y-16655476D01*
X8481190Y-16655476D01*
X8462143Y-16645952D01*
X8452619Y-16636428D01*
X8443095Y-16617381D01*
X8433571Y-16579286D01*
X8433571Y-16531667D01*
X8443095Y-16493571D01*
X8452619Y-16474524D01*
X8462143Y-16465000D01*
X8481190Y-16455476D01*
X8662143Y-16541190D02*
X8643095Y-16531667D01*
X8633571Y-16522143D01*
X8624048Y-16503095D01*
X8624048Y-16493571D01*
X8633571Y-16474524D01*
X8643095Y-16465000D01*
X8662143Y-16455476D01*
X8700238Y-16455476D01*
X8719286Y-16465000D01*
X8728810Y-16474524D01*
X8738333Y-16493571D01*
X8738333Y-16503095D01*
X8728810Y-16522143D01*
X8719286Y-16531667D01*
X8700238Y-16541190D01*
X8662143Y-16541190D01*
X8643095Y-16550714D01*
X8633571Y-16560238D01*
X8624048Y-16579286D01*
X8624048Y-16617381D01*
X8633571Y-16636428D01*
X8643095Y-16645952D01*
X8662143Y-16655476D01*
X8700238Y-16655476D01*
X8719286Y-16645952D01*
X8728810Y-16636428D01*
X8738333Y-16617381D01*
X8738333Y-16579286D01*
X8728810Y-16560238D01*
X8719286Y-16550714D01*
X8700238Y-16541190D01*
X8909762Y-16455476D02*
X8871667Y-16455476D01*
X8852619Y-16465000D01*
X8843095Y-16474524D01*
X8824048Y-16503095D01*
X8814524Y-16541190D01*
X8814524Y-16617381D01*
X8824048Y-16636428D01*
X8833571Y-16645952D01*
X8852619Y-16655476D01*
X8890714Y-16655476D01*
X8909762Y-16645952D01*
X8919286Y-16636428D01*
X8928810Y-16617381D01*
X8928810Y-16569762D01*
X8919286Y-16550714D01*
X8909762Y-16541190D01*
X8890714Y-16531667D01*
X8852619Y-16531667D01*
X8833571Y-16541190D01*
X8824048Y-16550714D01*
X8814524Y-16569762D01*
X9100238Y-16455476D02*
X9062143Y-16455476D01*
X9043095Y-16465000D01*
X9033571Y-16474524D01*
X9014524Y-16503095D01*
X9005000Y-16541190D01*
X9005000Y-16617381D01*
X9014524Y-16636428D01*
X9024048Y-16645952D01*
X9043095Y-16655476D01*
X9081190Y-16655476D01*
X9100238Y-16645952D01*
X9109762Y-16636428D01*
X9119286Y-16617381D01*
X9119286Y-16569762D01*
X9109762Y-16550714D01*
X9100238Y-16541190D01*
X9081190Y-16531667D01*
X9043095Y-16531667D01*
X9024048Y-16541190D01*
X9014524Y-16550714D01*
X9005000Y-16569762D01*
X9195476Y-16455476D02*
X9195476Y-16493571D01*
X9271667Y-16455476D02*
X9271667Y-16493571D01*
X9566905Y-16731667D02*
X9557381Y-16722143D01*
X9538333Y-16693571D01*
X9528810Y-16674524D01*
X9519286Y-16645952D01*
X9509762Y-16598333D01*
X9509762Y-16560238D01*
X9519286Y-16512619D01*
X9528810Y-16484048D01*
X9538333Y-16465000D01*
X9557381Y-16436428D01*
X9566905Y-16426905D01*
X9624048Y-16455476D02*
X9747857Y-16455476D01*
X9681190Y-16531667D01*
X9709762Y-16531667D01*
X9728810Y-16541190D01*
X9738333Y-16550714D01*
X9747857Y-16569762D01*
X9747857Y-16617381D01*
X9738333Y-16636428D01*
X9728810Y-16645952D01*
X9709762Y-16655476D01*
X9652619Y-16655476D01*
X9633571Y-16645952D01*
X9624048Y-16636428D01*
X9985952Y-16655476D02*
X9985952Y-16455476D01*
X10071667Y-16655476D02*
X10071667Y-16550714D01*
X10062143Y-16531667D01*
X10043095Y-16522143D01*
X10014524Y-16522143D01*
X9995476Y-16531667D01*
X9985952Y-16541190D01*
X10195476Y-16655476D02*
X10176429Y-16645952D01*
X10166905Y-16636428D01*
X10157381Y-16617381D01*
X10157381Y-16560238D01*
X10166905Y-16541190D01*
X10176429Y-16531667D01*
X10195476Y-16522143D01*
X10224048Y-16522143D01*
X10243095Y-16531667D01*
X10252619Y-16541190D01*
X10262143Y-16560238D01*
X10262143Y-16617381D01*
X10252619Y-16636428D01*
X10243095Y-16645952D01*
X10224048Y-16655476D01*
X10195476Y-16655476D01*
X10376429Y-16655476D02*
X10357381Y-16645952D01*
X10347857Y-16626905D01*
X10347857Y-16455476D01*
X10528810Y-16645952D02*
X10509762Y-16655476D01*
X10471667Y-16655476D01*
X10452619Y-16645952D01*
X10443095Y-16626905D01*
X10443095Y-16550714D01*
X10452619Y-16531667D01*
X10471667Y-16522143D01*
X10509762Y-16522143D01*
X10528810Y-16531667D01*
X10538333Y-16550714D01*
X10538333Y-16569762D01*
X10443095Y-16588809D01*
X10614524Y-16645952D02*
X10633571Y-16655476D01*
X10671667Y-16655476D01*
X10690714Y-16645952D01*
X10700238Y-16626905D01*
X10700238Y-16617381D01*
X10690714Y-16598333D01*
X10671667Y-16588809D01*
X10643095Y-16588809D01*
X10624048Y-16579286D01*
X10614524Y-16560238D01*
X10614524Y-16550714D01*
X10624048Y-16531667D01*
X10643095Y-16522143D01*
X10671667Y-16522143D01*
X10690714Y-16531667D01*
X10766905Y-16731667D02*
X10776429Y-16722143D01*
X10795476Y-16693571D01*
X10805000Y-16674524D01*
X10814524Y-16645952D01*
X10824048Y-16598333D01*
X10824048Y-16560238D01*
X10814524Y-16512619D01*
X10805000Y-16484048D01*
X10795476Y-16465000D01*
X10776429Y-16436428D01*
X10766905Y-16426905D01*
X5795000Y-16785000D02*
X5995000Y-16985000D01*
X5995000Y-16785000D02*
X5795000Y-16985000D01*
X5895000Y-16985000D02*
X5995000Y-16885000D01*
X5895000Y-16785000D01*
X5795000Y-16885000D01*
X5895000Y-16985000D01*
X6233571Y-16775476D02*
X6357381Y-16775476D01*
X6290714Y-16851667D01*
X6319286Y-16851667D01*
X6338333Y-16861190D01*
X6347857Y-16870714D01*
X6357381Y-16889762D01*
X6357381Y-16937381D01*
X6347857Y-16956429D01*
X6338333Y-16965952D01*
X6319286Y-16975476D01*
X6262143Y-16975476D01*
X6243095Y-16965952D01*
X6233571Y-16956429D01*
X6443095Y-16956429D02*
X6452619Y-16965952D01*
X6443095Y-16975476D01*
X6433571Y-16965952D01*
X6443095Y-16956429D01*
X6443095Y-16975476D01*
X6528809Y-16794524D02*
X6538333Y-16785000D01*
X6557381Y-16775476D01*
X6605000Y-16775476D01*
X6624048Y-16785000D01*
X6633571Y-16794524D01*
X6643095Y-16813571D01*
X6643095Y-16832619D01*
X6633571Y-16861190D01*
X6519286Y-16975476D01*
X6643095Y-16975476D01*
X6766905Y-16775476D02*
X6785952Y-16775476D01*
X6805000Y-16785000D01*
X6814524Y-16794524D01*
X6824048Y-16813571D01*
X6833571Y-16851667D01*
X6833571Y-16899286D01*
X6824048Y-16937381D01*
X6814524Y-16956429D01*
X6805000Y-16965952D01*
X6785952Y-16975476D01*
X6766905Y-16975476D01*
X6747857Y-16965952D01*
X6738333Y-16956429D01*
X6728809Y-16937381D01*
X6719286Y-16899286D01*
X6719286Y-16851667D01*
X6728809Y-16813571D01*
X6738333Y-16794524D01*
X6747857Y-16785000D01*
X6766905Y-16775476D01*
X6957381Y-16775476D02*
X6976428Y-16775476D01*
X6995476Y-16785000D01*
X7005000Y-16794524D01*
X7014524Y-16813571D01*
X7024048Y-16851667D01*
X7024048Y-16899286D01*
X7014524Y-16937381D01*
X7005000Y-16956429D01*
X6995476Y-16965952D01*
X6976428Y-16975476D01*
X6957381Y-16975476D01*
X6938333Y-16965952D01*
X6928809Y-16956429D01*
X6919286Y-16937381D01*
X6909762Y-16899286D01*
X6909762Y-16851667D01*
X6919286Y-16813571D01*
X6928809Y-16794524D01*
X6938333Y-16785000D01*
X6957381Y-16775476D01*
X7109762Y-16975476D02*
X7109762Y-16842143D01*
X7109762Y-16861190D02*
X7119286Y-16851667D01*
X7138333Y-16842143D01*
X7166905Y-16842143D01*
X7185952Y-16851667D01*
X7195476Y-16870714D01*
X7195476Y-16975476D01*
X7195476Y-16870714D02*
X7205000Y-16851667D01*
X7224048Y-16842143D01*
X7252619Y-16842143D01*
X7271667Y-16851667D01*
X7281190Y-16870714D01*
X7281190Y-16975476D01*
X7376428Y-16975476D02*
X7376428Y-16842143D01*
X7376428Y-16861190D02*
X7385952Y-16851667D01*
X7405000Y-16842143D01*
X7433571Y-16842143D01*
X7452619Y-16851667D01*
X7462143Y-16870714D01*
X7462143Y-16975476D01*
X7462143Y-16870714D02*
X7471667Y-16851667D01*
X7490714Y-16842143D01*
X7519286Y-16842143D01*
X7538333Y-16851667D01*
X7547857Y-16870714D01*
X7547857Y-16975476D01*
X7938333Y-16765952D02*
X7766905Y-17023095D01*
X8195476Y-16775476D02*
X8214524Y-16775476D01*
X8233571Y-16785000D01*
X8243095Y-16794524D01*
X8252619Y-16813571D01*
X8262143Y-16851667D01*
X8262143Y-16899286D01*
X8252619Y-16937381D01*
X8243095Y-16956429D01*
X8233571Y-16965952D01*
X8214524Y-16975476D01*
X8195476Y-16975476D01*
X8176428Y-16965952D01*
X8166905Y-16956429D01*
X8157381Y-16937381D01*
X8147857Y-16899286D01*
X8147857Y-16851667D01*
X8157381Y-16813571D01*
X8166905Y-16794524D01*
X8176428Y-16785000D01*
X8195476Y-16775476D01*
X8347857Y-16956429D02*
X8357381Y-16965952D01*
X8347857Y-16975476D01*
X8338333Y-16965952D01*
X8347857Y-16956429D01*
X8347857Y-16975476D01*
X8547857Y-16975476D02*
X8433571Y-16975476D01*
X8490714Y-16975476D02*
X8490714Y-16775476D01*
X8471667Y-16804048D01*
X8452619Y-16823095D01*
X8433571Y-16832619D01*
X8624048Y-16794524D02*
X8633571Y-16785000D01*
X8652619Y-16775476D01*
X8700238Y-16775476D01*
X8719286Y-16785000D01*
X8728810Y-16794524D01*
X8738333Y-16813571D01*
X8738333Y-16832619D01*
X8728810Y-16861190D01*
X8614524Y-16975476D01*
X8738333Y-16975476D01*
X8909762Y-16775476D02*
X8871667Y-16775476D01*
X8852619Y-16785000D01*
X8843095Y-16794524D01*
X8824048Y-16823095D01*
X8814524Y-16861190D01*
X8814524Y-16937381D01*
X8824048Y-16956429D01*
X8833571Y-16965952D01*
X8852619Y-16975476D01*
X8890714Y-16975476D01*
X8909762Y-16965952D01*
X8919286Y-16956429D01*
X8928810Y-16937381D01*
X8928810Y-16889762D01*
X8919286Y-16870714D01*
X8909762Y-16861190D01*
X8890714Y-16851667D01*
X8852619Y-16851667D01*
X8833571Y-16861190D01*
X8824048Y-16870714D01*
X8814524Y-16889762D01*
X9052619Y-16775476D02*
X9071667Y-16775476D01*
X9090714Y-16785000D01*
X9100238Y-16794524D01*
X9109762Y-16813571D01*
X9119286Y-16851667D01*
X9119286Y-16899286D01*
X9109762Y-16937381D01*
X9100238Y-16956429D01*
X9090714Y-16965952D01*
X9071667Y-16975476D01*
X9052619Y-16975476D01*
X9033571Y-16965952D01*
X9024048Y-16956429D01*
X9014524Y-16937381D01*
X9005000Y-16899286D01*
X9005000Y-16851667D01*
X9014524Y-16813571D01*
X9024048Y-16794524D01*
X9033571Y-16785000D01*
X9052619Y-16775476D01*
X9195476Y-16775476D02*
X9195476Y-16813571D01*
X9271667Y-16775476D02*
X9271667Y-16813571D01*
X9566905Y-17051667D02*
X9557381Y-17042143D01*
X9538333Y-17013571D01*
X9528810Y-16994524D01*
X9519286Y-16965952D01*
X9509762Y-16918333D01*
X9509762Y-16880238D01*
X9519286Y-16832619D01*
X9528810Y-16804048D01*
X9538333Y-16785000D01*
X9557381Y-16756428D01*
X9566905Y-16746905D01*
X9633571Y-16794524D02*
X9643095Y-16785000D01*
X9662143Y-16775476D01*
X9709762Y-16775476D01*
X9728810Y-16785000D01*
X9738333Y-16794524D01*
X9747857Y-16813571D01*
X9747857Y-16832619D01*
X9738333Y-16861190D01*
X9624048Y-16975476D01*
X9747857Y-16975476D01*
X9985952Y-16975476D02*
X9985952Y-16775476D01*
X10071667Y-16975476D02*
X10071667Y-16870714D01*
X10062143Y-16851667D01*
X10043095Y-16842143D01*
X10014524Y-16842143D01*
X9995476Y-16851667D01*
X9985952Y-16861190D01*
X10195476Y-16975476D02*
X10176429Y-16965952D01*
X10166905Y-16956429D01*
X10157381Y-16937381D01*
X10157381Y-16880238D01*
X10166905Y-16861190D01*
X10176429Y-16851667D01*
X10195476Y-16842143D01*
X10224048Y-16842143D01*
X10243095Y-16851667D01*
X10252619Y-16861190D01*
X10262143Y-16880238D01*
X10262143Y-16937381D01*
X10252619Y-16956429D01*
X10243095Y-16965952D01*
X10224048Y-16975476D01*
X10195476Y-16975476D01*
X10376429Y-16975476D02*
X10357381Y-16965952D01*
X10347857Y-16946905D01*
X10347857Y-16775476D01*
X10528810Y-16965952D02*
X10509762Y-16975476D01*
X10471667Y-16975476D01*
X10452619Y-16965952D01*
X10443095Y-16946905D01*
X10443095Y-16870714D01*
X10452619Y-16851667D01*
X10471667Y-16842143D01*
X10509762Y-16842143D01*
X10528810Y-16851667D01*
X10538333Y-16870714D01*
X10538333Y-16889762D01*
X10443095Y-16908810D01*
X10614524Y-16965952D02*
X10633571Y-16975476D01*
X10671667Y-16975476D01*
X10690714Y-16965952D01*
X10700238Y-16946905D01*
X10700238Y-16937381D01*
X10690714Y-16918333D01*
X10671667Y-16908810D01*
X10643095Y-16908810D01*
X10624048Y-16899286D01*
X10614524Y-16880238D01*
X10614524Y-16870714D01*
X10624048Y-16851667D01*
X10643095Y-16842143D01*
X10671667Y-16842143D01*
X10690714Y-16851667D01*
X10766905Y-17051667D02*
X10776429Y-17042143D01*
X10795476Y-17013571D01*
X10805000Y-16994524D01*
X10814524Y-16965952D01*
X10824048Y-16918333D01*
X10824048Y-16880238D01*
X10814524Y-16832619D01*
X10805000Y-16804048D01*
X10795476Y-16785000D01*
X10776429Y-16756428D01*
X10766905Y-16746905D01*
M02*
